M48
; DRILL file KiCad 10.0.4 date 2026-08-12T11:35:16
; FORMAT={-:-/ absolute / metric / decimal}
; #@! TF.CreationDate,2026-08-12T11:35:16+05:00
; #@! TF.GenerationSoftware,Kicad,Pcbnew,10.0.4
; #@! TF.FileFunction,Plated,1,2,PTH
FMAT,2
METRIC
; #@! TA.AperFunction,Plated,PTH,ViaDrill
T1C0.600
; #@! TA.AperFunction,Plated,PTH,ComponentDrill
T2C0.700
; #@! TA.AperFunction,Plated,PTH,ComponentDrill
T3C0.800
; #@! TA.AperFunction,Plated,PTH,ComponentDrill
T4C1.000
; #@! TA.AperFunction,Plated,PTH,ComponentDrill
T5C1.100
%
G90
G05
T1
X101.166Y-80.54
X101.926Y-76.846
X107.452Y-56.992
X113.45Y-55.188
X115.0Y-65.0
X116.0Y-66.0
X120.67Y-70.593
X124.998Y-65.924
X128.855Y-80.992
X130.323Y-81.074
X133.6Y-68.89
X152.551Y-56.551
X161.125Y-56.0
T2
X149.0Y-79.38
X149.0Y-87.0
X152.0Y-79.38
X152.0Y-87.0
X155.0Y-79.38
X155.0Y-87.0
X157.0Y-62.19
X157.0Y-69.81
X158.0Y-80.19
X158.0Y-87.81
X161.0Y-61.19
X161.0Y-68.81
T3
X119.46Y-79.38
X119.46Y-87.0
X119.76Y-67.38
X119.76Y-75.0
X122.0Y-79.38
X122.0Y-87.0
X122.3Y-67.38
X122.3Y-75.0
X124.54Y-79.38
X124.54Y-87.0
X124.84Y-67.38
X124.84Y-75.0
X127.08Y-79.38
X127.08Y-87.0
X127.38Y-67.38
X127.38Y-75.0
X129.62Y-79.38
X129.62Y-87.0
X129.92Y-67.38
X129.92Y-75.0
X132.16Y-79.38
X132.16Y-87.0
X132.46Y-67.38
X132.46Y-75.0
X134.7Y-79.38
X134.7Y-87.0
X135.0Y-67.38
X135.0Y-75.0
X137.24Y-79.38
X137.24Y-87.0
X137.54Y-67.38
X137.54Y-75.0
X139.78Y-79.38
X139.78Y-87.0
X140.08Y-67.38
X140.08Y-75.0
X142.32Y-79.38
X142.32Y-87.0
X142.62Y-67.38
X142.62Y-75.0
T4
X108.37Y-46.23
X108.37Y-48.77
X110.91Y-46.23
X110.91Y-48.77
X113.45Y-46.23
X113.45Y-48.77
X115.99Y-46.23
X115.99Y-48.77
X118.53Y-46.23
X118.53Y-48.77
X121.07Y-46.23
X121.07Y-48.77
X123.61Y-46.23
X123.61Y-48.77
X126.15Y-46.23
X126.15Y-48.77
X128.69Y-46.23
X128.69Y-48.77
X131.23Y-46.23
X131.23Y-48.77
X133.77Y-46.23
X133.77Y-48.77
X136.31Y-46.23
X136.31Y-48.77
X138.85Y-46.23
X138.85Y-48.77
X141.39Y-46.23
X141.39Y-48.77
X143.93Y-46.23
X143.93Y-48.77
X146.47Y-46.23
X146.47Y-48.77
X149.01Y-46.23
X149.01Y-48.77
X151.55Y-46.23
X151.55Y-48.77
X154.09Y-46.23
X154.09Y-48.77
X156.63Y-46.23
X156.63Y-48.77
T5
X88.54Y-64.92
X88.54Y-67.46
X88.54Y-70.0
X89.0Y-74.38
X89.0Y-76.92
X89.0Y-79.46
X89.0Y-82.0
X89.0Y-86.92
X89.0Y-89.46
X89.0Y-92.0
X89.0Y-94.54
X103.0Y-72.0
X105.54Y-72.0
X108.08Y-72.0
X114.92Y-96.0
X117.46Y-96.0
X120.0Y-96.0
X129.46Y-95.968
X132.0Y-95.968
X134.54Y-95.968
X148.0Y-96.0
X150.54Y-96.0
X153.08Y-96.0
X155.62Y-96.0
T4
G00X93.0Y-54.0
M15
G01X93.0Y-56.0
M16
G05
G00X95.0Y-59.7
M15
G01X97.0Y-59.7
M16
G05
G00X99.0Y-54.0
M15
G01X99.0Y-56.0
M16
G05
M30
