G04 #@! TF.GenerationSoftware,KiCad,Pcbnew,10.0.4*
G04 #@! TF.CreationDate,2026-08-17T19:12:08+05:00*
G04 #@! TF.ProjectId,hat,6861742e-6b69-4636-9164-5f7063625858,rev?*
G04 #@! TF.SameCoordinates,Original*
G04 #@! TF.FileFunction,Copper,L1,Top*
G04 #@! TF.FilePolarity,Positive*
%FSLAX46Y46*%
G04 Gerber Fmt 4.6, Leading zero omitted, Abs format (unit mm)*
G04 Created by KiCad (PCBNEW 10.0.4) date 2026-08-17 19:12:08*
%MOMM*%
%LPD*%
G01*
G04 APERTURE LIST*
G04 Aperture macros list*
%AMRoundRect*
0 Rectangle with rounded corners*
0 $1 Rounding radius*
0 $2 $3 $4 $5 $6 $7 $8 $9 X,Y pos of 4 corners*
0 Add a 4 corners polygon primitive as box body*
4,1,4,$2,$3,$4,$5,$6,$7,$8,$9,$2,$3,0*
0 Add four circle primitives for the rounded corners*
1,1,$1+$1,$2,$3*
1,1,$1+$1,$4,$5*
1,1,$1+$1,$6,$7*
1,1,$1+$1,$8,$9*
0 Add four rect primitives between the rounded corners*
20,1,$1+$1,$2,$3,$4,$5,0*
20,1,$1+$1,$4,$5,$6,$7,0*
20,1,$1+$1,$6,$7,$8,$9,0*
20,1,$1+$1,$8,$9,$2,$3,0*%
G04 Aperture macros list end*
G04 #@! TA.AperFunction,ComponentPad*
%ADD10RoundRect,0.249999X-0.850001X0.850001X-0.850001X-0.850001X0.850001X-0.850001X0.850001X0.850001X0*%
G04 #@! TD*
G04 #@! TA.AperFunction,ComponentPad*
%ADD11C,2.200000*%
G04 #@! TD*
G04 #@! TA.AperFunction,ComponentPad*
%ADD12RoundRect,0.249999X-0.850001X-0.850001X0.850001X-0.850001X0.850001X0.850001X-0.850001X0.850001X0*%
G04 #@! TD*
G04 #@! TA.AperFunction,ComponentPad*
%ADD13C,1.400000*%
G04 #@! TD*
G04 #@! TA.AperFunction,ComponentPad*
%ADD14RoundRect,0.250000X-0.550000X0.550000X-0.550000X-0.550000X0.550000X-0.550000X0.550000X0.550000X0*%
G04 #@! TD*
G04 #@! TA.AperFunction,ComponentPad*
%ADD15C,1.600000*%
G04 #@! TD*
G04 #@! TA.AperFunction,SMDPad,CuDef*
%ADD16RoundRect,0.150000X-0.512500X-0.150000X0.512500X-0.150000X0.512500X0.150000X-0.512500X0.150000X0*%
G04 #@! TD*
G04 #@! TA.AperFunction,SMDPad,CuDef*
%ADD17RoundRect,0.250000X0.650000X-0.325000X0.650000X0.325000X-0.650000X0.325000X-0.650000X-0.325000X0*%
G04 #@! TD*
G04 #@! TA.AperFunction,SMDPad,CuDef*
%ADD18RoundRect,0.075000X-0.650000X-0.075000X0.650000X-0.075000X0.650000X0.075000X-0.650000X0.075000X0*%
G04 #@! TD*
G04 #@! TA.AperFunction,SMDPad,CuDef*
%ADD19RoundRect,0.150000X-0.587500X-0.150000X0.587500X-0.150000X0.587500X0.150000X-0.587500X0.150000X0*%
G04 #@! TD*
G04 #@! TA.AperFunction,ComponentPad*
%ADD20R,1.905000X2.000000*%
G04 #@! TD*
G04 #@! TA.AperFunction,ComponentPad*
%ADD21O,1.905000X2.000000*%
G04 #@! TD*
G04 #@! TA.AperFunction,ComponentPad*
%ADD22R,3.500000X3.500000*%
G04 #@! TD*
G04 #@! TA.AperFunction,ComponentPad*
%ADD23RoundRect,0.750000X-0.750000X-1.000000X0.750000X-1.000000X0.750000X1.000000X-0.750000X1.000000X0*%
G04 #@! TD*
G04 #@! TA.AperFunction,ComponentPad*
%ADD24RoundRect,0.875000X-0.875000X-0.875000X0.875000X-0.875000X0.875000X0.875000X-0.875000X0.875000X0*%
G04 #@! TD*
G04 #@! TA.AperFunction,ComponentPad*
%ADD25R,1.700000X1.700000*%
G04 #@! TD*
G04 #@! TA.AperFunction,ComponentPad*
%ADD26O,1.700000X1.700000*%
G04 #@! TD*
G04 #@! TA.AperFunction,ViaPad*
%ADD27C,0.900000*%
G04 #@! TD*
G04 #@! TA.AperFunction,Conductor*
%ADD28C,0.200000*%
G04 #@! TD*
G04 APERTURE END LIST*
D10*
X89540000Y-64920000D03*
D11*
X89540000Y-67460000D03*
X89540000Y-70000000D03*
D10*
X89000000Y-74380000D03*
D11*
X89000000Y-76920000D03*
X89000000Y-79460000D03*
X89000000Y-82000000D03*
D10*
X89000000Y-86920000D03*
D11*
X89000000Y-89460000D03*
X89000000Y-92000000D03*
X89000000Y-94540000D03*
D12*
X140000000Y-96000000D03*
D11*
X142540000Y-96000000D03*
D12*
X129460000Y-95967500D03*
D11*
X132000000Y-95967500D03*
X134540000Y-95967500D03*
X120000000Y-96000000D03*
X117460000Y-96000000D03*
D12*
X114920000Y-96000000D03*
D13*
X161000000Y-68810000D03*
X161000000Y-61190000D03*
D14*
X140860000Y-76000000D03*
D15*
X138320000Y-76000000D03*
X135780000Y-76000000D03*
X133240000Y-76000000D03*
X130700000Y-76000000D03*
X128160000Y-76000000D03*
X125620000Y-76000000D03*
X123080000Y-76000000D03*
X120540000Y-76000000D03*
X118000000Y-76000000D03*
X118000000Y-83620000D03*
X120540000Y-83620000D03*
X123080000Y-83620000D03*
X125620000Y-83620000D03*
X128160000Y-83620000D03*
X130700000Y-83620000D03*
X133240000Y-83620000D03*
X135780000Y-83620000D03*
X138320000Y-83620000D03*
X140860000Y-83620000D03*
D13*
X149000000Y-80810000D03*
X149000000Y-73190000D03*
D16*
X153725000Y-55950000D03*
X153725000Y-56900000D03*
X153725000Y-57850000D03*
X156000000Y-57850000D03*
X156000000Y-56900000D03*
X156000000Y-55950000D03*
D13*
X152000000Y-80810000D03*
X152000000Y-73190000D03*
D14*
X141000000Y-64000000D03*
D15*
X138460000Y-64000000D03*
X135920000Y-64000000D03*
X133380000Y-64000000D03*
X130840000Y-64000000D03*
X128300000Y-64000000D03*
X125760000Y-64000000D03*
X123220000Y-64000000D03*
X120680000Y-64000000D03*
X118140000Y-64000000D03*
X118140000Y-71620000D03*
X120680000Y-71620000D03*
X123220000Y-71620000D03*
X125760000Y-71620000D03*
X128300000Y-71620000D03*
X130840000Y-71620000D03*
X133380000Y-71620000D03*
X135920000Y-71620000D03*
X138460000Y-71620000D03*
X141000000Y-71620000D03*
D16*
X146725000Y-56000000D03*
X146725000Y-56950000D03*
X146725000Y-57900000D03*
X149000000Y-57900000D03*
X149000000Y-56950000D03*
X149000000Y-56000000D03*
D17*
X108000000Y-77950000D03*
X108000000Y-75000000D03*
D13*
X158000000Y-81620000D03*
X158000000Y-74000000D03*
D12*
X148000000Y-96000000D03*
D11*
X150540000Y-96000000D03*
X153080000Y-96000000D03*
X155620000Y-96000000D03*
D13*
X155000000Y-80810000D03*
X155000000Y-73190000D03*
D18*
X108850000Y-56000000D03*
X108850000Y-56500000D03*
X108850000Y-57000000D03*
X108850000Y-57500000D03*
X108850000Y-58000000D03*
X113150000Y-58000000D03*
X113150000Y-57500000D03*
X113150000Y-57000000D03*
X113150000Y-56500000D03*
X113150000Y-56000000D03*
D13*
X157000000Y-69810000D03*
X157000000Y-62190000D03*
D19*
X161125000Y-56000000D03*
X161125000Y-57900000D03*
X163000000Y-56950000D03*
D20*
X103000000Y-69950000D03*
D21*
X105540000Y-69950000D03*
X108080000Y-69950000D03*
D17*
X102000000Y-78475000D03*
X102000000Y-75525000D03*
D22*
X100000000Y-55000000D03*
D23*
X94000000Y-55000000D03*
D24*
X97000000Y-59700000D03*
D25*
X108370000Y-48770000D03*
D26*
X108370000Y-46230000D03*
X110910000Y-48770000D03*
X110910000Y-46230000D03*
X113450000Y-48770000D03*
X113450000Y-46230000D03*
X115990000Y-48770000D03*
X115990000Y-46230000D03*
X118530000Y-48770000D03*
X118530000Y-46230000D03*
X121070000Y-48770000D03*
X121070000Y-46230000D03*
X123610000Y-48770000D03*
X123610000Y-46230000D03*
X126150000Y-48770000D03*
X126150000Y-46230000D03*
X128690000Y-48770000D03*
X128690000Y-46230000D03*
X131230000Y-48770000D03*
X131230000Y-46230000D03*
X133770000Y-48770000D03*
X133770000Y-46230000D03*
X136310000Y-48770000D03*
X136310000Y-46230000D03*
X138850000Y-48770000D03*
X138850000Y-46230000D03*
X141390000Y-48770000D03*
X141390000Y-46230000D03*
X143930000Y-48770000D03*
X143930000Y-46230000D03*
X146470000Y-48770000D03*
X146470000Y-46230000D03*
X149010000Y-48770000D03*
X149010000Y-46230000D03*
X151550000Y-48770000D03*
X151550000Y-46230000D03*
X154090000Y-48770000D03*
X154090000Y-46230000D03*
X156630000Y-48770000D03*
X156630000Y-46230000D03*
D27*
X113336800Y-50866700D03*
X110317300Y-74670600D03*
X151780100Y-56338900D03*
X158221800Y-53509400D03*
X134037900Y-57431400D03*
X152348000Y-57496300D03*
X141359900Y-60850200D03*
X163276600Y-59053500D03*
D28*
X161125000Y-56521948D02*
X162027626Y-57424574D01*
X161125000Y-56000000D02*
X161125000Y-56521948D01*
X149349200Y-56349200D02*
X149000000Y-56000000D01*
X151538000Y-56349200D02*
X149349200Y-56349200D01*
X151548300Y-56338900D02*
X151538000Y-56349200D01*
X151780100Y-56338900D02*
X151548300Y-56338900D01*
X159208300Y-55983300D02*
X161125000Y-57900000D01*
X156033300Y-55983300D02*
X159208300Y-55983300D01*
X156000000Y-55950000D02*
X156033300Y-55983300D01*
X110910000Y-49921700D02*
X110910000Y-48770000D01*
X111038600Y-56450500D02*
X111038600Y-50050300D01*
X113100500Y-56450500D02*
X111038600Y-56450500D01*
X111038600Y-50050300D02*
X110910000Y-49921700D01*
X113150000Y-56500000D02*
X113100500Y-56450500D01*
X89000000Y-81535900D02*
X89000000Y-82000000D01*
X110982500Y-59553400D02*
X89000000Y-81535900D01*
X134822800Y-59553400D02*
X110982500Y-59553400D01*
X145318300Y-49057900D02*
X134822800Y-59553400D01*
X145318300Y-48770000D02*
X145318300Y-49057900D01*
X146470000Y-48770000D02*
X145318300Y-48770000D01*
X143930000Y-48770000D02*
X142778300Y-48770000D01*
X142778300Y-49754000D02*
X142778300Y-48770000D01*
X134080300Y-58452000D02*
X142778300Y-49754000D01*
X110008000Y-58452000D02*
X134080300Y-58452000D01*
X89000000Y-79460000D02*
X110008000Y-58452000D01*
X103000000Y-69950000D02*
X103000000Y-71251700D01*
X103268400Y-77206600D02*
X102000000Y-78475000D01*
X103268400Y-71520100D02*
X103268400Y-77206600D01*
X103000000Y-71251700D02*
X103268400Y-71520100D01*
X113150000Y-51053500D02*
X113150000Y-56000000D01*
X113336800Y-50866700D02*
X113150000Y-51053500D01*
X95951300Y-67460000D02*
X89540000Y-67460000D01*
X105911300Y-57500000D02*
X95951300Y-67460000D01*
X108850000Y-57500000D02*
X105911300Y-57500000D01*
X110317300Y-75632700D02*
X108000000Y-77950000D01*
X110317300Y-74670600D02*
X110317300Y-75632700D01*
X163000000Y-56395700D02*
X163000000Y-56950000D01*
X160113700Y-53509400D02*
X163000000Y-56395700D01*
X158221800Y-53509400D02*
X160113700Y-53509400D01*
X113755000Y-69950000D02*
X108080000Y-69950000D01*
X119410000Y-64295000D02*
X113755000Y-69950000D01*
X119410000Y-63684600D02*
X119410000Y-64295000D01*
X120196300Y-62898300D02*
X119410000Y-63684600D01*
X138248900Y-62898300D02*
X120196300Y-62898300D01*
X141048700Y-60098500D02*
X138248900Y-62898300D01*
X145832300Y-60098500D02*
X141048700Y-60098500D01*
X147898900Y-58031900D02*
X145832300Y-60098500D01*
X147898900Y-56725200D02*
X147898900Y-58031900D01*
X148624100Y-56000000D02*
X147898900Y-56725200D01*
X149000000Y-56000000D02*
X148624100Y-56000000D01*
X130595200Y-57431400D02*
X134037900Y-57431400D01*
X122221700Y-49057900D02*
X130595200Y-57431400D01*
X122221700Y-48770000D02*
X122221700Y-49057900D01*
X121070000Y-48770000D02*
X122221700Y-48770000D01*
X146725000Y-56000000D02*
X146725000Y-56950000D01*
X147365500Y-55359500D02*
X146725000Y-56000000D01*
X151863700Y-55359500D02*
X147365500Y-55359500D01*
X152654700Y-56150500D02*
X151863700Y-55359500D01*
X152654700Y-56244300D02*
X152654700Y-56150500D01*
X153310400Y-56900000D02*
X152654700Y-56244300D01*
X153725000Y-56900000D02*
X153310400Y-56900000D01*
X152944300Y-56900000D02*
X153725000Y-56900000D01*
X152348000Y-57496300D02*
X152944300Y-56900000D01*
X132221400Y-74981400D02*
X133240000Y-76000000D01*
X132221400Y-71159100D02*
X132221400Y-74981400D01*
X133820100Y-69560400D02*
X132221400Y-71159100D01*
X134520200Y-69560400D02*
X133820100Y-69560400D01*
X139568300Y-64512300D02*
X134520200Y-69560400D01*
X139568300Y-62641800D02*
X139568300Y-64512300D01*
X141359900Y-60850200D02*
X139568300Y-62641800D01*
X110910000Y-46230000D02*
X108370000Y-46230000D01*
X155624100Y-55950000D02*
X156000000Y-55950000D01*
X154898900Y-56675200D02*
X155624100Y-55950000D01*
X154898900Y-57992200D02*
X154898900Y-56675200D01*
X148891100Y-64000000D02*
X154898900Y-57992200D01*
X141000000Y-64000000D02*
X148891100Y-64000000D01*
X163276600Y-58959600D02*
X163418100Y-58818100D01*
X163276600Y-59053500D02*
X163276600Y-58959600D01*
X163418100Y-58818100D02*
X162026100Y-57426100D01*
X154376600Y-55298400D02*
X153725000Y-55950000D01*
X160423400Y-55298400D02*
X154376600Y-55298400D01*
X161125000Y-56000000D02*
X160423400Y-55298400D01*
X151550000Y-48770000D02*
X150398300Y-48770000D01*
X150398300Y-49038500D02*
X150398300Y-48770000D01*
X138513100Y-60923700D02*
X150398300Y-49038500D01*
X115274400Y-60923700D02*
X138513100Y-60923700D01*
X106810000Y-69388100D02*
X115274400Y-60923700D01*
X106810000Y-71686100D02*
X106810000Y-69388100D01*
X106792700Y-71703400D02*
X106810000Y-71686100D01*
X106792700Y-76747300D02*
X106792700Y-71703400D01*
X89000000Y-94540000D02*
X106792700Y-76747300D01*
X149010000Y-48770000D02*
X147858300Y-48770000D01*
X147858300Y-49057900D02*
X147858300Y-48770000D01*
X136819300Y-60096900D02*
X147858300Y-49057900D01*
X113571100Y-60096900D02*
X136819300Y-60096900D01*
X104269900Y-69398100D02*
X113571100Y-60096900D01*
X104269900Y-77968900D02*
X104269900Y-69398100D01*
X90238800Y-92000000D02*
X104269900Y-77968900D01*
X89000000Y-92000000D02*
X90238800Y-92000000D01*
X128690000Y-48770000D02*
X127538300Y-48770000D01*
X108370000Y-48770000D02*
X109499300Y-48770000D01*
X109499300Y-48504400D02*
X109499300Y-48770000D01*
X110385400Y-47618300D02*
X109499300Y-48504400D01*
X126674500Y-47618300D02*
X110385400Y-47618300D01*
X127538300Y-48482100D02*
X126674500Y-47618300D01*
X127538300Y-48770000D02*
X127538300Y-48482100D01*
X109499300Y-49076900D02*
X109499300Y-48770000D01*
X110414000Y-49991600D02*
X109499300Y-49076900D01*
X110414000Y-56398600D02*
X110414000Y-49991600D01*
X111015400Y-57000000D02*
X110414000Y-56398600D01*
X113150000Y-57000000D02*
X111015400Y-57000000D01*
X126890000Y-84030000D02*
X114920000Y-96000000D01*
X126890000Y-83324900D02*
X126890000Y-84030000D01*
X128067800Y-82147100D02*
X126890000Y-83324900D01*
X128670400Y-82147100D02*
X128067800Y-82147100D01*
X134510000Y-76307500D02*
X128670400Y-82147100D01*
X134510000Y-73030000D02*
X134510000Y-76307500D01*
X135920000Y-71620000D02*
X134510000Y-73030000D01*
G04 #@! TA.AperFunction,Conductor*
G36*
X115202703Y-60417085D02*
G01*
X115248458Y-60469889D01*
X115258402Y-60539047D01*
X115229377Y-60602603D01*
X115170599Y-60640377D01*
X115167802Y-60641162D01*
X115162915Y-60642471D01*
X115158409Y-60643679D01*
X115158404Y-60643682D01*
X115089895Y-60683235D01*
X115089887Y-60683241D01*
X106569541Y-69203587D01*
X106569535Y-69203595D01*
X106529982Y-69272104D01*
X106529979Y-69272109D01*
X106522989Y-69298196D01*
X106512077Y-69338923D01*
X106509500Y-69348539D01*
X106509500Y-71582948D01*
X106505275Y-71615041D01*
X106492200Y-71663838D01*
X106492200Y-76571466D01*
X106472515Y-76638505D01*
X106455881Y-76659147D01*
X90332279Y-92782748D01*
X90270956Y-92816233D01*
X90201264Y-92811249D01*
X90145331Y-92769377D01*
X90120914Y-92703913D01*
X90134113Y-92638772D01*
X90205220Y-92499219D01*
X90248165Y-92367045D01*
X90287601Y-92309372D01*
X90334002Y-92285590D01*
X90354789Y-92280021D01*
X90423311Y-92240460D01*
X90479260Y-92184511D01*
X104510360Y-78153411D01*
X104521272Y-78134511D01*
X104549921Y-78084889D01*
X104570400Y-78008462D01*
X104570400Y-69573933D01*
X104590085Y-69506894D01*
X104606719Y-69486252D01*
X113659252Y-60433719D01*
X113720575Y-60400234D01*
X113746933Y-60397400D01*
X115135664Y-60397400D01*
X115202703Y-60417085D01*
G37*
G04 #@! TD.AperFunction*
G04 #@! TA.AperFunction,Conductor*
G36*
X112590379Y-47938485D02*
G01*
X112636134Y-47991289D01*
X112646078Y-48060447D01*
X112626442Y-48111690D01*
X112519059Y-48272400D01*
X112439870Y-48463579D01*
X112439868Y-48463587D01*
X112399500Y-48666530D01*
X112399500Y-48873469D01*
X112439868Y-49076412D01*
X112439870Y-49076420D01*
X112511769Y-49250000D01*
X112519059Y-49267598D01*
X112559365Y-49327920D01*
X112634024Y-49439657D01*
X112780342Y-49585975D01*
X112780345Y-49585977D01*
X112952402Y-49700941D01*
X113143580Y-49780130D01*
X113346530Y-49820499D01*
X113346534Y-49820500D01*
X113346535Y-49820500D01*
X113553466Y-49820500D01*
X113553467Y-49820499D01*
X113756420Y-49780130D01*
X113947598Y-49700941D01*
X114119655Y-49585977D01*
X114265977Y-49439655D01*
X114380941Y-49267598D01*
X114460130Y-49076420D01*
X114500500Y-48873465D01*
X114500500Y-48666535D01*
X114460130Y-48463580D01*
X114380941Y-48272402D01*
X114337789Y-48207820D01*
X114273558Y-48111690D01*
X114252680Y-48045013D01*
X114271165Y-47977633D01*
X114323144Y-47930943D01*
X114376660Y-47918800D01*
X115063340Y-47918800D01*
X115130379Y-47938485D01*
X115176134Y-47991289D01*
X115186078Y-48060447D01*
X115166442Y-48111690D01*
X115059059Y-48272400D01*
X114979870Y-48463579D01*
X114979868Y-48463587D01*
X114939500Y-48666530D01*
X114939500Y-48873469D01*
X114979868Y-49076412D01*
X114979870Y-49076420D01*
X115051769Y-49250000D01*
X115059059Y-49267598D01*
X115099365Y-49327920D01*
X115174024Y-49439657D01*
X115320342Y-49585975D01*
X115320345Y-49585977D01*
X115492402Y-49700941D01*
X115683580Y-49780130D01*
X115886530Y-49820499D01*
X115886534Y-49820500D01*
X115886535Y-49820500D01*
X116093466Y-49820500D01*
X116093467Y-49820499D01*
X116296420Y-49780130D01*
X116487598Y-49700941D01*
X116659655Y-49585977D01*
X116805977Y-49439655D01*
X116920941Y-49267598D01*
X117000130Y-49076420D01*
X117040500Y-48873465D01*
X117040500Y-48666535D01*
X117000130Y-48463580D01*
X116920941Y-48272402D01*
X116877789Y-48207820D01*
X116813558Y-48111690D01*
X116792680Y-48045013D01*
X116811165Y-47977633D01*
X116863144Y-47930943D01*
X116916660Y-47918800D01*
X120143340Y-47918800D01*
X120210379Y-47938485D01*
X120256134Y-47991289D01*
X120266078Y-48060447D01*
X120246442Y-48111690D01*
X120139059Y-48272400D01*
X120059870Y-48463579D01*
X120059868Y-48463587D01*
X120019500Y-48666530D01*
X120019500Y-48873469D01*
X120059868Y-49076412D01*
X120059870Y-49076420D01*
X120131769Y-49250000D01*
X120139059Y-49267598D01*
X120179365Y-49327920D01*
X120254024Y-49439657D01*
X120400342Y-49585975D01*
X120400345Y-49585977D01*
X120572402Y-49700941D01*
X120763580Y-49780130D01*
X120966530Y-49820499D01*
X120966534Y-49820500D01*
X120966535Y-49820500D01*
X121173466Y-49820500D01*
X121173467Y-49820499D01*
X121376420Y-49780130D01*
X121567598Y-49700941D01*
X121739655Y-49585977D01*
X121885977Y-49439655D01*
X121919196Y-49389937D01*
X121972805Y-49345135D01*
X122042130Y-49336426D01*
X122105158Y-49366580D01*
X122109978Y-49371149D01*
X130354740Y-57615911D01*
X130410689Y-57671860D01*
X130410691Y-57671861D01*
X130410695Y-57671864D01*
X130479204Y-57711417D01*
X130479211Y-57711421D01*
X130555638Y-57731900D01*
X130634762Y-57731900D01*
X133390059Y-57731900D01*
X133390070Y-57731903D01*
X133390083Y-57731900D01*
X133424116Y-57741900D01*
X133457098Y-57751585D01*
X133457109Y-57751595D01*
X133457119Y-57751598D01*
X133457163Y-57751642D01*
X133483788Y-57774716D01*
X133488860Y-57780572D01*
X133532624Y-57846069D01*
X133623231Y-57936676D01*
X133625225Y-57938008D01*
X133632421Y-57946316D01*
X133645158Y-57974221D01*
X133659858Y-58001142D01*
X133659531Y-58005710D01*
X133661433Y-58009877D01*
X133657062Y-58040233D01*
X133654874Y-58070834D01*
X133652128Y-58074501D01*
X133651476Y-58079034D01*
X133631382Y-58102213D01*
X133613002Y-58126767D01*
X133608711Y-58128367D01*
X133605711Y-58131829D01*
X133576272Y-58140466D01*
X133547538Y-58151184D01*
X133538692Y-58151500D01*
X114199500Y-58151500D01*
X114132461Y-58131815D01*
X114086706Y-58079011D01*
X114075500Y-58027501D01*
X114075499Y-57897870D01*
X114075499Y-57897868D01*
X114059515Y-57817505D01*
X114059513Y-57817502D01*
X114054841Y-57806222D01*
X114056285Y-57805623D01*
X114039563Y-57752211D01*
X114055517Y-57694056D01*
X114054842Y-57693777D01*
X114057070Y-57688396D01*
X114058049Y-57684831D01*
X114059452Y-57682647D01*
X114059516Y-57682493D01*
X114075499Y-57602136D01*
X114075500Y-57602133D01*
X114075499Y-57397868D01*
X114059515Y-57317505D01*
X114059513Y-57317502D01*
X114054841Y-57306222D01*
X114056285Y-57305623D01*
X114039563Y-57252211D01*
X114055517Y-57194056D01*
X114054842Y-57193777D01*
X114057070Y-57188396D01*
X114058049Y-57184831D01*
X114059452Y-57182647D01*
X114059516Y-57182493D01*
X114069778Y-57130900D01*
X114075500Y-57102133D01*
X114075499Y-56897868D01*
X114059515Y-56817505D01*
X114059513Y-56817502D01*
X114054841Y-56806222D01*
X114056285Y-56805623D01*
X114039563Y-56752211D01*
X114055517Y-56694056D01*
X114054842Y-56693777D01*
X114057070Y-56688396D01*
X114058049Y-56684831D01*
X114059452Y-56682647D01*
X114059516Y-56682493D01*
X114075499Y-56602136D01*
X114075500Y-56602133D01*
X114075499Y-56397868D01*
X114059515Y-56317505D01*
X114059513Y-56317502D01*
X114054841Y-56306222D01*
X114056285Y-56305623D01*
X114039563Y-56252211D01*
X114055517Y-56194056D01*
X114054842Y-56193777D01*
X114057070Y-56188396D01*
X114058049Y-56184831D01*
X114059452Y-56182647D01*
X114059516Y-56182493D01*
X114075499Y-56102136D01*
X114075500Y-56102133D01*
X114075499Y-55897868D01*
X114059515Y-55817505D01*
X114022718Y-55762435D01*
X113998624Y-55726375D01*
X113931702Y-55681660D01*
X113907495Y-55665485D01*
X113907493Y-55665484D01*
X113907490Y-55665483D01*
X113827137Y-55649500D01*
X113827133Y-55649500D01*
X113574500Y-55649500D01*
X113507461Y-55629815D01*
X113461706Y-55577011D01*
X113450500Y-55525500D01*
X113450500Y-51606553D01*
X113470185Y-51539514D01*
X113522989Y-51493759D01*
X113527036Y-51491996D01*
X113644927Y-51443165D01*
X113751469Y-51371976D01*
X113842076Y-51281369D01*
X113913265Y-51174827D01*
X113962301Y-51056444D01*
X113987300Y-50930769D01*
X113987300Y-50802631D01*
X113987300Y-50802628D01*
X113962302Y-50676961D01*
X113962301Y-50676960D01*
X113962301Y-50676956D01*
X113913265Y-50558573D01*
X113913264Y-50558572D01*
X113913261Y-50558566D01*
X113842076Y-50452031D01*
X113842073Y-50452027D01*
X113751472Y-50361426D01*
X113751468Y-50361423D01*
X113644933Y-50290238D01*
X113644924Y-50290233D01*
X113526544Y-50241199D01*
X113526538Y-50241197D01*
X113400871Y-50216200D01*
X113400869Y-50216200D01*
X113272731Y-50216200D01*
X113272729Y-50216200D01*
X113147061Y-50241197D01*
X113147055Y-50241199D01*
X113028675Y-50290233D01*
X113028666Y-50290238D01*
X112922131Y-50361423D01*
X112922127Y-50361426D01*
X112831526Y-50452027D01*
X112831523Y-50452031D01*
X112760338Y-50558566D01*
X112760333Y-50558575D01*
X112711299Y-50676955D01*
X112711297Y-50676961D01*
X112686300Y-50802628D01*
X112686300Y-50802631D01*
X112686300Y-50930769D01*
X112686300Y-50930771D01*
X112686299Y-50930771D01*
X112711297Y-51056438D01*
X112711299Y-51056444D01*
X112760333Y-51174824D01*
X112760338Y-51174833D01*
X112828602Y-51276996D01*
X112849480Y-51343673D01*
X112849500Y-51345887D01*
X112849500Y-55525500D01*
X112829815Y-55592539D01*
X112777011Y-55638294D01*
X112725500Y-55649500D01*
X112472870Y-55649500D01*
X112392504Y-55665485D01*
X112301375Y-55726375D01*
X112240485Y-55817505D01*
X112240483Y-55817509D01*
X112224500Y-55897863D01*
X112224500Y-55897865D01*
X112224500Y-55897867D01*
X112224500Y-55995532D01*
X112224501Y-56025999D01*
X112204817Y-56093039D01*
X112152013Y-56138794D01*
X112100501Y-56150000D01*
X111463100Y-56150000D01*
X111396061Y-56130315D01*
X111350306Y-56077511D01*
X111339100Y-56026000D01*
X111339100Y-50010739D01*
X111339100Y-50010738D01*
X111318621Y-49934311D01*
X111297756Y-49898172D01*
X111281284Y-49830275D01*
X111304136Y-49764248D01*
X111357692Y-49721613D01*
X111366082Y-49718137D01*
X111407598Y-49700941D01*
X111579655Y-49585977D01*
X111725977Y-49439655D01*
X111840941Y-49267598D01*
X111920130Y-49076420D01*
X111960500Y-48873465D01*
X111960500Y-48666535D01*
X111920130Y-48463580D01*
X111840941Y-48272402D01*
X111797789Y-48207820D01*
X111733558Y-48111690D01*
X111712680Y-48045013D01*
X111731165Y-47977633D01*
X111783144Y-47930943D01*
X111836660Y-47918800D01*
X112523340Y-47918800D01*
X112590379Y-47938485D01*
G37*
G04 #@! TD.AperFunction*
G04 #@! TA.AperFunction,Conductor*
G36*
X162003612Y-39050702D02*
G01*
X162323297Y-39068656D01*
X162337094Y-39070210D01*
X162649457Y-39123283D01*
X162663014Y-39126377D01*
X162967469Y-39214089D01*
X162980594Y-39218682D01*
X163006059Y-39229230D01*
X163273312Y-39339930D01*
X163285826Y-39345956D01*
X163452593Y-39438125D01*
X163563132Y-39499218D01*
X163574906Y-39506616D01*
X163833312Y-39689964D01*
X163844180Y-39698632D01*
X164080418Y-39909749D01*
X164090250Y-39919581D01*
X164301367Y-40155819D01*
X164310038Y-40166691D01*
X164493383Y-40425093D01*
X164500781Y-40436867D01*
X164654039Y-40714166D01*
X164660072Y-40726694D01*
X164781317Y-41019405D01*
X164785910Y-41032530D01*
X164873622Y-41336985D01*
X164876716Y-41350542D01*
X164929787Y-41662894D01*
X164931344Y-41676712D01*
X164949305Y-41996527D01*
X164949500Y-42003480D01*
X164949500Y-96996519D01*
X164949305Y-97003472D01*
X164931344Y-97323287D01*
X164929787Y-97337105D01*
X164876716Y-97649457D01*
X164873622Y-97663014D01*
X164785910Y-97967469D01*
X164781317Y-97980594D01*
X164660072Y-98273305D01*
X164654039Y-98285833D01*
X164500781Y-98563132D01*
X164493383Y-98574906D01*
X164310038Y-98833308D01*
X164301367Y-98844180D01*
X164090250Y-99080418D01*
X164080418Y-99090250D01*
X163844180Y-99301367D01*
X163833308Y-99310038D01*
X163574906Y-99493383D01*
X163563132Y-99500781D01*
X163285833Y-99654039D01*
X163273305Y-99660072D01*
X162980594Y-99781317D01*
X162967469Y-99785910D01*
X162663014Y-99873622D01*
X162649457Y-99876716D01*
X162337105Y-99929787D01*
X162323287Y-99931344D01*
X162003472Y-99949305D01*
X161996519Y-99949500D01*
X88003481Y-99949500D01*
X87996528Y-99949305D01*
X87676712Y-99931344D01*
X87662894Y-99929787D01*
X87350542Y-99876716D01*
X87336985Y-99873622D01*
X87032530Y-99785910D01*
X87019405Y-99781317D01*
X86726694Y-99660072D01*
X86714166Y-99654039D01*
X86436867Y-99500781D01*
X86425093Y-99493383D01*
X86166691Y-99310038D01*
X86155819Y-99301367D01*
X85919581Y-99090250D01*
X85909749Y-99080418D01*
X85728869Y-98878015D01*
X85698629Y-98844176D01*
X85689961Y-98833308D01*
X85632616Y-98752488D01*
X85533270Y-98612472D01*
X85506616Y-98574906D01*
X85499218Y-98563131D01*
X85475038Y-98519380D01*
X85475037Y-98519379D01*
X85446378Y-98467525D01*
X114369500Y-98467525D01*
X114369500Y-98612475D01*
X114407016Y-98752485D01*
X114407017Y-98752488D01*
X114479488Y-98878011D01*
X114479490Y-98878013D01*
X114479491Y-98878015D01*
X114581985Y-98980509D01*
X114581986Y-98980510D01*
X114581988Y-98980511D01*
X114707511Y-99052982D01*
X114707512Y-99052982D01*
X114707515Y-99052984D01*
X114847525Y-99090500D01*
X114847528Y-99090500D01*
X114992472Y-99090500D01*
X114992475Y-99090500D01*
X115132485Y-99052984D01*
X115258015Y-98980509D01*
X115360509Y-98878015D01*
X115432984Y-98752485D01*
X115470500Y-98612475D01*
X115470500Y-98467525D01*
X116909500Y-98467525D01*
X116909500Y-98612475D01*
X116947016Y-98752485D01*
X116947017Y-98752488D01*
X117019488Y-98878011D01*
X117019490Y-98878013D01*
X117019491Y-98878015D01*
X117121985Y-98980509D01*
X117121986Y-98980510D01*
X117121988Y-98980511D01*
X117247511Y-99052982D01*
X117247512Y-99052982D01*
X117247515Y-99052984D01*
X117387525Y-99090500D01*
X117387528Y-99090500D01*
X117532472Y-99090500D01*
X117532475Y-99090500D01*
X117672485Y-99052984D01*
X117798015Y-98980509D01*
X117900509Y-98878015D01*
X117972984Y-98752485D01*
X118010500Y-98612475D01*
X118010500Y-98467525D01*
X119449500Y-98467525D01*
X119449500Y-98612475D01*
X119487016Y-98752485D01*
X119487017Y-98752488D01*
X119559488Y-98878011D01*
X119559490Y-98878013D01*
X119559491Y-98878015D01*
X119661985Y-98980509D01*
X119661986Y-98980510D01*
X119661988Y-98980511D01*
X119787511Y-99052982D01*
X119787512Y-99052982D01*
X119787515Y-99052984D01*
X119927525Y-99090500D01*
X119927528Y-99090500D01*
X120072472Y-99090500D01*
X120072475Y-99090500D01*
X120212485Y-99052984D01*
X120338015Y-98980509D01*
X120440509Y-98878015D01*
X120512984Y-98752485D01*
X120550500Y-98612475D01*
X120550500Y-98467525D01*
X120541792Y-98435025D01*
X128909500Y-98435025D01*
X128909500Y-98579975D01*
X128931935Y-98663701D01*
X128947017Y-98719988D01*
X129019488Y-98845511D01*
X129019490Y-98845513D01*
X129019491Y-98845515D01*
X129121985Y-98948009D01*
X129121986Y-98948010D01*
X129121988Y-98948011D01*
X129247511Y-99020482D01*
X129247512Y-99020482D01*
X129247515Y-99020484D01*
X129387525Y-99058000D01*
X129387528Y-99058000D01*
X129532472Y-99058000D01*
X129532475Y-99058000D01*
X129672485Y-99020484D01*
X129798015Y-98948009D01*
X129900509Y-98845515D01*
X129972984Y-98719985D01*
X130010500Y-98579975D01*
X130010500Y-98435025D01*
X131449500Y-98435025D01*
X131449500Y-98579975D01*
X131471935Y-98663701D01*
X131487017Y-98719988D01*
X131559488Y-98845511D01*
X131559490Y-98845513D01*
X131559491Y-98845515D01*
X131661985Y-98948009D01*
X131661986Y-98948010D01*
X131661988Y-98948011D01*
X131787511Y-99020482D01*
X131787512Y-99020482D01*
X131787515Y-99020484D01*
X131927525Y-99058000D01*
X131927528Y-99058000D01*
X132072472Y-99058000D01*
X132072475Y-99058000D01*
X132212485Y-99020484D01*
X132338015Y-98948009D01*
X132440509Y-98845515D01*
X132512984Y-98719985D01*
X132550500Y-98579975D01*
X132550500Y-98435025D01*
X133989500Y-98435025D01*
X133989500Y-98579975D01*
X134011935Y-98663701D01*
X134027017Y-98719988D01*
X134099488Y-98845511D01*
X134099490Y-98845513D01*
X134099491Y-98845515D01*
X134201985Y-98948009D01*
X134201986Y-98948010D01*
X134201988Y-98948011D01*
X134327511Y-99020482D01*
X134327512Y-99020482D01*
X134327515Y-99020484D01*
X134467525Y-99058000D01*
X134467528Y-99058000D01*
X134612472Y-99058000D01*
X134612475Y-99058000D01*
X134752485Y-99020484D01*
X134878015Y-98948009D01*
X134980509Y-98845515D01*
X135052984Y-98719985D01*
X135090500Y-98579975D01*
X135090500Y-98467525D01*
X139449500Y-98467525D01*
X139449500Y-98612475D01*
X139487016Y-98752485D01*
X139487017Y-98752488D01*
X139559488Y-98878011D01*
X139559490Y-98878013D01*
X139559491Y-98878015D01*
X139661985Y-98980509D01*
X139661986Y-98980510D01*
X139661988Y-98980511D01*
X139787511Y-99052982D01*
X139787512Y-99052982D01*
X139787515Y-99052984D01*
X139927525Y-99090500D01*
X139927528Y-99090500D01*
X140072472Y-99090500D01*
X140072475Y-99090500D01*
X140212485Y-99052984D01*
X140338015Y-98980509D01*
X140440509Y-98878015D01*
X140512984Y-98752485D01*
X140550500Y-98612475D01*
X140550500Y-98467525D01*
X141989500Y-98467525D01*
X141989500Y-98612475D01*
X142027016Y-98752485D01*
X142027017Y-98752488D01*
X142099488Y-98878011D01*
X142099490Y-98878013D01*
X142099491Y-98878015D01*
X142201985Y-98980509D01*
X142201986Y-98980510D01*
X142201988Y-98980511D01*
X142327511Y-99052982D01*
X142327512Y-99052982D01*
X142327515Y-99052984D01*
X142467525Y-99090500D01*
X142467528Y-99090500D01*
X142612472Y-99090500D01*
X142612475Y-99090500D01*
X142752485Y-99052984D01*
X142878015Y-98980509D01*
X142980509Y-98878015D01*
X143052984Y-98752485D01*
X143090500Y-98612475D01*
X143090500Y-98467525D01*
X143052984Y-98327515D01*
X142980509Y-98201985D01*
X142878015Y-98099491D01*
X142878013Y-98099490D01*
X142878011Y-98099488D01*
X142752488Y-98027017D01*
X142752489Y-98027017D01*
X142741006Y-98023940D01*
X142612475Y-97989500D01*
X142467525Y-97989500D01*
X142338993Y-98023940D01*
X142327511Y-98027017D01*
X142201988Y-98099488D01*
X142201982Y-98099493D01*
X142099493Y-98201982D01*
X142099488Y-98201988D01*
X142027017Y-98327511D01*
X142027016Y-98327515D01*
X141989500Y-98467525D01*
X140550500Y-98467525D01*
X140512984Y-98327515D01*
X140440509Y-98201985D01*
X140338015Y-98099491D01*
X140338013Y-98099490D01*
X140338011Y-98099488D01*
X140212488Y-98027017D01*
X140212489Y-98027017D01*
X140201006Y-98023940D01*
X140072475Y-97989500D01*
X139927525Y-97989500D01*
X139798993Y-98023940D01*
X139787511Y-98027017D01*
X139661988Y-98099488D01*
X139661982Y-98099493D01*
X139559493Y-98201982D01*
X139559488Y-98201988D01*
X139487017Y-98327511D01*
X139487016Y-98327515D01*
X139449500Y-98467525D01*
X135090500Y-98467525D01*
X135090500Y-98435025D01*
X135052984Y-98295015D01*
X134980509Y-98169485D01*
X134878015Y-98066991D01*
X134878013Y-98066990D01*
X134878011Y-98066988D01*
X134752488Y-97994517D01*
X134752489Y-97994517D01*
X134733765Y-97989500D01*
X134612475Y-97957000D01*
X134467525Y-97957000D01*
X134346235Y-97989500D01*
X134327511Y-97994517D01*
X134201988Y-98066988D01*
X134201982Y-98066993D01*
X134099493Y-98169482D01*
X134099488Y-98169488D01*
X134027017Y-98295011D01*
X134027016Y-98295015D01*
X133989500Y-98435025D01*
X132550500Y-98435025D01*
X132512984Y-98295015D01*
X132440509Y-98169485D01*
X132338015Y-98066991D01*
X132338013Y-98066990D01*
X132338011Y-98066988D01*
X132212488Y-97994517D01*
X132212489Y-97994517D01*
X132193765Y-97989500D01*
X132072475Y-97957000D01*
X131927525Y-97957000D01*
X131806235Y-97989500D01*
X131787511Y-97994517D01*
X131661988Y-98066988D01*
X131661982Y-98066993D01*
X131559493Y-98169482D01*
X131559488Y-98169488D01*
X131487017Y-98295011D01*
X131487016Y-98295015D01*
X131449500Y-98435025D01*
X130010500Y-98435025D01*
X129972984Y-98295015D01*
X129900509Y-98169485D01*
X129798015Y-98066991D01*
X129798013Y-98066990D01*
X129798011Y-98066988D01*
X129672488Y-97994517D01*
X129672489Y-97994517D01*
X129653765Y-97989500D01*
X129532475Y-97957000D01*
X129387525Y-97957000D01*
X129266235Y-97989500D01*
X129247511Y-97994517D01*
X129121988Y-98066988D01*
X129121982Y-98066993D01*
X129019493Y-98169482D01*
X129019488Y-98169488D01*
X128947017Y-98295011D01*
X128947016Y-98295015D01*
X128909500Y-98435025D01*
X120541792Y-98435025D01*
X120512984Y-98327515D01*
X120440509Y-98201985D01*
X120338015Y-98099491D01*
X120338013Y-98099490D01*
X120338011Y-98099488D01*
X120212488Y-98027017D01*
X120212489Y-98027017D01*
X120201006Y-98023940D01*
X120072475Y-97989500D01*
X119927525Y-97989500D01*
X119798993Y-98023940D01*
X119787511Y-98027017D01*
X119661988Y-98099488D01*
X119661982Y-98099493D01*
X119559493Y-98201982D01*
X119559488Y-98201988D01*
X119487017Y-98327511D01*
X119487016Y-98327515D01*
X119449500Y-98467525D01*
X118010500Y-98467525D01*
X117972984Y-98327515D01*
X117900509Y-98201985D01*
X117798015Y-98099491D01*
X117798013Y-98099490D01*
X117798011Y-98099488D01*
X117672488Y-98027017D01*
X117672489Y-98027017D01*
X117661006Y-98023940D01*
X117532475Y-97989500D01*
X117387525Y-97989500D01*
X117258993Y-98023940D01*
X117247511Y-98027017D01*
X117121988Y-98099488D01*
X117121982Y-98099493D01*
X117019493Y-98201982D01*
X117019488Y-98201988D01*
X116947017Y-98327511D01*
X116947016Y-98327515D01*
X116909500Y-98467525D01*
X115470500Y-98467525D01*
X115432984Y-98327515D01*
X115360509Y-98201985D01*
X115258015Y-98099491D01*
X115258013Y-98099490D01*
X115258011Y-98099488D01*
X115132488Y-98027017D01*
X115132489Y-98027017D01*
X115121006Y-98023940D01*
X114992475Y-97989500D01*
X114847525Y-97989500D01*
X114718993Y-98023940D01*
X114707511Y-98027017D01*
X114581988Y-98099488D01*
X114581982Y-98099493D01*
X114479493Y-98201982D01*
X114479488Y-98201988D01*
X114407017Y-98327511D01*
X114407016Y-98327515D01*
X114369500Y-98467525D01*
X85446378Y-98467525D01*
X85345960Y-98285833D01*
X85339930Y-98273312D01*
X85218682Y-97980594D01*
X85214089Y-97967469D01*
X85126377Y-97663014D01*
X85123283Y-97649457D01*
X85077464Y-97379786D01*
X85070211Y-97337096D01*
X85068656Y-97323295D01*
X85050704Y-97003655D01*
X85050511Y-96996330D01*
X85050626Y-96959466D01*
X85052391Y-96393713D01*
X102149500Y-96393713D01*
X102149500Y-96606286D01*
X102182512Y-96814719D01*
X102182754Y-96816243D01*
X102242464Y-97000012D01*
X102248444Y-97018414D01*
X102344951Y-97207820D01*
X102469890Y-97379786D01*
X102620213Y-97530109D01*
X102792179Y-97655048D01*
X102792181Y-97655049D01*
X102792184Y-97655051D01*
X102981588Y-97751557D01*
X103183757Y-97817246D01*
X103393713Y-97850500D01*
X103393714Y-97850500D01*
X103606286Y-97850500D01*
X103606287Y-97850500D01*
X103816243Y-97817246D01*
X104018412Y-97751557D01*
X104207816Y-97655051D01*
X104229789Y-97639086D01*
X104379786Y-97530109D01*
X104379788Y-97530106D01*
X104379792Y-97530104D01*
X104530104Y-97379792D01*
X104530106Y-97379788D01*
X104530109Y-97379786D01*
X104655048Y-97207820D01*
X104655047Y-97207820D01*
X104655051Y-97207816D01*
X104751557Y-97018412D01*
X104817246Y-96816243D01*
X104850500Y-96606287D01*
X104850500Y-96393713D01*
X104817246Y-96183757D01*
X104751557Y-95981588D01*
X104655051Y-95792184D01*
X104655049Y-95792181D01*
X104655048Y-95792179D01*
X104530109Y-95620213D01*
X104379786Y-95469890D01*
X104207820Y-95344951D01*
X104018414Y-95248444D01*
X104018413Y-95248443D01*
X104018412Y-95248443D01*
X103816243Y-95182754D01*
X103816241Y-95182753D01*
X103816240Y-95182753D01*
X103627040Y-95152787D01*
X103606287Y-95149500D01*
X103393713Y-95149500D01*
X103372960Y-95152787D01*
X103183760Y-95182753D01*
X102981585Y-95248444D01*
X102792179Y-95344951D01*
X102620213Y-95469890D01*
X102469890Y-95620213D01*
X102344951Y-95792179D01*
X102248444Y-95981585D01*
X102182753Y-96183760D01*
X102149500Y-96393713D01*
X85052391Y-96393713D01*
X85084765Y-86015729D01*
X87699500Y-86015729D01*
X87699500Y-87824260D01*
X87699501Y-87824266D01*
X87702354Y-87854700D01*
X87702354Y-87854702D01*
X87702355Y-87854703D01*
X87702355Y-87854705D01*
X87747206Y-87982882D01*
X87827849Y-88092150D01*
X87882483Y-88132471D01*
X87937117Y-88172793D01*
X87979844Y-88187744D01*
X88065298Y-88217646D01*
X88072323Y-88218304D01*
X88095733Y-88220500D01*
X89904266Y-88220499D01*
X89934700Y-88217646D01*
X90062883Y-88172793D01*
X90172150Y-88092150D01*
X90252793Y-87982883D01*
X90275219Y-87918791D01*
X90297646Y-87854702D01*
X90297646Y-87854700D01*
X90300500Y-87824267D01*
X90300499Y-86015734D01*
X90297646Y-85985300D01*
X90252793Y-85857117D01*
X90172150Y-85747849D01*
X90098123Y-85693215D01*
X90062883Y-85667207D01*
X90062881Y-85667206D01*
X89934701Y-85622353D01*
X89904270Y-85619500D01*
X88095739Y-85619500D01*
X88081751Y-85620811D01*
X88065300Y-85622354D01*
X88065297Y-85622354D01*
X88065296Y-85622355D01*
X88065294Y-85622355D01*
X87937117Y-85667206D01*
X87827849Y-85747849D01*
X87747206Y-85857118D01*
X87702353Y-85985297D01*
X87702353Y-85985299D01*
X87699500Y-86015729D01*
X85084765Y-86015729D01*
X85105535Y-79357648D01*
X87699500Y-79357648D01*
X87699500Y-79562351D01*
X87731522Y-79764534D01*
X87794781Y-79959223D01*
X87821668Y-80011990D01*
X87871879Y-80110535D01*
X87887715Y-80141613D01*
X88008028Y-80307213D01*
X88152786Y-80451971D01*
X88284042Y-80547332D01*
X88318390Y-80572287D01*
X88409840Y-80618883D01*
X88411080Y-80619515D01*
X88461876Y-80667490D01*
X88478671Y-80735311D01*
X88456134Y-80801446D01*
X88411080Y-80840485D01*
X88318386Y-80887715D01*
X88152786Y-81008028D01*
X88008028Y-81152786D01*
X87887715Y-81318386D01*
X87794781Y-81500776D01*
X87731522Y-81695465D01*
X87699500Y-81897648D01*
X87699500Y-82102351D01*
X87731522Y-82304534D01*
X87794781Y-82499223D01*
X87887715Y-82681613D01*
X88008028Y-82847213D01*
X88152786Y-82991971D01*
X88280063Y-83084441D01*
X88318390Y-83112287D01*
X88434607Y-83171503D01*
X88500776Y-83205218D01*
X88500778Y-83205218D01*
X88500781Y-83205220D01*
X88605137Y-83239127D01*
X88695465Y-83268477D01*
X88796557Y-83284488D01*
X88897648Y-83300500D01*
X88897649Y-83300500D01*
X89102351Y-83300500D01*
X89102352Y-83300500D01*
X89304534Y-83268477D01*
X89499219Y-83205220D01*
X89681610Y-83112287D01*
X89774590Y-83044732D01*
X89847213Y-82991971D01*
X89847215Y-82991968D01*
X89847219Y-82991966D01*
X89991966Y-82847219D01*
X89991968Y-82847215D01*
X89991971Y-82847213D01*
X90044732Y-82774590D01*
X90112287Y-82681610D01*
X90205220Y-82499219D01*
X90268477Y-82304534D01*
X90300500Y-82102352D01*
X90300500Y-81897648D01*
X90268477Y-81695466D01*
X90262118Y-81675896D01*
X90215138Y-81531306D01*
X90205220Y-81500781D01*
X90205218Y-81500778D01*
X90205218Y-81500776D01*
X90145736Y-81384038D01*
X90112287Y-81318390D01*
X90104556Y-81307749D01*
X89991971Y-81152786D01*
X89987709Y-81148524D01*
X89954224Y-81087201D01*
X89959208Y-81017509D01*
X89987709Y-80973162D01*
X101635319Y-69325552D01*
X101696642Y-69292067D01*
X101766334Y-69297051D01*
X101822267Y-69338923D01*
X101846684Y-69404387D01*
X101847000Y-69413233D01*
X101847000Y-70969752D01*
X101858631Y-71028229D01*
X101858632Y-71028230D01*
X101902947Y-71094552D01*
X101969269Y-71138867D01*
X101969270Y-71138868D01*
X102027747Y-71150499D01*
X102027750Y-71150500D01*
X102027752Y-71150500D01*
X102575500Y-71150500D01*
X102642539Y-71170185D01*
X102688294Y-71222989D01*
X102699500Y-71274500D01*
X102699500Y-71291262D01*
X102709387Y-71328160D01*
X102719979Y-71367690D01*
X102719980Y-71367691D01*
X102759123Y-71435489D01*
X102759540Y-71436211D01*
X102759542Y-71436214D01*
X102931581Y-71608252D01*
X102965066Y-71669575D01*
X102967900Y-71695933D01*
X102967900Y-77030767D01*
X102948215Y-77097806D01*
X102931581Y-77118448D01*
X102386848Y-77663181D01*
X102325525Y-77696666D01*
X102299167Y-77699500D01*
X101295730Y-77699500D01*
X101265300Y-77702353D01*
X101265298Y-77702353D01*
X101137119Y-77747206D01*
X101137117Y-77747207D01*
X101027850Y-77827850D01*
X100947207Y-77937117D01*
X100947206Y-77937119D01*
X100902353Y-78065298D01*
X100902353Y-78065300D01*
X100899500Y-78095730D01*
X100899500Y-78854269D01*
X100902353Y-78884699D01*
X100902353Y-78884701D01*
X100947206Y-79012880D01*
X100947207Y-79012882D01*
X101027850Y-79122150D01*
X101137118Y-79202793D01*
X101179845Y-79217744D01*
X101265299Y-79247646D01*
X101295730Y-79250500D01*
X101295734Y-79250500D01*
X102263967Y-79250500D01*
X102331006Y-79270185D01*
X102376761Y-79322989D01*
X102386705Y-79392147D01*
X102357680Y-79455703D01*
X102351648Y-79462181D01*
X90362298Y-91451529D01*
X90300975Y-91485014D01*
X90231283Y-91480030D01*
X90175350Y-91438158D01*
X90164132Y-91420142D01*
X90112286Y-91318388D01*
X89991971Y-91152786D01*
X89847213Y-91008028D01*
X89681613Y-90887715D01*
X89681612Y-90887714D01*
X89681610Y-90887713D01*
X89624653Y-90858691D01*
X89499223Y-90794781D01*
X89304534Y-90731522D01*
X89129995Y-90703878D01*
X89102352Y-90699500D01*
X88897648Y-90699500D01*
X88873329Y-90703351D01*
X88695465Y-90731522D01*
X88500776Y-90794781D01*
X88318386Y-90887715D01*
X88152786Y-91008028D01*
X88008028Y-91152786D01*
X87887715Y-91318386D01*
X87794781Y-91500776D01*
X87731522Y-91695465D01*
X87699500Y-91897648D01*
X87699500Y-92102351D01*
X87731522Y-92304534D01*
X87794781Y-92499223D01*
X87858691Y-92624653D01*
X87865885Y-92638771D01*
X87887715Y-92681613D01*
X88008028Y-92847213D01*
X88152786Y-92991971D01*
X88307749Y-93104556D01*
X88318390Y-93112287D01*
X88409840Y-93158883D01*
X88411080Y-93159515D01*
X88461876Y-93207490D01*
X88478671Y-93275311D01*
X88456134Y-93341446D01*
X88411080Y-93380485D01*
X88318386Y-93427715D01*
X88152786Y-93548028D01*
X88008028Y-93692786D01*
X87887715Y-93858386D01*
X87794781Y-94040776D01*
X87731522Y-94235465D01*
X87699500Y-94437648D01*
X87699500Y-94642351D01*
X87731522Y-94844534D01*
X87794781Y-95039223D01*
X87887715Y-95221613D01*
X88008028Y-95387213D01*
X88152786Y-95531971D01*
X88307749Y-95644556D01*
X88318390Y-95652287D01*
X88422004Y-95705081D01*
X88500776Y-95745218D01*
X88500778Y-95745218D01*
X88500781Y-95745220D01*
X88605137Y-95779127D01*
X88695465Y-95808477D01*
X88796557Y-95824488D01*
X88897648Y-95840500D01*
X88897649Y-95840500D01*
X89102351Y-95840500D01*
X89102352Y-95840500D01*
X89304534Y-95808477D01*
X89499219Y-95745220D01*
X89681610Y-95652287D01*
X89789658Y-95573786D01*
X89847213Y-95531971D01*
X89847215Y-95531968D01*
X89847219Y-95531966D01*
X89991966Y-95387219D01*
X89991968Y-95387215D01*
X89991971Y-95387213D01*
X90092791Y-95248444D01*
X90112287Y-95221610D01*
X90205220Y-95039219D01*
X90268477Y-94844534D01*
X90300500Y-94642352D01*
X90300500Y-94437648D01*
X90268477Y-94235466D01*
X90205220Y-94040781D01*
X90205218Y-94040778D01*
X90205218Y-94040776D01*
X90151261Y-93934880D01*
X90138365Y-93866211D01*
X90164641Y-93801470D01*
X90174056Y-93790913D01*
X100246427Y-83718543D01*
X116999499Y-83718543D01*
X117037947Y-83911829D01*
X117037950Y-83911839D01*
X117113364Y-84093907D01*
X117113371Y-84093920D01*
X117222860Y-84257781D01*
X117222863Y-84257785D01*
X117362214Y-84397136D01*
X117362218Y-84397139D01*
X117526079Y-84506628D01*
X117526092Y-84506635D01*
X117706212Y-84581242D01*
X117708165Y-84582051D01*
X117708169Y-84582051D01*
X117708170Y-84582052D01*
X117901456Y-84620500D01*
X117901459Y-84620500D01*
X118098543Y-84620500D01*
X118228582Y-84594632D01*
X118291835Y-84582051D01*
X118473914Y-84506632D01*
X118637782Y-84397139D01*
X118777139Y-84257782D01*
X118886632Y-84093914D01*
X118962051Y-83911835D01*
X119000500Y-83718543D01*
X119539499Y-83718543D01*
X119577947Y-83911829D01*
X119577950Y-83911839D01*
X119653364Y-84093907D01*
X119653371Y-84093920D01*
X119762860Y-84257781D01*
X119762863Y-84257785D01*
X119902214Y-84397136D01*
X119902218Y-84397139D01*
X120066079Y-84506628D01*
X120066092Y-84506635D01*
X120246212Y-84581242D01*
X120248165Y-84582051D01*
X120248169Y-84582051D01*
X120248170Y-84582052D01*
X120441456Y-84620500D01*
X120441459Y-84620500D01*
X120638543Y-84620500D01*
X120768582Y-84594632D01*
X120831835Y-84582051D01*
X121013914Y-84506632D01*
X121177782Y-84397139D01*
X121317139Y-84257782D01*
X121426632Y-84093914D01*
X121502051Y-83911835D01*
X121540500Y-83718543D01*
X122079499Y-83718543D01*
X122117947Y-83911829D01*
X122117950Y-83911839D01*
X122193364Y-84093907D01*
X122193371Y-84093920D01*
X122302860Y-84257781D01*
X122302863Y-84257785D01*
X122442214Y-84397136D01*
X122442218Y-84397139D01*
X122606079Y-84506628D01*
X122606092Y-84506635D01*
X122786212Y-84581242D01*
X122788165Y-84582051D01*
X122788169Y-84582051D01*
X122788170Y-84582052D01*
X122981456Y-84620500D01*
X122981459Y-84620500D01*
X123178543Y-84620500D01*
X123308582Y-84594632D01*
X123371835Y-84582051D01*
X123553914Y-84506632D01*
X123717782Y-84397139D01*
X123857139Y-84257782D01*
X123966632Y-84093914D01*
X124042051Y-83911835D01*
X124080500Y-83718541D01*
X124080500Y-83521459D01*
X124080500Y-83521456D01*
X124042052Y-83328170D01*
X124042051Y-83328169D01*
X124042051Y-83328165D01*
X123991125Y-83205218D01*
X123966635Y-83146092D01*
X123966628Y-83146079D01*
X123857139Y-82982218D01*
X123857136Y-82982214D01*
X123717785Y-82842863D01*
X123717781Y-82842860D01*
X123553920Y-82733371D01*
X123553907Y-82733364D01*
X123371839Y-82657950D01*
X123371829Y-82657947D01*
X123178543Y-82619500D01*
X123178541Y-82619500D01*
X122981459Y-82619500D01*
X122981457Y-82619500D01*
X122788170Y-82657947D01*
X122788160Y-82657950D01*
X122606092Y-82733364D01*
X122606079Y-82733371D01*
X122442218Y-82842860D01*
X122442214Y-82842863D01*
X122302863Y-82982214D01*
X122302860Y-82982218D01*
X122193371Y-83146079D01*
X122193364Y-83146092D01*
X122117950Y-83328160D01*
X122117947Y-83328170D01*
X122079500Y-83521456D01*
X122079500Y-83521459D01*
X122079500Y-83718541D01*
X122079500Y-83718543D01*
X122079499Y-83718543D01*
X121540500Y-83718543D01*
X121540500Y-83718541D01*
X121540500Y-83521459D01*
X121540500Y-83521456D01*
X121502052Y-83328170D01*
X121502051Y-83328169D01*
X121502051Y-83328165D01*
X121451125Y-83205218D01*
X121426635Y-83146092D01*
X121426628Y-83146079D01*
X121317139Y-82982218D01*
X121317136Y-82982214D01*
X121177785Y-82842863D01*
X121177781Y-82842860D01*
X121013920Y-82733371D01*
X121013907Y-82733364D01*
X120831839Y-82657950D01*
X120831829Y-82657947D01*
X120638543Y-82619500D01*
X120638541Y-82619500D01*
X120441459Y-82619500D01*
X120441457Y-82619500D01*
X120248170Y-82657947D01*
X120248160Y-82657950D01*
X120066092Y-82733364D01*
X120066079Y-82733371D01*
X119902218Y-82842860D01*
X119902214Y-82842863D01*
X119762863Y-82982214D01*
X119762860Y-82982218D01*
X119653371Y-83146079D01*
X119653364Y-83146092D01*
X119577950Y-83328160D01*
X119577947Y-83328170D01*
X119539500Y-83521456D01*
X119539500Y-83521459D01*
X119539500Y-83718541D01*
X119539500Y-83718543D01*
X119539499Y-83718543D01*
X119000500Y-83718543D01*
X119000500Y-83718541D01*
X119000500Y-83521459D01*
X119000500Y-83521456D01*
X118962052Y-83328170D01*
X118962051Y-83328169D01*
X118962051Y-83328165D01*
X118911125Y-83205218D01*
X118886635Y-83146092D01*
X118886628Y-83146079D01*
X118777139Y-82982218D01*
X118777136Y-82982214D01*
X118637785Y-82842863D01*
X118637781Y-82842860D01*
X118473920Y-82733371D01*
X118473907Y-82733364D01*
X118291839Y-82657950D01*
X118291829Y-82657947D01*
X118098543Y-82619500D01*
X118098541Y-82619500D01*
X117901459Y-82619500D01*
X117901457Y-82619500D01*
X117708170Y-82657947D01*
X117708160Y-82657950D01*
X117526092Y-82733364D01*
X117526079Y-82733371D01*
X117362218Y-82842860D01*
X117362214Y-82842863D01*
X117222863Y-82982214D01*
X117222860Y-82982218D01*
X117113371Y-83146079D01*
X117113364Y-83146092D01*
X117037950Y-83328160D01*
X117037947Y-83328170D01*
X116999500Y-83521456D01*
X116999500Y-83521459D01*
X116999500Y-83718541D01*
X116999500Y-83718543D01*
X116999499Y-83718543D01*
X100246427Y-83718543D01*
X106394241Y-77570730D01*
X106899500Y-77570730D01*
X106899500Y-78329269D01*
X106902353Y-78359699D01*
X106902353Y-78359701D01*
X106947206Y-78487880D01*
X106947207Y-78487882D01*
X107027850Y-78597150D01*
X107137118Y-78677793D01*
X107179845Y-78692744D01*
X107265299Y-78722646D01*
X107295730Y-78725500D01*
X107295734Y-78725500D01*
X108704270Y-78725500D01*
X108734699Y-78722646D01*
X108734701Y-78722646D01*
X108798790Y-78700219D01*
X108862882Y-78677793D01*
X108972150Y-78597150D01*
X109052793Y-78487882D01*
X109078657Y-78413967D01*
X109097646Y-78359701D01*
X109097646Y-78359699D01*
X109100500Y-78329269D01*
X109100500Y-77570730D01*
X109097646Y-77540303D01*
X109097646Y-77540301D01*
X109055211Y-77419030D01*
X109051651Y-77349253D01*
X109084571Y-77290398D01*
X110276428Y-76098543D01*
X119539499Y-76098543D01*
X119577947Y-76291829D01*
X119577950Y-76291839D01*
X119653364Y-76473907D01*
X119653371Y-76473920D01*
X119762860Y-76637781D01*
X119762863Y-76637785D01*
X119902214Y-76777136D01*
X119902218Y-76777139D01*
X120066079Y-76886628D01*
X120066092Y-76886635D01*
X120225814Y-76952793D01*
X120248165Y-76962051D01*
X120248169Y-76962051D01*
X120248170Y-76962052D01*
X120441456Y-77000500D01*
X120441459Y-77000500D01*
X120638543Y-77000500D01*
X120768582Y-76974632D01*
X120831835Y-76962051D01*
X121013914Y-76886632D01*
X121177782Y-76777139D01*
X121317139Y-76637782D01*
X121426632Y-76473914D01*
X121427239Y-76472450D01*
X121502049Y-76291839D01*
X121502051Y-76291835D01*
X121540500Y-76098543D01*
X122079499Y-76098543D01*
X122117947Y-76291829D01*
X122117950Y-76291839D01*
X122193364Y-76473907D01*
X122193371Y-76473920D01*
X122302860Y-76637781D01*
X122302863Y-76637785D01*
X122442214Y-76777136D01*
X122442218Y-76777139D01*
X122606079Y-76886628D01*
X122606092Y-76886635D01*
X122765814Y-76952793D01*
X122788165Y-76962051D01*
X122788169Y-76962051D01*
X122788170Y-76962052D01*
X122981456Y-77000500D01*
X122981459Y-77000500D01*
X123178543Y-77000500D01*
X123308582Y-76974632D01*
X123371835Y-76962051D01*
X123553914Y-76886632D01*
X123717782Y-76777139D01*
X123857139Y-76637782D01*
X123966632Y-76473914D01*
X123967239Y-76472450D01*
X124042049Y-76291839D01*
X124042051Y-76291835D01*
X124080500Y-76098543D01*
X124619499Y-76098543D01*
X124657947Y-76291829D01*
X124657950Y-76291839D01*
X124733364Y-76473907D01*
X124733371Y-76473920D01*
X124842860Y-76637781D01*
X124842863Y-76637785D01*
X124982214Y-76777136D01*
X124982218Y-76777139D01*
X125146079Y-76886628D01*
X125146092Y-76886635D01*
X125305814Y-76952793D01*
X125328165Y-76962051D01*
X125328169Y-76962051D01*
X125328170Y-76962052D01*
X125521456Y-77000500D01*
X125521459Y-77000500D01*
X125718543Y-77000500D01*
X125848582Y-76974632D01*
X125911835Y-76962051D01*
X126093914Y-76886632D01*
X126257782Y-76777139D01*
X126397139Y-76637782D01*
X126506632Y-76473914D01*
X126507239Y-76472450D01*
X126582049Y-76291839D01*
X126582051Y-76291835D01*
X126620500Y-76098543D01*
X127159499Y-76098543D01*
X127197947Y-76291829D01*
X127197950Y-76291839D01*
X127273364Y-76473907D01*
X127273371Y-76473920D01*
X127382860Y-76637781D01*
X127382863Y-76637785D01*
X127522214Y-76777136D01*
X127522218Y-76777139D01*
X127686079Y-76886628D01*
X127686092Y-76886635D01*
X127845814Y-76952793D01*
X127868165Y-76962051D01*
X127868169Y-76962051D01*
X127868170Y-76962052D01*
X128061456Y-77000500D01*
X128061459Y-77000500D01*
X128258543Y-77000500D01*
X128388582Y-76974632D01*
X128451835Y-76962051D01*
X128633914Y-76886632D01*
X128797782Y-76777139D01*
X128937139Y-76637782D01*
X129046632Y-76473914D01*
X129047239Y-76472450D01*
X129122049Y-76291839D01*
X129122051Y-76291835D01*
X129160500Y-76098543D01*
X129699499Y-76098543D01*
X129737947Y-76291829D01*
X129737950Y-76291839D01*
X129813364Y-76473907D01*
X129813371Y-76473920D01*
X129922860Y-76637781D01*
X129922863Y-76637785D01*
X130062214Y-76777136D01*
X130062218Y-76777139D01*
X130226079Y-76886628D01*
X130226092Y-76886635D01*
X130385814Y-76952793D01*
X130408165Y-76962051D01*
X130408169Y-76962051D01*
X130408170Y-76962052D01*
X130601456Y-77000500D01*
X130601459Y-77000500D01*
X130798543Y-77000500D01*
X130928582Y-76974632D01*
X130991835Y-76962051D01*
X131173914Y-76886632D01*
X131337782Y-76777139D01*
X131477139Y-76637782D01*
X131586632Y-76473914D01*
X131587239Y-76472450D01*
X131662049Y-76291839D01*
X131662051Y-76291835D01*
X131700500Y-76098541D01*
X131700500Y-75901459D01*
X131700500Y-75901456D01*
X131662052Y-75708170D01*
X131662051Y-75708169D01*
X131662051Y-75708165D01*
X131650592Y-75680500D01*
X131586635Y-75526092D01*
X131586628Y-75526079D01*
X131477139Y-75362218D01*
X131477136Y-75362214D01*
X131337785Y-75222863D01*
X131337781Y-75222860D01*
X131173920Y-75113371D01*
X131173907Y-75113364D01*
X130991839Y-75037950D01*
X130991829Y-75037947D01*
X130798543Y-74999500D01*
X130798541Y-74999500D01*
X130601459Y-74999500D01*
X130601457Y-74999500D01*
X130408170Y-75037947D01*
X130408160Y-75037950D01*
X130226092Y-75113364D01*
X130226079Y-75113371D01*
X130062218Y-75222860D01*
X130062214Y-75222863D01*
X129922863Y-75362214D01*
X129922860Y-75362218D01*
X129813371Y-75526079D01*
X129813364Y-75526092D01*
X129737950Y-75708160D01*
X129737947Y-75708170D01*
X129699500Y-75901456D01*
X129699500Y-75901459D01*
X129699500Y-76098541D01*
X129699500Y-76098543D01*
X129699499Y-76098543D01*
X129160500Y-76098543D01*
X129160500Y-76098541D01*
X129160500Y-75901459D01*
X129160500Y-75901456D01*
X129122052Y-75708170D01*
X129122051Y-75708169D01*
X129122051Y-75708165D01*
X129110592Y-75680500D01*
X129046635Y-75526092D01*
X129046628Y-75526079D01*
X128937139Y-75362218D01*
X128937136Y-75362214D01*
X128797785Y-75222863D01*
X128797781Y-75222860D01*
X128633920Y-75113371D01*
X128633907Y-75113364D01*
X128451839Y-75037950D01*
X128451829Y-75037947D01*
X128258543Y-74999500D01*
X128258541Y-74999500D01*
X128061459Y-74999500D01*
X128061457Y-74999500D01*
X127868170Y-75037947D01*
X127868160Y-75037950D01*
X127686092Y-75113364D01*
X127686079Y-75113371D01*
X127522218Y-75222860D01*
X127522214Y-75222863D01*
X127382863Y-75362214D01*
X127382860Y-75362218D01*
X127273371Y-75526079D01*
X127273364Y-75526092D01*
X127197950Y-75708160D01*
X127197947Y-75708170D01*
X127159500Y-75901456D01*
X127159500Y-75901459D01*
X127159500Y-76098541D01*
X127159500Y-76098543D01*
X127159499Y-76098543D01*
X126620500Y-76098543D01*
X126620500Y-76098541D01*
X126620500Y-75901459D01*
X126620500Y-75901456D01*
X126582052Y-75708170D01*
X126582051Y-75708169D01*
X126582051Y-75708165D01*
X126570592Y-75680500D01*
X126506635Y-75526092D01*
X126506628Y-75526079D01*
X126397139Y-75362218D01*
X126397136Y-75362214D01*
X126257785Y-75222863D01*
X126257781Y-75222860D01*
X126093920Y-75113371D01*
X126093907Y-75113364D01*
X125911839Y-75037950D01*
X125911829Y-75037947D01*
X125718543Y-74999500D01*
X125718541Y-74999500D01*
X125521459Y-74999500D01*
X125521457Y-74999500D01*
X125328170Y-75037947D01*
X125328160Y-75037950D01*
X125146092Y-75113364D01*
X125146079Y-75113371D01*
X124982218Y-75222860D01*
X124982214Y-75222863D01*
X124842863Y-75362214D01*
X124842860Y-75362218D01*
X124733371Y-75526079D01*
X124733364Y-75526092D01*
X124657950Y-75708160D01*
X124657947Y-75708170D01*
X124619500Y-75901456D01*
X124619500Y-75901459D01*
X124619500Y-76098541D01*
X124619500Y-76098543D01*
X124619499Y-76098543D01*
X124080500Y-76098543D01*
X124080500Y-76098541D01*
X124080500Y-75901459D01*
X124080500Y-75901456D01*
X124042052Y-75708170D01*
X124042051Y-75708169D01*
X124042051Y-75708165D01*
X124030592Y-75680500D01*
X123966635Y-75526092D01*
X123966628Y-75526079D01*
X123857139Y-75362218D01*
X123857136Y-75362214D01*
X123717785Y-75222863D01*
X123717781Y-75222860D01*
X123553920Y-75113371D01*
X123553907Y-75113364D01*
X123371839Y-75037950D01*
X123371829Y-75037947D01*
X123178543Y-74999500D01*
X123178541Y-74999500D01*
X122981459Y-74999500D01*
X122981457Y-74999500D01*
X122788170Y-75037947D01*
X122788160Y-75037950D01*
X122606092Y-75113364D01*
X122606079Y-75113371D01*
X122442218Y-75222860D01*
X122442214Y-75222863D01*
X122302863Y-75362214D01*
X122302860Y-75362218D01*
X122193371Y-75526079D01*
X122193364Y-75526092D01*
X122117950Y-75708160D01*
X122117947Y-75708170D01*
X122079500Y-75901456D01*
X122079500Y-75901459D01*
X122079500Y-76098541D01*
X122079500Y-76098543D01*
X122079499Y-76098543D01*
X121540500Y-76098543D01*
X121540500Y-76098541D01*
X121540500Y-75901459D01*
X121540500Y-75901456D01*
X121502052Y-75708170D01*
X121502051Y-75708169D01*
X121502051Y-75708165D01*
X121490592Y-75680500D01*
X121426635Y-75526092D01*
X121426628Y-75526079D01*
X121317139Y-75362218D01*
X121317136Y-75362214D01*
X121177785Y-75222863D01*
X121177781Y-75222860D01*
X121013920Y-75113371D01*
X121013907Y-75113364D01*
X120831839Y-75037950D01*
X120831829Y-75037947D01*
X120638543Y-74999500D01*
X120638541Y-74999500D01*
X120441459Y-74999500D01*
X120441457Y-74999500D01*
X120248170Y-75037947D01*
X120248160Y-75037950D01*
X120066092Y-75113364D01*
X120066079Y-75113371D01*
X119902218Y-75222860D01*
X119902214Y-75222863D01*
X119762863Y-75362214D01*
X119762860Y-75362218D01*
X119653371Y-75526079D01*
X119653364Y-75526092D01*
X119577950Y-75708160D01*
X119577947Y-75708170D01*
X119539500Y-75901456D01*
X119539500Y-75901459D01*
X119539500Y-76098541D01*
X119539500Y-76098543D01*
X119539499Y-76098543D01*
X110276428Y-76098543D01*
X110557760Y-75817211D01*
X110586047Y-75768216D01*
X110597321Y-75748689D01*
X110617800Y-75672262D01*
X110617800Y-75318440D01*
X110637485Y-75251401D01*
X110672907Y-75215339D01*
X110731969Y-75175876D01*
X110822576Y-75085269D01*
X110893765Y-74978727D01*
X110942801Y-74860344D01*
X110967800Y-74734669D01*
X110967800Y-74606531D01*
X110967800Y-74606528D01*
X110942802Y-74480861D01*
X110942801Y-74480860D01*
X110942801Y-74480856D01*
X110893765Y-74362473D01*
X110893764Y-74362472D01*
X110893761Y-74362466D01*
X110822576Y-74255931D01*
X110822573Y-74255927D01*
X110731972Y-74165326D01*
X110731968Y-74165323D01*
X110625433Y-74094138D01*
X110625424Y-74094133D01*
X110507044Y-74045099D01*
X110507038Y-74045097D01*
X110381371Y-74020100D01*
X110381369Y-74020100D01*
X110253231Y-74020100D01*
X110253229Y-74020100D01*
X110127561Y-74045097D01*
X110127555Y-74045099D01*
X110009175Y-74094133D01*
X110009166Y-74094138D01*
X109902631Y-74165323D01*
X109902627Y-74165326D01*
X109812026Y-74255927D01*
X109812023Y-74255931D01*
X109740838Y-74362466D01*
X109740833Y-74362475D01*
X109691799Y-74480855D01*
X109691797Y-74480861D01*
X109666800Y-74606528D01*
X109666800Y-74606531D01*
X109666800Y-74734669D01*
X109666800Y-74734671D01*
X109666799Y-74734671D01*
X109691797Y-74860338D01*
X109691799Y-74860344D01*
X109740833Y-74978724D01*
X109740838Y-74978733D01*
X109812023Y-75085268D01*
X109812026Y-75085272D01*
X109902628Y-75175874D01*
X109902631Y-75175876D01*
X109961691Y-75215339D01*
X109966781Y-75221428D01*
X109974003Y-75224727D01*
X109988866Y-75247855D01*
X110006495Y-75268949D01*
X110008446Y-75278323D01*
X110011777Y-75283505D01*
X110016800Y-75318440D01*
X110016800Y-75456867D01*
X109997115Y-75523906D01*
X109980481Y-75544548D01*
X108386848Y-77138181D01*
X108325525Y-77171666D01*
X108299167Y-77174500D01*
X107295730Y-77174500D01*
X107265300Y-77177353D01*
X107265298Y-77177353D01*
X107137119Y-77222206D01*
X107137117Y-77222207D01*
X107027850Y-77302850D01*
X106947207Y-77412117D01*
X106947206Y-77412119D01*
X106902353Y-77540298D01*
X106902353Y-77540300D01*
X106899500Y-77570730D01*
X106394241Y-77570730D01*
X107033160Y-76931811D01*
X107072722Y-76863288D01*
X107093200Y-76786862D01*
X107093200Y-76707738D01*
X107093200Y-71806551D01*
X107097425Y-71774457D01*
X107110500Y-71725662D01*
X107110500Y-71718543D01*
X117139499Y-71718543D01*
X117177947Y-71911829D01*
X117177950Y-71911839D01*
X117253364Y-72093907D01*
X117253371Y-72093920D01*
X117362860Y-72257781D01*
X117362863Y-72257785D01*
X117502214Y-72397136D01*
X117502218Y-72397139D01*
X117666079Y-72506628D01*
X117666092Y-72506635D01*
X117816188Y-72568806D01*
X117848165Y-72582051D01*
X117848169Y-72582051D01*
X117848170Y-72582052D01*
X118041456Y-72620500D01*
X118041459Y-72620500D01*
X118238543Y-72620500D01*
X118368582Y-72594632D01*
X118431835Y-72582051D01*
X118613914Y-72506632D01*
X118777782Y-72397139D01*
X118917139Y-72257782D01*
X119026632Y-72093914D01*
X119102051Y-71911835D01*
X119126241Y-71790225D01*
X119140500Y-71718543D01*
X119679499Y-71718543D01*
X119717947Y-71911829D01*
X119717950Y-71911839D01*
X119793364Y-72093907D01*
X119793371Y-72093920D01*
X119902860Y-72257781D01*
X119902863Y-72257785D01*
X120042214Y-72397136D01*
X120042218Y-72397139D01*
X120206079Y-72506628D01*
X120206092Y-72506635D01*
X120356188Y-72568806D01*
X120388165Y-72582051D01*
X120388169Y-72582051D01*
X120388170Y-72582052D01*
X120581456Y-72620500D01*
X120581459Y-72620500D01*
X120778543Y-72620500D01*
X120908582Y-72594632D01*
X120971835Y-72582051D01*
X121153914Y-72506632D01*
X121317782Y-72397139D01*
X121457139Y-72257782D01*
X121566632Y-72093914D01*
X121642051Y-71911835D01*
X121666241Y-71790225D01*
X121680500Y-71718543D01*
X122219499Y-71718543D01*
X122257947Y-71911829D01*
X122257950Y-71911839D01*
X122333364Y-72093907D01*
X122333371Y-72093920D01*
X122442860Y-72257781D01*
X122442863Y-72257785D01*
X122582214Y-72397136D01*
X122582218Y-72397139D01*
X122746079Y-72506628D01*
X122746092Y-72506635D01*
X122896188Y-72568806D01*
X122928165Y-72582051D01*
X122928169Y-72582051D01*
X122928170Y-72582052D01*
X123121456Y-72620500D01*
X123121459Y-72620500D01*
X123318543Y-72620500D01*
X123448582Y-72594632D01*
X123511835Y-72582051D01*
X123693914Y-72506632D01*
X123857782Y-72397139D01*
X123997139Y-72257782D01*
X124106632Y-72093914D01*
X124182051Y-71911835D01*
X124206241Y-71790225D01*
X124220500Y-71718543D01*
X124759499Y-71718543D01*
X124797947Y-71911829D01*
X124797950Y-71911839D01*
X124873364Y-72093907D01*
X124873371Y-72093920D01*
X124982860Y-72257781D01*
X124982863Y-72257785D01*
X125122214Y-72397136D01*
X125122218Y-72397139D01*
X125286079Y-72506628D01*
X125286092Y-72506635D01*
X125436188Y-72568806D01*
X125468165Y-72582051D01*
X125468169Y-72582051D01*
X125468170Y-72582052D01*
X125661456Y-72620500D01*
X125661459Y-72620500D01*
X125858543Y-72620500D01*
X125988582Y-72594632D01*
X126051835Y-72582051D01*
X126233914Y-72506632D01*
X126397782Y-72397139D01*
X126537139Y-72257782D01*
X126646632Y-72093914D01*
X126722051Y-71911835D01*
X126746241Y-71790225D01*
X126760500Y-71718543D01*
X127299499Y-71718543D01*
X127337947Y-71911829D01*
X127337950Y-71911839D01*
X127413364Y-72093907D01*
X127413371Y-72093920D01*
X127522860Y-72257781D01*
X127522863Y-72257785D01*
X127662214Y-72397136D01*
X127662218Y-72397139D01*
X127826079Y-72506628D01*
X127826092Y-72506635D01*
X127976188Y-72568806D01*
X128008165Y-72582051D01*
X128008169Y-72582051D01*
X128008170Y-72582052D01*
X128201456Y-72620500D01*
X128201459Y-72620500D01*
X128398543Y-72620500D01*
X128528582Y-72594632D01*
X128591835Y-72582051D01*
X128773914Y-72506632D01*
X128937782Y-72397139D01*
X129077139Y-72257782D01*
X129186632Y-72093914D01*
X129262051Y-71911835D01*
X129286241Y-71790225D01*
X129300500Y-71718543D01*
X129300500Y-71521456D01*
X129262052Y-71328170D01*
X129262051Y-71328169D01*
X129262051Y-71328165D01*
X129262049Y-71328160D01*
X129186635Y-71146092D01*
X129186628Y-71146079D01*
X129077139Y-70982218D01*
X129077136Y-70982214D01*
X128937785Y-70842863D01*
X128937781Y-70842860D01*
X128773920Y-70733371D01*
X128773907Y-70733364D01*
X128591839Y-70657950D01*
X128591829Y-70657947D01*
X128398543Y-70619500D01*
X128398541Y-70619500D01*
X128201459Y-70619500D01*
X128201457Y-70619500D01*
X128008170Y-70657947D01*
X128008160Y-70657950D01*
X127826092Y-70733364D01*
X127826079Y-70733371D01*
X127662218Y-70842860D01*
X127662214Y-70842863D01*
X127522863Y-70982214D01*
X127522860Y-70982218D01*
X127413371Y-71146079D01*
X127413364Y-71146092D01*
X127337950Y-71328160D01*
X127337947Y-71328170D01*
X127299500Y-71521456D01*
X127299500Y-71521459D01*
X127299500Y-71718541D01*
X127299500Y-71718543D01*
X127299499Y-71718543D01*
X126760500Y-71718543D01*
X126760500Y-71521456D01*
X126722052Y-71328170D01*
X126722051Y-71328169D01*
X126722051Y-71328165D01*
X126722049Y-71328160D01*
X126646635Y-71146092D01*
X126646628Y-71146079D01*
X126537139Y-70982218D01*
X126537136Y-70982214D01*
X126397785Y-70842863D01*
X126397781Y-70842860D01*
X126233920Y-70733371D01*
X126233907Y-70733364D01*
X126051839Y-70657950D01*
X126051829Y-70657947D01*
X125858543Y-70619500D01*
X125858541Y-70619500D01*
X125661459Y-70619500D01*
X125661457Y-70619500D01*
X125468170Y-70657947D01*
X125468160Y-70657950D01*
X125286092Y-70733364D01*
X125286079Y-70733371D01*
X125122218Y-70842860D01*
X125122214Y-70842863D01*
X124982863Y-70982214D01*
X124982860Y-70982218D01*
X124873371Y-71146079D01*
X124873364Y-71146092D01*
X124797950Y-71328160D01*
X124797947Y-71328170D01*
X124759500Y-71521456D01*
X124759500Y-71521459D01*
X124759500Y-71718541D01*
X124759500Y-71718543D01*
X124759499Y-71718543D01*
X124220500Y-71718543D01*
X124220500Y-71521456D01*
X124182052Y-71328170D01*
X124182051Y-71328169D01*
X124182051Y-71328165D01*
X124182049Y-71328160D01*
X124106635Y-71146092D01*
X124106628Y-71146079D01*
X123997139Y-70982218D01*
X123997136Y-70982214D01*
X123857785Y-70842863D01*
X123857781Y-70842860D01*
X123693920Y-70733371D01*
X123693907Y-70733364D01*
X123511839Y-70657950D01*
X123511829Y-70657947D01*
X123318543Y-70619500D01*
X123318541Y-70619500D01*
X123121459Y-70619500D01*
X123121457Y-70619500D01*
X122928170Y-70657947D01*
X122928160Y-70657950D01*
X122746092Y-70733364D01*
X122746079Y-70733371D01*
X122582218Y-70842860D01*
X122582214Y-70842863D01*
X122442863Y-70982214D01*
X122442860Y-70982218D01*
X122333371Y-71146079D01*
X122333364Y-71146092D01*
X122257950Y-71328160D01*
X122257947Y-71328170D01*
X122219500Y-71521456D01*
X122219500Y-71521459D01*
X122219500Y-71718541D01*
X122219500Y-71718543D01*
X122219499Y-71718543D01*
X121680500Y-71718543D01*
X121680500Y-71521456D01*
X121642052Y-71328170D01*
X121642051Y-71328169D01*
X121642051Y-71328165D01*
X121642049Y-71328160D01*
X121566635Y-71146092D01*
X121566628Y-71146079D01*
X121457139Y-70982218D01*
X121457136Y-70982214D01*
X121317785Y-70842863D01*
X121317781Y-70842860D01*
X121153920Y-70733371D01*
X121153907Y-70733364D01*
X120971839Y-70657950D01*
X120971829Y-70657947D01*
X120778543Y-70619500D01*
X120778541Y-70619500D01*
X120581459Y-70619500D01*
X120581457Y-70619500D01*
X120388170Y-70657947D01*
X120388160Y-70657950D01*
X120206092Y-70733364D01*
X120206079Y-70733371D01*
X120042218Y-70842860D01*
X120042214Y-70842863D01*
X119902863Y-70982214D01*
X119902860Y-70982218D01*
X119793371Y-71146079D01*
X119793364Y-71146092D01*
X119717950Y-71328160D01*
X119717947Y-71328170D01*
X119679500Y-71521456D01*
X119679500Y-71521459D01*
X119679500Y-71718541D01*
X119679500Y-71718543D01*
X119679499Y-71718543D01*
X119140500Y-71718543D01*
X119140500Y-71521456D01*
X119102052Y-71328170D01*
X119102051Y-71328169D01*
X119102051Y-71328165D01*
X119102049Y-71328160D01*
X119026635Y-71146092D01*
X119026628Y-71146079D01*
X118917139Y-70982218D01*
X118917136Y-70982214D01*
X118777785Y-70842863D01*
X118777781Y-70842860D01*
X118613920Y-70733371D01*
X118613907Y-70733364D01*
X118431839Y-70657950D01*
X118431829Y-70657947D01*
X118238543Y-70619500D01*
X118238541Y-70619500D01*
X118041459Y-70619500D01*
X118041457Y-70619500D01*
X117848170Y-70657947D01*
X117848160Y-70657950D01*
X117666092Y-70733364D01*
X117666079Y-70733371D01*
X117502218Y-70842860D01*
X117502214Y-70842863D01*
X117362863Y-70982214D01*
X117362860Y-70982218D01*
X117253371Y-71146079D01*
X117253364Y-71146092D01*
X117177950Y-71328160D01*
X117177947Y-71328170D01*
X117139500Y-71521456D01*
X117139500Y-71521459D01*
X117139500Y-71718541D01*
X117139500Y-71718543D01*
X117139499Y-71718543D01*
X107110500Y-71718543D01*
X107110500Y-70957950D01*
X107130185Y-70890911D01*
X107182989Y-70845156D01*
X107252147Y-70835212D01*
X107315703Y-70864237D01*
X107322181Y-70870269D01*
X107328871Y-70876959D01*
X107475696Y-70983634D01*
X107563219Y-71028229D01*
X107637404Y-71066028D01*
X107810001Y-71122108D01*
X107810002Y-71122108D01*
X107810005Y-71122109D01*
X107989257Y-71150500D01*
X107989258Y-71150500D01*
X108170742Y-71150500D01*
X108170743Y-71150500D01*
X108349995Y-71122109D01*
X108349998Y-71122108D01*
X108349999Y-71122108D01*
X108522595Y-71066028D01*
X108522595Y-71066027D01*
X108522598Y-71066027D01*
X108684304Y-70983634D01*
X108831129Y-70876959D01*
X108959459Y-70748629D01*
X109066134Y-70601804D01*
X109148527Y-70440098D01*
X109182291Y-70336183D01*
X109221728Y-70278507D01*
X109286086Y-70251308D01*
X109300222Y-70250500D01*
X113794560Y-70250500D01*
X113794562Y-70250500D01*
X113870989Y-70230021D01*
X113939511Y-70190460D01*
X113995460Y-70134511D01*
X119631530Y-64498440D01*
X119692851Y-64464957D01*
X119762543Y-64469941D01*
X119818476Y-64511813D01*
X119822311Y-64517232D01*
X119902860Y-64637781D01*
X119902863Y-64637785D01*
X120042214Y-64777136D01*
X120042218Y-64777139D01*
X120206079Y-64886628D01*
X120206092Y-64886635D01*
X120365814Y-64952793D01*
X120388165Y-64962051D01*
X120388169Y-64962051D01*
X120388170Y-64962052D01*
X120581456Y-65000500D01*
X120581459Y-65000500D01*
X120778543Y-65000500D01*
X120908582Y-64974632D01*
X120971835Y-64962051D01*
X121153914Y-64886632D01*
X121317782Y-64777139D01*
X121457139Y-64637782D01*
X121566632Y-64473914D01*
X121642051Y-64291835D01*
X121666181Y-64170529D01*
X121680500Y-64098543D01*
X121680500Y-63901456D01*
X121642052Y-63708170D01*
X121642051Y-63708169D01*
X121642051Y-63708165D01*
X121625086Y-63667207D01*
X121566635Y-63526092D01*
X121566628Y-63526079D01*
X121476833Y-63391691D01*
X121455955Y-63325013D01*
X121474440Y-63257633D01*
X121526419Y-63210943D01*
X121579935Y-63198800D01*
X122320065Y-63198800D01*
X122387104Y-63218485D01*
X122432859Y-63271289D01*
X122442803Y-63340447D01*
X122423167Y-63391691D01*
X122333371Y-63526079D01*
X122333364Y-63526092D01*
X122257950Y-63708160D01*
X122257947Y-63708170D01*
X122219500Y-63901456D01*
X122219500Y-63901459D01*
X122219500Y-64098541D01*
X122219500Y-64098543D01*
X122219499Y-64098543D01*
X122257947Y-64291829D01*
X122257950Y-64291839D01*
X122333364Y-64473907D01*
X122333371Y-64473920D01*
X122442860Y-64637781D01*
X122442863Y-64637785D01*
X122582214Y-64777136D01*
X122582218Y-64777139D01*
X122746079Y-64886628D01*
X122746092Y-64886635D01*
X122905814Y-64952793D01*
X122928165Y-64962051D01*
X122928169Y-64962051D01*
X122928170Y-64962052D01*
X123121456Y-65000500D01*
X123121459Y-65000500D01*
X123318543Y-65000500D01*
X123448582Y-64974632D01*
X123511835Y-64962051D01*
X123693914Y-64886632D01*
X123857782Y-64777139D01*
X123997139Y-64637782D01*
X124106632Y-64473914D01*
X124182051Y-64291835D01*
X124206181Y-64170529D01*
X124220500Y-64098543D01*
X124220500Y-63901456D01*
X124182052Y-63708170D01*
X124182051Y-63708169D01*
X124182051Y-63708165D01*
X124165086Y-63667207D01*
X124106635Y-63526092D01*
X124106628Y-63526079D01*
X124016833Y-63391691D01*
X123995955Y-63325013D01*
X124014440Y-63257633D01*
X124066419Y-63210943D01*
X124119935Y-63198800D01*
X124860065Y-63198800D01*
X124927104Y-63218485D01*
X124972859Y-63271289D01*
X124982803Y-63340447D01*
X124963167Y-63391691D01*
X124873371Y-63526079D01*
X124873364Y-63526092D01*
X124797950Y-63708160D01*
X124797947Y-63708170D01*
X124759500Y-63901456D01*
X124759500Y-63901459D01*
X124759500Y-64098541D01*
X124759500Y-64098543D01*
X124759499Y-64098543D01*
X124797947Y-64291829D01*
X124797950Y-64291839D01*
X124873364Y-64473907D01*
X124873371Y-64473920D01*
X124982860Y-64637781D01*
X124982863Y-64637785D01*
X125122214Y-64777136D01*
X125122218Y-64777139D01*
X125286079Y-64886628D01*
X125286092Y-64886635D01*
X125445814Y-64952793D01*
X125468165Y-64962051D01*
X125468169Y-64962051D01*
X125468170Y-64962052D01*
X125661456Y-65000500D01*
X125661459Y-65000500D01*
X125858543Y-65000500D01*
X125988582Y-64974632D01*
X126051835Y-64962051D01*
X126233914Y-64886632D01*
X126397782Y-64777139D01*
X126537139Y-64637782D01*
X126646632Y-64473914D01*
X126722051Y-64291835D01*
X126746181Y-64170529D01*
X126760500Y-64098543D01*
X126760500Y-63901456D01*
X126722052Y-63708170D01*
X126722051Y-63708169D01*
X126722051Y-63708165D01*
X126705086Y-63667207D01*
X126646635Y-63526092D01*
X126646628Y-63526079D01*
X126556833Y-63391691D01*
X126535955Y-63325013D01*
X126554440Y-63257633D01*
X126606419Y-63210943D01*
X126659935Y-63198800D01*
X127400065Y-63198800D01*
X127467104Y-63218485D01*
X127512859Y-63271289D01*
X127522803Y-63340447D01*
X127503167Y-63391691D01*
X127413371Y-63526079D01*
X127413364Y-63526092D01*
X127337950Y-63708160D01*
X127337947Y-63708170D01*
X127299500Y-63901456D01*
X127299500Y-63901459D01*
X127299500Y-64098541D01*
X127299500Y-64098543D01*
X127299499Y-64098543D01*
X127337947Y-64291829D01*
X127337950Y-64291839D01*
X127413364Y-64473907D01*
X127413371Y-64473920D01*
X127522860Y-64637781D01*
X127522863Y-64637785D01*
X127662214Y-64777136D01*
X127662218Y-64777139D01*
X127826079Y-64886628D01*
X127826092Y-64886635D01*
X127985814Y-64952793D01*
X128008165Y-64962051D01*
X128008169Y-64962051D01*
X128008170Y-64962052D01*
X128201456Y-65000500D01*
X128201459Y-65000500D01*
X128398543Y-65000500D01*
X128528582Y-64974632D01*
X128591835Y-64962051D01*
X128773914Y-64886632D01*
X128937782Y-64777139D01*
X129077139Y-64637782D01*
X129186632Y-64473914D01*
X129262051Y-64291835D01*
X129286181Y-64170529D01*
X129300500Y-64098543D01*
X129300500Y-63901456D01*
X129262052Y-63708170D01*
X129262051Y-63708169D01*
X129262051Y-63708165D01*
X129245086Y-63667207D01*
X129186635Y-63526092D01*
X129186628Y-63526079D01*
X129096833Y-63391691D01*
X129075955Y-63325013D01*
X129094440Y-63257633D01*
X129146419Y-63210943D01*
X129199935Y-63198800D01*
X129940065Y-63198800D01*
X130007104Y-63218485D01*
X130052859Y-63271289D01*
X130062803Y-63340447D01*
X130043167Y-63391691D01*
X129953371Y-63526079D01*
X129953364Y-63526092D01*
X129877950Y-63708160D01*
X129877947Y-63708170D01*
X129839500Y-63901456D01*
X129839500Y-63901459D01*
X129839500Y-64098541D01*
X129839500Y-64098543D01*
X129839499Y-64098543D01*
X129877947Y-64291829D01*
X129877950Y-64291839D01*
X129953364Y-64473907D01*
X129953371Y-64473920D01*
X130062860Y-64637781D01*
X130062863Y-64637785D01*
X130202214Y-64777136D01*
X130202218Y-64777139D01*
X130366079Y-64886628D01*
X130366092Y-64886635D01*
X130525814Y-64952793D01*
X130548165Y-64962051D01*
X130548169Y-64962051D01*
X130548170Y-64962052D01*
X130741456Y-65000500D01*
X130741459Y-65000500D01*
X130938543Y-65000500D01*
X131068582Y-64974632D01*
X131131835Y-64962051D01*
X131313914Y-64886632D01*
X131477782Y-64777139D01*
X131617139Y-64637782D01*
X131726632Y-64473914D01*
X131802051Y-64291835D01*
X131826181Y-64170529D01*
X131840500Y-64098543D01*
X131840500Y-63901456D01*
X131802052Y-63708170D01*
X131802051Y-63708169D01*
X131802051Y-63708165D01*
X131785086Y-63667207D01*
X131726635Y-63526092D01*
X131726628Y-63526079D01*
X131636833Y-63391691D01*
X131615955Y-63325013D01*
X131634440Y-63257633D01*
X131686419Y-63210943D01*
X131739935Y-63198800D01*
X132480065Y-63198800D01*
X132547104Y-63218485D01*
X132592859Y-63271289D01*
X132602803Y-63340447D01*
X132583167Y-63391691D01*
X132493371Y-63526079D01*
X132493364Y-63526092D01*
X132417950Y-63708160D01*
X132417947Y-63708170D01*
X132379500Y-63901456D01*
X132379500Y-63901459D01*
X132379500Y-64098541D01*
X132379500Y-64098543D01*
X132379499Y-64098543D01*
X132417947Y-64291829D01*
X132417950Y-64291839D01*
X132493364Y-64473907D01*
X132493371Y-64473920D01*
X132602860Y-64637781D01*
X132602863Y-64637785D01*
X132742214Y-64777136D01*
X132742218Y-64777139D01*
X132906079Y-64886628D01*
X132906092Y-64886635D01*
X133065814Y-64952793D01*
X133088165Y-64962051D01*
X133088169Y-64962051D01*
X133088170Y-64962052D01*
X133281456Y-65000500D01*
X133281459Y-65000500D01*
X133478543Y-65000500D01*
X133608582Y-64974632D01*
X133671835Y-64962051D01*
X133853914Y-64886632D01*
X134017782Y-64777139D01*
X134157139Y-64637782D01*
X134266632Y-64473914D01*
X134342051Y-64291835D01*
X134366181Y-64170529D01*
X134380500Y-64098543D01*
X134380500Y-63901456D01*
X134342052Y-63708170D01*
X134342051Y-63708169D01*
X134342051Y-63708165D01*
X134325086Y-63667207D01*
X134266635Y-63526092D01*
X134266628Y-63526079D01*
X134176833Y-63391691D01*
X134155955Y-63325013D01*
X134174440Y-63257633D01*
X134226419Y-63210943D01*
X134279935Y-63198800D01*
X135020065Y-63198800D01*
X135087104Y-63218485D01*
X135132859Y-63271289D01*
X135142803Y-63340447D01*
X135123167Y-63391691D01*
X135033371Y-63526079D01*
X135033364Y-63526092D01*
X134957950Y-63708160D01*
X134957947Y-63708170D01*
X134919500Y-63901456D01*
X134919500Y-63901459D01*
X134919500Y-64098541D01*
X134919500Y-64098543D01*
X134919499Y-64098543D01*
X134957947Y-64291829D01*
X134957950Y-64291839D01*
X135033364Y-64473907D01*
X135033371Y-64473920D01*
X135142860Y-64637781D01*
X135142863Y-64637785D01*
X135282214Y-64777136D01*
X135282218Y-64777139D01*
X135446079Y-64886628D01*
X135446092Y-64886635D01*
X135605814Y-64952793D01*
X135628165Y-64962051D01*
X135628169Y-64962051D01*
X135628170Y-64962052D01*
X135821456Y-65000500D01*
X135821459Y-65000500D01*
X136018543Y-65000500D01*
X136148582Y-64974632D01*
X136211835Y-64962051D01*
X136393914Y-64886632D01*
X136557782Y-64777139D01*
X136697139Y-64637782D01*
X136806632Y-64473914D01*
X136882051Y-64291835D01*
X136906181Y-64170529D01*
X136920500Y-64098543D01*
X136920500Y-63901456D01*
X136882052Y-63708170D01*
X136882051Y-63708169D01*
X136882051Y-63708165D01*
X136865086Y-63667207D01*
X136806635Y-63526092D01*
X136806628Y-63526079D01*
X136716833Y-63391691D01*
X136695955Y-63325013D01*
X136714440Y-63257633D01*
X136766419Y-63210943D01*
X136819935Y-63198800D01*
X137560065Y-63198800D01*
X137627104Y-63218485D01*
X137672859Y-63271289D01*
X137682803Y-63340447D01*
X137663167Y-63391691D01*
X137573371Y-63526079D01*
X137573364Y-63526092D01*
X137497950Y-63708160D01*
X137497947Y-63708170D01*
X137459500Y-63901456D01*
X137459500Y-63901459D01*
X137459500Y-64098541D01*
X137459500Y-64098543D01*
X137459499Y-64098543D01*
X137497947Y-64291829D01*
X137497950Y-64291839D01*
X137573364Y-64473907D01*
X137573371Y-64473920D01*
X137682860Y-64637781D01*
X137682863Y-64637785D01*
X137822214Y-64777136D01*
X137822218Y-64777139D01*
X137986079Y-64886628D01*
X137986092Y-64886635D01*
X138145814Y-64952793D01*
X138168165Y-64962051D01*
X138168169Y-64962051D01*
X138168170Y-64962052D01*
X138361456Y-65000500D01*
X138367519Y-65001097D01*
X138367245Y-65003870D01*
X138422805Y-65020185D01*
X138468560Y-65072989D01*
X138478504Y-65142147D01*
X138449479Y-65205703D01*
X138443447Y-65212181D01*
X134432048Y-69223581D01*
X134370725Y-69257066D01*
X134344367Y-69259900D01*
X133780538Y-69259900D01*
X133742324Y-69270139D01*
X133704109Y-69280379D01*
X133678701Y-69295049D01*
X133675295Y-69297016D01*
X133663498Y-69303826D01*
X133635589Y-69319939D01*
X131980941Y-70974587D01*
X131980935Y-70974595D01*
X131941382Y-71043104D01*
X131941378Y-71043114D01*
X131931048Y-71081663D01*
X131894682Y-71141323D01*
X131831834Y-71171851D01*
X131762459Y-71163554D01*
X131708582Y-71119068D01*
X131708172Y-71118458D01*
X131617139Y-70982218D01*
X131617136Y-70982214D01*
X131477785Y-70842863D01*
X131477781Y-70842860D01*
X131313920Y-70733371D01*
X131313907Y-70733364D01*
X131131839Y-70657950D01*
X131131829Y-70657947D01*
X130938543Y-70619500D01*
X130938541Y-70619500D01*
X130741459Y-70619500D01*
X130741457Y-70619500D01*
X130548170Y-70657947D01*
X130548160Y-70657950D01*
X130366092Y-70733364D01*
X130366079Y-70733371D01*
X130202218Y-70842860D01*
X130202214Y-70842863D01*
X130062863Y-70982214D01*
X130062860Y-70982218D01*
X129953371Y-71146079D01*
X129953364Y-71146092D01*
X129877950Y-71328160D01*
X129877947Y-71328170D01*
X129839500Y-71521456D01*
X129839500Y-71521459D01*
X129839500Y-71718541D01*
X129839500Y-71718543D01*
X129839499Y-71718543D01*
X129877947Y-71911829D01*
X129877950Y-71911839D01*
X129953364Y-72093907D01*
X129953371Y-72093920D01*
X130062860Y-72257781D01*
X130062863Y-72257785D01*
X130202214Y-72397136D01*
X130202218Y-72397139D01*
X130366079Y-72506628D01*
X130366092Y-72506635D01*
X130516188Y-72568806D01*
X130548165Y-72582051D01*
X130548169Y-72582051D01*
X130548170Y-72582052D01*
X130741456Y-72620500D01*
X130741459Y-72620500D01*
X130938543Y-72620500D01*
X131068582Y-72594632D01*
X131131835Y-72582051D01*
X131313914Y-72506632D01*
X131477782Y-72397139D01*
X131617139Y-72257782D01*
X131693798Y-72143054D01*
X131747410Y-72098249D01*
X131816735Y-72089542D01*
X131879762Y-72119696D01*
X131916482Y-72179139D01*
X131920900Y-72211945D01*
X131920900Y-75020962D01*
X131931874Y-75061918D01*
X131941378Y-75097387D01*
X131958967Y-75127852D01*
X131980939Y-75165909D01*
X131980941Y-75165912D01*
X132291192Y-75476163D01*
X132324677Y-75537486D01*
X132319693Y-75607178D01*
X132318073Y-75611295D01*
X132293196Y-75671353D01*
X132289409Y-75680499D01*
X132277948Y-75708168D01*
X132277947Y-75708171D01*
X132239500Y-75901456D01*
X132239500Y-75901459D01*
X132239500Y-76098541D01*
X132239500Y-76098543D01*
X132239499Y-76098543D01*
X132277947Y-76291829D01*
X132277950Y-76291839D01*
X132353364Y-76473907D01*
X132353371Y-76473920D01*
X132462860Y-76637781D01*
X132462863Y-76637785D01*
X132602214Y-76777136D01*
X132602218Y-76777139D01*
X132766079Y-76886628D01*
X132766092Y-76886635D01*
X132925814Y-76952793D01*
X132948165Y-76962051D01*
X132948169Y-76962051D01*
X132948170Y-76962052D01*
X133122926Y-76996814D01*
X133184837Y-77029199D01*
X133219411Y-77089915D01*
X133215671Y-77159684D01*
X133186415Y-77206112D01*
X128582248Y-81810281D01*
X128520925Y-81843766D01*
X128494567Y-81846600D01*
X128028238Y-81846600D01*
X127951810Y-81867078D01*
X127883289Y-81906640D01*
X127883286Y-81906642D01*
X126705489Y-83084440D01*
X126705488Y-83084441D01*
X126668430Y-83121498D01*
X126607106Y-83154983D01*
X126537415Y-83149997D01*
X126481482Y-83108125D01*
X126477648Y-83102707D01*
X126397139Y-82982218D01*
X126397136Y-82982214D01*
X126257785Y-82842863D01*
X126257781Y-82842860D01*
X126093920Y-82733371D01*
X126093907Y-82733364D01*
X125911839Y-82657950D01*
X125911829Y-82657947D01*
X125718543Y-82619500D01*
X125718541Y-82619500D01*
X125521459Y-82619500D01*
X125521457Y-82619500D01*
X125328170Y-82657947D01*
X125328160Y-82657950D01*
X125146092Y-82733364D01*
X125146079Y-82733371D01*
X124982218Y-82842860D01*
X124982214Y-82842863D01*
X124842863Y-82982214D01*
X124842860Y-82982218D01*
X124733371Y-83146079D01*
X124733364Y-83146092D01*
X124657950Y-83328160D01*
X124657947Y-83328170D01*
X124619500Y-83521456D01*
X124619500Y-83521459D01*
X124619500Y-83718541D01*
X124619500Y-83718543D01*
X124619499Y-83718543D01*
X124657947Y-83911829D01*
X124657950Y-83911839D01*
X124733364Y-84093907D01*
X124733371Y-84093920D01*
X124842860Y-84257781D01*
X124842863Y-84257785D01*
X124982214Y-84397136D01*
X124982218Y-84397139D01*
X125146079Y-84506628D01*
X125146092Y-84506635D01*
X125326212Y-84581242D01*
X125328165Y-84582051D01*
X125328169Y-84582051D01*
X125328170Y-84582052D01*
X125521456Y-84620500D01*
X125575166Y-84620500D01*
X125642205Y-84640185D01*
X125687960Y-84692989D01*
X125697904Y-84762147D01*
X125668879Y-84825703D01*
X125662847Y-84832181D01*
X115831846Y-94663181D01*
X115770523Y-94696666D01*
X115744165Y-94699500D01*
X114015739Y-94699500D01*
X114001751Y-94700811D01*
X113985300Y-94702354D01*
X113985297Y-94702354D01*
X113985296Y-94702355D01*
X113985294Y-94702355D01*
X113857117Y-94747206D01*
X113747849Y-94827849D01*
X113667206Y-94937118D01*
X113622353Y-95065297D01*
X113622353Y-95065299D01*
X113619500Y-95095729D01*
X113619500Y-96904260D01*
X113620580Y-96915779D01*
X113622354Y-96934700D01*
X113622354Y-96934702D01*
X113622355Y-96934703D01*
X113622355Y-96934705D01*
X113667206Y-97062882D01*
X113747849Y-97172150D01*
X113796181Y-97207820D01*
X113857117Y-97252793D01*
X113892414Y-97265144D01*
X113985298Y-97297646D01*
X113992323Y-97298304D01*
X114015733Y-97300500D01*
X115824266Y-97300499D01*
X115854700Y-97297646D01*
X115982883Y-97252793D01*
X116092150Y-97172150D01*
X116172793Y-97062883D01*
X116200538Y-96983592D01*
X116217646Y-96934702D01*
X116217646Y-96934700D01*
X116220500Y-96904267D01*
X116220499Y-96888153D01*
X116240180Y-96821116D01*
X116292982Y-96775358D01*
X116362140Y-96765411D01*
X116425697Y-96794433D01*
X116444817Y-96815265D01*
X116468028Y-96847212D01*
X116468032Y-96847217D01*
X116612786Y-96991971D01*
X116733653Y-97079784D01*
X116778390Y-97112287D01*
X116871777Y-97159870D01*
X116960776Y-97205218D01*
X116960778Y-97205218D01*
X116960781Y-97205220D01*
X117055441Y-97235977D01*
X117155465Y-97268477D01*
X117256557Y-97284488D01*
X117357648Y-97300500D01*
X117357649Y-97300500D01*
X117562351Y-97300500D01*
X117562352Y-97300500D01*
X117764534Y-97268477D01*
X117959219Y-97205220D01*
X118141610Y-97112287D01*
X118254342Y-97030383D01*
X118307213Y-96991971D01*
X118307215Y-96991968D01*
X118307219Y-96991966D01*
X118451966Y-96847219D01*
X118451968Y-96847215D01*
X118451971Y-96847213D01*
X118572284Y-96681614D01*
X118572285Y-96681613D01*
X118572287Y-96681610D01*
X118619516Y-96588917D01*
X118667489Y-96538123D01*
X118735310Y-96521328D01*
X118801445Y-96543865D01*
X118840483Y-96588917D01*
X118884348Y-96675006D01*
X118887715Y-96681614D01*
X119008028Y-96847213D01*
X119152786Y-96991971D01*
X119273653Y-97079784D01*
X119318390Y-97112287D01*
X119411777Y-97159870D01*
X119500776Y-97205218D01*
X119500778Y-97205218D01*
X119500781Y-97205220D01*
X119595441Y-97235977D01*
X119695465Y-97268477D01*
X119796557Y-97284488D01*
X119897648Y-97300500D01*
X119897649Y-97300500D01*
X120102351Y-97300500D01*
X120102352Y-97300500D01*
X120304534Y-97268477D01*
X120499219Y-97205220D01*
X120681610Y-97112287D01*
X120794342Y-97030383D01*
X120847213Y-96991971D01*
X120847215Y-96991968D01*
X120847219Y-96991966D01*
X120991966Y-96847219D01*
X120991968Y-96847215D01*
X120991971Y-96847213D01*
X121044732Y-96774590D01*
X121112287Y-96681610D01*
X121205220Y-96499219D01*
X121268477Y-96304534D01*
X121300500Y-96102352D01*
X121300500Y-95897648D01*
X121295352Y-95865148D01*
X121268477Y-95695465D01*
X121215354Y-95531971D01*
X121205220Y-95500781D01*
X121205218Y-95500778D01*
X121205218Y-95500776D01*
X121168837Y-95429376D01*
X121112287Y-95318390D01*
X121061468Y-95248443D01*
X120991971Y-95152786D01*
X120902414Y-95063229D01*
X128159500Y-95063229D01*
X128159500Y-96871760D01*
X128160580Y-96883279D01*
X128162354Y-96902200D01*
X128162354Y-96902202D01*
X128162355Y-96902203D01*
X128162355Y-96902205D01*
X128207206Y-97030382D01*
X128287849Y-97139650D01*
X128315247Y-97159870D01*
X128397117Y-97220293D01*
X128439844Y-97235244D01*
X128525298Y-97265146D01*
X128532323Y-97265804D01*
X128555733Y-97268000D01*
X130364266Y-97267999D01*
X130394700Y-97265146D01*
X130522883Y-97220293D01*
X130632150Y-97139650D01*
X130712793Y-97030383D01*
X130746274Y-96934700D01*
X130757646Y-96902202D01*
X130757646Y-96902200D01*
X130758963Y-96888157D01*
X130760500Y-96871767D01*
X130760499Y-96855653D01*
X130780180Y-96788616D01*
X130832982Y-96742858D01*
X130902140Y-96732911D01*
X130965697Y-96761933D01*
X130984817Y-96782765D01*
X131008028Y-96814712D01*
X131008032Y-96814717D01*
X131152786Y-96959471D01*
X131295121Y-97062881D01*
X131318390Y-97079787D01*
X131434607Y-97139003D01*
X131500776Y-97172718D01*
X131500778Y-97172718D01*
X131500781Y-97172720D01*
X131600800Y-97205218D01*
X131695465Y-97235977D01*
X131796557Y-97251988D01*
X131897648Y-97268000D01*
X131897649Y-97268000D01*
X132102351Y-97268000D01*
X132102352Y-97268000D01*
X132304534Y-97235977D01*
X132499219Y-97172720D01*
X132681610Y-97079787D01*
X132786377Y-97003670D01*
X132847213Y-96959471D01*
X132847215Y-96959468D01*
X132847219Y-96959466D01*
X132991966Y-96814719D01*
X132991968Y-96814715D01*
X132991971Y-96814713D01*
X133112284Y-96649114D01*
X133112285Y-96649113D01*
X133112287Y-96649110D01*
X133159516Y-96556417D01*
X133207489Y-96505623D01*
X133275310Y-96488828D01*
X133341445Y-96511365D01*
X133380485Y-96556419D01*
X133427715Y-96649114D01*
X133548028Y-96814713D01*
X133692786Y-96959471D01*
X133835121Y-97062881D01*
X133858390Y-97079787D01*
X133974607Y-97139003D01*
X134040776Y-97172718D01*
X134040778Y-97172718D01*
X134040781Y-97172720D01*
X134140800Y-97205218D01*
X134235465Y-97235977D01*
X134336557Y-97251988D01*
X134437648Y-97268000D01*
X134437649Y-97268000D01*
X134642351Y-97268000D01*
X134642352Y-97268000D01*
X134844534Y-97235977D01*
X135039219Y-97172720D01*
X135221610Y-97079787D01*
X135326377Y-97003670D01*
X135387213Y-96959471D01*
X135387215Y-96959468D01*
X135387219Y-96959466D01*
X135531966Y-96814719D01*
X135531968Y-96814715D01*
X135531971Y-96814713D01*
X135584732Y-96742090D01*
X135652287Y-96649110D01*
X135745220Y-96466719D01*
X135808477Y-96272034D01*
X135840500Y-96069852D01*
X135840500Y-95865148D01*
X135831524Y-95808477D01*
X135808477Y-95662965D01*
X135765914Y-95531971D01*
X135745220Y-95468281D01*
X135745218Y-95468278D01*
X135745218Y-95468276D01*
X135682379Y-95344949D01*
X135652287Y-95285890D01*
X135625081Y-95248444D01*
X135564979Y-95165719D01*
X135564978Y-95165718D01*
X135531969Y-95120284D01*
X135507414Y-95095729D01*
X138699500Y-95095729D01*
X138699500Y-96904260D01*
X138700580Y-96915779D01*
X138702354Y-96934700D01*
X138702354Y-96934702D01*
X138702355Y-96934703D01*
X138702355Y-96934705D01*
X138747206Y-97062882D01*
X138827849Y-97172150D01*
X138876181Y-97207820D01*
X138937117Y-97252793D01*
X138972414Y-97265144D01*
X139065298Y-97297646D01*
X139072323Y-97298304D01*
X139095733Y-97300500D01*
X140904266Y-97300499D01*
X140934700Y-97297646D01*
X141062883Y-97252793D01*
X141172150Y-97172150D01*
X141252793Y-97062883D01*
X141280538Y-96983592D01*
X141297646Y-96934702D01*
X141297646Y-96934700D01*
X141300500Y-96904267D01*
X141300499Y-95095734D01*
X141300499Y-95095729D01*
X146699500Y-95095729D01*
X146699500Y-96904260D01*
X146700580Y-96915779D01*
X146702354Y-96934700D01*
X146702354Y-96934702D01*
X146702355Y-96934703D01*
X146702355Y-96934705D01*
X146747206Y-97062882D01*
X146827849Y-97172150D01*
X146876181Y-97207820D01*
X146937117Y-97252793D01*
X146972414Y-97265144D01*
X147065298Y-97297646D01*
X147072323Y-97298304D01*
X147095733Y-97300500D01*
X148904266Y-97300499D01*
X148934700Y-97297646D01*
X149062883Y-97252793D01*
X149172150Y-97172150D01*
X149252793Y-97062883D01*
X149280538Y-96983592D01*
X149297646Y-96934702D01*
X149297646Y-96934700D01*
X149300500Y-96904267D01*
X149300499Y-96888153D01*
X149320180Y-96821116D01*
X149372982Y-96775358D01*
X149442140Y-96765411D01*
X149505697Y-96794433D01*
X149524817Y-96815265D01*
X149548028Y-96847212D01*
X149548032Y-96847217D01*
X149692786Y-96991971D01*
X149813653Y-97079784D01*
X149858390Y-97112287D01*
X149951777Y-97159870D01*
X150040776Y-97205218D01*
X150040778Y-97205218D01*
X150040781Y-97205220D01*
X150135441Y-97235977D01*
X150235465Y-97268477D01*
X150336557Y-97284488D01*
X150437648Y-97300500D01*
X150437649Y-97300500D01*
X150642351Y-97300500D01*
X150642352Y-97300500D01*
X150844534Y-97268477D01*
X151039219Y-97205220D01*
X151221610Y-97112287D01*
X151334342Y-97030383D01*
X151387213Y-96991971D01*
X151387215Y-96991968D01*
X151387219Y-96991966D01*
X151531966Y-96847219D01*
X151531968Y-96847215D01*
X151531971Y-96847213D01*
X151652284Y-96681614D01*
X151652285Y-96681613D01*
X151652287Y-96681610D01*
X151699516Y-96588917D01*
X151747489Y-96538123D01*
X151815310Y-96521328D01*
X151881445Y-96543865D01*
X151920483Y-96588917D01*
X151964348Y-96675006D01*
X151967715Y-96681614D01*
X152088028Y-96847213D01*
X152232786Y-96991971D01*
X152353653Y-97079784D01*
X152398390Y-97112287D01*
X152491777Y-97159870D01*
X152580776Y-97205218D01*
X152580778Y-97205218D01*
X152580781Y-97205220D01*
X152675441Y-97235977D01*
X152775465Y-97268477D01*
X152876557Y-97284488D01*
X152977648Y-97300500D01*
X152977649Y-97300500D01*
X153182351Y-97300500D01*
X153182352Y-97300500D01*
X153384534Y-97268477D01*
X153579219Y-97205220D01*
X153761610Y-97112287D01*
X153874342Y-97030383D01*
X153927213Y-96991971D01*
X153927215Y-96991968D01*
X153927219Y-96991966D01*
X154071966Y-96847219D01*
X154071968Y-96847215D01*
X154071971Y-96847213D01*
X154192284Y-96681614D01*
X154192285Y-96681613D01*
X154192287Y-96681610D01*
X154239516Y-96588917D01*
X154287489Y-96538123D01*
X154355310Y-96521328D01*
X154421445Y-96543865D01*
X154460483Y-96588917D01*
X154504348Y-96675006D01*
X154507715Y-96681614D01*
X154628028Y-96847213D01*
X154772786Y-96991971D01*
X154893653Y-97079784D01*
X154938390Y-97112287D01*
X155031777Y-97159870D01*
X155120776Y-97205218D01*
X155120778Y-97205218D01*
X155120781Y-97205220D01*
X155215441Y-97235977D01*
X155315465Y-97268477D01*
X155416557Y-97284488D01*
X155517648Y-97300500D01*
X155517649Y-97300500D01*
X155722351Y-97300500D01*
X155722352Y-97300500D01*
X155924534Y-97268477D01*
X156119219Y-97205220D01*
X156301610Y-97112287D01*
X156414342Y-97030383D01*
X156467213Y-96991971D01*
X156467215Y-96991968D01*
X156467219Y-96991966D01*
X156611966Y-96847219D01*
X156611968Y-96847215D01*
X156611971Y-96847213D01*
X156664732Y-96774590D01*
X156732287Y-96681610D01*
X156825220Y-96499219D01*
X156859501Y-96393713D01*
X160149500Y-96393713D01*
X160149500Y-96606286D01*
X160182512Y-96814719D01*
X160182754Y-96816243D01*
X160242464Y-97000012D01*
X160248444Y-97018414D01*
X160344951Y-97207820D01*
X160469890Y-97379786D01*
X160620213Y-97530109D01*
X160792179Y-97655048D01*
X160792181Y-97655049D01*
X160792184Y-97655051D01*
X160981588Y-97751557D01*
X161183757Y-97817246D01*
X161393713Y-97850500D01*
X161393714Y-97850500D01*
X161606286Y-97850500D01*
X161606287Y-97850500D01*
X161816243Y-97817246D01*
X162018412Y-97751557D01*
X162207816Y-97655051D01*
X162229789Y-97639086D01*
X162379786Y-97530109D01*
X162379788Y-97530106D01*
X162379792Y-97530104D01*
X162530104Y-97379792D01*
X162530106Y-97379788D01*
X162530109Y-97379786D01*
X162655048Y-97207820D01*
X162655047Y-97207820D01*
X162655051Y-97207816D01*
X162751557Y-97018412D01*
X162817246Y-96816243D01*
X162850500Y-96606287D01*
X162850500Y-96393713D01*
X162817246Y-96183757D01*
X162751557Y-95981588D01*
X162655051Y-95792184D01*
X162655049Y-95792181D01*
X162655048Y-95792179D01*
X162530109Y-95620213D01*
X162379786Y-95469890D01*
X162207820Y-95344951D01*
X162018414Y-95248444D01*
X162018413Y-95248443D01*
X162018412Y-95248443D01*
X161816243Y-95182754D01*
X161816241Y-95182753D01*
X161816240Y-95182753D01*
X161627040Y-95152787D01*
X161606287Y-95149500D01*
X161393713Y-95149500D01*
X161372960Y-95152787D01*
X161183760Y-95182753D01*
X160981585Y-95248444D01*
X160792179Y-95344951D01*
X160620213Y-95469890D01*
X160469890Y-95620213D01*
X160344951Y-95792179D01*
X160248444Y-95981585D01*
X160182753Y-96183760D01*
X160149500Y-96393713D01*
X156859501Y-96393713D01*
X156861210Y-96388454D01*
X156873535Y-96350522D01*
X156873535Y-96350521D01*
X156888476Y-96304538D01*
X156888476Y-96304537D01*
X156888477Y-96304534D01*
X156920500Y-96102352D01*
X156920500Y-95897648D01*
X156915352Y-95865148D01*
X156888477Y-95695465D01*
X156835354Y-95531971D01*
X156825220Y-95500781D01*
X156825218Y-95500778D01*
X156825218Y-95500776D01*
X156788837Y-95429376D01*
X156732287Y-95318390D01*
X156681468Y-95248443D01*
X156611971Y-95152786D01*
X156467213Y-95008028D01*
X156301613Y-94887715D01*
X156301612Y-94887714D01*
X156301610Y-94887713D01*
X156237825Y-94855213D01*
X156119223Y-94794781D01*
X155924534Y-94731522D01*
X155740371Y-94702354D01*
X155722352Y-94699500D01*
X155517648Y-94699500D01*
X155499635Y-94702353D01*
X155315465Y-94731522D01*
X155120776Y-94794781D01*
X154938386Y-94887715D01*
X154772786Y-95008028D01*
X154628028Y-95152786D01*
X154507715Y-95318386D01*
X154460485Y-95411080D01*
X154412510Y-95461876D01*
X154344689Y-95478671D01*
X154278554Y-95456134D01*
X154239515Y-95411080D01*
X154222955Y-95378580D01*
X154192287Y-95318390D01*
X154141468Y-95248443D01*
X154071971Y-95152786D01*
X153927213Y-95008028D01*
X153761613Y-94887715D01*
X153761612Y-94887714D01*
X153761610Y-94887713D01*
X153697825Y-94855213D01*
X153579223Y-94794781D01*
X153384534Y-94731522D01*
X153200371Y-94702354D01*
X153182352Y-94699500D01*
X152977648Y-94699500D01*
X152959635Y-94702353D01*
X152775465Y-94731522D01*
X152580776Y-94794781D01*
X152398386Y-94887715D01*
X152232786Y-95008028D01*
X152088028Y-95152786D01*
X151967715Y-95318386D01*
X151920485Y-95411080D01*
X151872510Y-95461876D01*
X151804689Y-95478671D01*
X151738554Y-95456134D01*
X151699515Y-95411080D01*
X151682955Y-95378580D01*
X151652287Y-95318390D01*
X151601468Y-95248443D01*
X151531971Y-95152786D01*
X151387213Y-95008028D01*
X151221613Y-94887715D01*
X151221612Y-94887714D01*
X151221610Y-94887713D01*
X151157825Y-94855213D01*
X151039223Y-94794781D01*
X150844534Y-94731522D01*
X150660371Y-94702354D01*
X150642352Y-94699500D01*
X150437648Y-94699500D01*
X150419635Y-94702353D01*
X150235465Y-94731522D01*
X150040776Y-94794781D01*
X149858386Y-94887715D01*
X149692786Y-95008028D01*
X149548032Y-95152782D01*
X149548028Y-95152787D01*
X149524817Y-95184735D01*
X149469487Y-95227401D01*
X149399874Y-95233380D01*
X149338079Y-95200774D01*
X149303722Y-95139936D01*
X149300499Y-95111850D01*
X149300499Y-95095739D01*
X149300499Y-95095734D01*
X149297646Y-95065300D01*
X149286273Y-95032799D01*
X149252793Y-94937117D01*
X149172150Y-94827849D01*
X149083306Y-94762280D01*
X149062883Y-94747207D01*
X149062881Y-94747206D01*
X148934701Y-94702353D01*
X148904270Y-94699500D01*
X147095739Y-94699500D01*
X147081751Y-94700811D01*
X147065300Y-94702354D01*
X147065297Y-94702354D01*
X147065296Y-94702355D01*
X147065294Y-94702355D01*
X146937117Y-94747206D01*
X146827849Y-94827849D01*
X146747206Y-94937118D01*
X146702353Y-95065297D01*
X146702353Y-95065299D01*
X146699500Y-95095729D01*
X141300499Y-95095729D01*
X141297646Y-95065300D01*
X141286273Y-95032799D01*
X141252793Y-94937117D01*
X141172150Y-94827849D01*
X141083306Y-94762280D01*
X141062883Y-94747207D01*
X141062881Y-94747206D01*
X140934701Y-94702353D01*
X140904270Y-94699500D01*
X139095739Y-94699500D01*
X139081751Y-94700811D01*
X139065300Y-94702354D01*
X139065297Y-94702354D01*
X139065296Y-94702355D01*
X139065294Y-94702355D01*
X138937117Y-94747206D01*
X138827849Y-94827849D01*
X138747206Y-94937118D01*
X138702353Y-95065297D01*
X138702353Y-95065299D01*
X138699500Y-95095729D01*
X135507414Y-95095729D01*
X135387213Y-94975528D01*
X135221613Y-94855215D01*
X135221612Y-94855214D01*
X135221610Y-94855213D01*
X135164653Y-94826191D01*
X135039223Y-94762281D01*
X134844534Y-94699022D01*
X134660371Y-94669854D01*
X134642352Y-94667000D01*
X134437648Y-94667000D01*
X134433090Y-94667722D01*
X134235465Y-94699022D01*
X134040776Y-94762281D01*
X133858386Y-94855215D01*
X133692786Y-94975528D01*
X133548028Y-95120286D01*
X133427715Y-95285886D01*
X133380485Y-95378580D01*
X133332510Y-95429376D01*
X133264689Y-95446171D01*
X133198554Y-95423634D01*
X133159515Y-95378580D01*
X133142379Y-95344949D01*
X133112287Y-95285890D01*
X133085081Y-95248444D01*
X132991971Y-95120286D01*
X132847213Y-94975528D01*
X132681613Y-94855215D01*
X132681612Y-94855214D01*
X132681610Y-94855213D01*
X132624653Y-94826191D01*
X132499223Y-94762281D01*
X132304534Y-94699022D01*
X132120371Y-94669854D01*
X132102352Y-94667000D01*
X131897648Y-94667000D01*
X131893090Y-94667722D01*
X131695465Y-94699022D01*
X131500776Y-94762281D01*
X131318386Y-94855215D01*
X131152786Y-94975528D01*
X131008032Y-95120282D01*
X131008028Y-95120287D01*
X130984817Y-95152235D01*
X130929487Y-95194901D01*
X130859874Y-95200880D01*
X130798079Y-95168274D01*
X130763722Y-95107436D01*
X130760499Y-95079350D01*
X130760499Y-95063239D01*
X130760499Y-95063234D01*
X130757646Y-95032800D01*
X130712793Y-94904617D01*
X130668450Y-94844534D01*
X130632150Y-94795349D01*
X130537637Y-94725596D01*
X130522883Y-94714707D01*
X130522881Y-94714706D01*
X130394701Y-94669853D01*
X130364270Y-94667000D01*
X128555739Y-94667000D01*
X128541751Y-94668311D01*
X128525300Y-94669854D01*
X128525297Y-94669854D01*
X128525296Y-94669855D01*
X128525294Y-94669855D01*
X128397117Y-94714706D01*
X128287849Y-94795349D01*
X128207206Y-94904618D01*
X128162353Y-95032797D01*
X128162353Y-95032799D01*
X128159500Y-95063229D01*
X120902414Y-95063229D01*
X120847213Y-95008028D01*
X120681613Y-94887715D01*
X120681612Y-94887714D01*
X120681610Y-94887713D01*
X120617825Y-94855213D01*
X120499223Y-94794781D01*
X120304534Y-94731522D01*
X120120371Y-94702354D01*
X120102352Y-94699500D01*
X119897648Y-94699500D01*
X119879635Y-94702353D01*
X119695465Y-94731522D01*
X119500776Y-94794781D01*
X119318386Y-94887715D01*
X119152786Y-95008028D01*
X119008028Y-95152786D01*
X118887715Y-95318386D01*
X118840485Y-95411080D01*
X118792510Y-95461876D01*
X118724689Y-95478671D01*
X118658554Y-95456134D01*
X118619515Y-95411080D01*
X118602955Y-95378580D01*
X118572287Y-95318390D01*
X118521468Y-95248443D01*
X118451971Y-95152786D01*
X118307213Y-95008028D01*
X118141613Y-94887715D01*
X118141612Y-94887714D01*
X118141610Y-94887713D01*
X118077825Y-94855213D01*
X117959223Y-94794781D01*
X117764534Y-94731522D01*
X117580371Y-94702354D01*
X117562352Y-94699500D01*
X117357648Y-94699500D01*
X117339635Y-94702353D01*
X117155465Y-94731522D01*
X116960776Y-94794781D01*
X116821224Y-94865888D01*
X116752555Y-94878784D01*
X116687814Y-94852508D01*
X116647557Y-94795401D01*
X116644565Y-94725596D01*
X116677248Y-94667722D01*
X120645470Y-90699500D01*
X127130460Y-84214511D01*
X127134350Y-84207772D01*
X127184914Y-84159558D01*
X127253520Y-84146332D01*
X127318386Y-84172297D01*
X127344840Y-84200880D01*
X127382860Y-84257781D01*
X127382863Y-84257785D01*
X127522214Y-84397136D01*
X127522218Y-84397139D01*
X127686079Y-84506628D01*
X127686092Y-84506635D01*
X127866212Y-84581242D01*
X127868165Y-84582051D01*
X127868169Y-84582051D01*
X127868170Y-84582052D01*
X128061456Y-84620500D01*
X128061459Y-84620500D01*
X128258543Y-84620500D01*
X128388582Y-84594632D01*
X128451835Y-84582051D01*
X128633914Y-84506632D01*
X128797782Y-84397139D01*
X128937139Y-84257782D01*
X129046632Y-84093914D01*
X129122051Y-83911835D01*
X129160500Y-83718543D01*
X129699499Y-83718543D01*
X129737947Y-83911829D01*
X129737950Y-83911839D01*
X129813364Y-84093907D01*
X129813371Y-84093920D01*
X129922860Y-84257781D01*
X129922863Y-84257785D01*
X130062214Y-84397136D01*
X130062218Y-84397139D01*
X130226079Y-84506628D01*
X130226092Y-84506635D01*
X130406212Y-84581242D01*
X130408165Y-84582051D01*
X130408169Y-84582051D01*
X130408170Y-84582052D01*
X130601456Y-84620500D01*
X130601459Y-84620500D01*
X130798543Y-84620500D01*
X130928582Y-84594632D01*
X130991835Y-84582051D01*
X131173914Y-84506632D01*
X131337782Y-84397139D01*
X131477139Y-84257782D01*
X131586632Y-84093914D01*
X131662051Y-83911835D01*
X131700500Y-83718543D01*
X132239499Y-83718543D01*
X132277947Y-83911829D01*
X132277950Y-83911839D01*
X132353364Y-84093907D01*
X132353371Y-84093920D01*
X132462860Y-84257781D01*
X132462863Y-84257785D01*
X132602214Y-84397136D01*
X132602218Y-84397139D01*
X132766079Y-84506628D01*
X132766092Y-84506635D01*
X132946212Y-84581242D01*
X132948165Y-84582051D01*
X132948169Y-84582051D01*
X132948170Y-84582052D01*
X133141456Y-84620500D01*
X133141459Y-84620500D01*
X133338543Y-84620500D01*
X133468582Y-84594632D01*
X133531835Y-84582051D01*
X133713914Y-84506632D01*
X133877782Y-84397139D01*
X134017139Y-84257782D01*
X134126632Y-84093914D01*
X134202051Y-83911835D01*
X134240500Y-83718543D01*
X134779499Y-83718543D01*
X134817947Y-83911829D01*
X134817950Y-83911839D01*
X134893364Y-84093907D01*
X134893371Y-84093920D01*
X135002860Y-84257781D01*
X135002863Y-84257785D01*
X135142214Y-84397136D01*
X135142218Y-84397139D01*
X135306079Y-84506628D01*
X135306092Y-84506635D01*
X135486212Y-84581242D01*
X135488165Y-84582051D01*
X135488169Y-84582051D01*
X135488170Y-84582052D01*
X135681456Y-84620500D01*
X135681459Y-84620500D01*
X135878543Y-84620500D01*
X136008582Y-84594632D01*
X136071835Y-84582051D01*
X136253914Y-84506632D01*
X136417782Y-84397139D01*
X136557139Y-84257782D01*
X136666632Y-84093914D01*
X136742051Y-83911835D01*
X136780500Y-83718543D01*
X139859499Y-83718543D01*
X139897947Y-83911829D01*
X139897950Y-83911839D01*
X139973364Y-84093907D01*
X139973371Y-84093920D01*
X140082860Y-84257781D01*
X140082863Y-84257785D01*
X140222214Y-84397136D01*
X140222218Y-84397139D01*
X140386079Y-84506628D01*
X140386092Y-84506635D01*
X140566212Y-84581242D01*
X140568165Y-84582051D01*
X140568169Y-84582051D01*
X140568170Y-84582052D01*
X140761456Y-84620500D01*
X140761459Y-84620500D01*
X140958543Y-84620500D01*
X141088582Y-84594632D01*
X141151835Y-84582051D01*
X141333914Y-84506632D01*
X141497782Y-84397139D01*
X141637139Y-84257782D01*
X141746632Y-84093914D01*
X141822051Y-83911835D01*
X141860500Y-83718541D01*
X141860500Y-83521459D01*
X141860500Y-83521456D01*
X141822052Y-83328170D01*
X141822051Y-83328169D01*
X141822051Y-83328165D01*
X141771125Y-83205218D01*
X141746635Y-83146092D01*
X141746628Y-83146079D01*
X141637139Y-82982218D01*
X141637136Y-82982214D01*
X141497785Y-82842863D01*
X141497781Y-82842860D01*
X141333920Y-82733371D01*
X141333907Y-82733364D01*
X141151839Y-82657950D01*
X141151829Y-82657947D01*
X140958543Y-82619500D01*
X140958541Y-82619500D01*
X140761459Y-82619500D01*
X140761457Y-82619500D01*
X140568170Y-82657947D01*
X140568160Y-82657950D01*
X140386092Y-82733364D01*
X140386079Y-82733371D01*
X140222218Y-82842860D01*
X140222214Y-82842863D01*
X140082863Y-82982214D01*
X140082860Y-82982218D01*
X139973371Y-83146079D01*
X139973364Y-83146092D01*
X139897950Y-83328160D01*
X139897947Y-83328170D01*
X139859500Y-83521456D01*
X139859500Y-83521459D01*
X139859500Y-83718541D01*
X139859500Y-83718543D01*
X139859499Y-83718543D01*
X136780500Y-83718543D01*
X136780500Y-83718541D01*
X136780500Y-83521459D01*
X136780500Y-83521456D01*
X136742052Y-83328170D01*
X136742051Y-83328169D01*
X136742051Y-83328165D01*
X136691125Y-83205218D01*
X136666635Y-83146092D01*
X136666628Y-83146079D01*
X136557139Y-82982218D01*
X136557136Y-82982214D01*
X136417785Y-82842863D01*
X136417781Y-82842860D01*
X136253920Y-82733371D01*
X136253907Y-82733364D01*
X136071839Y-82657950D01*
X136071829Y-82657947D01*
X135878543Y-82619500D01*
X135878541Y-82619500D01*
X135681459Y-82619500D01*
X135681457Y-82619500D01*
X135488170Y-82657947D01*
X135488160Y-82657950D01*
X135306092Y-82733364D01*
X135306079Y-82733371D01*
X135142218Y-82842860D01*
X135142214Y-82842863D01*
X135002863Y-82982214D01*
X135002860Y-82982218D01*
X134893371Y-83146079D01*
X134893364Y-83146092D01*
X134817950Y-83328160D01*
X134817947Y-83328170D01*
X134779500Y-83521456D01*
X134779500Y-83521459D01*
X134779500Y-83718541D01*
X134779500Y-83718543D01*
X134779499Y-83718543D01*
X134240500Y-83718543D01*
X134240500Y-83718541D01*
X134240500Y-83521459D01*
X134240500Y-83521456D01*
X134202052Y-83328170D01*
X134202051Y-83328169D01*
X134202051Y-83328165D01*
X134151125Y-83205218D01*
X134126635Y-83146092D01*
X134126628Y-83146079D01*
X134017139Y-82982218D01*
X134017136Y-82982214D01*
X133877785Y-82842863D01*
X133877781Y-82842860D01*
X133713920Y-82733371D01*
X133713907Y-82733364D01*
X133531839Y-82657950D01*
X133531829Y-82657947D01*
X133338543Y-82619500D01*
X133338541Y-82619500D01*
X133141459Y-82619500D01*
X133141457Y-82619500D01*
X132948170Y-82657947D01*
X132948160Y-82657950D01*
X132766092Y-82733364D01*
X132766079Y-82733371D01*
X132602218Y-82842860D01*
X132602214Y-82842863D01*
X132462863Y-82982214D01*
X132462860Y-82982218D01*
X132353371Y-83146079D01*
X132353364Y-83146092D01*
X132277950Y-83328160D01*
X132277947Y-83328170D01*
X132239500Y-83521456D01*
X132239500Y-83521459D01*
X132239500Y-83718541D01*
X132239500Y-83718543D01*
X132239499Y-83718543D01*
X131700500Y-83718543D01*
X131700500Y-83718541D01*
X131700500Y-83521459D01*
X131700500Y-83521456D01*
X131662052Y-83328170D01*
X131662051Y-83328169D01*
X131662051Y-83328165D01*
X131611125Y-83205218D01*
X131586635Y-83146092D01*
X131586628Y-83146079D01*
X131477139Y-82982218D01*
X131477136Y-82982214D01*
X131337785Y-82842863D01*
X131337781Y-82842860D01*
X131173920Y-82733371D01*
X131173907Y-82733364D01*
X130991839Y-82657950D01*
X130991829Y-82657947D01*
X130798543Y-82619500D01*
X130798541Y-82619500D01*
X130601459Y-82619500D01*
X130601457Y-82619500D01*
X130408170Y-82657947D01*
X130408160Y-82657950D01*
X130226092Y-82733364D01*
X130226079Y-82733371D01*
X130062218Y-82842860D01*
X130062214Y-82842863D01*
X129922863Y-82982214D01*
X129922860Y-82982218D01*
X129813371Y-83146079D01*
X129813364Y-83146092D01*
X129737950Y-83328160D01*
X129737947Y-83328170D01*
X129699500Y-83521456D01*
X129699500Y-83521459D01*
X129699500Y-83718541D01*
X129699500Y-83718543D01*
X129699499Y-83718543D01*
X129160500Y-83718543D01*
X129160500Y-83718541D01*
X129160500Y-83521459D01*
X129160500Y-83521456D01*
X129122052Y-83328170D01*
X129122051Y-83328169D01*
X129122051Y-83328165D01*
X129071125Y-83205218D01*
X129046635Y-83146092D01*
X129046628Y-83146079D01*
X128937139Y-82982218D01*
X128937136Y-82982214D01*
X128797785Y-82842863D01*
X128797781Y-82842860D01*
X128633920Y-82733371D01*
X128633907Y-82733364D01*
X128519946Y-82686161D01*
X128465542Y-82642321D01*
X128443477Y-82576026D01*
X128460756Y-82508327D01*
X128511893Y-82460716D01*
X128567398Y-82447600D01*
X128709960Y-82447600D01*
X128709962Y-82447600D01*
X128786389Y-82427121D01*
X128854911Y-82387560D01*
X128910860Y-82331611D01*
X130521167Y-80721304D01*
X148099500Y-80721304D01*
X148099500Y-80898695D01*
X148134103Y-81072658D01*
X148134106Y-81072667D01*
X148201983Y-81236540D01*
X148201990Y-81236553D01*
X148300535Y-81384034D01*
X148300538Y-81384038D01*
X148425961Y-81509461D01*
X148425965Y-81509464D01*
X148573446Y-81608009D01*
X148573459Y-81608016D01*
X148696363Y-81658923D01*
X148737334Y-81675894D01*
X148737336Y-81675894D01*
X148737341Y-81675896D01*
X148911304Y-81710499D01*
X148911307Y-81710500D01*
X148911309Y-81710500D01*
X149088693Y-81710500D01*
X149088694Y-81710499D01*
X149164277Y-81695465D01*
X149262658Y-81675896D01*
X149262661Y-81675894D01*
X149262666Y-81675894D01*
X149426547Y-81608013D01*
X149574035Y-81509464D01*
X149699464Y-81384035D01*
X149798013Y-81236547D01*
X149865894Y-81072666D01*
X149871206Y-81045965D01*
X149900499Y-80898695D01*
X149900500Y-80898693D01*
X149900500Y-80721306D01*
X149900499Y-80721304D01*
X151099500Y-80721304D01*
X151099500Y-80898695D01*
X151134103Y-81072658D01*
X151134106Y-81072667D01*
X151201983Y-81236540D01*
X151201990Y-81236553D01*
X151300535Y-81384034D01*
X151300538Y-81384038D01*
X151425961Y-81509461D01*
X151425965Y-81509464D01*
X151573446Y-81608009D01*
X151573459Y-81608016D01*
X151696363Y-81658923D01*
X151737334Y-81675894D01*
X151737336Y-81675894D01*
X151737341Y-81675896D01*
X151911304Y-81710499D01*
X151911307Y-81710500D01*
X151911309Y-81710500D01*
X152088693Y-81710500D01*
X152088694Y-81710499D01*
X152164277Y-81695465D01*
X152262658Y-81675896D01*
X152262661Y-81675894D01*
X152262666Y-81675894D01*
X152426547Y-81608013D01*
X152574035Y-81509464D01*
X152699464Y-81384035D01*
X152798013Y-81236547D01*
X152865894Y-81072666D01*
X152871206Y-81045965D01*
X152900499Y-80898695D01*
X152900500Y-80898693D01*
X152900500Y-80721306D01*
X152900499Y-80721304D01*
X154099500Y-80721304D01*
X154099500Y-80898695D01*
X154134103Y-81072658D01*
X154134106Y-81072667D01*
X154201983Y-81236540D01*
X154201990Y-81236553D01*
X154300535Y-81384034D01*
X154300538Y-81384038D01*
X154425961Y-81509461D01*
X154425965Y-81509464D01*
X154573446Y-81608009D01*
X154573459Y-81608016D01*
X154696363Y-81658923D01*
X154737334Y-81675894D01*
X154737336Y-81675894D01*
X154737341Y-81675896D01*
X154911304Y-81710499D01*
X154911307Y-81710500D01*
X154911309Y-81710500D01*
X155088693Y-81710500D01*
X155088694Y-81710499D01*
X155164277Y-81695465D01*
X155262658Y-81675896D01*
X155262661Y-81675894D01*
X155262666Y-81675894D01*
X155426547Y-81608013D01*
X155541349Y-81531304D01*
X157099500Y-81531304D01*
X157099500Y-81708695D01*
X157134103Y-81882658D01*
X157134106Y-81882667D01*
X157201983Y-82046540D01*
X157201990Y-82046553D01*
X157300535Y-82194034D01*
X157300538Y-82194038D01*
X157425961Y-82319461D01*
X157425965Y-82319464D01*
X157573446Y-82418009D01*
X157573459Y-82418016D01*
X157644883Y-82447600D01*
X157737334Y-82485894D01*
X157737336Y-82485894D01*
X157737341Y-82485896D01*
X157911304Y-82520499D01*
X157911307Y-82520500D01*
X157911309Y-82520500D01*
X158088693Y-82520500D01*
X158088694Y-82520499D01*
X158149888Y-82508327D01*
X158262658Y-82485896D01*
X158262661Y-82485894D01*
X158262666Y-82485894D01*
X158426547Y-82418013D01*
X158574035Y-82319464D01*
X158699464Y-82194035D01*
X158798013Y-82046547D01*
X158865894Y-81882666D01*
X158880293Y-81810281D01*
X158900499Y-81708695D01*
X158900500Y-81708693D01*
X158900500Y-81531306D01*
X158900499Y-81531304D01*
X158865896Y-81357341D01*
X158865893Y-81357332D01*
X158798016Y-81193459D01*
X158798009Y-81193446D01*
X158699464Y-81045965D01*
X158699461Y-81045961D01*
X158574038Y-80920538D01*
X158574034Y-80920535D01*
X158426553Y-80821990D01*
X158426540Y-80821983D01*
X158262667Y-80754106D01*
X158262658Y-80754103D01*
X158088694Y-80719500D01*
X158088691Y-80719500D01*
X157911309Y-80719500D01*
X157911306Y-80719500D01*
X157737341Y-80754103D01*
X157737332Y-80754106D01*
X157573459Y-80821983D01*
X157573446Y-80821990D01*
X157425965Y-80920535D01*
X157425961Y-80920538D01*
X157300538Y-81045961D01*
X157300535Y-81045965D01*
X157201990Y-81193446D01*
X157201983Y-81193459D01*
X157134106Y-81357332D01*
X157134103Y-81357341D01*
X157099500Y-81531304D01*
X155541349Y-81531304D01*
X155574035Y-81509464D01*
X155582723Y-81500776D01*
X155645964Y-81437536D01*
X155699461Y-81384038D01*
X155699464Y-81384035D01*
X155798013Y-81236547D01*
X155865894Y-81072666D01*
X155871206Y-81045965D01*
X155900499Y-80898695D01*
X155900500Y-80898693D01*
X155900500Y-80721306D01*
X155900499Y-80721304D01*
X155865896Y-80547341D01*
X155865893Y-80547332D01*
X155798016Y-80383459D01*
X155798009Y-80383446D01*
X155699464Y-80235965D01*
X155699461Y-80235961D01*
X155574038Y-80110538D01*
X155574034Y-80110535D01*
X155426553Y-80011990D01*
X155426540Y-80011983D01*
X155262667Y-79944106D01*
X155262658Y-79944103D01*
X155088694Y-79909500D01*
X155088691Y-79909500D01*
X154911309Y-79909500D01*
X154911306Y-79909500D01*
X154737341Y-79944103D01*
X154737332Y-79944106D01*
X154573459Y-80011983D01*
X154573446Y-80011990D01*
X154425965Y-80110535D01*
X154425961Y-80110538D01*
X154300538Y-80235961D01*
X154300535Y-80235965D01*
X154201990Y-80383446D01*
X154201983Y-80383459D01*
X154134106Y-80547332D01*
X154134103Y-80547341D01*
X154099500Y-80721304D01*
X152900499Y-80721304D01*
X152865896Y-80547341D01*
X152865893Y-80547332D01*
X152798016Y-80383459D01*
X152798009Y-80383446D01*
X152699464Y-80235965D01*
X152699461Y-80235961D01*
X152574038Y-80110538D01*
X152574034Y-80110535D01*
X152426553Y-80011990D01*
X152426540Y-80011983D01*
X152262667Y-79944106D01*
X152262658Y-79944103D01*
X152088694Y-79909500D01*
X152088691Y-79909500D01*
X151911309Y-79909500D01*
X151911306Y-79909500D01*
X151737341Y-79944103D01*
X151737332Y-79944106D01*
X151573459Y-80011983D01*
X151573446Y-80011990D01*
X151425965Y-80110535D01*
X151425961Y-80110538D01*
X151300538Y-80235961D01*
X151300535Y-80235965D01*
X151201990Y-80383446D01*
X151201983Y-80383459D01*
X151134106Y-80547332D01*
X151134103Y-80547341D01*
X151099500Y-80721304D01*
X149900499Y-80721304D01*
X149865896Y-80547341D01*
X149865893Y-80547332D01*
X149798016Y-80383459D01*
X149798009Y-80383446D01*
X149699464Y-80235965D01*
X149699461Y-80235961D01*
X149574038Y-80110538D01*
X149574034Y-80110535D01*
X149426553Y-80011990D01*
X149426540Y-80011983D01*
X149262667Y-79944106D01*
X149262658Y-79944103D01*
X149088694Y-79909500D01*
X149088691Y-79909500D01*
X148911309Y-79909500D01*
X148911306Y-79909500D01*
X148737341Y-79944103D01*
X148737332Y-79944106D01*
X148573459Y-80011983D01*
X148573446Y-80011990D01*
X148425965Y-80110535D01*
X148425961Y-80110538D01*
X148300538Y-80235961D01*
X148300535Y-80235965D01*
X148201990Y-80383446D01*
X148201983Y-80383459D01*
X148134106Y-80547332D01*
X148134103Y-80547341D01*
X148099500Y-80721304D01*
X130521167Y-80721304D01*
X134736537Y-76505933D01*
X134797858Y-76472450D01*
X134867550Y-76477434D01*
X134923483Y-76519306D01*
X134927318Y-76524725D01*
X135002860Y-76637781D01*
X135002863Y-76637785D01*
X135142214Y-76777136D01*
X135142218Y-76777139D01*
X135306079Y-76886628D01*
X135306092Y-76886635D01*
X135465814Y-76952793D01*
X135488165Y-76962051D01*
X135488169Y-76962051D01*
X135488170Y-76962052D01*
X135681456Y-77000500D01*
X135681459Y-77000500D01*
X135878543Y-77000500D01*
X136008582Y-76974632D01*
X136071835Y-76962051D01*
X136253914Y-76886632D01*
X136417782Y-76777139D01*
X136557139Y-76637782D01*
X136666632Y-76473914D01*
X136667239Y-76472450D01*
X136742049Y-76291839D01*
X136742051Y-76291835D01*
X136780500Y-76098543D01*
X137319499Y-76098543D01*
X137357947Y-76291829D01*
X137357950Y-76291839D01*
X137433364Y-76473907D01*
X137433371Y-76473920D01*
X137542860Y-76637781D01*
X137542863Y-76637785D01*
X137682214Y-76777136D01*
X137682218Y-76777139D01*
X137846079Y-76886628D01*
X137846092Y-76886635D01*
X138005814Y-76952793D01*
X138028165Y-76962051D01*
X138028169Y-76962051D01*
X138028170Y-76962052D01*
X138221456Y-77000500D01*
X138221459Y-77000500D01*
X138418543Y-77000500D01*
X138548582Y-76974632D01*
X138611835Y-76962051D01*
X138793914Y-76886632D01*
X138957782Y-76777139D01*
X139097139Y-76637782D01*
X139206632Y-76473914D01*
X139207239Y-76472450D01*
X139282049Y-76291839D01*
X139282051Y-76291835D01*
X139320500Y-76098541D01*
X139320500Y-75901459D01*
X139320500Y-75901456D01*
X139282052Y-75708170D01*
X139282051Y-75708169D01*
X139282051Y-75708165D01*
X139270592Y-75680500D01*
X139206635Y-75526092D01*
X139206625Y-75526074D01*
X139163630Y-75461727D01*
X139163629Y-75461726D01*
X139119531Y-75395730D01*
X139859500Y-75395730D01*
X139859500Y-76604269D01*
X139862353Y-76634699D01*
X139862353Y-76634701D01*
X139907206Y-76762880D01*
X139907207Y-76762882D01*
X139987850Y-76872150D01*
X140097118Y-76952793D01*
X140123576Y-76962051D01*
X140225299Y-76997646D01*
X140255730Y-77000500D01*
X140255734Y-77000500D01*
X141464270Y-77000500D01*
X141494699Y-76997646D01*
X141494701Y-76997646D01*
X141558790Y-76975219D01*
X141622882Y-76952793D01*
X141732150Y-76872150D01*
X141812793Y-76762882D01*
X141835219Y-76698790D01*
X141857646Y-76634701D01*
X141857646Y-76634699D01*
X141860500Y-76604269D01*
X141860500Y-75395730D01*
X141857646Y-75365300D01*
X141857646Y-75365298D01*
X141816550Y-75247855D01*
X141812793Y-75237118D01*
X141732150Y-75127850D01*
X141622882Y-75047207D01*
X141622880Y-75047206D01*
X141494700Y-75002353D01*
X141464270Y-74999500D01*
X141464266Y-74999500D01*
X140255734Y-74999500D01*
X140255730Y-74999500D01*
X140225300Y-75002353D01*
X140225298Y-75002353D01*
X140097119Y-75047206D01*
X140097117Y-75047207D01*
X139987850Y-75127850D01*
X139907207Y-75237117D01*
X139907206Y-75237119D01*
X139862353Y-75365298D01*
X139862353Y-75365300D01*
X139859500Y-75395730D01*
X139119531Y-75395730D01*
X139097139Y-75362218D01*
X139097136Y-75362214D01*
X138957785Y-75222863D01*
X138957781Y-75222860D01*
X138793920Y-75113371D01*
X138793907Y-75113364D01*
X138611839Y-75037950D01*
X138611829Y-75037947D01*
X138418543Y-74999500D01*
X138418541Y-74999500D01*
X138221459Y-74999500D01*
X138221457Y-74999500D01*
X138028170Y-75037947D01*
X138028160Y-75037950D01*
X137846092Y-75113364D01*
X137846079Y-75113371D01*
X137682218Y-75222860D01*
X137682214Y-75222863D01*
X137542863Y-75362214D01*
X137542860Y-75362218D01*
X137433371Y-75526079D01*
X137433364Y-75526092D01*
X137357950Y-75708160D01*
X137357947Y-75708170D01*
X137319500Y-75901456D01*
X137319500Y-75901459D01*
X137319500Y-76098541D01*
X137319500Y-76098543D01*
X137319499Y-76098543D01*
X136780500Y-76098543D01*
X136780500Y-76098541D01*
X136780500Y-75901459D01*
X136780500Y-75901456D01*
X136742052Y-75708170D01*
X136742051Y-75708169D01*
X136742051Y-75708165D01*
X136730592Y-75680500D01*
X136666635Y-75526092D01*
X136666628Y-75526079D01*
X136557139Y-75362218D01*
X136557136Y-75362214D01*
X136417785Y-75222863D01*
X136417781Y-75222860D01*
X136253920Y-75113371D01*
X136253907Y-75113364D01*
X136071839Y-75037950D01*
X136071829Y-75037947D01*
X135878543Y-74999500D01*
X135878541Y-74999500D01*
X135681459Y-74999500D01*
X135681457Y-74999500D01*
X135488170Y-75037947D01*
X135488160Y-75037950D01*
X135306092Y-75113364D01*
X135306079Y-75113371D01*
X135142218Y-75222860D01*
X135142214Y-75222863D01*
X135022181Y-75342897D01*
X134960858Y-75376382D01*
X134891166Y-75371398D01*
X134835233Y-75329526D01*
X134810816Y-75264062D01*
X134810500Y-75255216D01*
X134810500Y-73205832D01*
X134819144Y-73176391D01*
X134825668Y-73146405D01*
X134829422Y-73141389D01*
X134830185Y-73138793D01*
X134846815Y-73118155D01*
X134863666Y-73101304D01*
X148099500Y-73101304D01*
X148099500Y-73278695D01*
X148134103Y-73452658D01*
X148134106Y-73452667D01*
X148201983Y-73616540D01*
X148201990Y-73616553D01*
X148300535Y-73764034D01*
X148300538Y-73764038D01*
X148425961Y-73889461D01*
X148425965Y-73889464D01*
X148573446Y-73988009D01*
X148573459Y-73988016D01*
X148696363Y-74038923D01*
X148737334Y-74055894D01*
X148737336Y-74055894D01*
X148737341Y-74055896D01*
X148911304Y-74090499D01*
X148911307Y-74090500D01*
X148911309Y-74090500D01*
X149088693Y-74090500D01*
X149088694Y-74090499D01*
X149146682Y-74078964D01*
X149262658Y-74055896D01*
X149262661Y-74055894D01*
X149262666Y-74055894D01*
X149426547Y-73988013D01*
X149574035Y-73889464D01*
X149699464Y-73764035D01*
X149798013Y-73616547D01*
X149865894Y-73452666D01*
X149867360Y-73445300D01*
X149892856Y-73317118D01*
X149900500Y-73278691D01*
X149900500Y-73101309D01*
X149900500Y-73101306D01*
X149900499Y-73101304D01*
X151099500Y-73101304D01*
X151099500Y-73278695D01*
X151134103Y-73452658D01*
X151134106Y-73452667D01*
X151201983Y-73616540D01*
X151201990Y-73616553D01*
X151300535Y-73764034D01*
X151300538Y-73764038D01*
X151425961Y-73889461D01*
X151425965Y-73889464D01*
X151573446Y-73988009D01*
X151573459Y-73988016D01*
X151696363Y-74038923D01*
X151737334Y-74055894D01*
X151737336Y-74055894D01*
X151737341Y-74055896D01*
X151911304Y-74090499D01*
X151911307Y-74090500D01*
X151911309Y-74090500D01*
X152088693Y-74090500D01*
X152088694Y-74090499D01*
X152146682Y-74078964D01*
X152262658Y-74055896D01*
X152262661Y-74055894D01*
X152262666Y-74055894D01*
X152426547Y-73988013D01*
X152574035Y-73889464D01*
X152699464Y-73764035D01*
X152798013Y-73616547D01*
X152865894Y-73452666D01*
X152867360Y-73445300D01*
X152892856Y-73317118D01*
X152900500Y-73278691D01*
X152900500Y-73101309D01*
X152900500Y-73101306D01*
X152900499Y-73101304D01*
X154099500Y-73101304D01*
X154099500Y-73278695D01*
X154134103Y-73452658D01*
X154134106Y-73452667D01*
X154201983Y-73616540D01*
X154201990Y-73616553D01*
X154300535Y-73764034D01*
X154300538Y-73764038D01*
X154425961Y-73889461D01*
X154425965Y-73889464D01*
X154573446Y-73988009D01*
X154573459Y-73988016D01*
X154696363Y-74038923D01*
X154737334Y-74055894D01*
X154737336Y-74055894D01*
X154737341Y-74055896D01*
X154911304Y-74090499D01*
X154911307Y-74090500D01*
X154911309Y-74090500D01*
X155088693Y-74090500D01*
X155088694Y-74090499D01*
X155146682Y-74078964D01*
X155262658Y-74055896D01*
X155262661Y-74055894D01*
X155262666Y-74055894D01*
X155426547Y-73988013D01*
X155541349Y-73911304D01*
X157099500Y-73911304D01*
X157099500Y-74088695D01*
X157134103Y-74262658D01*
X157134106Y-74262667D01*
X157201983Y-74426540D01*
X157201990Y-74426553D01*
X157300535Y-74574034D01*
X157300538Y-74574038D01*
X157425961Y-74699461D01*
X157425965Y-74699464D01*
X157573446Y-74798009D01*
X157573459Y-74798016D01*
X157696363Y-74848923D01*
X157737334Y-74865894D01*
X157737336Y-74865894D01*
X157737341Y-74865896D01*
X157911304Y-74900499D01*
X157911307Y-74900500D01*
X157911309Y-74900500D01*
X158088693Y-74900500D01*
X158088694Y-74900499D01*
X158146682Y-74888964D01*
X158262658Y-74865896D01*
X158262661Y-74865894D01*
X158262666Y-74865894D01*
X158426547Y-74798013D01*
X158574035Y-74699464D01*
X158699464Y-74574035D01*
X158798013Y-74426547D01*
X158865894Y-74262666D01*
X158867235Y-74255927D01*
X158888964Y-74146682D01*
X158900500Y-74088691D01*
X158900500Y-73911309D01*
X158900500Y-73911306D01*
X158900499Y-73911304D01*
X158865896Y-73737341D01*
X158865893Y-73737332D01*
X158798016Y-73573459D01*
X158798009Y-73573446D01*
X158699464Y-73425965D01*
X158699461Y-73425961D01*
X158574038Y-73300538D01*
X158574034Y-73300535D01*
X158426553Y-73201990D01*
X158426540Y-73201983D01*
X158262667Y-73134106D01*
X158262658Y-73134103D01*
X158088694Y-73099500D01*
X158088691Y-73099500D01*
X157911309Y-73099500D01*
X157911306Y-73099500D01*
X157737341Y-73134103D01*
X157737332Y-73134106D01*
X157573459Y-73201983D01*
X157573446Y-73201990D01*
X157425965Y-73300535D01*
X157425961Y-73300538D01*
X157300538Y-73425961D01*
X157300535Y-73425965D01*
X157201990Y-73573446D01*
X157201983Y-73573459D01*
X157134106Y-73737332D01*
X157134103Y-73737341D01*
X157099500Y-73911304D01*
X155541349Y-73911304D01*
X155574035Y-73889464D01*
X155574038Y-73889461D01*
X155645964Y-73817536D01*
X155699461Y-73764038D01*
X155699464Y-73764035D01*
X155798013Y-73616547D01*
X155865894Y-73452666D01*
X155867360Y-73445300D01*
X155892856Y-73317118D01*
X155900500Y-73278691D01*
X155900500Y-73101309D01*
X155900500Y-73101306D01*
X155900499Y-73101304D01*
X155865896Y-72927341D01*
X155865893Y-72927332D01*
X155860372Y-72914004D01*
X155831992Y-72845487D01*
X155798016Y-72763459D01*
X155798009Y-72763446D01*
X155699464Y-72615965D01*
X155699461Y-72615961D01*
X155574038Y-72490538D01*
X155574034Y-72490535D01*
X155426553Y-72391990D01*
X155426540Y-72391983D01*
X155262667Y-72324106D01*
X155262658Y-72324103D01*
X155088694Y-72289500D01*
X155088691Y-72289500D01*
X154911309Y-72289500D01*
X154911306Y-72289500D01*
X154737341Y-72324103D01*
X154737332Y-72324106D01*
X154573459Y-72391983D01*
X154573446Y-72391990D01*
X154425965Y-72490535D01*
X154425961Y-72490538D01*
X154300538Y-72615961D01*
X154300535Y-72615965D01*
X154201990Y-72763446D01*
X154201983Y-72763459D01*
X154134106Y-72927332D01*
X154134103Y-72927341D01*
X154099500Y-73101304D01*
X152900499Y-73101304D01*
X152865896Y-72927341D01*
X152865893Y-72927332D01*
X152860372Y-72914004D01*
X152831992Y-72845487D01*
X152798016Y-72763459D01*
X152798009Y-72763446D01*
X152699464Y-72615965D01*
X152699461Y-72615961D01*
X152574038Y-72490538D01*
X152574034Y-72490535D01*
X152426553Y-72391990D01*
X152426540Y-72391983D01*
X152262667Y-72324106D01*
X152262658Y-72324103D01*
X152088694Y-72289500D01*
X152088691Y-72289500D01*
X151911309Y-72289500D01*
X151911306Y-72289500D01*
X151737341Y-72324103D01*
X151737332Y-72324106D01*
X151573459Y-72391983D01*
X151573446Y-72391990D01*
X151425965Y-72490535D01*
X151425961Y-72490538D01*
X151300538Y-72615961D01*
X151300535Y-72615965D01*
X151201990Y-72763446D01*
X151201983Y-72763459D01*
X151134106Y-72927332D01*
X151134103Y-72927341D01*
X151099500Y-73101304D01*
X149900499Y-73101304D01*
X149865896Y-72927341D01*
X149865893Y-72927332D01*
X149860372Y-72914004D01*
X149831992Y-72845487D01*
X149798016Y-72763459D01*
X149798009Y-72763446D01*
X149699464Y-72615965D01*
X149699461Y-72615961D01*
X149574038Y-72490538D01*
X149574034Y-72490535D01*
X149426553Y-72391990D01*
X149426540Y-72391983D01*
X149262667Y-72324106D01*
X149262658Y-72324103D01*
X149088694Y-72289500D01*
X149088691Y-72289500D01*
X148911309Y-72289500D01*
X148911306Y-72289500D01*
X148737341Y-72324103D01*
X148737332Y-72324106D01*
X148573459Y-72391983D01*
X148573446Y-72391990D01*
X148425965Y-72490535D01*
X148425961Y-72490538D01*
X148300538Y-72615961D01*
X148300535Y-72615965D01*
X148201990Y-72763446D01*
X148201983Y-72763459D01*
X148134106Y-72927332D01*
X148134103Y-72927341D01*
X148099500Y-73101304D01*
X134863666Y-73101304D01*
X135396165Y-72568804D01*
X135457486Y-72535321D01*
X135527177Y-72540305D01*
X135531254Y-72541909D01*
X135628165Y-72582051D01*
X135628169Y-72582051D01*
X135628170Y-72582052D01*
X135821456Y-72620500D01*
X135821459Y-72620500D01*
X136018543Y-72620500D01*
X136148582Y-72594632D01*
X136211835Y-72582051D01*
X136393914Y-72506632D01*
X136557782Y-72397139D01*
X136697139Y-72257782D01*
X136806632Y-72093914D01*
X136882051Y-71911835D01*
X136906241Y-71790225D01*
X136920500Y-71718543D01*
X139999499Y-71718543D01*
X140037947Y-71911829D01*
X140037950Y-71911839D01*
X140113364Y-72093907D01*
X140113371Y-72093920D01*
X140222860Y-72257781D01*
X140222863Y-72257785D01*
X140362214Y-72397136D01*
X140362218Y-72397139D01*
X140526079Y-72506628D01*
X140526092Y-72506635D01*
X140676188Y-72568806D01*
X140708165Y-72582051D01*
X140708169Y-72582051D01*
X140708170Y-72582052D01*
X140901456Y-72620500D01*
X140901459Y-72620500D01*
X141098543Y-72620500D01*
X141228582Y-72594632D01*
X141291835Y-72582051D01*
X141473914Y-72506632D01*
X141637782Y-72397139D01*
X141777139Y-72257782D01*
X141886632Y-72093914D01*
X141962051Y-71911835D01*
X141986241Y-71790225D01*
X142000500Y-71718543D01*
X142000500Y-71521456D01*
X141962052Y-71328170D01*
X141962051Y-71328169D01*
X141962051Y-71328165D01*
X141962049Y-71328160D01*
X141886635Y-71146092D01*
X141886628Y-71146079D01*
X141777139Y-70982218D01*
X141777136Y-70982214D01*
X141637785Y-70842863D01*
X141637781Y-70842860D01*
X141473920Y-70733371D01*
X141473907Y-70733364D01*
X141291839Y-70657950D01*
X141291829Y-70657947D01*
X141098543Y-70619500D01*
X141098541Y-70619500D01*
X140901459Y-70619500D01*
X140901457Y-70619500D01*
X140708170Y-70657947D01*
X140708160Y-70657950D01*
X140526092Y-70733364D01*
X140526079Y-70733371D01*
X140362218Y-70842860D01*
X140362214Y-70842863D01*
X140222863Y-70982214D01*
X140222860Y-70982218D01*
X140113371Y-71146079D01*
X140113364Y-71146092D01*
X140037950Y-71328160D01*
X140037947Y-71328170D01*
X139999500Y-71521456D01*
X139999500Y-71521459D01*
X139999500Y-71718541D01*
X139999500Y-71718543D01*
X139999499Y-71718543D01*
X136920500Y-71718543D01*
X136920500Y-71521456D01*
X136882052Y-71328170D01*
X136882051Y-71328169D01*
X136882051Y-71328165D01*
X136882049Y-71328160D01*
X136806635Y-71146092D01*
X136806628Y-71146079D01*
X136697139Y-70982218D01*
X136697136Y-70982214D01*
X136557785Y-70842863D01*
X136557781Y-70842860D01*
X136393920Y-70733371D01*
X136393907Y-70733364D01*
X136211839Y-70657950D01*
X136211829Y-70657947D01*
X136018543Y-70619500D01*
X136018541Y-70619500D01*
X135821459Y-70619500D01*
X135821457Y-70619500D01*
X135628170Y-70657947D01*
X135628160Y-70657950D01*
X135446092Y-70733364D01*
X135446079Y-70733371D01*
X135282218Y-70842860D01*
X135282214Y-70842863D01*
X135142863Y-70982214D01*
X135142860Y-70982218D01*
X135033371Y-71146079D01*
X135033364Y-71146092D01*
X134957950Y-71328160D01*
X134957947Y-71328170D01*
X134919500Y-71521456D01*
X134919500Y-71521459D01*
X134919500Y-71718541D01*
X134919500Y-71718543D01*
X134919499Y-71718543D01*
X134957947Y-71911829D01*
X134957950Y-71911839D01*
X134998072Y-72008702D01*
X135005541Y-72078171D01*
X134974266Y-72140650D01*
X134971192Y-72143835D01*
X134325489Y-72789540D01*
X134269541Y-72845487D01*
X134269535Y-72845495D01*
X134229982Y-72914004D01*
X134229979Y-72914009D01*
X134209500Y-72990439D01*
X134209500Y-75255216D01*
X134189815Y-75322255D01*
X134137011Y-75368010D01*
X134067853Y-75377954D01*
X134004297Y-75348929D01*
X133997819Y-75342897D01*
X133877785Y-75222863D01*
X133877781Y-75222860D01*
X133713920Y-75113371D01*
X133713907Y-75113364D01*
X133531839Y-75037950D01*
X133531829Y-75037947D01*
X133338543Y-74999500D01*
X133338541Y-74999500D01*
X133141459Y-74999500D01*
X133141457Y-74999500D01*
X132948171Y-75037947D01*
X132948168Y-75037948D01*
X132948166Y-75037948D01*
X132948165Y-75037949D01*
X132925814Y-75047207D01*
X132851295Y-75078073D01*
X132831418Y-75080209D01*
X132812690Y-75087195D01*
X132797391Y-75083866D01*
X132781826Y-75085540D01*
X132763951Y-75076592D01*
X132744417Y-75072343D01*
X132722126Y-75055656D01*
X132719347Y-75054265D01*
X132716163Y-75051192D01*
X132558219Y-74893248D01*
X132524734Y-74831925D01*
X132521900Y-74805567D01*
X132521900Y-72476184D01*
X132541585Y-72409145D01*
X132594389Y-72363390D01*
X132663547Y-72353446D01*
X132727103Y-72382471D01*
X132733581Y-72388503D01*
X132742214Y-72397136D01*
X132742218Y-72397139D01*
X132906079Y-72506628D01*
X132906092Y-72506635D01*
X133056188Y-72568806D01*
X133088165Y-72582051D01*
X133088169Y-72582051D01*
X133088170Y-72582052D01*
X133281456Y-72620500D01*
X133281459Y-72620500D01*
X133478543Y-72620500D01*
X133608582Y-72594632D01*
X133671835Y-72582051D01*
X133853914Y-72506632D01*
X134017782Y-72397139D01*
X134157139Y-72257782D01*
X134266632Y-72093914D01*
X134342051Y-71911835D01*
X134366241Y-71790225D01*
X134380500Y-71718543D01*
X134380500Y-71521456D01*
X134342052Y-71328170D01*
X134342051Y-71328169D01*
X134342051Y-71328165D01*
X134342049Y-71328160D01*
X134266635Y-71146092D01*
X134266628Y-71146079D01*
X134157139Y-70982218D01*
X134157136Y-70982214D01*
X134017785Y-70842863D01*
X134017781Y-70842860D01*
X133853920Y-70733371D01*
X133853907Y-70733364D01*
X133671839Y-70657950D01*
X133671829Y-70657947D01*
X133478536Y-70619498D01*
X133473110Y-70618964D01*
X133408324Y-70592801D01*
X133367967Y-70535765D01*
X133364853Y-70465965D01*
X133397586Y-70407883D01*
X133908252Y-69897219D01*
X133969575Y-69863734D01*
X133995933Y-69860900D01*
X134559760Y-69860900D01*
X134559762Y-69860900D01*
X134636189Y-69840421D01*
X134704711Y-69800860D01*
X134760660Y-69744911D01*
X134784267Y-69721304D01*
X156099500Y-69721304D01*
X156099500Y-69898695D01*
X156134103Y-70072658D01*
X156134106Y-70072667D01*
X156201983Y-70236540D01*
X156201990Y-70236553D01*
X156300535Y-70384034D01*
X156300538Y-70384038D01*
X156425961Y-70509461D01*
X156425965Y-70509464D01*
X156573446Y-70608009D01*
X156573459Y-70608016D01*
X156658427Y-70643210D01*
X156737334Y-70675894D01*
X156737336Y-70675894D01*
X156737341Y-70675896D01*
X156911304Y-70710499D01*
X156911307Y-70710500D01*
X156911309Y-70710500D01*
X157088693Y-70710500D01*
X157088694Y-70710499D01*
X157146682Y-70698964D01*
X157262658Y-70675896D01*
X157262661Y-70675894D01*
X157262666Y-70675894D01*
X157426547Y-70608013D01*
X157574035Y-70509464D01*
X157699464Y-70384035D01*
X157798013Y-70236547D01*
X157865894Y-70072666D01*
X157900500Y-69898691D01*
X157900500Y-69721309D01*
X157900500Y-69721306D01*
X157900499Y-69721304D01*
X157865896Y-69547341D01*
X157865893Y-69547332D01*
X157798016Y-69383459D01*
X157798009Y-69383446D01*
X157699464Y-69235965D01*
X157699461Y-69235961D01*
X157574038Y-69110538D01*
X157574034Y-69110535D01*
X157426553Y-69011990D01*
X157426540Y-69011983D01*
X157262667Y-68944106D01*
X157262658Y-68944103D01*
X157088694Y-68909500D01*
X157088691Y-68909500D01*
X156911309Y-68909500D01*
X156911306Y-68909500D01*
X156737341Y-68944103D01*
X156737332Y-68944106D01*
X156573459Y-69011983D01*
X156573446Y-69011990D01*
X156425965Y-69110535D01*
X156425961Y-69110538D01*
X156300538Y-69235961D01*
X156300535Y-69235965D01*
X156201990Y-69383446D01*
X156201983Y-69383459D01*
X156134106Y-69547332D01*
X156134103Y-69547341D01*
X156099500Y-69721304D01*
X134784267Y-69721304D01*
X135784267Y-68721304D01*
X160099500Y-68721304D01*
X160099500Y-68898695D01*
X160134103Y-69072658D01*
X160134106Y-69072667D01*
X160201983Y-69236540D01*
X160201990Y-69236553D01*
X160300535Y-69384034D01*
X160300538Y-69384038D01*
X160425961Y-69509461D01*
X160425965Y-69509464D01*
X160573446Y-69608009D01*
X160573459Y-69608016D01*
X160696363Y-69658923D01*
X160737334Y-69675894D01*
X160737336Y-69675894D01*
X160737341Y-69675896D01*
X160911304Y-69710499D01*
X160911307Y-69710500D01*
X160911309Y-69710500D01*
X161088693Y-69710500D01*
X161088694Y-69710499D01*
X161146682Y-69698964D01*
X161262658Y-69675896D01*
X161262661Y-69675894D01*
X161262666Y-69675894D01*
X161426547Y-69608013D01*
X161574035Y-69509464D01*
X161699464Y-69384035D01*
X161798013Y-69236547D01*
X161865894Y-69072666D01*
X161900500Y-68898691D01*
X161900500Y-68721309D01*
X161900500Y-68721306D01*
X161900499Y-68721304D01*
X161865896Y-68547341D01*
X161865893Y-68547332D01*
X161798016Y-68383459D01*
X161798009Y-68383446D01*
X161699464Y-68235965D01*
X161699461Y-68235961D01*
X161574038Y-68110538D01*
X161574034Y-68110535D01*
X161426553Y-68011990D01*
X161426540Y-68011983D01*
X161262667Y-67944106D01*
X161262658Y-67944103D01*
X161088694Y-67909500D01*
X161088691Y-67909500D01*
X160911309Y-67909500D01*
X160911306Y-67909500D01*
X160737341Y-67944103D01*
X160737332Y-67944106D01*
X160573459Y-68011983D01*
X160573446Y-68011990D01*
X160425965Y-68110535D01*
X160425961Y-68110538D01*
X160300538Y-68235961D01*
X160300535Y-68235965D01*
X160201990Y-68383446D01*
X160201983Y-68383459D01*
X160134106Y-68547332D01*
X160134103Y-68547341D01*
X160099500Y-68721304D01*
X135784267Y-68721304D01*
X139808760Y-64696811D01*
X139808763Y-64696804D01*
X139813710Y-64690360D01*
X139815209Y-64691510D01*
X139858219Y-64650481D01*
X139926823Y-64637242D01*
X139991694Y-64663195D01*
X140032106Y-64719726D01*
X140047207Y-64762882D01*
X140127850Y-64872150D01*
X140237118Y-64952793D01*
X140263576Y-64962051D01*
X140365299Y-64997646D01*
X140395730Y-65000500D01*
X140395734Y-65000500D01*
X141604270Y-65000500D01*
X141634699Y-64997646D01*
X141634701Y-64997646D01*
X141698790Y-64975219D01*
X141762882Y-64952793D01*
X141872150Y-64872150D01*
X141952793Y-64762882D01*
X141977767Y-64691510D01*
X141997646Y-64634701D01*
X141997646Y-64634699D01*
X142000500Y-64604269D01*
X142000500Y-64424500D01*
X142020185Y-64357461D01*
X142072989Y-64311706D01*
X142124500Y-64300500D01*
X148930660Y-64300500D01*
X148930662Y-64300500D01*
X149007089Y-64280021D01*
X149075611Y-64240460D01*
X149131560Y-64184511D01*
X155066265Y-58249805D01*
X155127586Y-58216322D01*
X155197278Y-58221306D01*
X155241625Y-58249807D01*
X155281014Y-58289196D01*
X155281015Y-58289196D01*
X155281017Y-58289198D01*
X155386107Y-58340573D01*
X155420173Y-58345536D01*
X155454239Y-58350500D01*
X155454240Y-58350500D01*
X156545761Y-58350500D01*
X156568471Y-58347191D01*
X156613893Y-58340573D01*
X156718983Y-58289198D01*
X156801698Y-58206483D01*
X156853073Y-58101393D01*
X156863000Y-58033260D01*
X156863000Y-57666740D01*
X156853073Y-57598607D01*
X156801698Y-57493517D01*
X156801696Y-57493515D01*
X156801696Y-57493514D01*
X156770863Y-57462681D01*
X156737378Y-57401358D01*
X156742362Y-57331666D01*
X156770863Y-57287319D01*
X156801696Y-57256485D01*
X156801698Y-57256483D01*
X156853073Y-57151393D01*
X156863000Y-57083260D01*
X156863000Y-56716740D01*
X156861531Y-56706661D01*
X156853073Y-56648608D01*
X156853073Y-56648607D01*
X156801698Y-56543517D01*
X156801696Y-56543515D01*
X156801696Y-56543514D01*
X156770863Y-56512681D01*
X156766524Y-56504735D01*
X156759277Y-56499310D01*
X156750042Y-56474550D01*
X156737378Y-56451358D01*
X156738023Y-56442328D01*
X156734860Y-56433846D01*
X156740476Y-56408025D01*
X156742362Y-56381666D01*
X156748180Y-56372612D01*
X156749712Y-56365573D01*
X156770863Y-56337319D01*
X156788063Y-56320119D01*
X156849386Y-56286634D01*
X156875744Y-56283800D01*
X159032467Y-56283800D01*
X159099506Y-56303485D01*
X159120148Y-56320119D01*
X160216972Y-57416943D01*
X160250457Y-57478266D01*
X160245473Y-57547958D01*
X160240692Y-57559084D01*
X160196926Y-57648608D01*
X160187000Y-57716739D01*
X160187000Y-58083260D01*
X160196926Y-58151391D01*
X160248303Y-58256485D01*
X160331014Y-58339196D01*
X160331015Y-58339196D01*
X160331017Y-58339198D01*
X160436107Y-58390573D01*
X160470173Y-58395536D01*
X160504239Y-58400500D01*
X160504240Y-58400500D01*
X161745761Y-58400500D01*
X161768471Y-58397191D01*
X161813893Y-58390573D01*
X161918983Y-58339198D01*
X162001698Y-58256483D01*
X162053073Y-58151393D01*
X162053073Y-58151391D01*
X162053074Y-58151390D01*
X162055916Y-58142193D01*
X162058764Y-58143073D01*
X162081332Y-58093879D01*
X162140174Y-58056204D01*
X162210043Y-58056322D01*
X162262588Y-58087559D01*
X162716403Y-58541374D01*
X162749888Y-58602697D01*
X162744904Y-58672389D01*
X162731824Y-58697946D01*
X162700138Y-58745366D01*
X162700133Y-58745375D01*
X162651099Y-58863755D01*
X162651097Y-58863761D01*
X162626100Y-58989428D01*
X162626100Y-58989431D01*
X162626100Y-59117569D01*
X162626100Y-59117571D01*
X162626099Y-59117571D01*
X162651097Y-59243238D01*
X162651099Y-59243244D01*
X162700133Y-59361624D01*
X162700138Y-59361633D01*
X162771323Y-59468168D01*
X162771326Y-59468172D01*
X162861927Y-59558773D01*
X162861931Y-59558776D01*
X162968466Y-59629961D01*
X162968472Y-59629964D01*
X162968473Y-59629965D01*
X163086856Y-59679001D01*
X163086860Y-59679001D01*
X163086861Y-59679002D01*
X163212528Y-59704000D01*
X163212531Y-59704000D01*
X163340671Y-59704000D01*
X163425215Y-59687182D01*
X163466344Y-59679001D01*
X163584727Y-59629965D01*
X163691269Y-59558776D01*
X163781876Y-59468169D01*
X163853065Y-59361627D01*
X163902101Y-59243244D01*
X163927100Y-59117569D01*
X163927100Y-58989431D01*
X163927100Y-58989428D01*
X163902102Y-58863761D01*
X163902101Y-58863760D01*
X163902101Y-58863756D01*
X163853065Y-58745373D01*
X163853064Y-58745372D01*
X163853061Y-58745366D01*
X163781876Y-58638831D01*
X163781873Y-58638827D01*
X163691272Y-58548226D01*
X163691268Y-58548223D01*
X163584733Y-58477038D01*
X163584723Y-58477033D01*
X163466299Y-58427980D01*
X163426071Y-58401100D01*
X162687152Y-57662181D01*
X162653667Y-57600858D01*
X162658651Y-57531166D01*
X162700523Y-57475233D01*
X162765987Y-57450816D01*
X162774833Y-57450500D01*
X163620761Y-57450500D01*
X163643471Y-57447191D01*
X163688893Y-57440573D01*
X163793983Y-57389198D01*
X163876698Y-57306483D01*
X163928073Y-57201393D01*
X163938000Y-57133260D01*
X163938000Y-56766740D01*
X163936081Y-56753572D01*
X163928073Y-56698608D01*
X163925848Y-56694056D01*
X163876698Y-56593517D01*
X163876696Y-56593515D01*
X163876696Y-56593514D01*
X163793985Y-56510803D01*
X163688891Y-56459426D01*
X163620761Y-56449500D01*
X163620760Y-56449500D01*
X163420665Y-56449500D01*
X163353626Y-56429815D01*
X163307871Y-56377011D01*
X163300890Y-56357593D01*
X163294705Y-56334511D01*
X163290908Y-56320340D01*
X163280022Y-56279712D01*
X163240460Y-56211189D01*
X160298211Y-53268940D01*
X160298209Y-53268939D01*
X160298204Y-53268935D01*
X160229695Y-53229382D01*
X160229690Y-53229379D01*
X160204213Y-53222552D01*
X160153262Y-53208900D01*
X160153260Y-53208900D01*
X158869641Y-53208900D01*
X158802602Y-53189215D01*
X158766539Y-53153791D01*
X158727076Y-53094731D01*
X158727073Y-53094727D01*
X158636472Y-53004126D01*
X158636468Y-53004123D01*
X158529933Y-52932938D01*
X158529924Y-52932933D01*
X158411544Y-52883899D01*
X158411538Y-52883897D01*
X158285871Y-52858900D01*
X158285869Y-52858900D01*
X158157731Y-52858900D01*
X158157729Y-52858900D01*
X158032061Y-52883897D01*
X158032055Y-52883899D01*
X157913675Y-52932933D01*
X157913666Y-52932938D01*
X157807131Y-53004123D01*
X157807127Y-53004126D01*
X157716526Y-53094727D01*
X157716523Y-53094731D01*
X157645338Y-53201266D01*
X157645333Y-53201275D01*
X157596299Y-53319655D01*
X157596297Y-53319661D01*
X157571300Y-53445328D01*
X157571300Y-53445331D01*
X157571300Y-53573469D01*
X157571300Y-53573471D01*
X157571299Y-53573471D01*
X157596297Y-53699138D01*
X157596299Y-53699144D01*
X157645333Y-53817524D01*
X157645338Y-53817533D01*
X157716523Y-53924068D01*
X157716526Y-53924072D01*
X157807127Y-54014673D01*
X157807131Y-54014676D01*
X157913666Y-54085861D01*
X157913672Y-54085864D01*
X157913673Y-54085865D01*
X158032056Y-54134901D01*
X158032060Y-54134901D01*
X158032061Y-54134902D01*
X158157728Y-54159900D01*
X158157731Y-54159900D01*
X158285871Y-54159900D01*
X158370415Y-54143082D01*
X158411544Y-54134901D01*
X158529927Y-54085865D01*
X158636469Y-54014676D01*
X158727076Y-53924069D01*
X158766539Y-53865009D01*
X158820151Y-53820204D01*
X158869641Y-53809900D01*
X159937867Y-53809900D01*
X160004906Y-53829585D01*
X160025548Y-53846219D01*
X161467148Y-55287819D01*
X161500633Y-55349142D01*
X161495649Y-55418834D01*
X161453777Y-55474767D01*
X161388313Y-55499184D01*
X161379467Y-55499500D01*
X161100833Y-55499500D01*
X161033794Y-55479815D01*
X161013152Y-55463181D01*
X160607912Y-55057941D01*
X160607904Y-55057935D01*
X160539395Y-55018382D01*
X160539390Y-55018379D01*
X160513913Y-55011552D01*
X160462962Y-54997900D01*
X154416162Y-54997900D01*
X154337038Y-54997900D01*
X154260610Y-55018378D01*
X154192089Y-55057940D01*
X154192086Y-55057942D01*
X153836848Y-55413181D01*
X153775525Y-55446666D01*
X153749167Y-55449500D01*
X153179239Y-55449500D01*
X153111108Y-55459426D01*
X153006014Y-55510803D01*
X152923302Y-55593515D01*
X152868036Y-55706564D01*
X152820908Y-55758146D01*
X152753374Y-55776060D01*
X152686876Y-55754619D01*
X152668955Y-55739784D01*
X152048212Y-55119041D01*
X152048207Y-55119037D01*
X152039289Y-55113888D01*
X152039287Y-55113888D01*
X152005967Y-55094650D01*
X151979690Y-55079479D01*
X151954213Y-55072652D01*
X151903262Y-55059000D01*
X147405062Y-55059000D01*
X147325938Y-55059000D01*
X147249510Y-55079478D01*
X147180989Y-55119040D01*
X147180986Y-55119042D01*
X146836848Y-55463181D01*
X146775525Y-55496666D01*
X146749167Y-55499500D01*
X146179239Y-55499500D01*
X146111108Y-55509426D01*
X146006014Y-55560803D01*
X145923303Y-55643514D01*
X145871926Y-55748608D01*
X145862000Y-55816739D01*
X145862000Y-56183260D01*
X145871926Y-56251391D01*
X145923303Y-56356485D01*
X145954137Y-56387319D01*
X145987622Y-56448642D01*
X145982638Y-56518334D01*
X145954137Y-56562681D01*
X145923303Y-56593514D01*
X145871926Y-56698608D01*
X145862000Y-56766739D01*
X145862000Y-57133260D01*
X145871926Y-57201391D01*
X145923303Y-57306485D01*
X145954137Y-57337319D01*
X145987622Y-57398642D01*
X145982638Y-57468334D01*
X145954137Y-57512681D01*
X145923303Y-57543514D01*
X145871926Y-57648608D01*
X145862000Y-57716739D01*
X145862000Y-58083260D01*
X145871926Y-58151391D01*
X145923303Y-58256485D01*
X146006014Y-58339196D01*
X146006015Y-58339196D01*
X146006017Y-58339198D01*
X146111107Y-58390573D01*
X146145173Y-58395536D01*
X146179239Y-58400500D01*
X146179240Y-58400500D01*
X146805967Y-58400500D01*
X146873006Y-58420185D01*
X146918761Y-58472989D01*
X146928705Y-58542147D01*
X146899680Y-58605703D01*
X146893648Y-58612181D01*
X145744148Y-59761681D01*
X145682825Y-59795166D01*
X145656467Y-59798000D01*
X141009138Y-59798000D01*
X140958186Y-59811652D01*
X140932710Y-59818479D01*
X140906833Y-59833420D01*
X140906831Y-59833420D01*
X140864195Y-59858035D01*
X140864187Y-59858041D01*
X138160748Y-62561481D01*
X138099425Y-62594966D01*
X138073067Y-62597800D01*
X120156738Y-62597800D01*
X120118524Y-62608039D01*
X120080309Y-62618279D01*
X120080304Y-62618282D01*
X120011795Y-62657835D01*
X120011787Y-62657841D01*
X119169541Y-63500087D01*
X119169535Y-63500095D01*
X119129982Y-63568604D01*
X119129979Y-63568609D01*
X119128133Y-63575500D01*
X119114331Y-63627011D01*
X119109500Y-63645039D01*
X119109500Y-64119167D01*
X119089815Y-64186206D01*
X119073181Y-64206848D01*
X113666848Y-69613181D01*
X113605525Y-69646666D01*
X113579167Y-69649500D01*
X109300222Y-69649500D01*
X109233183Y-69629815D01*
X109187428Y-69577011D01*
X109182291Y-69563817D01*
X109148529Y-69459906D01*
X109120241Y-69404387D01*
X109066134Y-69298196D01*
X108959459Y-69151371D01*
X108831129Y-69023041D01*
X108684304Y-68916366D01*
X108616706Y-68881923D01*
X108522595Y-68833971D01*
X108349998Y-68777891D01*
X108170740Y-68749499D01*
X108165880Y-68749117D01*
X108166009Y-68747467D01*
X108105893Y-68729815D01*
X108060138Y-68677011D01*
X108050194Y-68607853D01*
X108079219Y-68544297D01*
X108085251Y-68537819D01*
X111625425Y-64997646D01*
X115362552Y-61260519D01*
X115423875Y-61227034D01*
X115450233Y-61224200D01*
X138552660Y-61224200D01*
X138552662Y-61224200D01*
X138629089Y-61203721D01*
X138697611Y-61164160D01*
X138753560Y-61108211D01*
X150502252Y-49359517D01*
X150563573Y-49326034D01*
X150633265Y-49331018D01*
X150689198Y-49372890D01*
X150693034Y-49378310D01*
X150734024Y-49439657D01*
X150880342Y-49585975D01*
X150880345Y-49585977D01*
X151052402Y-49700941D01*
X151243580Y-49780130D01*
X151446530Y-49820499D01*
X151446534Y-49820500D01*
X151446535Y-49820500D01*
X151653466Y-49820500D01*
X151653467Y-49820499D01*
X151856420Y-49780130D01*
X152047598Y-49700941D01*
X152219655Y-49585977D01*
X152365977Y-49439655D01*
X152480941Y-49267598D01*
X152560130Y-49076420D01*
X152600500Y-48873465D01*
X152600500Y-48666535D01*
X152600499Y-48666530D01*
X153039500Y-48666530D01*
X153039500Y-48873469D01*
X153079868Y-49076412D01*
X153079870Y-49076420D01*
X153151769Y-49250000D01*
X153159059Y-49267598D01*
X153199365Y-49327920D01*
X153274024Y-49439657D01*
X153420342Y-49585975D01*
X153420345Y-49585977D01*
X153592402Y-49700941D01*
X153783580Y-49780130D01*
X153986530Y-49820499D01*
X153986534Y-49820500D01*
X153986535Y-49820500D01*
X154193466Y-49820500D01*
X154193467Y-49820499D01*
X154396420Y-49780130D01*
X154587598Y-49700941D01*
X154759655Y-49585977D01*
X154905977Y-49439655D01*
X155020941Y-49267598D01*
X155100130Y-49076420D01*
X155140500Y-48873465D01*
X155140500Y-48666535D01*
X155100130Y-48463580D01*
X155020941Y-48272402D01*
X154905977Y-48100345D01*
X154905975Y-48100342D01*
X154759657Y-47954024D01*
X154591655Y-47841770D01*
X154587598Y-47839059D01*
X154396420Y-47759870D01*
X154396412Y-47759868D01*
X154193469Y-47719500D01*
X154193465Y-47719500D01*
X153986535Y-47719500D01*
X153986530Y-47719500D01*
X153783587Y-47759868D01*
X153783579Y-47759870D01*
X153592403Y-47839058D01*
X153420342Y-47954024D01*
X153274024Y-48100342D01*
X153159058Y-48272403D01*
X153079870Y-48463579D01*
X153079868Y-48463587D01*
X153039500Y-48666530D01*
X152600499Y-48666530D01*
X152560130Y-48463580D01*
X152480941Y-48272402D01*
X152365977Y-48100345D01*
X152365975Y-48100342D01*
X152219657Y-47954024D01*
X152051655Y-47841770D01*
X152047598Y-47839059D01*
X151856420Y-47759870D01*
X151856412Y-47759868D01*
X151653469Y-47719500D01*
X151653465Y-47719500D01*
X151446535Y-47719500D01*
X151446530Y-47719500D01*
X151243587Y-47759868D01*
X151243579Y-47759870D01*
X151052403Y-47839058D01*
X150880342Y-47954024D01*
X150734024Y-48100342D01*
X150619058Y-48272403D01*
X150569125Y-48392953D01*
X150525284Y-48447356D01*
X150458990Y-48469421D01*
X150454564Y-48469500D01*
X150437862Y-48469500D01*
X150358738Y-48469500D01*
X150320524Y-48479739D01*
X150282309Y-48489979D01*
X150282304Y-48489982D01*
X150206750Y-48533603D01*
X150205887Y-48532109D01*
X150149887Y-48553755D01*
X150081443Y-48539711D01*
X150031457Y-48490894D01*
X150020919Y-48466180D01*
X150020131Y-48463584D01*
X150020130Y-48463583D01*
X150020130Y-48463580D01*
X149940941Y-48272402D01*
X149825977Y-48100345D01*
X149825975Y-48100342D01*
X149679657Y-47954024D01*
X149511655Y-47841770D01*
X149507598Y-47839059D01*
X149316420Y-47759870D01*
X149316412Y-47759868D01*
X149113469Y-47719500D01*
X149113465Y-47719500D01*
X148906535Y-47719500D01*
X148906530Y-47719500D01*
X148703587Y-47759868D01*
X148703579Y-47759870D01*
X148512403Y-47839058D01*
X148340342Y-47954024D01*
X148194024Y-48100342D01*
X148079058Y-48272403D01*
X148029125Y-48392953D01*
X147985284Y-48447356D01*
X147918990Y-48469421D01*
X147914564Y-48469500D01*
X147897862Y-48469500D01*
X147818738Y-48469500D01*
X147780524Y-48479739D01*
X147742309Y-48489979D01*
X147742304Y-48489982D01*
X147666750Y-48533603D01*
X147665887Y-48532109D01*
X147609887Y-48553755D01*
X147541443Y-48539711D01*
X147491457Y-48490894D01*
X147480919Y-48466180D01*
X147480131Y-48463584D01*
X147480130Y-48463583D01*
X147480130Y-48463580D01*
X147400941Y-48272402D01*
X147285977Y-48100345D01*
X147285975Y-48100342D01*
X147139657Y-47954024D01*
X146971655Y-47841770D01*
X146967598Y-47839059D01*
X146776420Y-47759870D01*
X146776412Y-47759868D01*
X146573469Y-47719500D01*
X146573465Y-47719500D01*
X146366535Y-47719500D01*
X146366530Y-47719500D01*
X146163587Y-47759868D01*
X146163579Y-47759870D01*
X145972403Y-47839058D01*
X145800342Y-47954024D01*
X145654024Y-48100342D01*
X145539058Y-48272403D01*
X145489125Y-48392953D01*
X145445284Y-48447356D01*
X145378990Y-48469421D01*
X145374564Y-48469500D01*
X145357862Y-48469500D01*
X145278738Y-48469500D01*
X145240524Y-48479739D01*
X145202309Y-48489979D01*
X145202304Y-48489982D01*
X145126750Y-48533603D01*
X145125887Y-48532109D01*
X145069887Y-48553755D01*
X145001443Y-48539711D01*
X144951457Y-48490894D01*
X144940919Y-48466180D01*
X144940131Y-48463584D01*
X144940130Y-48463583D01*
X144940130Y-48463580D01*
X144860941Y-48272402D01*
X144745977Y-48100345D01*
X144745975Y-48100342D01*
X144599657Y-47954024D01*
X144431655Y-47841770D01*
X144427598Y-47839059D01*
X144236420Y-47759870D01*
X144236412Y-47759868D01*
X144033469Y-47719500D01*
X144033465Y-47719500D01*
X143826535Y-47719500D01*
X143826530Y-47719500D01*
X143623587Y-47759868D01*
X143623579Y-47759870D01*
X143432403Y-47839058D01*
X143260342Y-47954024D01*
X143114024Y-48100342D01*
X142999058Y-48272403D01*
X142949125Y-48392953D01*
X142905284Y-48447356D01*
X142838990Y-48469421D01*
X142834564Y-48469500D01*
X142817862Y-48469500D01*
X142738738Y-48469500D01*
X142700524Y-48479739D01*
X142662309Y-48489979D01*
X142662304Y-48489982D01*
X142586750Y-48533603D01*
X142585887Y-48532109D01*
X142529887Y-48553755D01*
X142461443Y-48539711D01*
X142411457Y-48490894D01*
X142400919Y-48466180D01*
X142400131Y-48463584D01*
X142400130Y-48463583D01*
X142400130Y-48463580D01*
X142320941Y-48272402D01*
X142205977Y-48100345D01*
X142205975Y-48100342D01*
X142059657Y-47954024D01*
X141891655Y-47841770D01*
X141887598Y-47839059D01*
X141696420Y-47759870D01*
X141696412Y-47759868D01*
X141493469Y-47719500D01*
X141493465Y-47719500D01*
X141286535Y-47719500D01*
X141286530Y-47719500D01*
X141083587Y-47759868D01*
X141083579Y-47759870D01*
X140892403Y-47839058D01*
X140720342Y-47954024D01*
X140574024Y-48100342D01*
X140459058Y-48272403D01*
X140379870Y-48463579D01*
X140379868Y-48463587D01*
X140339500Y-48666530D01*
X140339500Y-48873469D01*
X140379868Y-49076412D01*
X140379870Y-49076420D01*
X140451769Y-49250000D01*
X140459059Y-49267598D01*
X140499365Y-49327920D01*
X140574024Y-49439657D01*
X140720342Y-49585975D01*
X140720345Y-49585977D01*
X140892402Y-49700941D01*
X141083580Y-49780130D01*
X141286530Y-49820499D01*
X141286534Y-49820500D01*
X141286535Y-49820500D01*
X141493466Y-49820500D01*
X141493467Y-49820499D01*
X141696420Y-49780130D01*
X141887598Y-49700941D01*
X142059655Y-49585977D01*
X142205977Y-49439655D01*
X142250697Y-49372725D01*
X142304309Y-49327920D01*
X142373634Y-49319213D01*
X142436662Y-49349367D01*
X142473382Y-49408810D01*
X142477800Y-49441616D01*
X142477800Y-49578167D01*
X142458115Y-49645206D01*
X142441481Y-49665848D01*
X134853869Y-57253459D01*
X134792546Y-57286944D01*
X134722854Y-57281960D01*
X134666921Y-57240088D01*
X134651627Y-57213231D01*
X134614366Y-57123275D01*
X134614361Y-57123266D01*
X134543176Y-57016731D01*
X134543173Y-57016727D01*
X134452572Y-56926126D01*
X134452568Y-56926123D01*
X134346033Y-56854938D01*
X134346024Y-56854933D01*
X134227644Y-56805899D01*
X134227638Y-56805897D01*
X134101971Y-56780900D01*
X134101969Y-56780900D01*
X133973831Y-56780900D01*
X133973829Y-56780900D01*
X133848161Y-56805897D01*
X133848155Y-56805899D01*
X133729775Y-56854933D01*
X133729766Y-56854938D01*
X133623231Y-56926123D01*
X133623227Y-56926126D01*
X133532626Y-57016727D01*
X133532623Y-57016731D01*
X133493161Y-57075791D01*
X133439549Y-57120596D01*
X133390059Y-57130900D01*
X130771033Y-57130900D01*
X130703994Y-57111215D01*
X130683352Y-57094581D01*
X123620952Y-50032181D01*
X123587467Y-49970858D01*
X123592451Y-49901166D01*
X123634323Y-49845233D01*
X123699787Y-49820816D01*
X123708633Y-49820500D01*
X123713466Y-49820500D01*
X123713467Y-49820499D01*
X123916420Y-49780130D01*
X124107598Y-49700941D01*
X124279655Y-49585977D01*
X124425977Y-49439655D01*
X124540941Y-49267598D01*
X124620130Y-49076420D01*
X124660500Y-48873465D01*
X124660500Y-48666535D01*
X124620130Y-48463580D01*
X124540941Y-48272402D01*
X124497789Y-48207820D01*
X124433558Y-48111690D01*
X124412680Y-48045013D01*
X124431165Y-47977633D01*
X124483144Y-47930943D01*
X124536660Y-47918800D01*
X125223340Y-47918800D01*
X125290379Y-47938485D01*
X125336134Y-47991289D01*
X125346078Y-48060447D01*
X125326442Y-48111690D01*
X125219059Y-48272400D01*
X125139870Y-48463579D01*
X125139868Y-48463587D01*
X125099500Y-48666530D01*
X125099500Y-48873469D01*
X125139868Y-49076412D01*
X125139870Y-49076420D01*
X125211769Y-49250000D01*
X125219059Y-49267598D01*
X125259365Y-49327920D01*
X125334024Y-49439657D01*
X125480342Y-49585975D01*
X125480345Y-49585977D01*
X125652402Y-49700941D01*
X125843580Y-49780130D01*
X126046530Y-49820499D01*
X126046534Y-49820500D01*
X126046535Y-49820500D01*
X126253466Y-49820500D01*
X126253467Y-49820499D01*
X126456420Y-49780130D01*
X126647598Y-49700941D01*
X126819655Y-49585977D01*
X126965977Y-49439655D01*
X127080941Y-49267598D01*
X127160130Y-49076420D01*
X127160132Y-49076412D01*
X127160918Y-49073822D01*
X127161700Y-49072627D01*
X127162461Y-49070792D01*
X127162809Y-49070936D01*
X127199214Y-49015383D01*
X127263025Y-48986925D01*
X127332092Y-48997484D01*
X127347026Y-49006556D01*
X127422304Y-49050017D01*
X127422311Y-49050021D01*
X127498738Y-49070500D01*
X127577862Y-49070500D01*
X127594564Y-49070500D01*
X127661603Y-49090185D01*
X127707358Y-49142989D01*
X127709121Y-49147039D01*
X127759059Y-49267598D01*
X127799365Y-49327920D01*
X127874024Y-49439657D01*
X128020342Y-49585975D01*
X128020345Y-49585977D01*
X128192402Y-49700941D01*
X128383580Y-49780130D01*
X128586530Y-49820499D01*
X128586534Y-49820500D01*
X128586535Y-49820500D01*
X128793466Y-49820500D01*
X128793467Y-49820499D01*
X128996420Y-49780130D01*
X129187598Y-49700941D01*
X129359655Y-49585977D01*
X129505977Y-49439655D01*
X129620941Y-49267598D01*
X129700130Y-49076420D01*
X129740500Y-48873465D01*
X129740500Y-48666535D01*
X129740499Y-48666530D01*
X130179500Y-48666530D01*
X130179500Y-48873469D01*
X130219868Y-49076412D01*
X130219870Y-49076420D01*
X130291769Y-49250000D01*
X130299059Y-49267598D01*
X130339365Y-49327920D01*
X130414024Y-49439657D01*
X130560342Y-49585975D01*
X130560345Y-49585977D01*
X130732402Y-49700941D01*
X130923580Y-49780130D01*
X131126530Y-49820499D01*
X131126534Y-49820500D01*
X131126535Y-49820500D01*
X131333466Y-49820500D01*
X131333467Y-49820499D01*
X131536420Y-49780130D01*
X131727598Y-49700941D01*
X131899655Y-49585977D01*
X132045977Y-49439655D01*
X132160941Y-49267598D01*
X132240130Y-49076420D01*
X132280500Y-48873465D01*
X132280500Y-48666535D01*
X132280499Y-48666530D01*
X132719500Y-48666530D01*
X132719500Y-48873469D01*
X132759868Y-49076412D01*
X132759870Y-49076420D01*
X132831769Y-49250000D01*
X132839059Y-49267598D01*
X132879365Y-49327920D01*
X132954024Y-49439657D01*
X133100342Y-49585975D01*
X133100345Y-49585977D01*
X133272402Y-49700941D01*
X133463580Y-49780130D01*
X133666530Y-49820499D01*
X133666534Y-49820500D01*
X133666535Y-49820500D01*
X133873466Y-49820500D01*
X133873467Y-49820499D01*
X134076420Y-49780130D01*
X134267598Y-49700941D01*
X134439655Y-49585977D01*
X134585977Y-49439655D01*
X134700941Y-49267598D01*
X134780130Y-49076420D01*
X134820500Y-48873465D01*
X134820500Y-48666535D01*
X134820499Y-48666530D01*
X135259500Y-48666530D01*
X135259500Y-48873469D01*
X135299868Y-49076412D01*
X135299870Y-49076420D01*
X135371769Y-49250000D01*
X135379059Y-49267598D01*
X135419365Y-49327920D01*
X135494024Y-49439657D01*
X135640342Y-49585975D01*
X135640345Y-49585977D01*
X135812402Y-49700941D01*
X136003580Y-49780130D01*
X136206530Y-49820499D01*
X136206534Y-49820500D01*
X136206535Y-49820500D01*
X136413466Y-49820500D01*
X136413467Y-49820499D01*
X136616420Y-49780130D01*
X136807598Y-49700941D01*
X136979655Y-49585977D01*
X137125977Y-49439655D01*
X137240941Y-49267598D01*
X137320130Y-49076420D01*
X137360500Y-48873465D01*
X137360500Y-48666535D01*
X137320130Y-48463580D01*
X137240941Y-48272402D01*
X137125977Y-48100345D01*
X137125975Y-48100342D01*
X136979657Y-47954024D01*
X136811655Y-47841770D01*
X136807598Y-47839059D01*
X136616420Y-47759870D01*
X136616412Y-47759868D01*
X136413469Y-47719500D01*
X136413465Y-47719500D01*
X136206535Y-47719500D01*
X136206530Y-47719500D01*
X136003587Y-47759868D01*
X136003579Y-47759870D01*
X135812403Y-47839058D01*
X135640342Y-47954024D01*
X135494024Y-48100342D01*
X135379058Y-48272403D01*
X135299870Y-48463579D01*
X135299868Y-48463587D01*
X135259500Y-48666530D01*
X134820499Y-48666530D01*
X134780130Y-48463580D01*
X134700941Y-48272402D01*
X134585977Y-48100345D01*
X134585975Y-48100342D01*
X134439657Y-47954024D01*
X134271655Y-47841770D01*
X134267598Y-47839059D01*
X134076420Y-47759870D01*
X134076412Y-47759868D01*
X133873469Y-47719500D01*
X133873465Y-47719500D01*
X133666535Y-47719500D01*
X133666530Y-47719500D01*
X133463587Y-47759868D01*
X133463579Y-47759870D01*
X133272403Y-47839058D01*
X133100342Y-47954024D01*
X132954024Y-48100342D01*
X132839058Y-48272403D01*
X132759870Y-48463579D01*
X132759868Y-48463587D01*
X132719500Y-48666530D01*
X132280499Y-48666530D01*
X132240130Y-48463580D01*
X132160941Y-48272402D01*
X132045977Y-48100345D01*
X132045975Y-48100342D01*
X131899657Y-47954024D01*
X131731655Y-47841770D01*
X131727598Y-47839059D01*
X131536420Y-47759870D01*
X131536412Y-47759868D01*
X131333469Y-47719500D01*
X131333465Y-47719500D01*
X131126535Y-47719500D01*
X131126530Y-47719500D01*
X130923587Y-47759868D01*
X130923579Y-47759870D01*
X130732403Y-47839058D01*
X130560342Y-47954024D01*
X130414024Y-48100342D01*
X130299058Y-48272403D01*
X130219870Y-48463579D01*
X130219868Y-48463587D01*
X130179500Y-48666530D01*
X129740499Y-48666530D01*
X129700130Y-48463580D01*
X129620941Y-48272402D01*
X129505977Y-48100345D01*
X129505975Y-48100342D01*
X129359657Y-47954024D01*
X129191655Y-47841770D01*
X129187598Y-47839059D01*
X128996420Y-47759870D01*
X128996412Y-47759868D01*
X128793469Y-47719500D01*
X128793465Y-47719500D01*
X128586535Y-47719500D01*
X128586530Y-47719500D01*
X128383587Y-47759868D01*
X128383579Y-47759870D01*
X128192403Y-47839058D01*
X128020342Y-47954024D01*
X127874025Y-48100341D01*
X127874022Y-48100345D01*
X127840804Y-48150060D01*
X127787192Y-48194865D01*
X127717867Y-48203572D01*
X127654839Y-48173417D01*
X127650021Y-48168850D01*
X126874884Y-47393713D01*
X160149500Y-47393713D01*
X160149500Y-47606286D01*
X160176292Y-47775448D01*
X160182754Y-47816243D01*
X160239630Y-47991289D01*
X160248444Y-48018414D01*
X160344951Y-48207820D01*
X160469890Y-48379786D01*
X160620213Y-48530109D01*
X160792179Y-48655048D01*
X160792181Y-48655049D01*
X160792184Y-48655051D01*
X160981588Y-48751557D01*
X161183757Y-48817246D01*
X161393713Y-48850500D01*
X161393714Y-48850500D01*
X161606286Y-48850500D01*
X161606287Y-48850500D01*
X161816243Y-48817246D01*
X162018412Y-48751557D01*
X162207816Y-48655051D01*
X162243850Y-48628871D01*
X162379786Y-48530109D01*
X162379788Y-48530106D01*
X162379792Y-48530104D01*
X162530104Y-48379792D01*
X162530106Y-48379788D01*
X162530109Y-48379786D01*
X162655048Y-48207820D01*
X162655047Y-48207820D01*
X162655051Y-48207816D01*
X162751557Y-48018412D01*
X162817246Y-47816243D01*
X162850500Y-47606287D01*
X162850500Y-47393713D01*
X162817246Y-47183757D01*
X162751557Y-46981588D01*
X162655051Y-46792184D01*
X162655049Y-46792181D01*
X162655048Y-46792179D01*
X162530109Y-46620213D01*
X162379786Y-46469890D01*
X162207820Y-46344951D01*
X162018414Y-46248444D01*
X162018413Y-46248443D01*
X162018412Y-46248443D01*
X161816243Y-46182754D01*
X161816241Y-46182753D01*
X161816240Y-46182753D01*
X161654957Y-46157208D01*
X161606287Y-46149500D01*
X161393713Y-46149500D01*
X161345042Y-46157208D01*
X161183760Y-46182753D01*
X160981585Y-46248444D01*
X160792179Y-46344951D01*
X160620213Y-46469890D01*
X160469890Y-46620213D01*
X160344951Y-46792179D01*
X160248444Y-46981585D01*
X160182753Y-47183760D01*
X160149500Y-47393713D01*
X126874884Y-47393713D01*
X126859012Y-47377841D01*
X126859004Y-47377835D01*
X126790495Y-47338282D01*
X126790490Y-47338279D01*
X126780922Y-47335715D01*
X126763406Y-47331022D01*
X126703747Y-47294657D01*
X126673219Y-47231810D01*
X126681514Y-47162435D01*
X126726000Y-47108557D01*
X126726431Y-47108266D01*
X126819655Y-47045977D01*
X126965977Y-46899655D01*
X127080941Y-46727598D01*
X127160130Y-46536420D01*
X127200500Y-46333465D01*
X127200500Y-46126535D01*
X127200499Y-46126530D01*
X127639500Y-46126530D01*
X127639500Y-46333469D01*
X127679868Y-46536412D01*
X127679870Y-46536420D01*
X127759058Y-46727596D01*
X127874024Y-46899657D01*
X128020342Y-47045975D01*
X128020345Y-47045977D01*
X128192402Y-47160941D01*
X128383580Y-47240130D01*
X128519792Y-47267224D01*
X128586530Y-47280499D01*
X128586534Y-47280500D01*
X128586535Y-47280500D01*
X128793466Y-47280500D01*
X128793467Y-47280499D01*
X128996420Y-47240130D01*
X129187598Y-47160941D01*
X129359655Y-47045977D01*
X129505977Y-46899655D01*
X129620941Y-46727598D01*
X129700130Y-46536420D01*
X129740500Y-46333465D01*
X129740500Y-46126535D01*
X129740499Y-46126530D01*
X132719500Y-46126530D01*
X132719500Y-46333469D01*
X132759868Y-46536412D01*
X132759870Y-46536420D01*
X132839058Y-46727596D01*
X132954024Y-46899657D01*
X133100342Y-47045975D01*
X133100345Y-47045977D01*
X133272402Y-47160941D01*
X133463580Y-47240130D01*
X133599792Y-47267224D01*
X133666530Y-47280499D01*
X133666534Y-47280500D01*
X133666535Y-47280500D01*
X133873466Y-47280500D01*
X133873467Y-47280499D01*
X134076420Y-47240130D01*
X134267598Y-47160941D01*
X134439655Y-47045977D01*
X134585977Y-46899655D01*
X134700941Y-46727598D01*
X134780130Y-46536420D01*
X134820500Y-46333465D01*
X134820500Y-46126535D01*
X134820499Y-46126530D01*
X135259500Y-46126530D01*
X135259500Y-46333469D01*
X135299868Y-46536412D01*
X135299870Y-46536420D01*
X135379058Y-46727596D01*
X135494024Y-46899657D01*
X135640342Y-47045975D01*
X135640345Y-47045977D01*
X135812402Y-47160941D01*
X136003580Y-47240130D01*
X136139792Y-47267224D01*
X136206530Y-47280499D01*
X136206534Y-47280500D01*
X136206535Y-47280500D01*
X136413466Y-47280500D01*
X136413467Y-47280499D01*
X136616420Y-47240130D01*
X136807598Y-47160941D01*
X136979655Y-47045977D01*
X137125977Y-46899655D01*
X137240941Y-46727598D01*
X137320130Y-46536420D01*
X137360500Y-46333465D01*
X137360500Y-46126535D01*
X137360499Y-46126530D01*
X137799500Y-46126530D01*
X137799500Y-46333469D01*
X137839868Y-46536412D01*
X137839870Y-46536420D01*
X137919058Y-46727596D01*
X138034024Y-46899657D01*
X138180342Y-47045975D01*
X138180345Y-47045977D01*
X138352402Y-47160941D01*
X138543580Y-47240130D01*
X138679792Y-47267224D01*
X138746530Y-47280499D01*
X138746534Y-47280500D01*
X138746535Y-47280500D01*
X138953466Y-47280500D01*
X138953467Y-47280499D01*
X139156420Y-47240130D01*
X139347598Y-47160941D01*
X139519655Y-47045977D01*
X139665977Y-46899655D01*
X139780941Y-46727598D01*
X139860130Y-46536420D01*
X139900500Y-46333465D01*
X139900500Y-46126535D01*
X139900499Y-46126530D01*
X140339500Y-46126530D01*
X140339500Y-46333469D01*
X140379868Y-46536412D01*
X140379870Y-46536420D01*
X140459058Y-46727596D01*
X140574024Y-46899657D01*
X140720342Y-47045975D01*
X140720345Y-47045977D01*
X140892402Y-47160941D01*
X141083580Y-47240130D01*
X141219792Y-47267224D01*
X141286530Y-47280499D01*
X141286534Y-47280500D01*
X141286535Y-47280500D01*
X141493466Y-47280500D01*
X141493467Y-47280499D01*
X141696420Y-47240130D01*
X141887598Y-47160941D01*
X142059655Y-47045977D01*
X142205977Y-46899655D01*
X142320941Y-46727598D01*
X142400130Y-46536420D01*
X142440500Y-46333465D01*
X142440500Y-46126535D01*
X142440499Y-46126530D01*
X145419500Y-46126530D01*
X145419500Y-46333469D01*
X145459868Y-46536412D01*
X145459870Y-46536420D01*
X145539058Y-46727596D01*
X145654024Y-46899657D01*
X145800342Y-47045975D01*
X145800345Y-47045977D01*
X145972402Y-47160941D01*
X146163580Y-47240130D01*
X146299792Y-47267224D01*
X146366530Y-47280499D01*
X146366534Y-47280500D01*
X146366535Y-47280500D01*
X146573466Y-47280500D01*
X146573467Y-47280499D01*
X146776420Y-47240130D01*
X146967598Y-47160941D01*
X147139655Y-47045977D01*
X147285977Y-46899655D01*
X147400941Y-46727598D01*
X147480130Y-46536420D01*
X147520500Y-46333465D01*
X147520500Y-46126535D01*
X147520499Y-46126530D01*
X150499500Y-46126530D01*
X150499500Y-46333469D01*
X150539868Y-46536412D01*
X150539870Y-46536420D01*
X150619058Y-46727596D01*
X150734024Y-46899657D01*
X150880342Y-47045975D01*
X150880345Y-47045977D01*
X151052402Y-47160941D01*
X151243580Y-47240130D01*
X151379792Y-47267224D01*
X151446530Y-47280499D01*
X151446534Y-47280500D01*
X151446535Y-47280500D01*
X151653466Y-47280500D01*
X151653467Y-47280499D01*
X151856420Y-47240130D01*
X152047598Y-47160941D01*
X152219655Y-47045977D01*
X152365977Y-46899655D01*
X152480941Y-46727598D01*
X152560130Y-46536420D01*
X152600500Y-46333465D01*
X152600500Y-46126535D01*
X152600499Y-46126530D01*
X153039500Y-46126530D01*
X153039500Y-46333469D01*
X153079868Y-46536412D01*
X153079870Y-46536420D01*
X153159058Y-46727596D01*
X153274024Y-46899657D01*
X153420342Y-47045975D01*
X153420345Y-47045977D01*
X153592402Y-47160941D01*
X153783580Y-47240130D01*
X153919792Y-47267224D01*
X153986530Y-47280499D01*
X153986534Y-47280500D01*
X153986535Y-47280500D01*
X154193466Y-47280500D01*
X154193467Y-47280499D01*
X154396420Y-47240130D01*
X154587598Y-47160941D01*
X154759655Y-47045977D01*
X154905977Y-46899655D01*
X155020941Y-46727598D01*
X155100130Y-46536420D01*
X155140500Y-46333465D01*
X155140500Y-46126535D01*
X155140499Y-46126530D01*
X155579500Y-46126530D01*
X155579500Y-46333469D01*
X155619868Y-46536412D01*
X155619870Y-46536420D01*
X155699058Y-46727596D01*
X155814024Y-46899657D01*
X155960342Y-47045975D01*
X155960345Y-47045977D01*
X156132402Y-47160941D01*
X156323580Y-47240130D01*
X156459792Y-47267224D01*
X156526530Y-47280499D01*
X156526534Y-47280500D01*
X156526535Y-47280500D01*
X156733466Y-47280500D01*
X156733467Y-47280499D01*
X156752760Y-47276662D01*
X156800211Y-47267224D01*
X156863911Y-47254552D01*
X156936420Y-47240130D01*
X157127598Y-47160941D01*
X157299655Y-47045977D01*
X157445977Y-46899655D01*
X157560941Y-46727598D01*
X157640130Y-46536420D01*
X157680500Y-46333465D01*
X157680500Y-46126535D01*
X157640130Y-45923580D01*
X157560941Y-45732402D01*
X157445977Y-45560345D01*
X157445975Y-45560342D01*
X157299657Y-45414024D01*
X157213626Y-45356541D01*
X157127598Y-45299059D01*
X156936420Y-45219870D01*
X156936412Y-45219868D01*
X156733469Y-45179500D01*
X156733465Y-45179500D01*
X156526535Y-45179500D01*
X156526530Y-45179500D01*
X156323587Y-45219868D01*
X156323579Y-45219870D01*
X156132403Y-45299058D01*
X155960342Y-45414024D01*
X155814024Y-45560342D01*
X155699058Y-45732403D01*
X155619870Y-45923579D01*
X155619868Y-45923587D01*
X155579500Y-46126530D01*
X155140499Y-46126530D01*
X155100130Y-45923580D01*
X155020941Y-45732402D01*
X154905977Y-45560345D01*
X154905975Y-45560342D01*
X154759657Y-45414024D01*
X154673626Y-45356541D01*
X154587598Y-45299059D01*
X154396420Y-45219870D01*
X154396412Y-45219868D01*
X154193469Y-45179500D01*
X154193465Y-45179500D01*
X153986535Y-45179500D01*
X153986530Y-45179500D01*
X153783587Y-45219868D01*
X153783579Y-45219870D01*
X153592403Y-45299058D01*
X153420342Y-45414024D01*
X153274024Y-45560342D01*
X153159058Y-45732403D01*
X153079870Y-45923579D01*
X153079868Y-45923587D01*
X153039500Y-46126530D01*
X152600499Y-46126530D01*
X152560130Y-45923580D01*
X152480941Y-45732402D01*
X152365977Y-45560345D01*
X152365975Y-45560342D01*
X152219657Y-45414024D01*
X152133626Y-45356541D01*
X152047598Y-45299059D01*
X151856420Y-45219870D01*
X151856412Y-45219868D01*
X151653469Y-45179500D01*
X151653465Y-45179500D01*
X151446535Y-45179500D01*
X151446530Y-45179500D01*
X151243587Y-45219868D01*
X151243579Y-45219870D01*
X151052403Y-45299058D01*
X150880342Y-45414024D01*
X150734024Y-45560342D01*
X150619058Y-45732403D01*
X150539870Y-45923579D01*
X150539868Y-45923587D01*
X150499500Y-46126530D01*
X147520499Y-46126530D01*
X147480130Y-45923580D01*
X147400941Y-45732402D01*
X147285977Y-45560345D01*
X147285975Y-45560342D01*
X147139657Y-45414024D01*
X147053626Y-45356541D01*
X146967598Y-45299059D01*
X146776420Y-45219870D01*
X146776412Y-45219868D01*
X146573469Y-45179500D01*
X146573465Y-45179500D01*
X146366535Y-45179500D01*
X146366530Y-45179500D01*
X146163587Y-45219868D01*
X146163579Y-45219870D01*
X145972403Y-45299058D01*
X145800342Y-45414024D01*
X145654024Y-45560342D01*
X145539058Y-45732403D01*
X145459870Y-45923579D01*
X145459868Y-45923587D01*
X145419500Y-46126530D01*
X142440499Y-46126530D01*
X142400130Y-45923580D01*
X142320941Y-45732402D01*
X142205977Y-45560345D01*
X142205975Y-45560342D01*
X142059657Y-45414024D01*
X141973626Y-45356541D01*
X141887598Y-45299059D01*
X141696420Y-45219870D01*
X141696412Y-45219868D01*
X141493469Y-45179500D01*
X141493465Y-45179500D01*
X141286535Y-45179500D01*
X141286530Y-45179500D01*
X141083587Y-45219868D01*
X141083579Y-45219870D01*
X140892403Y-45299058D01*
X140720342Y-45414024D01*
X140574024Y-45560342D01*
X140459058Y-45732403D01*
X140379870Y-45923579D01*
X140379868Y-45923587D01*
X140339500Y-46126530D01*
X139900499Y-46126530D01*
X139860130Y-45923580D01*
X139780941Y-45732402D01*
X139665977Y-45560345D01*
X139665975Y-45560342D01*
X139519657Y-45414024D01*
X139433626Y-45356541D01*
X139347598Y-45299059D01*
X139156420Y-45219870D01*
X139156412Y-45219868D01*
X138953469Y-45179500D01*
X138953465Y-45179500D01*
X138746535Y-45179500D01*
X138746530Y-45179500D01*
X138543587Y-45219868D01*
X138543579Y-45219870D01*
X138352403Y-45299058D01*
X138180342Y-45414024D01*
X138034024Y-45560342D01*
X137919058Y-45732403D01*
X137839870Y-45923579D01*
X137839868Y-45923587D01*
X137799500Y-46126530D01*
X137360499Y-46126530D01*
X137320130Y-45923580D01*
X137240941Y-45732402D01*
X137125977Y-45560345D01*
X137125975Y-45560342D01*
X136979657Y-45414024D01*
X136893626Y-45356541D01*
X136807598Y-45299059D01*
X136616420Y-45219870D01*
X136616412Y-45219868D01*
X136413469Y-45179500D01*
X136413465Y-45179500D01*
X136206535Y-45179500D01*
X136206530Y-45179500D01*
X136003587Y-45219868D01*
X136003579Y-45219870D01*
X135812403Y-45299058D01*
X135640342Y-45414024D01*
X135494024Y-45560342D01*
X135379058Y-45732403D01*
X135299870Y-45923579D01*
X135299868Y-45923587D01*
X135259500Y-46126530D01*
X134820499Y-46126530D01*
X134780130Y-45923580D01*
X134700941Y-45732402D01*
X134585977Y-45560345D01*
X134585975Y-45560342D01*
X134439657Y-45414024D01*
X134353626Y-45356541D01*
X134267598Y-45299059D01*
X134076420Y-45219870D01*
X134076412Y-45219868D01*
X133873469Y-45179500D01*
X133873465Y-45179500D01*
X133666535Y-45179500D01*
X133666530Y-45179500D01*
X133463587Y-45219868D01*
X133463579Y-45219870D01*
X133272403Y-45299058D01*
X133100342Y-45414024D01*
X132954024Y-45560342D01*
X132839058Y-45732403D01*
X132759870Y-45923579D01*
X132759868Y-45923587D01*
X132719500Y-46126530D01*
X129740499Y-46126530D01*
X129700130Y-45923580D01*
X129620941Y-45732402D01*
X129505977Y-45560345D01*
X129505975Y-45560342D01*
X129359657Y-45414024D01*
X129273626Y-45356541D01*
X129187598Y-45299059D01*
X128996420Y-45219870D01*
X128996412Y-45219868D01*
X128793469Y-45179500D01*
X128793465Y-45179500D01*
X128586535Y-45179500D01*
X128586530Y-45179500D01*
X128383587Y-45219868D01*
X128383579Y-45219870D01*
X128192403Y-45299058D01*
X128020342Y-45414024D01*
X127874024Y-45560342D01*
X127759058Y-45732403D01*
X127679870Y-45923579D01*
X127679868Y-45923587D01*
X127639500Y-46126530D01*
X127200499Y-46126530D01*
X127160130Y-45923580D01*
X127080941Y-45732402D01*
X126965977Y-45560345D01*
X126965975Y-45560342D01*
X126819657Y-45414024D01*
X126733626Y-45356541D01*
X126647598Y-45299059D01*
X126456420Y-45219870D01*
X126456412Y-45219868D01*
X126253469Y-45179500D01*
X126253465Y-45179500D01*
X126046535Y-45179500D01*
X126046530Y-45179500D01*
X125843587Y-45219868D01*
X125843579Y-45219870D01*
X125652403Y-45299058D01*
X125480342Y-45414024D01*
X125334024Y-45560342D01*
X125219058Y-45732403D01*
X125139870Y-45923579D01*
X125139868Y-45923587D01*
X125099500Y-46126530D01*
X125099500Y-46333469D01*
X125139868Y-46536412D01*
X125139870Y-46536420D01*
X125219058Y-46727596D01*
X125334024Y-46899657D01*
X125480342Y-47045975D01*
X125547274Y-47090697D01*
X125592080Y-47144309D01*
X125600787Y-47213634D01*
X125570633Y-47276662D01*
X125511190Y-47313382D01*
X125478384Y-47317800D01*
X121741616Y-47317800D01*
X121674577Y-47298115D01*
X121628822Y-47245311D01*
X121618878Y-47176153D01*
X121647903Y-47112597D01*
X121672726Y-47090697D01*
X121739655Y-47045977D01*
X121885977Y-46899655D01*
X122000941Y-46727598D01*
X122080130Y-46536420D01*
X122120500Y-46333465D01*
X122120500Y-46126535D01*
X122080130Y-45923580D01*
X122000941Y-45732402D01*
X121885977Y-45560345D01*
X121885975Y-45560342D01*
X121739657Y-45414024D01*
X121653626Y-45356541D01*
X121567598Y-45299059D01*
X121376420Y-45219870D01*
X121376412Y-45219868D01*
X121173469Y-45179500D01*
X121173465Y-45179500D01*
X120966535Y-45179500D01*
X120966530Y-45179500D01*
X120763587Y-45219868D01*
X120763579Y-45219870D01*
X120572403Y-45299058D01*
X120400342Y-45414024D01*
X120254024Y-45560342D01*
X120139058Y-45732403D01*
X120059870Y-45923579D01*
X120059868Y-45923587D01*
X120019500Y-46126530D01*
X120019500Y-46333469D01*
X120059868Y-46536412D01*
X120059870Y-46536420D01*
X120139058Y-46727596D01*
X120254024Y-46899657D01*
X120400342Y-47045975D01*
X120467274Y-47090697D01*
X120512080Y-47144309D01*
X120520787Y-47213634D01*
X120490633Y-47276662D01*
X120431190Y-47313382D01*
X120398384Y-47317800D01*
X119201616Y-47317800D01*
X119134577Y-47298115D01*
X119088822Y-47245311D01*
X119078878Y-47176153D01*
X119107903Y-47112597D01*
X119132726Y-47090697D01*
X119199655Y-47045977D01*
X119345977Y-46899655D01*
X119460941Y-46727598D01*
X119540130Y-46536420D01*
X119580500Y-46333465D01*
X119580500Y-46126535D01*
X119540130Y-45923580D01*
X119460941Y-45732402D01*
X119345977Y-45560345D01*
X119345975Y-45560342D01*
X119199657Y-45414024D01*
X119113626Y-45356541D01*
X119027598Y-45299059D01*
X118836420Y-45219870D01*
X118836412Y-45219868D01*
X118633469Y-45179500D01*
X118633465Y-45179500D01*
X118426535Y-45179500D01*
X118426530Y-45179500D01*
X118223587Y-45219868D01*
X118223579Y-45219870D01*
X118032403Y-45299058D01*
X117860342Y-45414024D01*
X117714024Y-45560342D01*
X117599058Y-45732403D01*
X117519870Y-45923579D01*
X117519868Y-45923587D01*
X117479500Y-46126530D01*
X117479500Y-46333469D01*
X117519868Y-46536412D01*
X117519870Y-46536420D01*
X117599058Y-46727596D01*
X117714024Y-46899657D01*
X117860342Y-47045975D01*
X117927274Y-47090697D01*
X117972080Y-47144309D01*
X117980787Y-47213634D01*
X117950633Y-47276662D01*
X117891190Y-47313382D01*
X117858384Y-47317800D01*
X116661616Y-47317800D01*
X116594577Y-47298115D01*
X116548822Y-47245311D01*
X116538878Y-47176153D01*
X116567903Y-47112597D01*
X116592726Y-47090697D01*
X116659655Y-47045977D01*
X116805977Y-46899655D01*
X116920941Y-46727598D01*
X117000130Y-46536420D01*
X117040500Y-46333465D01*
X117040500Y-46126535D01*
X117000130Y-45923580D01*
X116920941Y-45732402D01*
X116805977Y-45560345D01*
X116805975Y-45560342D01*
X116659657Y-45414024D01*
X116573626Y-45356541D01*
X116487598Y-45299059D01*
X116296420Y-45219870D01*
X116296412Y-45219868D01*
X116093469Y-45179500D01*
X116093465Y-45179500D01*
X115886535Y-45179500D01*
X115886530Y-45179500D01*
X115683587Y-45219868D01*
X115683579Y-45219870D01*
X115492403Y-45299058D01*
X115320342Y-45414024D01*
X115174024Y-45560342D01*
X115059058Y-45732403D01*
X114979870Y-45923579D01*
X114979868Y-45923587D01*
X114939500Y-46126530D01*
X114939500Y-46333469D01*
X114979868Y-46536412D01*
X114979870Y-46536420D01*
X115059058Y-46727596D01*
X115174024Y-46899657D01*
X115320342Y-47045975D01*
X115387274Y-47090697D01*
X115432080Y-47144309D01*
X115440787Y-47213634D01*
X115410633Y-47276662D01*
X115351190Y-47313382D01*
X115318384Y-47317800D01*
X111581616Y-47317800D01*
X111514577Y-47298115D01*
X111468822Y-47245311D01*
X111458878Y-47176153D01*
X111487903Y-47112597D01*
X111512726Y-47090697D01*
X111579655Y-47045977D01*
X111725977Y-46899655D01*
X111840941Y-46727598D01*
X111920130Y-46536420D01*
X111960500Y-46333465D01*
X111960500Y-46126535D01*
X111920130Y-45923580D01*
X111840941Y-45732402D01*
X111725977Y-45560345D01*
X111725975Y-45560342D01*
X111579657Y-45414024D01*
X111493626Y-45356541D01*
X111407598Y-45299059D01*
X111216420Y-45219870D01*
X111216412Y-45219868D01*
X111013469Y-45179500D01*
X111013465Y-45179500D01*
X110806535Y-45179500D01*
X110806530Y-45179500D01*
X110603587Y-45219868D01*
X110603579Y-45219870D01*
X110412403Y-45299058D01*
X110240342Y-45414024D01*
X110094024Y-45560342D01*
X109979058Y-45732403D01*
X109929125Y-45852953D01*
X109885284Y-45907356D01*
X109818990Y-45929421D01*
X109814564Y-45929500D01*
X109465436Y-45929500D01*
X109398397Y-45909815D01*
X109352642Y-45857011D01*
X109350875Y-45852953D01*
X109300941Y-45732403D01*
X109300941Y-45732402D01*
X109185977Y-45560345D01*
X109185975Y-45560342D01*
X109039657Y-45414024D01*
X108953626Y-45356541D01*
X108867598Y-45299059D01*
X108676420Y-45219870D01*
X108676412Y-45219868D01*
X108473469Y-45179500D01*
X108473465Y-45179500D01*
X108266535Y-45179500D01*
X108266530Y-45179500D01*
X108063587Y-45219868D01*
X108063579Y-45219870D01*
X107872403Y-45299058D01*
X107700342Y-45414024D01*
X107554024Y-45560342D01*
X107439058Y-45732403D01*
X107359870Y-45923579D01*
X107359868Y-45923587D01*
X107319500Y-46126530D01*
X107319500Y-46333469D01*
X107359868Y-46536412D01*
X107359870Y-46536420D01*
X107439058Y-46727596D01*
X107554024Y-46899657D01*
X107700342Y-47045975D01*
X107700345Y-47045977D01*
X107872402Y-47160941D01*
X108063580Y-47240130D01*
X108199792Y-47267224D01*
X108266530Y-47280499D01*
X108266534Y-47280500D01*
X108266535Y-47280500D01*
X108473466Y-47280500D01*
X108473467Y-47280499D01*
X108676420Y-47240130D01*
X108867598Y-47160941D01*
X109039655Y-47045977D01*
X109185977Y-46899655D01*
X109300941Y-46727598D01*
X109350875Y-46607046D01*
X109394716Y-46552644D01*
X109461010Y-46530579D01*
X109465436Y-46530500D01*
X109814564Y-46530500D01*
X109881603Y-46550185D01*
X109927358Y-46602989D01*
X109929121Y-46607039D01*
X109953341Y-46665511D01*
X109979058Y-46727596D01*
X110094024Y-46899657D01*
X110240342Y-47045975D01*
X110240345Y-47045977D01*
X110333359Y-47108126D01*
X110378163Y-47161737D01*
X110386872Y-47231062D01*
X110356717Y-47294090D01*
X110297275Y-47330809D01*
X110296564Y-47331002D01*
X110269412Y-47338277D01*
X110200889Y-47377840D01*
X110200886Y-47377842D01*
X109627341Y-47951387D01*
X109566018Y-47984872D01*
X109496326Y-47979888D01*
X109440393Y-47938016D01*
X109418043Y-47887897D01*
X109408868Y-47841770D01*
X109408867Y-47841769D01*
X109364552Y-47775447D01*
X109298230Y-47731132D01*
X109298229Y-47731131D01*
X109239752Y-47719500D01*
X109239748Y-47719500D01*
X107500252Y-47719500D01*
X107500247Y-47719500D01*
X107441770Y-47731131D01*
X107441769Y-47731132D01*
X107375447Y-47775447D01*
X107331132Y-47841769D01*
X107331131Y-47841770D01*
X107319500Y-47900247D01*
X107319500Y-49639752D01*
X107331131Y-49698229D01*
X107331132Y-49698230D01*
X107375447Y-49764552D01*
X107441769Y-49808867D01*
X107441770Y-49808868D01*
X107500247Y-49820499D01*
X107500250Y-49820500D01*
X107500252Y-49820500D01*
X109239750Y-49820500D01*
X109239751Y-49820499D01*
X109254568Y-49817552D01*
X109298229Y-49808868D01*
X109298229Y-49808867D01*
X109298231Y-49808867D01*
X109364552Y-49764552D01*
X109408867Y-49698231D01*
X109411190Y-49686550D01*
X109443575Y-49624640D01*
X109504290Y-49590065D01*
X109574060Y-49593804D01*
X109620489Y-49623060D01*
X110077181Y-50079752D01*
X110110666Y-50141075D01*
X110113500Y-50167433D01*
X110113500Y-56438162D01*
X110125981Y-56484740D01*
X110133979Y-56514590D01*
X110133980Y-56514591D01*
X110159741Y-56559211D01*
X110159742Y-56559212D01*
X110173540Y-56583111D01*
X110774940Y-57184511D01*
X110830889Y-57240460D01*
X110830891Y-57240461D01*
X110830895Y-57240464D01*
X110863938Y-57259541D01*
X110899411Y-57280021D01*
X110975838Y-57300500D01*
X112100500Y-57300500D01*
X112167539Y-57320185D01*
X112213294Y-57372989D01*
X112224500Y-57424499D01*
X112224500Y-57602129D01*
X112232493Y-57642313D01*
X112238369Y-57671858D01*
X112240486Y-57682498D01*
X112245159Y-57693780D01*
X112243714Y-57694378D01*
X112260436Y-57747788D01*
X112244482Y-57805938D01*
X112245159Y-57806219D01*
X112242926Y-57811609D01*
X112241950Y-57815168D01*
X112240550Y-57817345D01*
X112240484Y-57817505D01*
X112224500Y-57897863D01*
X112224500Y-57897865D01*
X112224500Y-57897867D01*
X112224500Y-57991890D01*
X112224501Y-58027499D01*
X112204817Y-58094539D01*
X112152013Y-58140294D01*
X112100501Y-58151500D01*
X109968438Y-58151500D01*
X109931589Y-58161373D01*
X109861740Y-58159708D01*
X109803878Y-58120544D01*
X109776376Y-58056315D01*
X109775499Y-58041608D01*
X109775499Y-57897868D01*
X109759515Y-57817505D01*
X109759513Y-57817502D01*
X109754841Y-57806222D01*
X109756285Y-57805623D01*
X109739563Y-57752211D01*
X109755517Y-57694056D01*
X109754842Y-57693777D01*
X109757070Y-57688396D01*
X109758049Y-57684831D01*
X109759452Y-57682647D01*
X109759516Y-57682493D01*
X109775499Y-57602136D01*
X109775500Y-57602133D01*
X109775499Y-57397868D01*
X109759515Y-57317505D01*
X109734466Y-57280017D01*
X109698624Y-57226375D01*
X109635969Y-57184511D01*
X109607495Y-57165485D01*
X109607493Y-57165484D01*
X109607490Y-57165483D01*
X109527136Y-57149500D01*
X108172870Y-57149500D01*
X108092503Y-57165485D01*
X108092500Y-57165486D01*
X108072875Y-57178601D01*
X108006198Y-57199480D01*
X108003983Y-57199500D01*
X105871738Y-57199500D01*
X105804339Y-57217559D01*
X105795307Y-57219980D01*
X105742448Y-57250499D01*
X105726792Y-57259537D01*
X105726787Y-57259541D01*
X95863148Y-67123181D01*
X95801825Y-67156666D01*
X95775467Y-67159500D01*
X90899879Y-67159500D01*
X90832840Y-67139815D01*
X90787085Y-67087011D01*
X90781948Y-67073818D01*
X90780334Y-67068852D01*
X90745220Y-66960781D01*
X90652287Y-66778390D01*
X90644556Y-66767749D01*
X90531971Y-66612786D01*
X90387217Y-66468032D01*
X90387212Y-66468028D01*
X90355265Y-66444817D01*
X90312599Y-66389487D01*
X90306620Y-66319874D01*
X90339226Y-66258079D01*
X90400064Y-66223722D01*
X90428150Y-66220499D01*
X90444260Y-66220499D01*
X90444266Y-66220499D01*
X90474700Y-66217646D01*
X90602883Y-66172793D01*
X90712150Y-66092150D01*
X90792793Y-65982883D01*
X90815219Y-65918791D01*
X90837646Y-65854702D01*
X90837646Y-65854700D01*
X90840500Y-65824267D01*
X90840499Y-64015734D01*
X90837646Y-63985300D01*
X90792793Y-63857117D01*
X90712150Y-63747849D01*
X90619966Y-63679815D01*
X90602883Y-63667207D01*
X90602881Y-63667206D01*
X90474701Y-63622353D01*
X90444270Y-63619500D01*
X88635739Y-63619500D01*
X88621751Y-63620811D01*
X88605300Y-63622354D01*
X88605297Y-63622354D01*
X88605296Y-63622355D01*
X88605294Y-63622355D01*
X88477117Y-63667206D01*
X88367849Y-63747849D01*
X88287206Y-63857118D01*
X88242353Y-63985297D01*
X88242353Y-63985299D01*
X88239500Y-64015729D01*
X88239500Y-65824260D01*
X88239501Y-65824266D01*
X88242354Y-65854700D01*
X88242354Y-65854702D01*
X88242355Y-65854703D01*
X88242355Y-65854705D01*
X88287206Y-65982882D01*
X88367849Y-66092150D01*
X88422483Y-66132471D01*
X88477117Y-66172793D01*
X88519844Y-66187744D01*
X88605298Y-66217646D01*
X88614431Y-66218502D01*
X88635733Y-66220500D01*
X88651845Y-66220499D01*
X88718883Y-66240180D01*
X88764641Y-66292982D01*
X88774588Y-66362140D01*
X88745566Y-66425697D01*
X88724736Y-66444816D01*
X88692784Y-66468030D01*
X88548028Y-66612786D01*
X88427715Y-66778386D01*
X88334781Y-66960776D01*
X88271522Y-67155465D01*
X88239500Y-67357648D01*
X88239500Y-67562351D01*
X88271522Y-67764534D01*
X88334781Y-67959223D01*
X88361668Y-68011990D01*
X88411879Y-68110535D01*
X88427715Y-68141613D01*
X88548028Y-68307213D01*
X88692786Y-68451971D01*
X88824042Y-68547332D01*
X88858390Y-68572287D01*
X88966822Y-68627536D01*
X89040776Y-68665218D01*
X89040778Y-68665218D01*
X89040781Y-68665220D01*
X89145137Y-68699127D01*
X89235465Y-68728477D01*
X89336557Y-68744488D01*
X89437648Y-68760500D01*
X89437649Y-68760500D01*
X89642351Y-68760500D01*
X89642352Y-68760500D01*
X89844534Y-68728477D01*
X90039219Y-68665220D01*
X90221610Y-68572287D01*
X90314590Y-68504732D01*
X90387213Y-68451971D01*
X90387215Y-68451968D01*
X90387219Y-68451966D01*
X90531966Y-68307219D01*
X90531968Y-68307215D01*
X90531971Y-68307213D01*
X90584732Y-68234590D01*
X90652287Y-68141610D01*
X90745220Y-67959219D01*
X90781948Y-67846182D01*
X90821386Y-67788506D01*
X90885744Y-67761308D01*
X90899879Y-67760500D01*
X95990860Y-67760500D01*
X95990862Y-67760500D01*
X96067289Y-67740021D01*
X96135811Y-67700460D01*
X96191760Y-67644511D01*
X105999452Y-57836819D01*
X106060775Y-57803334D01*
X106087133Y-57800500D01*
X107800500Y-57800500D01*
X107867539Y-57820185D01*
X107913294Y-57872989D01*
X107924500Y-57924499D01*
X107924500Y-58102129D01*
X107940485Y-58182495D01*
X108001375Y-58273624D01*
X108024681Y-58289196D01*
X108092505Y-58334515D01*
X108092508Y-58334515D01*
X108092509Y-58334516D01*
X108132686Y-58342507D01*
X108172867Y-58350500D01*
X109385167Y-58350499D01*
X109452206Y-58370184D01*
X109497961Y-58422987D01*
X109507905Y-58492146D01*
X109478880Y-58555702D01*
X109472848Y-58562180D01*
X89749093Y-78285934D01*
X89687770Y-78319419D01*
X89618078Y-78314435D01*
X89605117Y-78308738D01*
X89499223Y-78254781D01*
X89304534Y-78191522D01*
X89129995Y-78163878D01*
X89102352Y-78159500D01*
X88897648Y-78159500D01*
X88873329Y-78163351D01*
X88695465Y-78191522D01*
X88500776Y-78254781D01*
X88318386Y-78347715D01*
X88152786Y-78468028D01*
X88008028Y-78612786D01*
X87887715Y-78778386D01*
X87794781Y-78960776D01*
X87731522Y-79155465D01*
X87699500Y-79357648D01*
X85105535Y-79357648D01*
X85123883Y-73475729D01*
X87699500Y-73475729D01*
X87699500Y-75284260D01*
X87699501Y-75284266D01*
X87702354Y-75314700D01*
X87702354Y-75314702D01*
X87702355Y-75314703D01*
X87702355Y-75314705D01*
X87747206Y-75442882D01*
X87827849Y-75552150D01*
X87882483Y-75592471D01*
X87937117Y-75632793D01*
X87979844Y-75647744D01*
X88065298Y-75677646D01*
X88072323Y-75678304D01*
X88095733Y-75680500D01*
X89904266Y-75680499D01*
X89934700Y-75677646D01*
X90062883Y-75632793D01*
X90172150Y-75552150D01*
X90252793Y-75442883D01*
X90279940Y-75365301D01*
X90297646Y-75314702D01*
X90297646Y-75314700D01*
X90300500Y-75284267D01*
X90300499Y-73475734D01*
X90297646Y-73445300D01*
X90290880Y-73425965D01*
X90252793Y-73317117D01*
X90172150Y-73207849D01*
X90078581Y-73138793D01*
X90062883Y-73127207D01*
X90062881Y-73127206D01*
X89934701Y-73082353D01*
X89904270Y-73079500D01*
X88095739Y-73079500D01*
X88081751Y-73080811D01*
X88065300Y-73082354D01*
X88065297Y-73082354D01*
X88065296Y-73082355D01*
X88065294Y-73082355D01*
X87937117Y-73127206D01*
X87827849Y-73207849D01*
X87747206Y-73317118D01*
X87702353Y-73445297D01*
X87702353Y-73445299D01*
X87699500Y-73475729D01*
X85123883Y-73475729D01*
X85134952Y-69927525D01*
X86449500Y-69927525D01*
X86449500Y-70072475D01*
X86487016Y-70212485D01*
X86487017Y-70212488D01*
X86559488Y-70338011D01*
X86559490Y-70338013D01*
X86559491Y-70338015D01*
X86661985Y-70440509D01*
X86661986Y-70440510D01*
X86661988Y-70440511D01*
X86787511Y-70512982D01*
X86787512Y-70512982D01*
X86787515Y-70512984D01*
X86927525Y-70550500D01*
X86927528Y-70550500D01*
X87072472Y-70550500D01*
X87072475Y-70550500D01*
X87212485Y-70512984D01*
X87338015Y-70440509D01*
X87440509Y-70338015D01*
X87512984Y-70212485D01*
X87550500Y-70072475D01*
X87550500Y-69927525D01*
X87512984Y-69787515D01*
X87488386Y-69744911D01*
X87440511Y-69661988D01*
X87440506Y-69661982D01*
X87338017Y-69559493D01*
X87338011Y-69559488D01*
X87212488Y-69487017D01*
X87212489Y-69487017D01*
X87201006Y-69483940D01*
X87072475Y-69449500D01*
X86927525Y-69449500D01*
X86798993Y-69483940D01*
X86787511Y-69487017D01*
X86661988Y-69559488D01*
X86661982Y-69559493D01*
X86559493Y-69661982D01*
X86559488Y-69661988D01*
X86487017Y-69787511D01*
X86487016Y-69787515D01*
X86449500Y-69927525D01*
X85134952Y-69927525D01*
X85142875Y-67387525D01*
X86449500Y-67387525D01*
X86449500Y-67532475D01*
X86487016Y-67672485D01*
X86487017Y-67672488D01*
X86559488Y-67798011D01*
X86559490Y-67798013D01*
X86559491Y-67798015D01*
X86661985Y-67900509D01*
X86661986Y-67900510D01*
X86661988Y-67900511D01*
X86787511Y-67972982D01*
X86787512Y-67972982D01*
X86787515Y-67972984D01*
X86927525Y-68010500D01*
X86927528Y-68010500D01*
X87072472Y-68010500D01*
X87072475Y-68010500D01*
X87212485Y-67972984D01*
X87338015Y-67900509D01*
X87440509Y-67798015D01*
X87512984Y-67672485D01*
X87550500Y-67532475D01*
X87550500Y-67387525D01*
X87512984Y-67247515D01*
X87462168Y-67159500D01*
X87440511Y-67121988D01*
X87440506Y-67121982D01*
X87338017Y-67019493D01*
X87338011Y-67019488D01*
X87212488Y-66947017D01*
X87212489Y-66947017D01*
X87201006Y-66943940D01*
X87072475Y-66909500D01*
X86927525Y-66909500D01*
X86798993Y-66943940D01*
X86787511Y-66947017D01*
X86661988Y-67019488D01*
X86661982Y-67019493D01*
X86559493Y-67121982D01*
X86559488Y-67121988D01*
X86487017Y-67247511D01*
X86487016Y-67247515D01*
X86449500Y-67387525D01*
X85142875Y-67387525D01*
X85150799Y-64847525D01*
X86449500Y-64847525D01*
X86449500Y-64992475D01*
X86471074Y-65072989D01*
X86487017Y-65132488D01*
X86559488Y-65258011D01*
X86559490Y-65258013D01*
X86559491Y-65258015D01*
X86661985Y-65360509D01*
X86661986Y-65360510D01*
X86661988Y-65360511D01*
X86787511Y-65432982D01*
X86787512Y-65432982D01*
X86787515Y-65432984D01*
X86927525Y-65470500D01*
X86927528Y-65470500D01*
X87072472Y-65470500D01*
X87072475Y-65470500D01*
X87212485Y-65432984D01*
X87338015Y-65360509D01*
X87440509Y-65258015D01*
X87512984Y-65132485D01*
X87550500Y-64992475D01*
X87550500Y-64847525D01*
X87512984Y-64707515D01*
X87503743Y-64691510D01*
X87440511Y-64581988D01*
X87440506Y-64581982D01*
X87338017Y-64479493D01*
X87338011Y-64479488D01*
X87212488Y-64407017D01*
X87212489Y-64407017D01*
X87201006Y-64403940D01*
X87072475Y-64369500D01*
X86927525Y-64369500D01*
X86798993Y-64403940D01*
X86787511Y-64407017D01*
X86661988Y-64479488D01*
X86661982Y-64479493D01*
X86559493Y-64581982D01*
X86559488Y-64581988D01*
X86487017Y-64707511D01*
X86487016Y-64707515D01*
X86449500Y-64847525D01*
X85150799Y-64847525D01*
X85169843Y-58742882D01*
X95049500Y-58742882D01*
X95049500Y-60657118D01*
X95052249Y-60703263D01*
X95052249Y-60703267D01*
X95052250Y-60703268D01*
X95095907Y-60903961D01*
X95095909Y-60903968D01*
X95157404Y-61047570D01*
X95176763Y-61092777D01*
X95176766Y-61092781D01*
X95291882Y-61262868D01*
X95291890Y-61262877D01*
X95437122Y-61408109D01*
X95437131Y-61408117D01*
X95532319Y-61472541D01*
X95607223Y-61523237D01*
X95607228Y-61523239D01*
X95796031Y-61604090D01*
X95796038Y-61604092D01*
X95862935Y-61618644D01*
X95996737Y-61647751D01*
X96042882Y-61650500D01*
X96042893Y-61650500D01*
X97957107Y-61650500D01*
X97957118Y-61650500D01*
X98003263Y-61647751D01*
X98178954Y-61609531D01*
X98203961Y-61604092D01*
X98203968Y-61604090D01*
X98266902Y-61577139D01*
X98392777Y-61523237D01*
X98562875Y-61408112D01*
X98708112Y-61262875D01*
X98823237Y-61092777D01*
X98904091Y-60903965D01*
X98947751Y-60703263D01*
X98950500Y-60657118D01*
X98950500Y-58742882D01*
X98947751Y-58696737D01*
X98917071Y-58555702D01*
X98904092Y-58496038D01*
X98904090Y-58496031D01*
X98823239Y-58307228D01*
X98823237Y-58307223D01*
X98761714Y-58216322D01*
X98708117Y-58137131D01*
X98708109Y-58137122D01*
X98562877Y-57991890D01*
X98562868Y-57991882D01*
X98392781Y-57876766D01*
X98392777Y-57876763D01*
X98392773Y-57876761D01*
X98392771Y-57876760D01*
X98203968Y-57795909D01*
X98203961Y-57795907D01*
X98003268Y-57752250D01*
X98003267Y-57752249D01*
X98003263Y-57752249D01*
X97957118Y-57749500D01*
X96042882Y-57749500D01*
X95996737Y-57752249D01*
X95996732Y-57752249D01*
X95996731Y-57752250D01*
X95796038Y-57795907D01*
X95796031Y-57795909D01*
X95607228Y-57876760D01*
X95607218Y-57876766D01*
X95437131Y-57991882D01*
X95437122Y-57991890D01*
X95291890Y-58137122D01*
X95291882Y-58137131D01*
X95176766Y-58307218D01*
X95176760Y-58307228D01*
X95095909Y-58496031D01*
X95095907Y-58496038D01*
X95052250Y-58696731D01*
X95052249Y-58696737D01*
X95049500Y-58742882D01*
X85169843Y-58742882D01*
X85171591Y-58182495D01*
X85187040Y-53230247D01*
X98049500Y-53230247D01*
X98049500Y-56769752D01*
X98061131Y-56828229D01*
X98061132Y-56828230D01*
X98105447Y-56894552D01*
X98171769Y-56938867D01*
X98171770Y-56938868D01*
X98230247Y-56950499D01*
X98230250Y-56950500D01*
X98230252Y-56950500D01*
X101769750Y-56950500D01*
X101769751Y-56950499D01*
X101784568Y-56947552D01*
X101828229Y-56938868D01*
X101828229Y-56938867D01*
X101828231Y-56938867D01*
X101894552Y-56894552D01*
X101938867Y-56828231D01*
X101938867Y-56828229D01*
X101938868Y-56828229D01*
X101948282Y-56780900D01*
X101950500Y-56769748D01*
X101950500Y-55897863D01*
X107924500Y-55897863D01*
X107924500Y-56102129D01*
X107940486Y-56182498D01*
X107945159Y-56193780D01*
X107943714Y-56194378D01*
X107960436Y-56247788D01*
X107944482Y-56305938D01*
X107945159Y-56306219D01*
X107942926Y-56311609D01*
X107941950Y-56315168D01*
X107940550Y-56317345D01*
X107940484Y-56317505D01*
X107924500Y-56397863D01*
X107924500Y-56602129D01*
X107940485Y-56682495D01*
X108001375Y-56773624D01*
X108012265Y-56780900D01*
X108092505Y-56834515D01*
X108092508Y-56834515D01*
X108092509Y-56834516D01*
X108132686Y-56842507D01*
X108172867Y-56850500D01*
X109527132Y-56850499D01*
X109607495Y-56834515D01*
X109698624Y-56773624D01*
X109759515Y-56682495D01*
X109775500Y-56602133D01*
X109775499Y-56397868D01*
X109759515Y-56317505D01*
X109759513Y-56317502D01*
X109754841Y-56306222D01*
X109756285Y-56305623D01*
X109739563Y-56252211D01*
X109755517Y-56194056D01*
X109754842Y-56193777D01*
X109757070Y-56188396D01*
X109758049Y-56184831D01*
X109759452Y-56182647D01*
X109759516Y-56182493D01*
X109775499Y-56102136D01*
X109775500Y-56102133D01*
X109775499Y-55897868D01*
X109759515Y-55817505D01*
X109722718Y-55762435D01*
X109698624Y-55726375D01*
X109631702Y-55681660D01*
X109607495Y-55665485D01*
X109607493Y-55665484D01*
X109607490Y-55665483D01*
X109527136Y-55649500D01*
X108172870Y-55649500D01*
X108092504Y-55665485D01*
X108001375Y-55726375D01*
X107940485Y-55817505D01*
X107940483Y-55817509D01*
X107924500Y-55897863D01*
X101950500Y-55897863D01*
X101950500Y-53230252D01*
X101950500Y-53230249D01*
X101950499Y-53230247D01*
X101938868Y-53171770D01*
X101938867Y-53171769D01*
X101894552Y-53105447D01*
X101828230Y-53061132D01*
X101828229Y-53061131D01*
X101769752Y-53049500D01*
X101769748Y-53049500D01*
X98230252Y-53049500D01*
X98230247Y-53049500D01*
X98171770Y-53061131D01*
X98171769Y-53061132D01*
X98105447Y-53105447D01*
X98061132Y-53171769D01*
X98061131Y-53171770D01*
X98049500Y-53230247D01*
X85187040Y-53230247D01*
X85187060Y-53223773D01*
X85197207Y-49970858D01*
X85205246Y-47393713D01*
X102149500Y-47393713D01*
X102149500Y-47606286D01*
X102176292Y-47775448D01*
X102182754Y-47816243D01*
X102239630Y-47991289D01*
X102248444Y-48018414D01*
X102344951Y-48207820D01*
X102469890Y-48379786D01*
X102620213Y-48530109D01*
X102792179Y-48655048D01*
X102792181Y-48655049D01*
X102792184Y-48655051D01*
X102981588Y-48751557D01*
X103183757Y-48817246D01*
X103393713Y-48850500D01*
X103393714Y-48850500D01*
X103606286Y-48850500D01*
X103606287Y-48850500D01*
X103816243Y-48817246D01*
X104018412Y-48751557D01*
X104207816Y-48655051D01*
X104243850Y-48628871D01*
X104379786Y-48530109D01*
X104379788Y-48530106D01*
X104379792Y-48530104D01*
X104530104Y-48379792D01*
X104530106Y-48379788D01*
X104530109Y-48379786D01*
X104655048Y-48207820D01*
X104655047Y-48207820D01*
X104655051Y-48207816D01*
X104751557Y-48018412D01*
X104817246Y-47816243D01*
X104850500Y-47606287D01*
X104850500Y-47393713D01*
X104817246Y-47183757D01*
X104751557Y-46981588D01*
X104655051Y-46792184D01*
X104655049Y-46792181D01*
X104655048Y-46792179D01*
X104530109Y-46620213D01*
X104379786Y-46469890D01*
X104207820Y-46344951D01*
X104018414Y-46248444D01*
X104018413Y-46248443D01*
X104018412Y-46248443D01*
X103816243Y-46182754D01*
X103816241Y-46182753D01*
X103816240Y-46182753D01*
X103654957Y-46157208D01*
X103606287Y-46149500D01*
X103393713Y-46149500D01*
X103345042Y-46157208D01*
X103183760Y-46182753D01*
X102981585Y-46248444D01*
X102792179Y-46344951D01*
X102620213Y-46469890D01*
X102469890Y-46620213D01*
X102344951Y-46792179D01*
X102248444Y-46981585D01*
X102182753Y-47183760D01*
X102149500Y-47393713D01*
X85205246Y-47393713D01*
X85221960Y-42035842D01*
X85222027Y-42016469D01*
X85222073Y-42016408D01*
X85222073Y-42003340D01*
X85222074Y-42003051D01*
X85222086Y-42003010D01*
X85222268Y-41996528D01*
X85231051Y-41840130D01*
X85239150Y-41695912D01*
X85240704Y-41682116D01*
X85290555Y-41388715D01*
X85293648Y-41375163D01*
X85300742Y-41350542D01*
X85376035Y-41089193D01*
X85380627Y-41076073D01*
X85402040Y-41024375D01*
X85494511Y-40801129D01*
X85500533Y-40788623D01*
X85644496Y-40528143D01*
X85651891Y-40516375D01*
X85708305Y-40436867D01*
X85824105Y-40273661D01*
X85832760Y-40262807D01*
X86031078Y-40040890D01*
X86040890Y-40031078D01*
X86262807Y-39832760D01*
X86273661Y-39824105D01*
X86516380Y-39651887D01*
X86528143Y-39644496D01*
X86788623Y-39500533D01*
X86801129Y-39494511D01*
X87076073Y-39380627D01*
X87089193Y-39376035D01*
X87375169Y-39293646D01*
X87388715Y-39290555D01*
X87682116Y-39240704D01*
X87695912Y-39239150D01*
X87963156Y-39224142D01*
X87996529Y-39222268D01*
X88003161Y-39222073D01*
X88016408Y-39222073D01*
X88016453Y-39222038D01*
X88034132Y-39221993D01*
X88036468Y-39221987D01*
X88036477Y-39221990D01*
X88036494Y-39221987D01*
X161996382Y-39050508D01*
X162003612Y-39050702D01*
G37*
G04 #@! TD.AperFunction*
M02*
