G04 #@! TF.GenerationSoftware,KiCad,Pcbnew,10.0.4*
G04 #@! TF.CreationDate,2026-08-17T19:12:09+05:00*
G04 #@! TF.ProjectId,hat,6861742e-6b69-4636-9164-5f7063625858,rev?*
G04 #@! TF.SameCoordinates,Original*
G04 #@! TF.FileFunction,Soldermask,Bot*
G04 #@! TF.FilePolarity,Negative*
%FSLAX46Y46*%
G04 Gerber Fmt 4.6, Leading zero omitted, Abs format (unit mm)*
G04 Created by KiCad (PCBNEW 10.0.4) date 2026-08-17 19:12:09*
%MOMM*%
%LPD*%
G01*
G04 APERTURE LIST*
G04 Aperture macros list*
%AMRoundRect*
0 Rectangle with rounded corners*
0 $1 Rounding radius*
0 $2 $3 $4 $5 $6 $7 $8 $9 X,Y pos of 4 corners*
0 Add a 4 corners polygon primitive as box body*
4,1,4,$2,$3,$4,$5,$6,$7,$8,$9,$2,$3,0*
0 Add four circle primitives for the rounded corners*
1,1,$1+$1,$2,$3*
1,1,$1+$1,$4,$5*
1,1,$1+$1,$6,$7*
1,1,$1+$1,$8,$9*
0 Add four rect primitives between the rounded corners*
20,1,$1+$1,$2,$3,$4,$5,0*
20,1,$1+$1,$4,$5,$6,$7,0*
20,1,$1+$1,$6,$7,$8,$9,0*
20,1,$1+$1,$8,$9,$2,$3,0*%
G04 Aperture macros list end*
%ADD10C,1.100000*%
%ADD11RoundRect,0.249999X-0.850001X0.850001X-0.850001X-0.850001X0.850001X-0.850001X0.850001X0.850001X0*%
%ADD12C,2.200000*%
%ADD13RoundRect,0.249999X-0.850001X-0.850001X0.850001X-0.850001X0.850001X0.850001X-0.850001X0.850001X0*%
%ADD14C,2.700000*%
%ADD15C,1.400000*%
%ADD16RoundRect,0.250000X-0.550000X0.550000X-0.550000X-0.550000X0.550000X-0.550000X0.550000X0.550000X0*%
%ADD17C,1.600000*%
%ADD18R,1.905000X2.000000*%
%ADD19O,1.905000X2.000000*%
%ADD20R,3.500000X3.500000*%
%ADD21RoundRect,0.750000X-0.750000X-1.000000X0.750000X-1.000000X0.750000X1.000000X-0.750000X1.000000X0*%
%ADD22RoundRect,0.875000X-0.875000X-0.875000X0.875000X-0.875000X0.875000X0.875000X-0.875000X0.875000X0*%
%ADD23R,1.700000X1.700000*%
%ADD24O,1.700000X1.700000*%
G04 APERTURE END LIST*
D10*
X87000000Y-64920000D03*
X87000000Y-67460000D03*
X87000000Y-70000000D03*
D11*
X89540000Y-64920000D03*
D12*
X89540000Y-67460000D03*
X89540000Y-70000000D03*
D11*
X89000000Y-74380000D03*
D12*
X89000000Y-76920000D03*
X89000000Y-79460000D03*
X89000000Y-82000000D03*
D11*
X89000000Y-86920000D03*
D12*
X89000000Y-89460000D03*
X89000000Y-92000000D03*
X89000000Y-94540000D03*
D10*
X140000000Y-98540000D03*
X142540000Y-98540000D03*
D13*
X140000000Y-96000000D03*
D12*
X142540000Y-96000000D03*
D10*
X129460000Y-98507500D03*
X132000000Y-98507500D03*
X134540000Y-98507500D03*
D13*
X129460000Y-95967500D03*
D12*
X132000000Y-95967500D03*
X134540000Y-95967500D03*
X120000000Y-96000000D03*
X117460000Y-96000000D03*
D13*
X114920000Y-96000000D03*
D10*
X120000000Y-98540000D03*
X117460000Y-98540000D03*
X114920000Y-98540000D03*
D14*
X161500000Y-47500000D03*
D15*
X161000000Y-68810000D03*
X161000000Y-61190000D03*
D16*
X140860000Y-76000000D03*
D17*
X138320000Y-76000000D03*
X135780000Y-76000000D03*
X133240000Y-76000000D03*
X130700000Y-76000000D03*
X128160000Y-76000000D03*
X125620000Y-76000000D03*
X123080000Y-76000000D03*
X120540000Y-76000000D03*
X118000000Y-76000000D03*
X118000000Y-83620000D03*
X120540000Y-83620000D03*
X123080000Y-83620000D03*
X125620000Y-83620000D03*
X128160000Y-83620000D03*
X130700000Y-83620000D03*
X133240000Y-83620000D03*
X135780000Y-83620000D03*
X138320000Y-83620000D03*
X140860000Y-83620000D03*
D15*
X149000000Y-80810000D03*
X149000000Y-73190000D03*
X152000000Y-80810000D03*
X152000000Y-73190000D03*
D16*
X141000000Y-64000000D03*
D17*
X138460000Y-64000000D03*
X135920000Y-64000000D03*
X133380000Y-64000000D03*
X130840000Y-64000000D03*
X128300000Y-64000000D03*
X125760000Y-64000000D03*
X123220000Y-64000000D03*
X120680000Y-64000000D03*
X118140000Y-64000000D03*
X118140000Y-71620000D03*
X120680000Y-71620000D03*
X123220000Y-71620000D03*
X125760000Y-71620000D03*
X128300000Y-71620000D03*
X130840000Y-71620000D03*
X133380000Y-71620000D03*
X135920000Y-71620000D03*
X138460000Y-71620000D03*
X141000000Y-71620000D03*
D15*
X158000000Y-81620000D03*
X158000000Y-74000000D03*
D13*
X148000000Y-96000000D03*
D12*
X150540000Y-96000000D03*
X153080000Y-96000000D03*
X155620000Y-96000000D03*
D15*
X155000000Y-80810000D03*
X155000000Y-73190000D03*
D14*
X103500000Y-96500000D03*
X103500000Y-47500000D03*
D15*
X157000000Y-69810000D03*
X157000000Y-62190000D03*
D18*
X103000000Y-69950000D03*
D19*
X105540000Y-69950000D03*
X108080000Y-69950000D03*
D14*
X161500000Y-96500000D03*
D20*
X100000000Y-55000000D03*
D21*
X94000000Y-55000000D03*
D22*
X97000000Y-59700000D03*
D23*
X108370000Y-48770000D03*
D24*
X108370000Y-46230000D03*
X110910000Y-48770000D03*
X110910000Y-46230000D03*
X113450000Y-48770000D03*
X113450000Y-46230000D03*
X115990000Y-48770000D03*
X115990000Y-46230000D03*
X118530000Y-48770000D03*
X118530000Y-46230000D03*
X121070000Y-48770000D03*
X121070000Y-46230000D03*
X123610000Y-48770000D03*
X123610000Y-46230000D03*
X126150000Y-48770000D03*
X126150000Y-46230000D03*
X128690000Y-48770000D03*
X128690000Y-46230000D03*
X131230000Y-48770000D03*
X131230000Y-46230000D03*
X133770000Y-48770000D03*
X133770000Y-46230000D03*
X136310000Y-48770000D03*
X136310000Y-46230000D03*
X138850000Y-48770000D03*
X138850000Y-46230000D03*
X141390000Y-48770000D03*
X141390000Y-46230000D03*
X143930000Y-48770000D03*
X143930000Y-46230000D03*
X146470000Y-48770000D03*
X146470000Y-46230000D03*
X149010000Y-48770000D03*
X149010000Y-46230000D03*
X151550000Y-48770000D03*
X151550000Y-46230000D03*
X154090000Y-48770000D03*
X154090000Y-46230000D03*
X156630000Y-48770000D03*
X156630000Y-46230000D03*
M02*
