M48
; DRILL file KiCad 10.0.4 date 2026-08-17T19:12:29
; FORMAT={-:-/ absolute / metric / decimal}
; #@! TF.CreationDate,2026-08-17T19:12:29+05:00
; #@! TF.GenerationSoftware,Kicad,Pcbnew,10.0.4
; #@! TF.FileFunction,Plated,1,2,PTH
FMAT,2
METRIC
; #@! TA.AperFunction,Plated,PTH,ViaDrill
T1C0.600
; #@! TA.AperFunction,Plated,PTH,ComponentDrill
T2C0.700
; #@! TA.AperFunction,Plated,PTH,ComponentDrill
T3C0.800
; #@! TA.AperFunction,Plated,PTH,ComponentDrill
T4C1.000
; #@! TA.AperFunction,Plated,PTH,ComponentDrill
T5C1.100
%
G90
G05
T1
X110.317Y-74.671
X113.337Y-50.867
X134.038Y-57.431
X141.36Y-60.85
X151.78Y-56.339
X152.348Y-57.496
X158.222Y-53.509
X163.277Y-59.053
T2
X149.0Y-73.19
X149.0Y-80.81
X152.0Y-73.19
X152.0Y-80.81
X155.0Y-73.19
X155.0Y-80.81
X157.0Y-62.19
X157.0Y-69.81
X158.0Y-74.0
X158.0Y-81.62
X161.0Y-61.19
X161.0Y-68.81
T3
X118.0Y-76.0
X118.0Y-83.62
X118.14Y-64.0
X118.14Y-71.62
X120.54Y-76.0
X120.54Y-83.62
X120.68Y-64.0
X120.68Y-71.62
X123.08Y-76.0
X123.08Y-83.62
X123.22Y-64.0
X123.22Y-71.62
X125.62Y-76.0
X125.62Y-83.62
X125.76Y-64.0
X125.76Y-71.62
X128.16Y-76.0
X128.16Y-83.62
X128.3Y-64.0
X128.3Y-71.62
X130.7Y-76.0
X130.7Y-83.62
X130.84Y-64.0
X130.84Y-71.62
X133.24Y-76.0
X133.24Y-83.62
X133.38Y-64.0
X133.38Y-71.62
X135.78Y-76.0
X135.78Y-83.62
X135.92Y-64.0
X135.92Y-71.62
X138.32Y-76.0
X138.32Y-83.62
X138.46Y-64.0
X138.46Y-71.62
X140.86Y-76.0
X140.86Y-83.62
X141.0Y-64.0
X141.0Y-71.62
T4
X108.37Y-46.23
X108.37Y-48.77
X110.91Y-46.23
X110.91Y-48.77
X113.45Y-46.23
X113.45Y-48.77
X115.99Y-46.23
X115.99Y-48.77
X118.53Y-46.23
X118.53Y-48.77
X121.07Y-46.23
X121.07Y-48.77
X123.61Y-46.23
X123.61Y-48.77
X126.15Y-46.23
X126.15Y-48.77
X128.69Y-46.23
X128.69Y-48.77
X131.23Y-46.23
X131.23Y-48.77
X133.77Y-46.23
X133.77Y-48.77
X136.31Y-46.23
X136.31Y-48.77
X138.85Y-46.23
X138.85Y-48.77
X141.39Y-46.23
X141.39Y-48.77
X143.93Y-46.23
X143.93Y-48.77
X146.47Y-46.23
X146.47Y-48.77
X149.01Y-46.23
X149.01Y-48.77
X151.55Y-46.23
X151.55Y-48.77
X154.09Y-46.23
X154.09Y-48.77
X156.63Y-46.23
X156.63Y-48.77
T5
X89.0Y-74.38
X89.0Y-76.92
X89.0Y-79.46
X89.0Y-82.0
X89.0Y-86.92
X89.0Y-89.46
X89.0Y-92.0
X89.0Y-94.54
X89.54Y-64.92
X89.54Y-67.46
X89.54Y-70.0
X103.0Y-69.95
X105.54Y-69.95
X108.08Y-69.95
X114.92Y-96.0
X117.46Y-96.0
X120.0Y-96.0
X129.46Y-95.968
X132.0Y-95.968
X134.54Y-95.968
X140.0Y-96.0
X142.54Y-96.0
X148.0Y-96.0
X150.54Y-96.0
X153.08Y-96.0
X155.62Y-96.0
T4
G00X94.0Y-54.0
M15
G01X94.0Y-56.0
M16
G05
G00X96.0Y-59.7
M15
G01X98.0Y-59.7
M16
G05
G00X100.0Y-54.0
M15
G01X100.0Y-56.0
M16
G05
M30
