G04 #@! TF.GenerationSoftware,KiCad,Pcbnew,10.0.4*
G04 #@! TF.CreationDate,2026-08-17T19:12:08+05:00*
G04 #@! TF.ProjectId,hat,6861742e-6b69-4636-9164-5f7063625858,rev?*
G04 #@! TF.SameCoordinates,Original*
G04 #@! TF.FileFunction,Copper,L2,Bot*
G04 #@! TF.FilePolarity,Positive*
%FSLAX46Y46*%
G04 Gerber Fmt 4.6, Leading zero omitted, Abs format (unit mm)*
G04 Created by KiCad (PCBNEW 10.0.4) date 2026-08-17 19:12:08*
%MOMM*%
%LPD*%
G01*
G04 APERTURE LIST*
G04 Aperture macros list*
%AMRoundRect*
0 Rectangle with rounded corners*
0 $1 Rounding radius*
0 $2 $3 $4 $5 $6 $7 $8 $9 X,Y pos of 4 corners*
0 Add a 4 corners polygon primitive as box body*
4,1,4,$2,$3,$4,$5,$6,$7,$8,$9,$2,$3,0*
0 Add four circle primitives for the rounded corners*
1,1,$1+$1,$2,$3*
1,1,$1+$1,$4,$5*
1,1,$1+$1,$6,$7*
1,1,$1+$1,$8,$9*
0 Add four rect primitives between the rounded corners*
20,1,$1+$1,$2,$3,$4,$5,0*
20,1,$1+$1,$4,$5,$6,$7,0*
20,1,$1+$1,$6,$7,$8,$9,0*
20,1,$1+$1,$8,$9,$2,$3,0*%
G04 Aperture macros list end*
G04 #@! TA.AperFunction,ComponentPad*
%ADD10RoundRect,0.249999X-0.850001X0.850001X-0.850001X-0.850001X0.850001X-0.850001X0.850001X0.850001X0*%
G04 #@! TD*
G04 #@! TA.AperFunction,ComponentPad*
%ADD11C,2.200000*%
G04 #@! TD*
G04 #@! TA.AperFunction,ComponentPad*
%ADD12RoundRect,0.249999X-0.850001X-0.850001X0.850001X-0.850001X0.850001X0.850001X-0.850001X0.850001X0*%
G04 #@! TD*
G04 #@! TA.AperFunction,ComponentPad*
%ADD13C,1.400000*%
G04 #@! TD*
G04 #@! TA.AperFunction,ComponentPad*
%ADD14RoundRect,0.250000X-0.550000X0.550000X-0.550000X-0.550000X0.550000X-0.550000X0.550000X0.550000X0*%
G04 #@! TD*
G04 #@! TA.AperFunction,ComponentPad*
%ADD15C,1.600000*%
G04 #@! TD*
G04 #@! TA.AperFunction,ComponentPad*
%ADD16R,1.905000X2.000000*%
G04 #@! TD*
G04 #@! TA.AperFunction,ComponentPad*
%ADD17O,1.905000X2.000000*%
G04 #@! TD*
G04 #@! TA.AperFunction,ComponentPad*
%ADD18R,3.500000X3.500000*%
G04 #@! TD*
G04 #@! TA.AperFunction,ComponentPad*
%ADD19RoundRect,0.750000X-0.750000X-1.000000X0.750000X-1.000000X0.750000X1.000000X-0.750000X1.000000X0*%
G04 #@! TD*
G04 #@! TA.AperFunction,ComponentPad*
%ADD20RoundRect,0.875000X-0.875000X-0.875000X0.875000X-0.875000X0.875000X0.875000X-0.875000X0.875000X0*%
G04 #@! TD*
G04 #@! TA.AperFunction,ComponentPad*
%ADD21R,1.700000X1.700000*%
G04 #@! TD*
G04 #@! TA.AperFunction,ComponentPad*
%ADD22O,1.700000X1.700000*%
G04 #@! TD*
G04 #@! TA.AperFunction,ViaPad*
%ADD23C,0.900000*%
G04 #@! TD*
G04 #@! TA.AperFunction,Conductor*
%ADD24C,0.200000*%
G04 #@! TD*
G04 APERTURE END LIST*
D10*
X89540000Y-64920000D03*
D11*
X89540000Y-67460000D03*
X89540000Y-70000000D03*
D10*
X89000000Y-74380000D03*
D11*
X89000000Y-76920000D03*
X89000000Y-79460000D03*
X89000000Y-82000000D03*
D10*
X89000000Y-86920000D03*
D11*
X89000000Y-89460000D03*
X89000000Y-92000000D03*
X89000000Y-94540000D03*
D12*
X140000000Y-96000000D03*
D11*
X142540000Y-96000000D03*
D12*
X129460000Y-95967500D03*
D11*
X132000000Y-95967500D03*
X134540000Y-95967500D03*
X120000000Y-96000000D03*
X117460000Y-96000000D03*
D12*
X114920000Y-96000000D03*
D13*
X161000000Y-68810000D03*
X161000000Y-61190000D03*
D14*
X140860000Y-76000000D03*
D15*
X138320000Y-76000000D03*
X135780000Y-76000000D03*
X133240000Y-76000000D03*
X130700000Y-76000000D03*
X128160000Y-76000000D03*
X125620000Y-76000000D03*
X123080000Y-76000000D03*
X120540000Y-76000000D03*
X118000000Y-76000000D03*
X118000000Y-83620000D03*
X120540000Y-83620000D03*
X123080000Y-83620000D03*
X125620000Y-83620000D03*
X128160000Y-83620000D03*
X130700000Y-83620000D03*
X133240000Y-83620000D03*
X135780000Y-83620000D03*
X138320000Y-83620000D03*
X140860000Y-83620000D03*
D13*
X149000000Y-80810000D03*
X149000000Y-73190000D03*
X152000000Y-80810000D03*
X152000000Y-73190000D03*
D14*
X141000000Y-64000000D03*
D15*
X138460000Y-64000000D03*
X135920000Y-64000000D03*
X133380000Y-64000000D03*
X130840000Y-64000000D03*
X128300000Y-64000000D03*
X125760000Y-64000000D03*
X123220000Y-64000000D03*
X120680000Y-64000000D03*
X118140000Y-64000000D03*
X118140000Y-71620000D03*
X120680000Y-71620000D03*
X123220000Y-71620000D03*
X125760000Y-71620000D03*
X128300000Y-71620000D03*
X130840000Y-71620000D03*
X133380000Y-71620000D03*
X135920000Y-71620000D03*
X138460000Y-71620000D03*
X141000000Y-71620000D03*
D13*
X158000000Y-81620000D03*
X158000000Y-74000000D03*
D12*
X148000000Y-96000000D03*
D11*
X150540000Y-96000000D03*
X153080000Y-96000000D03*
X155620000Y-96000000D03*
D13*
X155000000Y-80810000D03*
X155000000Y-73190000D03*
X157000000Y-69810000D03*
X157000000Y-62190000D03*
D16*
X103000000Y-69950000D03*
D17*
X105540000Y-69950000D03*
X108080000Y-69950000D03*
D18*
X100000000Y-55000000D03*
D19*
X94000000Y-55000000D03*
D20*
X97000000Y-59700000D03*
D21*
X108370000Y-48770000D03*
D22*
X108370000Y-46230000D03*
X110910000Y-48770000D03*
X110910000Y-46230000D03*
X113450000Y-48770000D03*
X113450000Y-46230000D03*
X115990000Y-48770000D03*
X115990000Y-46230000D03*
X118530000Y-48770000D03*
X118530000Y-46230000D03*
X121070000Y-48770000D03*
X121070000Y-46230000D03*
X123610000Y-48770000D03*
X123610000Y-46230000D03*
X126150000Y-48770000D03*
X126150000Y-46230000D03*
X128690000Y-48770000D03*
X128690000Y-46230000D03*
X131230000Y-48770000D03*
X131230000Y-46230000D03*
X133770000Y-48770000D03*
X133770000Y-46230000D03*
X136310000Y-48770000D03*
X136310000Y-46230000D03*
X138850000Y-48770000D03*
X138850000Y-46230000D03*
X141390000Y-48770000D03*
X141390000Y-46230000D03*
X143930000Y-48770000D03*
X143930000Y-46230000D03*
X146470000Y-48770000D03*
X146470000Y-46230000D03*
X149010000Y-48770000D03*
X149010000Y-46230000D03*
X151550000Y-48770000D03*
X151550000Y-46230000D03*
X154090000Y-48770000D03*
X154090000Y-46230000D03*
X156630000Y-48770000D03*
X156630000Y-46230000D03*
D23*
X113336800Y-50866700D03*
X110317300Y-74670600D03*
X151780100Y-56338900D03*
X158221800Y-53509400D03*
X134037900Y-57431400D03*
X152348000Y-57496300D03*
X141359900Y-60850200D03*
X163276600Y-59053500D03*
D24*
X124490000Y-58421700D02*
X115990000Y-49921700D01*
X124490000Y-64295400D02*
X124490000Y-58421700D01*
X126216200Y-66021600D02*
X124490000Y-64295400D01*
X129367400Y-66021600D02*
X126216200Y-66021600D01*
X134650000Y-71304200D02*
X129367400Y-66021600D01*
X134650000Y-78237500D02*
X134650000Y-71304200D01*
X139590000Y-83177500D02*
X134650000Y-78237500D01*
X139590000Y-95590000D02*
X139590000Y-83177500D01*
X140000000Y-96000000D02*
X139590000Y-95590000D01*
X115990000Y-48770000D02*
X115990000Y-49921700D01*
X100000000Y-68204200D02*
X101745800Y-69950000D01*
X100000000Y-55000000D02*
X100000000Y-68204200D01*
X103000000Y-69950000D02*
X101745800Y-69950000D01*
X113336800Y-50034900D02*
X113336800Y-50866700D01*
X113450000Y-49921700D02*
X113336800Y-50034900D01*
X113450000Y-48770000D02*
X113450000Y-49921700D01*
X153509600Y-74680400D02*
X155000000Y-73190000D01*
X148409900Y-74680400D02*
X153509600Y-74680400D01*
X146745000Y-73015500D02*
X148409900Y-74680400D01*
X146745000Y-67208500D02*
X146745000Y-73015500D01*
X141138400Y-61601900D02*
X146745000Y-67208500D01*
X141048700Y-61601900D02*
X141138400Y-61601900D01*
X140608200Y-61161400D02*
X141048700Y-61601900D01*
X140608200Y-60443900D02*
X140608200Y-61161400D01*
X136310000Y-56145700D02*
X140608200Y-60443900D01*
X136310000Y-48770000D02*
X136310000Y-56145700D01*
X153080000Y-82730000D02*
X155000000Y-80810000D01*
X153080000Y-96000000D02*
X153080000Y-82730000D01*
X136310000Y-46230000D02*
X136310000Y-47381700D01*
X156884200Y-75115800D02*
X158000000Y-74000000D01*
X148216600Y-75115800D02*
X156884200Y-75115800D01*
X142102700Y-69001900D02*
X148216600Y-75115800D01*
X142102700Y-63219200D02*
X142102700Y-69001900D01*
X140887100Y-62003600D02*
X142102700Y-63219200D01*
X140882400Y-62003600D02*
X140887100Y-62003600D01*
X135119400Y-56240600D02*
X140882400Y-62003600D01*
X135119400Y-48303800D02*
X135119400Y-56240600D01*
X136041500Y-47381700D02*
X135119400Y-48303800D01*
X136310000Y-47381700D02*
X136041500Y-47381700D01*
X155620000Y-84000000D02*
X158000000Y-81620000D01*
X155620000Y-96000000D02*
X155620000Y-84000000D01*
X109334200Y-73687500D02*
X110317300Y-74670600D01*
X109334200Y-69950000D02*
X109334200Y-73687500D01*
X108080000Y-69950000D02*
X109334200Y-69950000D01*
X154609600Y-53509400D02*
X151780100Y-56338900D01*
X158221800Y-53509400D02*
X154609600Y-53509400D01*
X126150000Y-56770000D02*
X133380000Y-64000000D01*
X126150000Y-48770000D02*
X126150000Y-56770000D01*
X123610000Y-55176200D02*
X123610000Y-48770000D01*
X131941700Y-63507900D02*
X123610000Y-55176200D01*
X131941700Y-64126600D02*
X131941700Y-63507900D01*
X132952500Y-65137400D02*
X131941700Y-64126600D01*
X134782600Y-65137400D02*
X132952500Y-65137400D01*
X135920000Y-64000000D02*
X134782600Y-65137400D01*
X138460000Y-61853500D02*
X138460000Y-64000000D01*
X134037900Y-57431400D02*
X138460000Y-61853500D01*
X138850000Y-46230000D02*
X138850000Y-47381700D01*
X139138000Y-47381700D02*
X138850000Y-47381700D01*
X140001700Y-48245400D02*
X139138000Y-47381700D01*
X140001700Y-57328800D02*
X140001700Y-48245400D01*
X147728200Y-65055300D02*
X140001700Y-57328800D01*
X147728200Y-73386300D02*
X147728200Y-65055300D01*
X148576300Y-74234400D02*
X147728200Y-73386300D01*
X150955600Y-74234400D02*
X148576300Y-74234400D01*
X152000000Y-73190000D02*
X150955600Y-74234400D01*
X150540000Y-82270000D02*
X152000000Y-80810000D01*
X150540000Y-96000000D02*
X150540000Y-82270000D01*
X152348000Y-65158000D02*
X152348000Y-57496300D01*
X157000000Y-69810000D02*
X152348000Y-65158000D01*
X150398300Y-71791700D02*
X149000000Y-73190000D01*
X150398300Y-48245400D02*
X150398300Y-71791700D01*
X151262000Y-47381700D02*
X150398300Y-48245400D01*
X151550000Y-47381700D02*
X151262000Y-47381700D01*
X151550000Y-46230000D02*
X151550000Y-47381700D01*
X148000000Y-81810000D02*
X149000000Y-80810000D01*
X148000000Y-96000000D02*
X148000000Y-81810000D01*
X134648900Y-82488900D02*
X135780000Y-83620000D01*
X132705200Y-82488900D02*
X134648900Y-82488900D01*
X131828500Y-83365600D02*
X132705200Y-82488900D01*
X131828500Y-93599000D02*
X131828500Y-83365600D01*
X129460000Y-95967500D02*
X131828500Y-93599000D01*
X133240000Y-94727500D02*
X132000000Y-95967500D01*
X133240000Y-83620000D02*
X133240000Y-94727500D01*
X132263800Y-82056200D02*
X130700000Y-83620000D01*
X135792400Y-82056200D02*
X132263800Y-82056200D01*
X136935300Y-83199100D02*
X135792400Y-82056200D01*
X136935300Y-93572200D02*
X136935300Y-83199100D01*
X134540000Y-95967500D02*
X136935300Y-93572200D01*
X141359900Y-59755700D02*
X141359900Y-60850200D01*
X137580000Y-55975800D02*
X141359900Y-59755700D01*
X137580000Y-45866700D02*
X137580000Y-55975800D01*
X136790200Y-45076900D02*
X137580000Y-45866700D01*
X135786900Y-45076900D02*
X136790200Y-45076900D01*
X134921700Y-45942100D02*
X135786900Y-45076900D01*
X134921700Y-46230000D02*
X134921700Y-45942100D01*
X133770000Y-46230000D02*
X134921700Y-46230000D01*
X137022300Y-74757700D02*
X135780000Y-76000000D01*
X137022300Y-61627900D02*
X137022300Y-74757700D01*
X127301700Y-51907300D02*
X137022300Y-61627900D01*
X127301700Y-48245400D02*
X127301700Y-51907300D01*
X126438000Y-47381700D02*
X127301700Y-48245400D01*
X126150000Y-47381700D02*
X126438000Y-47381700D01*
X126150000Y-46230000D02*
X126150000Y-47381700D01*
X128690000Y-46230000D02*
X128690000Y-47381700D01*
X128958500Y-47381700D02*
X128690000Y-47381700D01*
X129960000Y-48383200D02*
X128958500Y-47381700D01*
X129960000Y-52386100D02*
X129960000Y-48383200D01*
X134253600Y-56679700D02*
X129960000Y-52386100D01*
X134349200Y-56679700D02*
X134253600Y-56679700D01*
X134789600Y-57120100D02*
X134349200Y-56679700D01*
X134789600Y-57311300D02*
X134789600Y-57120100D01*
X139580300Y-62102000D02*
X134789600Y-57311300D01*
X139580300Y-74739700D02*
X139580300Y-62102000D01*
X138320000Y-76000000D02*
X139580300Y-74739700D01*
X108370000Y-46230000D02*
X107218300Y-46230000D01*
X140860000Y-71760000D02*
X140860000Y-76000000D01*
X141000000Y-71620000D02*
X140860000Y-71760000D01*
X141000000Y-64000000D02*
X141000000Y-71620000D01*
X140860000Y-83620000D02*
X140860000Y-76000000D01*
X89540000Y-63034300D02*
X89540000Y-64920000D01*
X96234200Y-56340100D02*
X89540000Y-63034300D01*
X96234200Y-52384700D02*
X96234200Y-56340100D01*
X102782700Y-45836200D02*
X96234200Y-52384700D01*
X106824500Y-45836200D02*
X102782700Y-45836200D01*
X107218300Y-46230000D02*
X106824500Y-45836200D01*
X108680500Y-46230000D02*
X110910000Y-46230000D01*
X108341600Y-45891100D02*
X108680500Y-46230000D01*
X108341600Y-45891000D02*
X108341600Y-45891100D01*
X108382800Y-45849800D02*
X108341600Y-45891000D01*
X112201400Y-45849800D02*
X108382800Y-45849800D01*
X113032100Y-45019100D02*
X112201400Y-45849800D01*
X129184500Y-45019100D02*
X113032100Y-45019100D01*
X129841700Y-45676300D02*
X129184500Y-45019100D01*
X129841700Y-46505800D02*
X129841700Y-45676300D01*
X130835900Y-47500000D02*
X129841700Y-46505800D01*
X131648300Y-47500000D02*
X130835900Y-47500000D01*
X132500000Y-48351700D02*
X131648300Y-47500000D01*
X132500000Y-54262500D02*
X132500000Y-48351700D01*
X141000000Y-62762500D02*
X132500000Y-54262500D01*
X141000000Y-64000000D02*
X141000000Y-62762500D01*
X163276600Y-66533400D02*
X161000000Y-68810000D01*
X163276600Y-59053500D02*
X163276600Y-66533400D01*
X87553400Y-75826600D02*
X89000000Y-74380000D01*
X87553400Y-85473400D02*
X87553400Y-75826600D01*
X89000000Y-86920000D02*
X87553400Y-85473400D01*
X106066600Y-49921700D02*
X107218300Y-48770000D01*
X101068700Y-49921700D02*
X106066600Y-49921700D01*
X97701400Y-53289000D02*
X101068700Y-49921700D01*
X97701400Y-55511500D02*
X97701400Y-53289000D01*
X93609600Y-59603300D02*
X97701400Y-55511500D01*
X93609600Y-69770400D02*
X93609600Y-59603300D01*
X89000000Y-74380000D02*
X93609600Y-69770400D01*
X108370000Y-48770000D02*
X107218300Y-48770000D01*
X129401700Y-86598300D02*
X120000000Y-96000000D01*
X129401700Y-73058300D02*
X129401700Y-86598300D01*
X130840000Y-71620000D02*
X129401700Y-73058300D01*
X132231700Y-70471700D02*
X133380000Y-71620000D01*
X127859200Y-70471700D02*
X132231700Y-70471700D01*
X127030000Y-71300900D02*
X127859200Y-70471700D01*
X127030000Y-86430000D02*
X127030000Y-71300900D01*
X117460000Y-96000000D02*
X127030000Y-86430000D01*
G04 #@! TA.AperFunction,Conductor*
G36*
X137528003Y-64398666D02*
G01*
X137561360Y-64444924D01*
X137573365Y-64473907D01*
X137573369Y-64473916D01*
X137573371Y-64473920D01*
X137682860Y-64637781D01*
X137682863Y-64637785D01*
X137822214Y-64777136D01*
X137822218Y-64777139D01*
X137986079Y-64886628D01*
X137986092Y-64886635D01*
X138145814Y-64952793D01*
X138168165Y-64962051D01*
X138168169Y-64962051D01*
X138168170Y-64962052D01*
X138361456Y-65000500D01*
X138361459Y-65000500D01*
X138558543Y-65000500D01*
X138688582Y-64974632D01*
X138751835Y-64962051D01*
X138933914Y-64886632D01*
X139086909Y-64784403D01*
X139153586Y-64763526D01*
X139220967Y-64782010D01*
X139267657Y-64833989D01*
X139279800Y-64887506D01*
X139279800Y-74563866D01*
X139260115Y-74630905D01*
X139243481Y-74651547D01*
X138843835Y-75051192D01*
X138782512Y-75084677D01*
X138712820Y-75079693D01*
X138708702Y-75078072D01*
X138611839Y-75037950D01*
X138611829Y-75037947D01*
X138418543Y-74999500D01*
X138418541Y-74999500D01*
X138221459Y-74999500D01*
X138221457Y-74999500D01*
X138028170Y-75037947D01*
X138028160Y-75037950D01*
X137846092Y-75113364D01*
X137846079Y-75113371D01*
X137682218Y-75222860D01*
X137682214Y-75222863D01*
X137542863Y-75362214D01*
X137542860Y-75362218D01*
X137433371Y-75526079D01*
X137433364Y-75526092D01*
X137357950Y-75708160D01*
X137357947Y-75708170D01*
X137319500Y-75901456D01*
X137319500Y-75901459D01*
X137319500Y-76098541D01*
X137319500Y-76098543D01*
X137319499Y-76098543D01*
X137357947Y-76291829D01*
X137357950Y-76291839D01*
X137433364Y-76473907D01*
X137433371Y-76473920D01*
X137542860Y-76637781D01*
X137542863Y-76637785D01*
X137682214Y-76777136D01*
X137682218Y-76777139D01*
X137846079Y-76886628D01*
X137846092Y-76886635D01*
X138005814Y-76952793D01*
X138028165Y-76962051D01*
X138028169Y-76962051D01*
X138028170Y-76962052D01*
X138221456Y-77000500D01*
X138221459Y-77000500D01*
X138418543Y-77000500D01*
X138548582Y-76974632D01*
X138611835Y-76962051D01*
X138793914Y-76886632D01*
X138957782Y-76777139D01*
X139097139Y-76637782D01*
X139206632Y-76473914D01*
X139282051Y-76291835D01*
X139320500Y-76098541D01*
X139320500Y-75901459D01*
X139320500Y-75901456D01*
X139282052Y-75708170D01*
X139282051Y-75708169D01*
X139282051Y-75708165D01*
X139241925Y-75611294D01*
X139234457Y-75541828D01*
X139265732Y-75479349D01*
X139268775Y-75476194D01*
X139820760Y-74924211D01*
X139834449Y-74900500D01*
X139860321Y-74855689D01*
X139880800Y-74779262D01*
X139880800Y-72153846D01*
X139900485Y-72086807D01*
X139953289Y-72041052D01*
X140022447Y-72031108D01*
X140086003Y-72060133D01*
X140109297Y-72089307D01*
X140109983Y-72088849D01*
X140222860Y-72257781D01*
X140222863Y-72257785D01*
X140362215Y-72397137D01*
X140362218Y-72397139D01*
X140504392Y-72492136D01*
X140549196Y-72545746D01*
X140559500Y-72595237D01*
X140559500Y-74875500D01*
X140539815Y-74942539D01*
X140487011Y-74988294D01*
X140435500Y-74999500D01*
X140255730Y-74999500D01*
X140225300Y-75002353D01*
X140225298Y-75002353D01*
X140097119Y-75047206D01*
X140097117Y-75047207D01*
X139987850Y-75127850D01*
X139907207Y-75237117D01*
X139907206Y-75237119D01*
X139862353Y-75365298D01*
X139862353Y-75365300D01*
X139859500Y-75395730D01*
X139859500Y-76604269D01*
X139862353Y-76634699D01*
X139862353Y-76634701D01*
X139890614Y-76715463D01*
X139907207Y-76762882D01*
X139987850Y-76872150D01*
X140097118Y-76952793D01*
X140123576Y-76962051D01*
X140225299Y-76997646D01*
X140255730Y-77000500D01*
X140255734Y-77000500D01*
X140435500Y-77000500D01*
X140502539Y-77020185D01*
X140548294Y-77072989D01*
X140559500Y-77124500D01*
X140559500Y-82578683D01*
X140539815Y-82645722D01*
X140487011Y-82691477D01*
X140482953Y-82693244D01*
X140386089Y-82733366D01*
X140386079Y-82733371D01*
X140222218Y-82842860D01*
X140222214Y-82842863D01*
X140082863Y-82982214D01*
X140082858Y-82982220D01*
X140054905Y-83024055D01*
X140001293Y-83068859D01*
X139931968Y-83077566D01*
X139868940Y-83047411D01*
X139844416Y-83017162D01*
X139830460Y-82992989D01*
X139774511Y-82937040D01*
X134986819Y-78149348D01*
X134953334Y-78088025D01*
X134950500Y-78061667D01*
X134950500Y-76881025D01*
X134970185Y-76813986D01*
X135022989Y-76768231D01*
X135092147Y-76758287D01*
X135143391Y-76777923D01*
X135306079Y-76886628D01*
X135306092Y-76886635D01*
X135465814Y-76952793D01*
X135488165Y-76962051D01*
X135488169Y-76962051D01*
X135488170Y-76962052D01*
X135681456Y-77000500D01*
X135681459Y-77000500D01*
X135878543Y-77000500D01*
X136008582Y-76974632D01*
X136071835Y-76962051D01*
X136253914Y-76886632D01*
X136417782Y-76777139D01*
X136557139Y-76637782D01*
X136666632Y-76473914D01*
X136742051Y-76291835D01*
X136780500Y-76098541D01*
X136780500Y-75901459D01*
X136780500Y-75901456D01*
X136742052Y-75708170D01*
X136742051Y-75708169D01*
X136742051Y-75708165D01*
X136701925Y-75611294D01*
X136694457Y-75541828D01*
X136725732Y-75479349D01*
X136728775Y-75476194D01*
X137262760Y-74942211D01*
X137302322Y-74873688D01*
X137322800Y-74797262D01*
X137322800Y-74718138D01*
X137322800Y-64492379D01*
X137342485Y-64425340D01*
X137395289Y-64379585D01*
X137464447Y-64369641D01*
X137528003Y-64398666D01*
G37*
G04 #@! TD.AperFunction*
G04 #@! TA.AperFunction,Conductor*
G36*
X138008814Y-46924673D02*
G01*
X138022147Y-46922757D01*
X138042290Y-46931956D01*
X138063927Y-46936663D01*
X138081652Y-46949931D01*
X138085703Y-46951782D01*
X138092181Y-46957814D01*
X138180342Y-47045975D01*
X138180345Y-47045977D01*
X138352402Y-47160941D01*
X138472953Y-47210875D01*
X138527356Y-47254714D01*
X138549421Y-47321008D01*
X138549500Y-47325435D01*
X138549500Y-47342138D01*
X138549500Y-47421262D01*
X138563152Y-47472213D01*
X138569979Y-47497690D01*
X138569982Y-47497695D01*
X138609535Y-47566204D01*
X138609539Y-47566209D01*
X138609540Y-47566211D01*
X138665489Y-47622160D01*
X138665491Y-47622161D01*
X138665495Y-47622164D01*
X138734004Y-47661717D01*
X138734011Y-47661721D01*
X138810438Y-47682200D01*
X138962167Y-47682200D01*
X139029206Y-47701885D01*
X139049848Y-47718519D01*
X139664881Y-48333552D01*
X139698366Y-48394875D01*
X139701200Y-48421233D01*
X139701200Y-57372667D01*
X139681515Y-57439706D01*
X139628711Y-57485461D01*
X139559553Y-57495405D01*
X139495997Y-57466380D01*
X139489519Y-57460348D01*
X137916819Y-55887648D01*
X137883334Y-55826325D01*
X137880500Y-55799967D01*
X137880500Y-47045495D01*
X137886738Y-47024249D01*
X137888318Y-47002161D01*
X137896390Y-46991377D01*
X137900185Y-46978456D01*
X137916918Y-46963956D01*
X137930190Y-46946228D01*
X137942810Y-46941520D01*
X137952989Y-46932701D01*
X137974906Y-46929549D01*
X137995654Y-46921811D01*
X138008814Y-46924673D01*
G37*
G04 #@! TD.AperFunction*
G04 #@! TA.AperFunction,Conductor*
G36*
X162003612Y-39050702D02*
G01*
X162323297Y-39068656D01*
X162337094Y-39070210D01*
X162649457Y-39123283D01*
X162663014Y-39126377D01*
X162967469Y-39214089D01*
X162980594Y-39218682D01*
X163006059Y-39229230D01*
X163273312Y-39339930D01*
X163285826Y-39345956D01*
X163452593Y-39438125D01*
X163563132Y-39499218D01*
X163574906Y-39506616D01*
X163833312Y-39689964D01*
X163844180Y-39698632D01*
X164080418Y-39909749D01*
X164090250Y-39919581D01*
X164301367Y-40155819D01*
X164310038Y-40166691D01*
X164493383Y-40425093D01*
X164500781Y-40436867D01*
X164654039Y-40714166D01*
X164660072Y-40726694D01*
X164781317Y-41019405D01*
X164785910Y-41032530D01*
X164873622Y-41336985D01*
X164876716Y-41350542D01*
X164929787Y-41662894D01*
X164931344Y-41676712D01*
X164949305Y-41996527D01*
X164949500Y-42003480D01*
X164949500Y-96996519D01*
X164949305Y-97003472D01*
X164931344Y-97323287D01*
X164929787Y-97337105D01*
X164876716Y-97649457D01*
X164873622Y-97663014D01*
X164785910Y-97967469D01*
X164781317Y-97980594D01*
X164660072Y-98273305D01*
X164654039Y-98285833D01*
X164500781Y-98563132D01*
X164493383Y-98574906D01*
X164310038Y-98833308D01*
X164301367Y-98844180D01*
X164090250Y-99080418D01*
X164080418Y-99090250D01*
X163844180Y-99301367D01*
X163833308Y-99310038D01*
X163574906Y-99493383D01*
X163563132Y-99500781D01*
X163285833Y-99654039D01*
X163273305Y-99660072D01*
X162980594Y-99781317D01*
X162967469Y-99785910D01*
X162663014Y-99873622D01*
X162649457Y-99876716D01*
X162337105Y-99929787D01*
X162323287Y-99931344D01*
X162003472Y-99949305D01*
X161996519Y-99949500D01*
X88003481Y-99949500D01*
X87996528Y-99949305D01*
X87676712Y-99931344D01*
X87662894Y-99929787D01*
X87350542Y-99876716D01*
X87336985Y-99873622D01*
X87032530Y-99785910D01*
X87019405Y-99781317D01*
X86726694Y-99660072D01*
X86714166Y-99654039D01*
X86436867Y-99500781D01*
X86425093Y-99493383D01*
X86166691Y-99310038D01*
X86155819Y-99301367D01*
X85919581Y-99090250D01*
X85909749Y-99080418D01*
X85728869Y-98878015D01*
X85698629Y-98844176D01*
X85689961Y-98833308D01*
X85632616Y-98752488D01*
X85533270Y-98612472D01*
X85506616Y-98574906D01*
X85499218Y-98563131D01*
X85475038Y-98519380D01*
X85475037Y-98519379D01*
X85446378Y-98467525D01*
X114369500Y-98467525D01*
X114369500Y-98612475D01*
X114407016Y-98752485D01*
X114407017Y-98752488D01*
X114479488Y-98878011D01*
X114479490Y-98878013D01*
X114479491Y-98878015D01*
X114581985Y-98980509D01*
X114581986Y-98980510D01*
X114581988Y-98980511D01*
X114707511Y-99052982D01*
X114707512Y-99052982D01*
X114707515Y-99052984D01*
X114847525Y-99090500D01*
X114847528Y-99090500D01*
X114992472Y-99090500D01*
X114992475Y-99090500D01*
X115132485Y-99052984D01*
X115258015Y-98980509D01*
X115360509Y-98878015D01*
X115432984Y-98752485D01*
X115470500Y-98612475D01*
X115470500Y-98467525D01*
X116909500Y-98467525D01*
X116909500Y-98612475D01*
X116947016Y-98752485D01*
X116947017Y-98752488D01*
X117019488Y-98878011D01*
X117019490Y-98878013D01*
X117019491Y-98878015D01*
X117121985Y-98980509D01*
X117121986Y-98980510D01*
X117121988Y-98980511D01*
X117247511Y-99052982D01*
X117247512Y-99052982D01*
X117247515Y-99052984D01*
X117387525Y-99090500D01*
X117387528Y-99090500D01*
X117532472Y-99090500D01*
X117532475Y-99090500D01*
X117672485Y-99052984D01*
X117798015Y-98980509D01*
X117900509Y-98878015D01*
X117972984Y-98752485D01*
X118010500Y-98612475D01*
X118010500Y-98467525D01*
X119449500Y-98467525D01*
X119449500Y-98612475D01*
X119487016Y-98752485D01*
X119487017Y-98752488D01*
X119559488Y-98878011D01*
X119559490Y-98878013D01*
X119559491Y-98878015D01*
X119661985Y-98980509D01*
X119661986Y-98980510D01*
X119661988Y-98980511D01*
X119787511Y-99052982D01*
X119787512Y-99052982D01*
X119787515Y-99052984D01*
X119927525Y-99090500D01*
X119927528Y-99090500D01*
X120072472Y-99090500D01*
X120072475Y-99090500D01*
X120212485Y-99052984D01*
X120338015Y-98980509D01*
X120440509Y-98878015D01*
X120512984Y-98752485D01*
X120550500Y-98612475D01*
X120550500Y-98467525D01*
X120541792Y-98435025D01*
X128909500Y-98435025D01*
X128909500Y-98579975D01*
X128931935Y-98663701D01*
X128947017Y-98719988D01*
X129019488Y-98845511D01*
X129019490Y-98845513D01*
X129019491Y-98845515D01*
X129121985Y-98948009D01*
X129121986Y-98948010D01*
X129121988Y-98948011D01*
X129247511Y-99020482D01*
X129247512Y-99020482D01*
X129247515Y-99020484D01*
X129387525Y-99058000D01*
X129387528Y-99058000D01*
X129532472Y-99058000D01*
X129532475Y-99058000D01*
X129672485Y-99020484D01*
X129798015Y-98948009D01*
X129900509Y-98845515D01*
X129972984Y-98719985D01*
X130010500Y-98579975D01*
X130010500Y-98435025D01*
X131449500Y-98435025D01*
X131449500Y-98579975D01*
X131471935Y-98663701D01*
X131487017Y-98719988D01*
X131559488Y-98845511D01*
X131559490Y-98845513D01*
X131559491Y-98845515D01*
X131661985Y-98948009D01*
X131661986Y-98948010D01*
X131661988Y-98948011D01*
X131787511Y-99020482D01*
X131787512Y-99020482D01*
X131787515Y-99020484D01*
X131927525Y-99058000D01*
X131927528Y-99058000D01*
X132072472Y-99058000D01*
X132072475Y-99058000D01*
X132212485Y-99020484D01*
X132338015Y-98948009D01*
X132440509Y-98845515D01*
X132512984Y-98719985D01*
X132550500Y-98579975D01*
X132550500Y-98435025D01*
X133989500Y-98435025D01*
X133989500Y-98579975D01*
X134011935Y-98663701D01*
X134027017Y-98719988D01*
X134099488Y-98845511D01*
X134099490Y-98845513D01*
X134099491Y-98845515D01*
X134201985Y-98948009D01*
X134201986Y-98948010D01*
X134201988Y-98948011D01*
X134327511Y-99020482D01*
X134327512Y-99020482D01*
X134327515Y-99020484D01*
X134467525Y-99058000D01*
X134467528Y-99058000D01*
X134612472Y-99058000D01*
X134612475Y-99058000D01*
X134752485Y-99020484D01*
X134878015Y-98948009D01*
X134980509Y-98845515D01*
X135052984Y-98719985D01*
X135090500Y-98579975D01*
X135090500Y-98467525D01*
X139449500Y-98467525D01*
X139449500Y-98612475D01*
X139487016Y-98752485D01*
X139487017Y-98752488D01*
X139559488Y-98878011D01*
X139559490Y-98878013D01*
X139559491Y-98878015D01*
X139661985Y-98980509D01*
X139661986Y-98980510D01*
X139661988Y-98980511D01*
X139787511Y-99052982D01*
X139787512Y-99052982D01*
X139787515Y-99052984D01*
X139927525Y-99090500D01*
X139927528Y-99090500D01*
X140072472Y-99090500D01*
X140072475Y-99090500D01*
X140212485Y-99052984D01*
X140338015Y-98980509D01*
X140440509Y-98878015D01*
X140512984Y-98752485D01*
X140550500Y-98612475D01*
X140550500Y-98467525D01*
X141989500Y-98467525D01*
X141989500Y-98612475D01*
X142027016Y-98752485D01*
X142027017Y-98752488D01*
X142099488Y-98878011D01*
X142099490Y-98878013D01*
X142099491Y-98878015D01*
X142201985Y-98980509D01*
X142201986Y-98980510D01*
X142201988Y-98980511D01*
X142327511Y-99052982D01*
X142327512Y-99052982D01*
X142327515Y-99052984D01*
X142467525Y-99090500D01*
X142467528Y-99090500D01*
X142612472Y-99090500D01*
X142612475Y-99090500D01*
X142752485Y-99052984D01*
X142878015Y-98980509D01*
X142980509Y-98878015D01*
X143052984Y-98752485D01*
X143090500Y-98612475D01*
X143090500Y-98467525D01*
X143052984Y-98327515D01*
X142980509Y-98201985D01*
X142878015Y-98099491D01*
X142878013Y-98099490D01*
X142878011Y-98099488D01*
X142752488Y-98027017D01*
X142752489Y-98027017D01*
X142741006Y-98023940D01*
X142612475Y-97989500D01*
X142467525Y-97989500D01*
X142338993Y-98023940D01*
X142327511Y-98027017D01*
X142201988Y-98099488D01*
X142201982Y-98099493D01*
X142099493Y-98201982D01*
X142099488Y-98201988D01*
X142027017Y-98327511D01*
X142027016Y-98327515D01*
X141989500Y-98467525D01*
X140550500Y-98467525D01*
X140512984Y-98327515D01*
X140440509Y-98201985D01*
X140338015Y-98099491D01*
X140338013Y-98099490D01*
X140338011Y-98099488D01*
X140212488Y-98027017D01*
X140212489Y-98027017D01*
X140201006Y-98023940D01*
X140072475Y-97989500D01*
X139927525Y-97989500D01*
X139798993Y-98023940D01*
X139787511Y-98027017D01*
X139661988Y-98099488D01*
X139661982Y-98099493D01*
X139559493Y-98201982D01*
X139559488Y-98201988D01*
X139487017Y-98327511D01*
X139487016Y-98327515D01*
X139449500Y-98467525D01*
X135090500Y-98467525D01*
X135090500Y-98435025D01*
X135052984Y-98295015D01*
X134980509Y-98169485D01*
X134878015Y-98066991D01*
X134878013Y-98066990D01*
X134878011Y-98066988D01*
X134752488Y-97994517D01*
X134752489Y-97994517D01*
X134733765Y-97989500D01*
X134612475Y-97957000D01*
X134467525Y-97957000D01*
X134346235Y-97989500D01*
X134327511Y-97994517D01*
X134201988Y-98066988D01*
X134201982Y-98066993D01*
X134099493Y-98169482D01*
X134099488Y-98169488D01*
X134027017Y-98295011D01*
X134027016Y-98295015D01*
X133989500Y-98435025D01*
X132550500Y-98435025D01*
X132512984Y-98295015D01*
X132440509Y-98169485D01*
X132338015Y-98066991D01*
X132338013Y-98066990D01*
X132338011Y-98066988D01*
X132212488Y-97994517D01*
X132212489Y-97994517D01*
X132193765Y-97989500D01*
X132072475Y-97957000D01*
X131927525Y-97957000D01*
X131806235Y-97989500D01*
X131787511Y-97994517D01*
X131661988Y-98066988D01*
X131661982Y-98066993D01*
X131559493Y-98169482D01*
X131559488Y-98169488D01*
X131487017Y-98295011D01*
X131487016Y-98295015D01*
X131449500Y-98435025D01*
X130010500Y-98435025D01*
X129972984Y-98295015D01*
X129900509Y-98169485D01*
X129798015Y-98066991D01*
X129798013Y-98066990D01*
X129798011Y-98066988D01*
X129672488Y-97994517D01*
X129672489Y-97994517D01*
X129653765Y-97989500D01*
X129532475Y-97957000D01*
X129387525Y-97957000D01*
X129266235Y-97989500D01*
X129247511Y-97994517D01*
X129121988Y-98066988D01*
X129121982Y-98066993D01*
X129019493Y-98169482D01*
X129019488Y-98169488D01*
X128947017Y-98295011D01*
X128947016Y-98295015D01*
X128909500Y-98435025D01*
X120541792Y-98435025D01*
X120512984Y-98327515D01*
X120440509Y-98201985D01*
X120338015Y-98099491D01*
X120338013Y-98099490D01*
X120338011Y-98099488D01*
X120212488Y-98027017D01*
X120212489Y-98027017D01*
X120201006Y-98023940D01*
X120072475Y-97989500D01*
X119927525Y-97989500D01*
X119798993Y-98023940D01*
X119787511Y-98027017D01*
X119661988Y-98099488D01*
X119661982Y-98099493D01*
X119559493Y-98201982D01*
X119559488Y-98201988D01*
X119487017Y-98327511D01*
X119487016Y-98327515D01*
X119449500Y-98467525D01*
X118010500Y-98467525D01*
X117972984Y-98327515D01*
X117900509Y-98201985D01*
X117798015Y-98099491D01*
X117798013Y-98099490D01*
X117798011Y-98099488D01*
X117672488Y-98027017D01*
X117672489Y-98027017D01*
X117661006Y-98023940D01*
X117532475Y-97989500D01*
X117387525Y-97989500D01*
X117258993Y-98023940D01*
X117247511Y-98027017D01*
X117121988Y-98099488D01*
X117121982Y-98099493D01*
X117019493Y-98201982D01*
X117019488Y-98201988D01*
X116947017Y-98327511D01*
X116947016Y-98327515D01*
X116909500Y-98467525D01*
X115470500Y-98467525D01*
X115432984Y-98327515D01*
X115360509Y-98201985D01*
X115258015Y-98099491D01*
X115258013Y-98099490D01*
X115258011Y-98099488D01*
X115132488Y-98027017D01*
X115132489Y-98027017D01*
X115121006Y-98023940D01*
X114992475Y-97989500D01*
X114847525Y-97989500D01*
X114718993Y-98023940D01*
X114707511Y-98027017D01*
X114581988Y-98099488D01*
X114581982Y-98099493D01*
X114479493Y-98201982D01*
X114479488Y-98201988D01*
X114407017Y-98327511D01*
X114407016Y-98327515D01*
X114369500Y-98467525D01*
X85446378Y-98467525D01*
X85345960Y-98285833D01*
X85339930Y-98273312D01*
X85218682Y-97980594D01*
X85214089Y-97967469D01*
X85126377Y-97663014D01*
X85123283Y-97649457D01*
X85077464Y-97379786D01*
X85070211Y-97337096D01*
X85068656Y-97323295D01*
X85050704Y-97003655D01*
X85050511Y-96996330D01*
X85050626Y-96959466D01*
X85052391Y-96393713D01*
X102149500Y-96393713D01*
X102149500Y-96606286D01*
X102182512Y-96814719D01*
X102182754Y-96816243D01*
X102242464Y-97000012D01*
X102248444Y-97018414D01*
X102344951Y-97207820D01*
X102469890Y-97379786D01*
X102620213Y-97530109D01*
X102792179Y-97655048D01*
X102792181Y-97655049D01*
X102792184Y-97655051D01*
X102981588Y-97751557D01*
X103183757Y-97817246D01*
X103393713Y-97850500D01*
X103393714Y-97850500D01*
X103606286Y-97850500D01*
X103606287Y-97850500D01*
X103816243Y-97817246D01*
X104018412Y-97751557D01*
X104207816Y-97655051D01*
X104229789Y-97639086D01*
X104379786Y-97530109D01*
X104379788Y-97530106D01*
X104379792Y-97530104D01*
X104530104Y-97379792D01*
X104530106Y-97379788D01*
X104530109Y-97379786D01*
X104655048Y-97207820D01*
X104655047Y-97207820D01*
X104655051Y-97207816D01*
X104751557Y-97018412D01*
X104817246Y-96816243D01*
X104850500Y-96606287D01*
X104850500Y-96393713D01*
X104817246Y-96183757D01*
X104751557Y-95981588D01*
X104655051Y-95792184D01*
X104655049Y-95792181D01*
X104655048Y-95792179D01*
X104530109Y-95620213D01*
X104379786Y-95469890D01*
X104207820Y-95344951D01*
X104018414Y-95248444D01*
X104018413Y-95248443D01*
X104018412Y-95248443D01*
X103816243Y-95182754D01*
X103816241Y-95182753D01*
X103816240Y-95182753D01*
X103627040Y-95152787D01*
X103606287Y-95149500D01*
X103393713Y-95149500D01*
X103372960Y-95152787D01*
X103183760Y-95182753D01*
X102981585Y-95248444D01*
X102792179Y-95344951D01*
X102620213Y-95469890D01*
X102469890Y-95620213D01*
X102344951Y-95792179D01*
X102248444Y-95981585D01*
X102182753Y-96183760D01*
X102149500Y-96393713D01*
X85052391Y-96393713D01*
X85066416Y-91897648D01*
X87699500Y-91897648D01*
X87699500Y-92102351D01*
X87731522Y-92304534D01*
X87794781Y-92499223D01*
X87887715Y-92681613D01*
X88008028Y-92847213D01*
X88152786Y-92991971D01*
X88307749Y-93104556D01*
X88318390Y-93112287D01*
X88409840Y-93158883D01*
X88411080Y-93159515D01*
X88461876Y-93207490D01*
X88478671Y-93275311D01*
X88456134Y-93341446D01*
X88411080Y-93380485D01*
X88318386Y-93427715D01*
X88152786Y-93548028D01*
X88008028Y-93692786D01*
X87887715Y-93858386D01*
X87794781Y-94040776D01*
X87731522Y-94235465D01*
X87699500Y-94437648D01*
X87699500Y-94642352D01*
X87702955Y-94664166D01*
X87731522Y-94844534D01*
X87794781Y-95039223D01*
X87823578Y-95095739D01*
X87886079Y-95218404D01*
X87887715Y-95221613D01*
X88008028Y-95387213D01*
X88152786Y-95531971D01*
X88307749Y-95644556D01*
X88318390Y-95652287D01*
X88422004Y-95705081D01*
X88500776Y-95745218D01*
X88500778Y-95745218D01*
X88500781Y-95745220D01*
X88605137Y-95779127D01*
X88695465Y-95808477D01*
X88796557Y-95824488D01*
X88897648Y-95840500D01*
X88897649Y-95840500D01*
X89102351Y-95840500D01*
X89102352Y-95840500D01*
X89304534Y-95808477D01*
X89499219Y-95745220D01*
X89681610Y-95652287D01*
X89789658Y-95573786D01*
X89847213Y-95531971D01*
X89847215Y-95531968D01*
X89847219Y-95531966D01*
X89991966Y-95387219D01*
X89991968Y-95387215D01*
X89991971Y-95387213D01*
X90083327Y-95261470D01*
X90112287Y-95221610D01*
X90205220Y-95039219D01*
X90268477Y-94844534D01*
X90300500Y-94642352D01*
X90300500Y-94437648D01*
X90268477Y-94235466D01*
X90205220Y-94040781D01*
X90205218Y-94040778D01*
X90205218Y-94040776D01*
X90171503Y-93974607D01*
X90112287Y-93858390D01*
X90104556Y-93847749D01*
X89991971Y-93692786D01*
X89847213Y-93548028D01*
X89681614Y-93427715D01*
X89620088Y-93396366D01*
X89588917Y-93380483D01*
X89538123Y-93332511D01*
X89521328Y-93264690D01*
X89543865Y-93198555D01*
X89588917Y-93159516D01*
X89681610Y-93112287D01*
X89702770Y-93096913D01*
X89847213Y-92991971D01*
X89847215Y-92991968D01*
X89847219Y-92991966D01*
X89991966Y-92847219D01*
X89991968Y-92847215D01*
X89991971Y-92847213D01*
X90044732Y-92774590D01*
X90112287Y-92681610D01*
X90205220Y-92499219D01*
X90268477Y-92304534D01*
X90300500Y-92102352D01*
X90300500Y-91897648D01*
X90268477Y-91695466D01*
X90205220Y-91500781D01*
X90205218Y-91500778D01*
X90205218Y-91500776D01*
X90171503Y-91434607D01*
X90112287Y-91318390D01*
X90104556Y-91307749D01*
X89991971Y-91152786D01*
X89847213Y-91008028D01*
X89681613Y-90887715D01*
X89681612Y-90887714D01*
X89681610Y-90887713D01*
X89624653Y-90858691D01*
X89499223Y-90794781D01*
X89304534Y-90731522D01*
X89129995Y-90703878D01*
X89102352Y-90699500D01*
X88897648Y-90699500D01*
X88873329Y-90703351D01*
X88695465Y-90731522D01*
X88500776Y-90794781D01*
X88318386Y-90887715D01*
X88152786Y-91008028D01*
X88008028Y-91152786D01*
X87887715Y-91318386D01*
X87794781Y-91500776D01*
X87731522Y-91695465D01*
X87699500Y-91897648D01*
X85066416Y-91897648D01*
X85116673Y-75787038D01*
X87252900Y-75787038D01*
X87252900Y-85512962D01*
X87266552Y-85563913D01*
X87273379Y-85589390D01*
X87273382Y-85589395D01*
X87312935Y-85657904D01*
X87312941Y-85657912D01*
X87663181Y-86008152D01*
X87696666Y-86069475D01*
X87699500Y-86095833D01*
X87699500Y-87824260D01*
X87699501Y-87824266D01*
X87702354Y-87854700D01*
X87702354Y-87854702D01*
X87702355Y-87854703D01*
X87702355Y-87854705D01*
X87747206Y-87982882D01*
X87827849Y-88092150D01*
X87882483Y-88132471D01*
X87937117Y-88172793D01*
X87979844Y-88187744D01*
X88065298Y-88217646D01*
X88072323Y-88218304D01*
X88095733Y-88220500D01*
X89904266Y-88220499D01*
X89934700Y-88217646D01*
X90062883Y-88172793D01*
X90172150Y-88092150D01*
X90252793Y-87982883D01*
X90275219Y-87918791D01*
X90297646Y-87854702D01*
X90297646Y-87854700D01*
X90300500Y-87824267D01*
X90300499Y-86015734D01*
X90297646Y-85985300D01*
X90252793Y-85857117D01*
X90172150Y-85747849D01*
X90098123Y-85693215D01*
X90062883Y-85667207D01*
X90062881Y-85667206D01*
X89934701Y-85622353D01*
X89904271Y-85619500D01*
X89904267Y-85619500D01*
X88175833Y-85619500D01*
X88108794Y-85599815D01*
X88088152Y-85583181D01*
X87890219Y-85385248D01*
X87856734Y-85323925D01*
X87853900Y-85297567D01*
X87853900Y-83718543D01*
X116999499Y-83718543D01*
X117037947Y-83911829D01*
X117037950Y-83911839D01*
X117113364Y-84093907D01*
X117113371Y-84093920D01*
X117222860Y-84257781D01*
X117222863Y-84257785D01*
X117362214Y-84397136D01*
X117362218Y-84397139D01*
X117526079Y-84506628D01*
X117526092Y-84506635D01*
X117699498Y-84578461D01*
X117708165Y-84582051D01*
X117708169Y-84582051D01*
X117708170Y-84582052D01*
X117901456Y-84620500D01*
X117901459Y-84620500D01*
X118098543Y-84620500D01*
X118248887Y-84590594D01*
X118291835Y-84582051D01*
X118473914Y-84506632D01*
X118637782Y-84397139D01*
X118777139Y-84257782D01*
X118886632Y-84093914D01*
X118962051Y-83911835D01*
X118974632Y-83848582D01*
X119000500Y-83718543D01*
X119539499Y-83718543D01*
X119577947Y-83911829D01*
X119577950Y-83911839D01*
X119653364Y-84093907D01*
X119653371Y-84093920D01*
X119762860Y-84257781D01*
X119762863Y-84257785D01*
X119902214Y-84397136D01*
X119902218Y-84397139D01*
X120066079Y-84506628D01*
X120066092Y-84506635D01*
X120239498Y-84578461D01*
X120248165Y-84582051D01*
X120248169Y-84582051D01*
X120248170Y-84582052D01*
X120441456Y-84620500D01*
X120441459Y-84620500D01*
X120638543Y-84620500D01*
X120788887Y-84590594D01*
X120831835Y-84582051D01*
X121013914Y-84506632D01*
X121177782Y-84397139D01*
X121317139Y-84257782D01*
X121426632Y-84093914D01*
X121502051Y-83911835D01*
X121514632Y-83848582D01*
X121540500Y-83718543D01*
X122079499Y-83718543D01*
X122117947Y-83911829D01*
X122117950Y-83911839D01*
X122193364Y-84093907D01*
X122193371Y-84093920D01*
X122302860Y-84257781D01*
X122302863Y-84257785D01*
X122442214Y-84397136D01*
X122442218Y-84397139D01*
X122606079Y-84506628D01*
X122606092Y-84506635D01*
X122779498Y-84578461D01*
X122788165Y-84582051D01*
X122788169Y-84582051D01*
X122788170Y-84582052D01*
X122981456Y-84620500D01*
X122981459Y-84620500D01*
X123178543Y-84620500D01*
X123328887Y-84590594D01*
X123371835Y-84582051D01*
X123553914Y-84506632D01*
X123717782Y-84397139D01*
X123857139Y-84257782D01*
X123966632Y-84093914D01*
X124042051Y-83911835D01*
X124054632Y-83848582D01*
X124080500Y-83718543D01*
X124080500Y-83521456D01*
X124042052Y-83328170D01*
X124042051Y-83328169D01*
X124042051Y-83328165D01*
X124017328Y-83268477D01*
X123966635Y-83146092D01*
X123966628Y-83146079D01*
X123857139Y-82982218D01*
X123857136Y-82982214D01*
X123717785Y-82842863D01*
X123717781Y-82842860D01*
X123553920Y-82733371D01*
X123553907Y-82733364D01*
X123371839Y-82657950D01*
X123371829Y-82657947D01*
X123178543Y-82619500D01*
X123178541Y-82619500D01*
X122981459Y-82619500D01*
X122981457Y-82619500D01*
X122788170Y-82657947D01*
X122788160Y-82657950D01*
X122606092Y-82733364D01*
X122606079Y-82733371D01*
X122442218Y-82842860D01*
X122442214Y-82842863D01*
X122302863Y-82982214D01*
X122302860Y-82982218D01*
X122193371Y-83146079D01*
X122193364Y-83146092D01*
X122117950Y-83328160D01*
X122117947Y-83328170D01*
X122079500Y-83521456D01*
X122079500Y-83521459D01*
X122079500Y-83718541D01*
X122079500Y-83718543D01*
X122079499Y-83718543D01*
X121540500Y-83718543D01*
X121540500Y-83521456D01*
X121502052Y-83328170D01*
X121502051Y-83328169D01*
X121502051Y-83328165D01*
X121477328Y-83268477D01*
X121426635Y-83146092D01*
X121426628Y-83146079D01*
X121317139Y-82982218D01*
X121317136Y-82982214D01*
X121177785Y-82842863D01*
X121177781Y-82842860D01*
X121013920Y-82733371D01*
X121013907Y-82733364D01*
X120831839Y-82657950D01*
X120831829Y-82657947D01*
X120638543Y-82619500D01*
X120638541Y-82619500D01*
X120441459Y-82619500D01*
X120441457Y-82619500D01*
X120248170Y-82657947D01*
X120248160Y-82657950D01*
X120066092Y-82733364D01*
X120066079Y-82733371D01*
X119902218Y-82842860D01*
X119902214Y-82842863D01*
X119762863Y-82982214D01*
X119762860Y-82982218D01*
X119653371Y-83146079D01*
X119653364Y-83146092D01*
X119577950Y-83328160D01*
X119577947Y-83328170D01*
X119539500Y-83521456D01*
X119539500Y-83521459D01*
X119539500Y-83718541D01*
X119539500Y-83718543D01*
X119539499Y-83718543D01*
X119000500Y-83718543D01*
X119000500Y-83521456D01*
X118962052Y-83328170D01*
X118962051Y-83328169D01*
X118962051Y-83328165D01*
X118937328Y-83268477D01*
X118886635Y-83146092D01*
X118886628Y-83146079D01*
X118777139Y-82982218D01*
X118777136Y-82982214D01*
X118637785Y-82842863D01*
X118637781Y-82842860D01*
X118473920Y-82733371D01*
X118473907Y-82733364D01*
X118291839Y-82657950D01*
X118291829Y-82657947D01*
X118098543Y-82619500D01*
X118098541Y-82619500D01*
X117901459Y-82619500D01*
X117901457Y-82619500D01*
X117708170Y-82657947D01*
X117708160Y-82657950D01*
X117526092Y-82733364D01*
X117526079Y-82733371D01*
X117362218Y-82842860D01*
X117362214Y-82842863D01*
X117222863Y-82982214D01*
X117222860Y-82982218D01*
X117113371Y-83146079D01*
X117113364Y-83146092D01*
X117037950Y-83328160D01*
X117037947Y-83328170D01*
X116999500Y-83521456D01*
X116999500Y-83521459D01*
X116999500Y-83718541D01*
X116999500Y-83718543D01*
X116999499Y-83718543D01*
X87853900Y-83718543D01*
X87853900Y-82992447D01*
X87873585Y-82925408D01*
X87926389Y-82879653D01*
X87995547Y-82869709D01*
X88059103Y-82898734D01*
X88065581Y-82904766D01*
X88152786Y-82991971D01*
X88296197Y-83096163D01*
X88318390Y-83112287D01*
X88411129Y-83159540D01*
X88500776Y-83205218D01*
X88500778Y-83205218D01*
X88500781Y-83205220D01*
X88568361Y-83227178D01*
X88695465Y-83268477D01*
X88754486Y-83277825D01*
X88897648Y-83300500D01*
X88897649Y-83300500D01*
X89102351Y-83300500D01*
X89102352Y-83300500D01*
X89304534Y-83268477D01*
X89499219Y-83205220D01*
X89681610Y-83112287D01*
X89805140Y-83022538D01*
X89847213Y-82991971D01*
X89847215Y-82991968D01*
X89847219Y-82991966D01*
X89991966Y-82847219D01*
X89991968Y-82847215D01*
X89991971Y-82847213D01*
X90070610Y-82738974D01*
X90112287Y-82681610D01*
X90205220Y-82499219D01*
X90268477Y-82304534D01*
X90300500Y-82102352D01*
X90300500Y-81897648D01*
X90268477Y-81695466D01*
X90268004Y-81694011D01*
X90215138Y-81531306D01*
X90205220Y-81500781D01*
X90205218Y-81500778D01*
X90205218Y-81500776D01*
X90171503Y-81434607D01*
X90112287Y-81318390D01*
X90104556Y-81307749D01*
X89991971Y-81152786D01*
X89847213Y-81008028D01*
X89681614Y-80887715D01*
X89675006Y-80884348D01*
X89588917Y-80840483D01*
X89538123Y-80792511D01*
X89521328Y-80724690D01*
X89543865Y-80658555D01*
X89588917Y-80619516D01*
X89681610Y-80572287D01*
X89715958Y-80547332D01*
X89847213Y-80451971D01*
X89847215Y-80451968D01*
X89847219Y-80451966D01*
X89991966Y-80307219D01*
X89991968Y-80307215D01*
X89991971Y-80307213D01*
X90044732Y-80234590D01*
X90112287Y-80141610D01*
X90205220Y-79959219D01*
X90268477Y-79764534D01*
X90300500Y-79562352D01*
X90300500Y-79357648D01*
X90268477Y-79155466D01*
X90205220Y-78960781D01*
X90205218Y-78960778D01*
X90205218Y-78960776D01*
X90171503Y-78894607D01*
X90112287Y-78778390D01*
X90104556Y-78767749D01*
X89991971Y-78612786D01*
X89847213Y-78468028D01*
X89681613Y-78347715D01*
X89681612Y-78347714D01*
X89681610Y-78347713D01*
X89624653Y-78318691D01*
X89499223Y-78254781D01*
X89304534Y-78191522D01*
X89129995Y-78163878D01*
X89102352Y-78159500D01*
X88897648Y-78159500D01*
X88873329Y-78163351D01*
X88695465Y-78191522D01*
X88500776Y-78254781D01*
X88318386Y-78347715D01*
X88152786Y-78468028D01*
X88152782Y-78468032D01*
X88065581Y-78555234D01*
X88004258Y-78588719D01*
X87934566Y-78583735D01*
X87878633Y-78541863D01*
X87854216Y-78476399D01*
X87853900Y-78467553D01*
X87853900Y-76098543D01*
X119539499Y-76098543D01*
X119577947Y-76291829D01*
X119577950Y-76291839D01*
X119653364Y-76473907D01*
X119653371Y-76473920D01*
X119762860Y-76637781D01*
X119762863Y-76637785D01*
X119902214Y-76777136D01*
X119902218Y-76777139D01*
X120066079Y-76886628D01*
X120066092Y-76886635D01*
X120225814Y-76952793D01*
X120248165Y-76962051D01*
X120248169Y-76962051D01*
X120248170Y-76962052D01*
X120441456Y-77000500D01*
X120441459Y-77000500D01*
X120638543Y-77000500D01*
X120768582Y-76974632D01*
X120831835Y-76962051D01*
X121013914Y-76886632D01*
X121177782Y-76777139D01*
X121317139Y-76637782D01*
X121426632Y-76473914D01*
X121502051Y-76291835D01*
X121540500Y-76098543D01*
X122079499Y-76098543D01*
X122117947Y-76291829D01*
X122117950Y-76291839D01*
X122193364Y-76473907D01*
X122193371Y-76473920D01*
X122302860Y-76637781D01*
X122302863Y-76637785D01*
X122442214Y-76777136D01*
X122442218Y-76777139D01*
X122606079Y-76886628D01*
X122606092Y-76886635D01*
X122765814Y-76952793D01*
X122788165Y-76962051D01*
X122788169Y-76962051D01*
X122788170Y-76962052D01*
X122981456Y-77000500D01*
X122981459Y-77000500D01*
X123178543Y-77000500D01*
X123308582Y-76974632D01*
X123371835Y-76962051D01*
X123553914Y-76886632D01*
X123717782Y-76777139D01*
X123857139Y-76637782D01*
X123966632Y-76473914D01*
X124042051Y-76291835D01*
X124080500Y-76098541D01*
X124080500Y-75901459D01*
X124080500Y-75901456D01*
X124042052Y-75708170D01*
X124042051Y-75708169D01*
X124042051Y-75708165D01*
X124031765Y-75683333D01*
X123966635Y-75526092D01*
X123966628Y-75526079D01*
X123857139Y-75362218D01*
X123857136Y-75362214D01*
X123717785Y-75222863D01*
X123717781Y-75222860D01*
X123553920Y-75113371D01*
X123553907Y-75113364D01*
X123371839Y-75037950D01*
X123371829Y-75037947D01*
X123178543Y-74999500D01*
X123178541Y-74999500D01*
X122981459Y-74999500D01*
X122981457Y-74999500D01*
X122788170Y-75037947D01*
X122788160Y-75037950D01*
X122606092Y-75113364D01*
X122606079Y-75113371D01*
X122442218Y-75222860D01*
X122442214Y-75222863D01*
X122302863Y-75362214D01*
X122302860Y-75362218D01*
X122193371Y-75526079D01*
X122193364Y-75526092D01*
X122117950Y-75708160D01*
X122117947Y-75708170D01*
X122079500Y-75901456D01*
X122079500Y-75901459D01*
X122079500Y-76098541D01*
X122079500Y-76098543D01*
X122079499Y-76098543D01*
X121540500Y-76098543D01*
X121540500Y-76098541D01*
X121540500Y-75901459D01*
X121540500Y-75901456D01*
X121502052Y-75708170D01*
X121502051Y-75708169D01*
X121502051Y-75708165D01*
X121491765Y-75683333D01*
X121426635Y-75526092D01*
X121426628Y-75526079D01*
X121317139Y-75362218D01*
X121317136Y-75362214D01*
X121177785Y-75222863D01*
X121177781Y-75222860D01*
X121013920Y-75113371D01*
X121013907Y-75113364D01*
X120831839Y-75037950D01*
X120831829Y-75037947D01*
X120638543Y-74999500D01*
X120638541Y-74999500D01*
X120441459Y-74999500D01*
X120441457Y-74999500D01*
X120248170Y-75037947D01*
X120248160Y-75037950D01*
X120066092Y-75113364D01*
X120066079Y-75113371D01*
X119902218Y-75222860D01*
X119902214Y-75222863D01*
X119762863Y-75362214D01*
X119762860Y-75362218D01*
X119653371Y-75526079D01*
X119653364Y-75526092D01*
X119577950Y-75708160D01*
X119577947Y-75708170D01*
X119539500Y-75901456D01*
X119539500Y-75901459D01*
X119539500Y-76098541D01*
X119539500Y-76098543D01*
X119539499Y-76098543D01*
X87853900Y-76098543D01*
X87853900Y-76002432D01*
X87862544Y-75972991D01*
X87869068Y-75943005D01*
X87872822Y-75937989D01*
X87873585Y-75935393D01*
X87890215Y-75914755D01*
X88088152Y-75716817D01*
X88149475Y-75683333D01*
X88175833Y-75680499D01*
X89904260Y-75680499D01*
X89904266Y-75680499D01*
X89934700Y-75677646D01*
X90062883Y-75632793D01*
X90172150Y-75552150D01*
X90252793Y-75442883D01*
X90275219Y-75378791D01*
X90297646Y-75314702D01*
X90297646Y-75314700D01*
X90299789Y-75291847D01*
X90300500Y-75284267D01*
X90300499Y-73555831D01*
X90320184Y-73488793D01*
X90336813Y-73468156D01*
X93850060Y-69954911D01*
X93865871Y-69927525D01*
X93889621Y-69886389D01*
X93910100Y-69809962D01*
X93910100Y-59779132D01*
X93929785Y-59712093D01*
X93946414Y-59691455D01*
X94837819Y-58800050D01*
X94899142Y-58766566D01*
X94968834Y-58771550D01*
X95024767Y-58813422D01*
X95049184Y-58878886D01*
X95049500Y-58887732D01*
X95049500Y-60657118D01*
X95052249Y-60703263D01*
X95052249Y-60703267D01*
X95052250Y-60703268D01*
X95095907Y-60903961D01*
X95095909Y-60903968D01*
X95176760Y-61092771D01*
X95176763Y-61092777D01*
X95176766Y-61092781D01*
X95291882Y-61262868D01*
X95291890Y-61262877D01*
X95437122Y-61408109D01*
X95437131Y-61408117D01*
X95536988Y-61475701D01*
X95607223Y-61523237D01*
X95607228Y-61523239D01*
X95796031Y-61604090D01*
X95796038Y-61604092D01*
X95862935Y-61618644D01*
X95996737Y-61647751D01*
X96042882Y-61650500D01*
X96042893Y-61650500D01*
X97957107Y-61650500D01*
X97957118Y-61650500D01*
X98003263Y-61647751D01*
X98178954Y-61609531D01*
X98203961Y-61604092D01*
X98203968Y-61604090D01*
X98266902Y-61577139D01*
X98392777Y-61523237D01*
X98562875Y-61408112D01*
X98708112Y-61262875D01*
X98823237Y-61092777D01*
X98904091Y-60903965D01*
X98947751Y-60703263D01*
X98950500Y-60657118D01*
X98950500Y-58742882D01*
X98947751Y-58696737D01*
X98916859Y-58554730D01*
X98904092Y-58496038D01*
X98904090Y-58496031D01*
X98823239Y-58307228D01*
X98823237Y-58307223D01*
X98715623Y-58148222D01*
X98708117Y-58137131D01*
X98708109Y-58137122D01*
X98562877Y-57991890D01*
X98562868Y-57991882D01*
X98392781Y-57876766D01*
X98392777Y-57876763D01*
X98392773Y-57876761D01*
X98392771Y-57876760D01*
X98203968Y-57795909D01*
X98203961Y-57795907D01*
X98003268Y-57752250D01*
X98003267Y-57752249D01*
X98003263Y-57752249D01*
X97957118Y-57749500D01*
X96187732Y-57749500D01*
X96120693Y-57729815D01*
X96074938Y-57677011D01*
X96064994Y-57607853D01*
X96094019Y-57544297D01*
X96100051Y-57537819D01*
X96933117Y-56704754D01*
X97837819Y-55800052D01*
X97899142Y-55766567D01*
X97968834Y-55771551D01*
X98024767Y-55813423D01*
X98049184Y-55878887D01*
X98049500Y-55887733D01*
X98049500Y-56769752D01*
X98061131Y-56828229D01*
X98061132Y-56828230D01*
X98105447Y-56894552D01*
X98171769Y-56938867D01*
X98171770Y-56938868D01*
X98230247Y-56950499D01*
X98230250Y-56950500D01*
X98230252Y-56950500D01*
X99575500Y-56950500D01*
X99642539Y-56970185D01*
X99688294Y-57022989D01*
X99699500Y-57074500D01*
X99699500Y-68243762D01*
X99719979Y-68320189D01*
X99756504Y-68383453D01*
X99756506Y-68383456D01*
X99756505Y-68383456D01*
X99756507Y-68383459D01*
X99759540Y-68388711D01*
X101505340Y-70134511D01*
X101561289Y-70190460D01*
X101561291Y-70190461D01*
X101561295Y-70190464D01*
X101599439Y-70212486D01*
X101629811Y-70230021D01*
X101706238Y-70250500D01*
X101723000Y-70250500D01*
X101790039Y-70270185D01*
X101835794Y-70322989D01*
X101847000Y-70374500D01*
X101847000Y-70969752D01*
X101858631Y-71028229D01*
X101858632Y-71028230D01*
X101902947Y-71094552D01*
X101969269Y-71138867D01*
X101969270Y-71138868D01*
X102027747Y-71150499D01*
X102027750Y-71150500D01*
X102027752Y-71150500D01*
X103972250Y-71150500D01*
X103972251Y-71150499D01*
X103987068Y-71147552D01*
X104030729Y-71138868D01*
X104030729Y-71138867D01*
X104030731Y-71138867D01*
X104097052Y-71094552D01*
X104141367Y-71028231D01*
X104141367Y-71028229D01*
X104141368Y-71028229D01*
X104151477Y-70977403D01*
X104153000Y-70969748D01*
X104153000Y-69811757D01*
X106927000Y-69811757D01*
X106927000Y-70088242D01*
X106955391Y-70267496D01*
X106955391Y-70267499D01*
X107011471Y-70440095D01*
X107048609Y-70512982D01*
X107093866Y-70601804D01*
X107200541Y-70748629D01*
X107328871Y-70876959D01*
X107475696Y-70983634D01*
X107563219Y-71028229D01*
X107637404Y-71066028D01*
X107810001Y-71122108D01*
X107810002Y-71122108D01*
X107810005Y-71122109D01*
X107989257Y-71150500D01*
X107989258Y-71150500D01*
X108170742Y-71150500D01*
X108170743Y-71150500D01*
X108349995Y-71122109D01*
X108349998Y-71122108D01*
X108349999Y-71122108D01*
X108522595Y-71066028D01*
X108522595Y-71066027D01*
X108522598Y-71066027D01*
X108684304Y-70983634D01*
X108831129Y-70876959D01*
X108831131Y-70876956D01*
X108835070Y-70874095D01*
X108836110Y-70875527D01*
X108892910Y-70850065D01*
X108961997Y-70860491D01*
X109014481Y-70906613D01*
X109033700Y-70972923D01*
X109033700Y-73727062D01*
X109043607Y-73764034D01*
X109054179Y-73803490D01*
X109054182Y-73803495D01*
X109093735Y-73872004D01*
X109093741Y-73872012D01*
X109646721Y-74424992D01*
X109680206Y-74486315D01*
X109680657Y-74536864D01*
X109666800Y-74606526D01*
X109666800Y-74606531D01*
X109666800Y-74734669D01*
X109666800Y-74734671D01*
X109666799Y-74734671D01*
X109691797Y-74860338D01*
X109691799Y-74860344D01*
X109740833Y-74978724D01*
X109740838Y-74978733D01*
X109812023Y-75085268D01*
X109812026Y-75085272D01*
X109902627Y-75175873D01*
X109902631Y-75175876D01*
X110009166Y-75247061D01*
X110009172Y-75247064D01*
X110009173Y-75247065D01*
X110127556Y-75296101D01*
X110127560Y-75296101D01*
X110127561Y-75296102D01*
X110253228Y-75321100D01*
X110253231Y-75321100D01*
X110381371Y-75321100D01*
X110485879Y-75300311D01*
X110507044Y-75296101D01*
X110625427Y-75247065D01*
X110731969Y-75175876D01*
X110822576Y-75085269D01*
X110893765Y-74978727D01*
X110942801Y-74860344D01*
X110958986Y-74778981D01*
X110967800Y-74734671D01*
X110967800Y-74606528D01*
X110942802Y-74480861D01*
X110942801Y-74480860D01*
X110942801Y-74480856D01*
X110893765Y-74362473D01*
X110893764Y-74362472D01*
X110893761Y-74362466D01*
X110822576Y-74255931D01*
X110822573Y-74255927D01*
X110731972Y-74165326D01*
X110731968Y-74165323D01*
X110625433Y-74094138D01*
X110625424Y-74094133D01*
X110507044Y-74045099D01*
X110507038Y-74045097D01*
X110381371Y-74020100D01*
X110381369Y-74020100D01*
X110253231Y-74020100D01*
X110253228Y-74020100D01*
X110183564Y-74033957D01*
X110113973Y-74027730D01*
X110071692Y-74000021D01*
X109671019Y-73599348D01*
X109637534Y-73538025D01*
X109634700Y-73511667D01*
X109634700Y-71718543D01*
X117139499Y-71718543D01*
X117177947Y-71911829D01*
X117177950Y-71911839D01*
X117253364Y-72093907D01*
X117253371Y-72093920D01*
X117362860Y-72257781D01*
X117362863Y-72257785D01*
X117502214Y-72397136D01*
X117502218Y-72397139D01*
X117666079Y-72506628D01*
X117666092Y-72506635D01*
X117760516Y-72545746D01*
X117848165Y-72582051D01*
X117848169Y-72582051D01*
X117848170Y-72582052D01*
X118041456Y-72620500D01*
X118041459Y-72620500D01*
X118238543Y-72620500D01*
X118368582Y-72594632D01*
X118431835Y-72582051D01*
X118613914Y-72506632D01*
X118777782Y-72397139D01*
X118917139Y-72257782D01*
X119026632Y-72093914D01*
X119102051Y-71911835D01*
X119140500Y-71718543D01*
X119679499Y-71718543D01*
X119717947Y-71911829D01*
X119717950Y-71911839D01*
X119793364Y-72093907D01*
X119793371Y-72093920D01*
X119902860Y-72257781D01*
X119902863Y-72257785D01*
X120042214Y-72397136D01*
X120042218Y-72397139D01*
X120206079Y-72506628D01*
X120206092Y-72506635D01*
X120300516Y-72545746D01*
X120388165Y-72582051D01*
X120388169Y-72582051D01*
X120388170Y-72582052D01*
X120581456Y-72620500D01*
X120581459Y-72620500D01*
X120778543Y-72620500D01*
X120908582Y-72594632D01*
X120971835Y-72582051D01*
X121153914Y-72506632D01*
X121317782Y-72397139D01*
X121457139Y-72257782D01*
X121566632Y-72093914D01*
X121642051Y-71911835D01*
X121680500Y-71718543D01*
X122219499Y-71718543D01*
X122257947Y-71911829D01*
X122257950Y-71911839D01*
X122333364Y-72093907D01*
X122333371Y-72093920D01*
X122442860Y-72257781D01*
X122442863Y-72257785D01*
X122582214Y-72397136D01*
X122582218Y-72397139D01*
X122746079Y-72506628D01*
X122746092Y-72506635D01*
X122840516Y-72545746D01*
X122928165Y-72582051D01*
X122928169Y-72582051D01*
X122928170Y-72582052D01*
X123121456Y-72620500D01*
X123121459Y-72620500D01*
X123318543Y-72620500D01*
X123448582Y-72594632D01*
X123511835Y-72582051D01*
X123693914Y-72506632D01*
X123857782Y-72397139D01*
X123997139Y-72257782D01*
X124106632Y-72093914D01*
X124182051Y-71911835D01*
X124220500Y-71718541D01*
X124220500Y-71521459D01*
X124220500Y-71521456D01*
X124182052Y-71328170D01*
X124182051Y-71328169D01*
X124182051Y-71328165D01*
X124182049Y-71328160D01*
X124106635Y-71146092D01*
X124106628Y-71146079D01*
X123997139Y-70982218D01*
X123997136Y-70982214D01*
X123857785Y-70842863D01*
X123857781Y-70842860D01*
X123693920Y-70733371D01*
X123693907Y-70733364D01*
X123511839Y-70657950D01*
X123511829Y-70657947D01*
X123318543Y-70619500D01*
X123318541Y-70619500D01*
X123121459Y-70619500D01*
X123121457Y-70619500D01*
X122928170Y-70657947D01*
X122928160Y-70657950D01*
X122746092Y-70733364D01*
X122746079Y-70733371D01*
X122582218Y-70842860D01*
X122582214Y-70842863D01*
X122442863Y-70982214D01*
X122442860Y-70982218D01*
X122333371Y-71146079D01*
X122333364Y-71146092D01*
X122257950Y-71328160D01*
X122257947Y-71328170D01*
X122219500Y-71521456D01*
X122219500Y-71521459D01*
X122219500Y-71718541D01*
X122219500Y-71718543D01*
X122219499Y-71718543D01*
X121680500Y-71718543D01*
X121680500Y-71718541D01*
X121680500Y-71521459D01*
X121680500Y-71521456D01*
X121642052Y-71328170D01*
X121642051Y-71328169D01*
X121642051Y-71328165D01*
X121642049Y-71328160D01*
X121566635Y-71146092D01*
X121566628Y-71146079D01*
X121457139Y-70982218D01*
X121457136Y-70982214D01*
X121317785Y-70842863D01*
X121317781Y-70842860D01*
X121153920Y-70733371D01*
X121153907Y-70733364D01*
X120971839Y-70657950D01*
X120971829Y-70657947D01*
X120778543Y-70619500D01*
X120778541Y-70619500D01*
X120581459Y-70619500D01*
X120581457Y-70619500D01*
X120388170Y-70657947D01*
X120388160Y-70657950D01*
X120206092Y-70733364D01*
X120206079Y-70733371D01*
X120042218Y-70842860D01*
X120042214Y-70842863D01*
X119902863Y-70982214D01*
X119902860Y-70982218D01*
X119793371Y-71146079D01*
X119793364Y-71146092D01*
X119717950Y-71328160D01*
X119717947Y-71328170D01*
X119679500Y-71521456D01*
X119679500Y-71521459D01*
X119679500Y-71718541D01*
X119679500Y-71718543D01*
X119679499Y-71718543D01*
X119140500Y-71718543D01*
X119140500Y-71718541D01*
X119140500Y-71521459D01*
X119140500Y-71521456D01*
X119102052Y-71328170D01*
X119102051Y-71328169D01*
X119102051Y-71328165D01*
X119102049Y-71328160D01*
X119026635Y-71146092D01*
X119026628Y-71146079D01*
X118917139Y-70982218D01*
X118917136Y-70982214D01*
X118777785Y-70842863D01*
X118777781Y-70842860D01*
X118613920Y-70733371D01*
X118613907Y-70733364D01*
X118431839Y-70657950D01*
X118431829Y-70657947D01*
X118238543Y-70619500D01*
X118238541Y-70619500D01*
X118041459Y-70619500D01*
X118041457Y-70619500D01*
X117848170Y-70657947D01*
X117848160Y-70657950D01*
X117666092Y-70733364D01*
X117666079Y-70733371D01*
X117502218Y-70842860D01*
X117502214Y-70842863D01*
X117362863Y-70982214D01*
X117362860Y-70982218D01*
X117253371Y-71146079D01*
X117253364Y-71146092D01*
X117177950Y-71328160D01*
X117177947Y-71328170D01*
X117139500Y-71521456D01*
X117139500Y-71521459D01*
X117139500Y-71718541D01*
X117139500Y-71718543D01*
X117139499Y-71718543D01*
X109634700Y-71718543D01*
X109634700Y-69910439D01*
X109631552Y-69898691D01*
X109614221Y-69834011D01*
X109601373Y-69811757D01*
X109574664Y-69765495D01*
X109574658Y-69765487D01*
X109518712Y-69709541D01*
X109518704Y-69709535D01*
X109450195Y-69669982D01*
X109450190Y-69669979D01*
X109420367Y-69661988D01*
X109373762Y-69649500D01*
X109373760Y-69649500D01*
X109300222Y-69649500D01*
X109233183Y-69629815D01*
X109187428Y-69577011D01*
X109182291Y-69563817D01*
X109148529Y-69459906D01*
X109128851Y-69421286D01*
X109066134Y-69298196D01*
X108959459Y-69151371D01*
X108831129Y-69023041D01*
X108684304Y-68916366D01*
X108607886Y-68877429D01*
X108522595Y-68833971D01*
X108349998Y-68777891D01*
X108215556Y-68756597D01*
X108170743Y-68749500D01*
X107989257Y-68749500D01*
X107929506Y-68758963D01*
X107810003Y-68777891D01*
X107810000Y-68777891D01*
X107637404Y-68833971D01*
X107475695Y-68916366D01*
X107401322Y-68970402D01*
X107328871Y-69023041D01*
X107328869Y-69023043D01*
X107328868Y-69023043D01*
X107200543Y-69151368D01*
X107200543Y-69151369D01*
X107200541Y-69151371D01*
X107154728Y-69214426D01*
X107093866Y-69298195D01*
X107011471Y-69459904D01*
X106955391Y-69632500D01*
X106955391Y-69632503D01*
X106927000Y-69811757D01*
X104153000Y-69811757D01*
X104153000Y-68930252D01*
X104153000Y-68930249D01*
X104152999Y-68930247D01*
X104141368Y-68871770D01*
X104141367Y-68871769D01*
X104097052Y-68805447D01*
X104030730Y-68761132D01*
X104030729Y-68761131D01*
X103972252Y-68749500D01*
X103972248Y-68749500D01*
X102027752Y-68749500D01*
X102027747Y-68749500D01*
X101969270Y-68761131D01*
X101969269Y-68761132D01*
X101902947Y-68805447D01*
X101858632Y-68871769D01*
X101858631Y-68871770D01*
X101847000Y-68930247D01*
X101847000Y-69326867D01*
X101827315Y-69393906D01*
X101774511Y-69439661D01*
X101705353Y-69449605D01*
X101641797Y-69420580D01*
X101635319Y-69414548D01*
X100336819Y-68116048D01*
X100303334Y-68054725D01*
X100300500Y-68028367D01*
X100300500Y-64098543D01*
X119679499Y-64098543D01*
X119717947Y-64291829D01*
X119717950Y-64291839D01*
X119793364Y-64473907D01*
X119793371Y-64473920D01*
X119902860Y-64637781D01*
X119902863Y-64637785D01*
X120042214Y-64777136D01*
X120042218Y-64777139D01*
X120206079Y-64886628D01*
X120206092Y-64886635D01*
X120365814Y-64952793D01*
X120388165Y-64962051D01*
X120388169Y-64962051D01*
X120388170Y-64962052D01*
X120581456Y-65000500D01*
X120581459Y-65000500D01*
X120778543Y-65000500D01*
X120908582Y-64974632D01*
X120971835Y-64962051D01*
X121153914Y-64886632D01*
X121317782Y-64777139D01*
X121457139Y-64637782D01*
X121566632Y-64473914D01*
X121642051Y-64291835D01*
X121654632Y-64228582D01*
X121680500Y-64098543D01*
X121680500Y-63901456D01*
X121642052Y-63708170D01*
X121642051Y-63708169D01*
X121642051Y-63708165D01*
X121625086Y-63667207D01*
X121566635Y-63526092D01*
X121566628Y-63526079D01*
X121457139Y-63362218D01*
X121457136Y-63362214D01*
X121317785Y-63222863D01*
X121317781Y-63222860D01*
X121153920Y-63113371D01*
X121153907Y-63113364D01*
X120971839Y-63037950D01*
X120971829Y-63037947D01*
X120778543Y-62999500D01*
X120778541Y-62999500D01*
X120581459Y-62999500D01*
X120581457Y-62999500D01*
X120388170Y-63037947D01*
X120388160Y-63037950D01*
X120206092Y-63113364D01*
X120206079Y-63113371D01*
X120042218Y-63222860D01*
X120042214Y-63222863D01*
X119902863Y-63362214D01*
X119902860Y-63362218D01*
X119793371Y-63526079D01*
X119793364Y-63526092D01*
X119717950Y-63708160D01*
X119717947Y-63708170D01*
X119679500Y-63901456D01*
X119679500Y-63901459D01*
X119679500Y-64098541D01*
X119679500Y-64098543D01*
X119679499Y-64098543D01*
X100300500Y-64098543D01*
X100300500Y-57074500D01*
X100320185Y-57007461D01*
X100372989Y-56961706D01*
X100424500Y-56950500D01*
X101769750Y-56950500D01*
X101769751Y-56950499D01*
X101784568Y-56947552D01*
X101828229Y-56938868D01*
X101828229Y-56938867D01*
X101828231Y-56938867D01*
X101894552Y-56894552D01*
X101938867Y-56828231D01*
X101938867Y-56828229D01*
X101938868Y-56828229D01*
X101948650Y-56779048D01*
X101950500Y-56769748D01*
X101950500Y-53230252D01*
X101950500Y-53230249D01*
X101950499Y-53230247D01*
X101938868Y-53171770D01*
X101938867Y-53171769D01*
X101894552Y-53105447D01*
X101828230Y-53061132D01*
X101828229Y-53061131D01*
X101769752Y-53049500D01*
X101769748Y-53049500D01*
X98665233Y-53049500D01*
X98598194Y-53029815D01*
X98552439Y-52977011D01*
X98542495Y-52907853D01*
X98571520Y-52844297D01*
X98577552Y-52837819D01*
X101156852Y-50258519D01*
X101218175Y-50225034D01*
X101244533Y-50222200D01*
X106106160Y-50222200D01*
X106106162Y-50222200D01*
X106182589Y-50201721D01*
X106251111Y-50162160D01*
X106307060Y-50106211D01*
X107107819Y-49305452D01*
X107169142Y-49271967D01*
X107238834Y-49276951D01*
X107294767Y-49318823D01*
X107319184Y-49384287D01*
X107319500Y-49393133D01*
X107319500Y-49639752D01*
X107331131Y-49698229D01*
X107331132Y-49698230D01*
X107375447Y-49764552D01*
X107441769Y-49808867D01*
X107441770Y-49808868D01*
X107500247Y-49820499D01*
X107500250Y-49820500D01*
X107500252Y-49820500D01*
X109239750Y-49820500D01*
X109239751Y-49820499D01*
X109254568Y-49817552D01*
X109298229Y-49808868D01*
X109298229Y-49808867D01*
X109298231Y-49808867D01*
X109364552Y-49764552D01*
X109408867Y-49698231D01*
X109408867Y-49698229D01*
X109408868Y-49698229D01*
X109420499Y-49639752D01*
X109420500Y-49639750D01*
X109420500Y-48666530D01*
X109859500Y-48666530D01*
X109859500Y-48873469D01*
X109899868Y-49076412D01*
X109899870Y-49076420D01*
X109979059Y-49267598D01*
X110004352Y-49305452D01*
X110094024Y-49439657D01*
X110240342Y-49585975D01*
X110240345Y-49585977D01*
X110412402Y-49700941D01*
X110603580Y-49780130D01*
X110748052Y-49808867D01*
X110806530Y-49820499D01*
X110806534Y-49820500D01*
X110806535Y-49820500D01*
X111013466Y-49820500D01*
X111013467Y-49820499D01*
X111216420Y-49780130D01*
X111407598Y-49700941D01*
X111579655Y-49585977D01*
X111725977Y-49439655D01*
X111840941Y-49267598D01*
X111920130Y-49076420D01*
X111960500Y-48873465D01*
X111960500Y-48666535D01*
X111960499Y-48666530D01*
X112399500Y-48666530D01*
X112399500Y-48873469D01*
X112439868Y-49076412D01*
X112439870Y-49076420D01*
X112519059Y-49267598D01*
X112544352Y-49305452D01*
X112634024Y-49439657D01*
X112780342Y-49585975D01*
X112780345Y-49585977D01*
X112952402Y-49700941D01*
X113007561Y-49723788D01*
X113061963Y-49767628D01*
X113084029Y-49833922D01*
X113067497Y-49900346D01*
X113056779Y-49918911D01*
X113045432Y-49961260D01*
X113036300Y-49995339D01*
X113036300Y-50218859D01*
X113016615Y-50285898D01*
X112981191Y-50321961D01*
X112922131Y-50361423D01*
X112922127Y-50361426D01*
X112831526Y-50452027D01*
X112831523Y-50452031D01*
X112760338Y-50558566D01*
X112760333Y-50558575D01*
X112711299Y-50676955D01*
X112711297Y-50676961D01*
X112686300Y-50802628D01*
X112686300Y-50802631D01*
X112686300Y-50930769D01*
X112686300Y-50930771D01*
X112686299Y-50930771D01*
X112711297Y-51056438D01*
X112711299Y-51056444D01*
X112760333Y-51174824D01*
X112760338Y-51174833D01*
X112831523Y-51281368D01*
X112831526Y-51281372D01*
X112922127Y-51371973D01*
X112922131Y-51371976D01*
X113028666Y-51443161D01*
X113028672Y-51443164D01*
X113028673Y-51443165D01*
X113147056Y-51492201D01*
X113147060Y-51492201D01*
X113147061Y-51492202D01*
X113272728Y-51517200D01*
X113272731Y-51517200D01*
X113400871Y-51517200D01*
X113485415Y-51500382D01*
X113526544Y-51492201D01*
X113644927Y-51443165D01*
X113751469Y-51371976D01*
X113842076Y-51281369D01*
X113913265Y-51174827D01*
X113962301Y-51056444D01*
X113987300Y-50930769D01*
X113987300Y-50802631D01*
X113987300Y-50802628D01*
X113962302Y-50676961D01*
X113962301Y-50676960D01*
X113962301Y-50676956D01*
X113913265Y-50558573D01*
X113913264Y-50558572D01*
X113913261Y-50558566D01*
X113842076Y-50452031D01*
X113842073Y-50452027D01*
X113751472Y-50361426D01*
X113751468Y-50361423D01*
X113692409Y-50321961D01*
X113687318Y-50315869D01*
X113680097Y-50312572D01*
X113665233Y-50289444D01*
X113647604Y-50268349D01*
X113645652Y-50258974D01*
X113642323Y-50253794D01*
X113637300Y-50218859D01*
X113637300Y-50210733D01*
X113656985Y-50143694D01*
X113673619Y-50123052D01*
X113690460Y-50106211D01*
X113708790Y-50074462D01*
X113730021Y-50037689D01*
X113750500Y-49961262D01*
X113750500Y-49865435D01*
X113770185Y-49798396D01*
X113822989Y-49752641D01*
X113827012Y-49750889D01*
X113947598Y-49700941D01*
X114119655Y-49585977D01*
X114265977Y-49439655D01*
X114380941Y-49267598D01*
X114460130Y-49076420D01*
X114500500Y-48873465D01*
X114500500Y-48666535D01*
X114460130Y-48463580D01*
X114380941Y-48272402D01*
X114265977Y-48100345D01*
X114265975Y-48100342D01*
X114119657Y-47954024D01*
X113951655Y-47841770D01*
X113947598Y-47839059D01*
X113756420Y-47759870D01*
X113756412Y-47759868D01*
X113553469Y-47719500D01*
X113553465Y-47719500D01*
X113346535Y-47719500D01*
X113346530Y-47719500D01*
X113143587Y-47759868D01*
X113143579Y-47759870D01*
X112952403Y-47839058D01*
X112780342Y-47954024D01*
X112634024Y-48100342D01*
X112519058Y-48272403D01*
X112439870Y-48463579D01*
X112439868Y-48463587D01*
X112399500Y-48666530D01*
X111960499Y-48666530D01*
X111920130Y-48463580D01*
X111840941Y-48272402D01*
X111725977Y-48100345D01*
X111725975Y-48100342D01*
X111579657Y-47954024D01*
X111411655Y-47841770D01*
X111407598Y-47839059D01*
X111216420Y-47759870D01*
X111216412Y-47759868D01*
X111013469Y-47719500D01*
X111013465Y-47719500D01*
X110806535Y-47719500D01*
X110806530Y-47719500D01*
X110603587Y-47759868D01*
X110603579Y-47759870D01*
X110412403Y-47839058D01*
X110240342Y-47954024D01*
X110094024Y-48100342D01*
X109979058Y-48272403D01*
X109899870Y-48463579D01*
X109899868Y-48463587D01*
X109859500Y-48666530D01*
X109420500Y-48666530D01*
X109420500Y-47900249D01*
X109420499Y-47900247D01*
X109408868Y-47841770D01*
X109408867Y-47841769D01*
X109364552Y-47775447D01*
X109298230Y-47731132D01*
X109298229Y-47731131D01*
X109239752Y-47719500D01*
X109239748Y-47719500D01*
X107500252Y-47719500D01*
X107500247Y-47719500D01*
X107441770Y-47731131D01*
X107441769Y-47731132D01*
X107375447Y-47775447D01*
X107331132Y-47841769D01*
X107331131Y-47841770D01*
X107319500Y-47900247D01*
X107319500Y-48345500D01*
X107299815Y-48412539D01*
X107247011Y-48458294D01*
X107195500Y-48469500D01*
X107178738Y-48469500D01*
X107102310Y-48489978D01*
X107033789Y-48529540D01*
X107033786Y-48529542D01*
X105978448Y-49584881D01*
X105917125Y-49618366D01*
X105890767Y-49621200D01*
X101029138Y-49621200D01*
X100997711Y-49629621D01*
X100952709Y-49641679D01*
X100952704Y-49641682D01*
X100884195Y-49681235D01*
X100884187Y-49681241D01*
X97460941Y-53104487D01*
X97460935Y-53104495D01*
X97421382Y-53173004D01*
X97421379Y-53173009D01*
X97411762Y-53208900D01*
X97400901Y-53249437D01*
X97400900Y-53249439D01*
X97400900Y-55335667D01*
X97381215Y-55402706D01*
X97364581Y-55423348D01*
X96746381Y-56041548D01*
X96685058Y-56075033D01*
X96615366Y-56070049D01*
X96559433Y-56028177D01*
X96535016Y-55962713D01*
X96534700Y-55953867D01*
X96534700Y-52560533D01*
X96554385Y-52493494D01*
X96571019Y-52472852D01*
X99263742Y-49780129D01*
X101973792Y-47070078D01*
X102035113Y-47036595D01*
X102104805Y-47041579D01*
X102160738Y-47083451D01*
X102185155Y-47148915D01*
X102182700Y-47178815D01*
X102183516Y-47178945D01*
X102149500Y-47393713D01*
X102149500Y-47606286D01*
X102180260Y-47800500D01*
X102182754Y-47816243D01*
X102227678Y-47954505D01*
X102248444Y-48018414D01*
X102344951Y-48207820D01*
X102469890Y-48379786D01*
X102620213Y-48530109D01*
X102792179Y-48655048D01*
X102792181Y-48655049D01*
X102792184Y-48655051D01*
X102981588Y-48751557D01*
X103183757Y-48817246D01*
X103393713Y-48850500D01*
X103393714Y-48850500D01*
X103606286Y-48850500D01*
X103606287Y-48850500D01*
X103816243Y-48817246D01*
X104018412Y-48751557D01*
X104207816Y-48655051D01*
X104229789Y-48639086D01*
X104379786Y-48530109D01*
X104379788Y-48530106D01*
X104379792Y-48530104D01*
X104530104Y-48379792D01*
X104530106Y-48379788D01*
X104530109Y-48379786D01*
X104640307Y-48228109D01*
X104655051Y-48207816D01*
X104751557Y-48018412D01*
X104817246Y-47816243D01*
X104850500Y-47606287D01*
X104850500Y-47393713D01*
X104817246Y-47183757D01*
X104751557Y-46981588D01*
X104655051Y-46792184D01*
X104655049Y-46792181D01*
X104655048Y-46792179D01*
X104530109Y-46620213D01*
X104379786Y-46469890D01*
X104229934Y-46361018D01*
X104187268Y-46305689D01*
X104181289Y-46236075D01*
X104213894Y-46174280D01*
X104274733Y-46139923D01*
X104302819Y-46136700D01*
X106648667Y-46136700D01*
X106715706Y-46156385D01*
X106736348Y-46173019D01*
X106977840Y-46414511D01*
X107033789Y-46470460D01*
X107033791Y-46470461D01*
X107033795Y-46470464D01*
X107100685Y-46509082D01*
X107102311Y-46510021D01*
X107178738Y-46530500D01*
X107257862Y-46530500D01*
X107274564Y-46530500D01*
X107341603Y-46550185D01*
X107387358Y-46602989D01*
X107389121Y-46607039D01*
X107439059Y-46727598D01*
X107482210Y-46792179D01*
X107554024Y-46899657D01*
X107700342Y-47045975D01*
X107700345Y-47045977D01*
X107872402Y-47160941D01*
X108063580Y-47240130D01*
X108199792Y-47267224D01*
X108266530Y-47280499D01*
X108266534Y-47280500D01*
X108266535Y-47280500D01*
X108473466Y-47280500D01*
X108473467Y-47280499D01*
X108676420Y-47240130D01*
X108867598Y-47160941D01*
X109039655Y-47045977D01*
X109185977Y-46899655D01*
X109300941Y-46727598D01*
X109350875Y-46607046D01*
X109394716Y-46552644D01*
X109461010Y-46530579D01*
X109465436Y-46530500D01*
X109814564Y-46530500D01*
X109881603Y-46550185D01*
X109927358Y-46602989D01*
X109929121Y-46607039D01*
X109979059Y-46727598D01*
X110022210Y-46792179D01*
X110094024Y-46899657D01*
X110240342Y-47045975D01*
X110240345Y-47045977D01*
X110412402Y-47160941D01*
X110603580Y-47240130D01*
X110739792Y-47267224D01*
X110806530Y-47280499D01*
X110806534Y-47280500D01*
X110806535Y-47280500D01*
X111013466Y-47280500D01*
X111013467Y-47280499D01*
X111216420Y-47240130D01*
X111407598Y-47160941D01*
X111579655Y-47045977D01*
X111725977Y-46899655D01*
X111840941Y-46727598D01*
X111920130Y-46536420D01*
X111960500Y-46333465D01*
X111960500Y-46274300D01*
X111980185Y-46207261D01*
X112032989Y-46161506D01*
X112084500Y-46150300D01*
X112240960Y-46150300D01*
X112240962Y-46150300D01*
X112317389Y-46129821D01*
X112385911Y-46090260D01*
X112441860Y-46034311D01*
X113120252Y-45355919D01*
X113181575Y-45322434D01*
X113207933Y-45319600D01*
X115115405Y-45319600D01*
X115182444Y-45339285D01*
X115228199Y-45392089D01*
X115238143Y-45461247D01*
X115209118Y-45524803D01*
X115203086Y-45531281D01*
X115174025Y-45560341D01*
X115174024Y-45560342D01*
X115059058Y-45732403D01*
X114979870Y-45923579D01*
X114979868Y-45923587D01*
X114939500Y-46126530D01*
X114939500Y-46333469D01*
X114979868Y-46536412D01*
X114979870Y-46536420D01*
X115059059Y-46727598D01*
X115102210Y-46792179D01*
X115174024Y-46899657D01*
X115320342Y-47045975D01*
X115320345Y-47045977D01*
X115492402Y-47160941D01*
X115683580Y-47240130D01*
X115819792Y-47267224D01*
X115886530Y-47280499D01*
X115886534Y-47280500D01*
X115886535Y-47280500D01*
X116093466Y-47280500D01*
X116093467Y-47280499D01*
X116296420Y-47240130D01*
X116487598Y-47160941D01*
X116659655Y-47045977D01*
X116805977Y-46899655D01*
X116920941Y-46727598D01*
X117000130Y-46536420D01*
X117040500Y-46333465D01*
X117040500Y-46126535D01*
X117000130Y-45923580D01*
X116920941Y-45732402D01*
X116805977Y-45560345D01*
X116805975Y-45560342D01*
X116776914Y-45531281D01*
X116743429Y-45469958D01*
X116748413Y-45400266D01*
X116790285Y-45344333D01*
X116855749Y-45319916D01*
X116864595Y-45319600D01*
X117655405Y-45319600D01*
X117722444Y-45339285D01*
X117768199Y-45392089D01*
X117778143Y-45461247D01*
X117749118Y-45524803D01*
X117743086Y-45531281D01*
X117714025Y-45560341D01*
X117714024Y-45560342D01*
X117599058Y-45732403D01*
X117519870Y-45923579D01*
X117519868Y-45923587D01*
X117479500Y-46126530D01*
X117479500Y-46333469D01*
X117519868Y-46536412D01*
X117519870Y-46536420D01*
X117599059Y-46727598D01*
X117642210Y-46792179D01*
X117714024Y-46899657D01*
X117860342Y-47045975D01*
X117860345Y-47045977D01*
X118032402Y-47160941D01*
X118223580Y-47240130D01*
X118359792Y-47267224D01*
X118426530Y-47280499D01*
X118426534Y-47280500D01*
X118426535Y-47280500D01*
X118633466Y-47280500D01*
X118633467Y-47280499D01*
X118836420Y-47240130D01*
X119027598Y-47160941D01*
X119199655Y-47045977D01*
X119345977Y-46899655D01*
X119460941Y-46727598D01*
X119540130Y-46536420D01*
X119580500Y-46333465D01*
X119580500Y-46126535D01*
X119540130Y-45923580D01*
X119460941Y-45732402D01*
X119345977Y-45560345D01*
X119345975Y-45560342D01*
X119316914Y-45531281D01*
X119283429Y-45469958D01*
X119288413Y-45400266D01*
X119330285Y-45344333D01*
X119395749Y-45319916D01*
X119404595Y-45319600D01*
X120195405Y-45319600D01*
X120262444Y-45339285D01*
X120308199Y-45392089D01*
X120318143Y-45461247D01*
X120289118Y-45524803D01*
X120283086Y-45531281D01*
X120254025Y-45560341D01*
X120254024Y-45560342D01*
X120139058Y-45732403D01*
X120059870Y-45923579D01*
X120059868Y-45923587D01*
X120019500Y-46126530D01*
X120019500Y-46333469D01*
X120059868Y-46536412D01*
X120059870Y-46536420D01*
X120139059Y-46727598D01*
X120182210Y-46792179D01*
X120254024Y-46899657D01*
X120400342Y-47045975D01*
X120400345Y-47045977D01*
X120572402Y-47160941D01*
X120763580Y-47240130D01*
X120899792Y-47267224D01*
X120966530Y-47280499D01*
X120966534Y-47280500D01*
X120966535Y-47280500D01*
X121173466Y-47280500D01*
X121173467Y-47280499D01*
X121376420Y-47240130D01*
X121567598Y-47160941D01*
X121739655Y-47045977D01*
X121885977Y-46899655D01*
X122000941Y-46727598D01*
X122080130Y-46536420D01*
X122120500Y-46333465D01*
X122120500Y-46126535D01*
X122080130Y-45923580D01*
X122000941Y-45732402D01*
X121885977Y-45560345D01*
X121885975Y-45560342D01*
X121856914Y-45531281D01*
X121823429Y-45469958D01*
X121828413Y-45400266D01*
X121870285Y-45344333D01*
X121935749Y-45319916D01*
X121944595Y-45319600D01*
X125275405Y-45319600D01*
X125342444Y-45339285D01*
X125388199Y-45392089D01*
X125398143Y-45461247D01*
X125369118Y-45524803D01*
X125363086Y-45531281D01*
X125334025Y-45560341D01*
X125334024Y-45560342D01*
X125219058Y-45732403D01*
X125139870Y-45923579D01*
X125139868Y-45923587D01*
X125099500Y-46126530D01*
X125099500Y-46333469D01*
X125139868Y-46536412D01*
X125139870Y-46536420D01*
X125219059Y-46727598D01*
X125262210Y-46792179D01*
X125334024Y-46899657D01*
X125480342Y-47045975D01*
X125480345Y-47045977D01*
X125652402Y-47160941D01*
X125772953Y-47210875D01*
X125827356Y-47254714D01*
X125849421Y-47321008D01*
X125849500Y-47325435D01*
X125849500Y-47421262D01*
X125863152Y-47472213D01*
X125869979Y-47497690D01*
X125869982Y-47497695D01*
X125913603Y-47573250D01*
X125912107Y-47574113D01*
X125933754Y-47630100D01*
X125919717Y-47698546D01*
X125870904Y-47748536D01*
X125846193Y-47759076D01*
X125843590Y-47759865D01*
X125652403Y-47839058D01*
X125480342Y-47954024D01*
X125334024Y-48100342D01*
X125219058Y-48272403D01*
X125139870Y-48463579D01*
X125139868Y-48463587D01*
X125099500Y-48666530D01*
X125099500Y-48873469D01*
X125139868Y-49076412D01*
X125139870Y-49076420D01*
X125219059Y-49267598D01*
X125244352Y-49305452D01*
X125334024Y-49439657D01*
X125480342Y-49585975D01*
X125480345Y-49585977D01*
X125652402Y-49700941D01*
X125772953Y-49750875D01*
X125827356Y-49794714D01*
X125849421Y-49861008D01*
X125849500Y-49865435D01*
X125849500Y-56691367D01*
X125829815Y-56758406D01*
X125777011Y-56804161D01*
X125707853Y-56814105D01*
X125644297Y-56785080D01*
X125637819Y-56779048D01*
X123946819Y-55088048D01*
X123913334Y-55026725D01*
X123910500Y-55000367D01*
X123910500Y-49865435D01*
X123930185Y-49798396D01*
X123982989Y-49752641D01*
X123987012Y-49750889D01*
X124107598Y-49700941D01*
X124279655Y-49585977D01*
X124425977Y-49439655D01*
X124540941Y-49267598D01*
X124620130Y-49076420D01*
X124660500Y-48873465D01*
X124660500Y-48666535D01*
X124620130Y-48463580D01*
X124540941Y-48272402D01*
X124425977Y-48100345D01*
X124425975Y-48100342D01*
X124279657Y-47954024D01*
X124111655Y-47841770D01*
X124107598Y-47839059D01*
X123916420Y-47759870D01*
X123916412Y-47759868D01*
X123713469Y-47719500D01*
X123713465Y-47719500D01*
X123506535Y-47719500D01*
X123506530Y-47719500D01*
X123303587Y-47759868D01*
X123303579Y-47759870D01*
X123112403Y-47839058D01*
X122940342Y-47954024D01*
X122794024Y-48100342D01*
X122679058Y-48272403D01*
X122599870Y-48463579D01*
X122599868Y-48463587D01*
X122559500Y-48666530D01*
X122559500Y-48873469D01*
X122599868Y-49076412D01*
X122599870Y-49076420D01*
X122679059Y-49267598D01*
X122704352Y-49305452D01*
X122794024Y-49439657D01*
X122940342Y-49585975D01*
X122940345Y-49585977D01*
X123112402Y-49700941D01*
X123232953Y-49750875D01*
X123287356Y-49794714D01*
X123309421Y-49861008D01*
X123309500Y-49865435D01*
X123309500Y-55215762D01*
X123323152Y-55266713D01*
X123329979Y-55292190D01*
X123350069Y-55326985D01*
X123350070Y-55326989D01*
X123350071Y-55326989D01*
X123369539Y-55360709D01*
X123369541Y-55360712D01*
X130800012Y-62791183D01*
X130833497Y-62852506D01*
X130828513Y-62922198D01*
X130786641Y-62978131D01*
X130736523Y-63000481D01*
X130548170Y-63037947D01*
X130548160Y-63037950D01*
X130366092Y-63113364D01*
X130366079Y-63113371D01*
X130202218Y-63222860D01*
X130202214Y-63222863D01*
X130062863Y-63362214D01*
X130062860Y-63362218D01*
X129953371Y-63526079D01*
X129953364Y-63526092D01*
X129877950Y-63708160D01*
X129877947Y-63708170D01*
X129839500Y-63901456D01*
X129839500Y-63901459D01*
X129839500Y-64098541D01*
X129839500Y-64098543D01*
X129839499Y-64098543D01*
X129877947Y-64291829D01*
X129877950Y-64291839D01*
X129953364Y-64473907D01*
X129953371Y-64473920D01*
X130062860Y-64637781D01*
X130062863Y-64637785D01*
X130202214Y-64777136D01*
X130202218Y-64777139D01*
X130366079Y-64886628D01*
X130366092Y-64886635D01*
X130525814Y-64952793D01*
X130548165Y-64962051D01*
X130548169Y-64962051D01*
X130548170Y-64962052D01*
X130741456Y-65000500D01*
X130741459Y-65000500D01*
X130938543Y-65000500D01*
X131068582Y-64974632D01*
X131131835Y-64962051D01*
X131313914Y-64886632D01*
X131477782Y-64777139D01*
X131617139Y-64637782D01*
X131697728Y-64517172D01*
X131751340Y-64472367D01*
X131820665Y-64463660D01*
X131883692Y-64493814D01*
X131888511Y-64498382D01*
X132712040Y-65321911D01*
X132767989Y-65377860D01*
X132767991Y-65377861D01*
X132767995Y-65377864D01*
X132836504Y-65417417D01*
X132836511Y-65417421D01*
X132912938Y-65437900D01*
X132912940Y-65437900D01*
X134822160Y-65437900D01*
X134822162Y-65437900D01*
X134898589Y-65417421D01*
X134967111Y-65377860D01*
X135023060Y-65321911D01*
X135396165Y-64948804D01*
X135457486Y-64915321D01*
X135527177Y-64920305D01*
X135531254Y-64921909D01*
X135628165Y-64962051D01*
X135628169Y-64962051D01*
X135628170Y-64962052D01*
X135821456Y-65000500D01*
X135821459Y-65000500D01*
X136018543Y-65000500D01*
X136148582Y-64974632D01*
X136211835Y-64962051D01*
X136393914Y-64886632D01*
X136528909Y-64796430D01*
X136595586Y-64775553D01*
X136662966Y-64794037D01*
X136709657Y-64846016D01*
X136721800Y-64899533D01*
X136721800Y-70720466D01*
X136702115Y-70787505D01*
X136649311Y-70833260D01*
X136580153Y-70843204D01*
X136528909Y-70823568D01*
X136393920Y-70733371D01*
X136393907Y-70733364D01*
X136211839Y-70657950D01*
X136211829Y-70657947D01*
X136018543Y-70619500D01*
X136018541Y-70619500D01*
X135821459Y-70619500D01*
X135821457Y-70619500D01*
X135628170Y-70657947D01*
X135628160Y-70657950D01*
X135446092Y-70733364D01*
X135446079Y-70733371D01*
X135282218Y-70842860D01*
X135282214Y-70842863D01*
X135142863Y-70982214D01*
X135142860Y-70982218D01*
X135070643Y-71090299D01*
X135017031Y-71135104D01*
X134947706Y-71143811D01*
X134884678Y-71113656D01*
X134879860Y-71109089D01*
X129551912Y-65781141D01*
X129551904Y-65781135D01*
X129483395Y-65741582D01*
X129483390Y-65741579D01*
X129457913Y-65734752D01*
X129406962Y-65721100D01*
X129406960Y-65721100D01*
X126392033Y-65721100D01*
X126324994Y-65701415D01*
X126304352Y-65684781D01*
X125823675Y-65204104D01*
X125790190Y-65142781D01*
X125795174Y-65073089D01*
X125837046Y-65017156D01*
X125887163Y-64994806D01*
X126051835Y-64962051D01*
X126233914Y-64886632D01*
X126397782Y-64777139D01*
X126537139Y-64637782D01*
X126646632Y-64473914D01*
X126722051Y-64291835D01*
X126734632Y-64228582D01*
X126760500Y-64098543D01*
X127299499Y-64098543D01*
X127337947Y-64291829D01*
X127337950Y-64291839D01*
X127413364Y-64473907D01*
X127413371Y-64473920D01*
X127522860Y-64637781D01*
X127522863Y-64637785D01*
X127662214Y-64777136D01*
X127662218Y-64777139D01*
X127826079Y-64886628D01*
X127826092Y-64886635D01*
X127985814Y-64952793D01*
X128008165Y-64962051D01*
X128008169Y-64962051D01*
X128008170Y-64962052D01*
X128201456Y-65000500D01*
X128201459Y-65000500D01*
X128398543Y-65000500D01*
X128528582Y-64974632D01*
X128591835Y-64962051D01*
X128773914Y-64886632D01*
X128937782Y-64777139D01*
X129077139Y-64637782D01*
X129186632Y-64473914D01*
X129262051Y-64291835D01*
X129274632Y-64228582D01*
X129300500Y-64098543D01*
X129300500Y-63901456D01*
X129262052Y-63708170D01*
X129262051Y-63708169D01*
X129262051Y-63708165D01*
X129245086Y-63667207D01*
X129186635Y-63526092D01*
X129186628Y-63526079D01*
X129077139Y-63362218D01*
X129077136Y-63362214D01*
X128937785Y-63222863D01*
X128937781Y-63222860D01*
X128773920Y-63113371D01*
X128773907Y-63113364D01*
X128591839Y-63037950D01*
X128591829Y-63037947D01*
X128398543Y-62999500D01*
X128398541Y-62999500D01*
X128201459Y-62999500D01*
X128201457Y-62999500D01*
X128008170Y-63037947D01*
X128008160Y-63037950D01*
X127826092Y-63113364D01*
X127826079Y-63113371D01*
X127662218Y-63222860D01*
X127662214Y-63222863D01*
X127522863Y-63362214D01*
X127522860Y-63362218D01*
X127413371Y-63526079D01*
X127413364Y-63526092D01*
X127337950Y-63708160D01*
X127337947Y-63708170D01*
X127299500Y-63901456D01*
X127299500Y-63901459D01*
X127299500Y-64098541D01*
X127299500Y-64098543D01*
X127299499Y-64098543D01*
X126760500Y-64098543D01*
X126760500Y-63901456D01*
X126722052Y-63708170D01*
X126722051Y-63708169D01*
X126722051Y-63708165D01*
X126705086Y-63667207D01*
X126646635Y-63526092D01*
X126646628Y-63526079D01*
X126537139Y-63362218D01*
X126537136Y-63362214D01*
X126397785Y-63222863D01*
X126397781Y-63222860D01*
X126233920Y-63113371D01*
X126233907Y-63113364D01*
X126051839Y-63037950D01*
X126051829Y-63037947D01*
X125858543Y-62999500D01*
X125858541Y-62999500D01*
X125661459Y-62999500D01*
X125661457Y-62999500D01*
X125468170Y-63037947D01*
X125468160Y-63037950D01*
X125286092Y-63113364D01*
X125286079Y-63113371D01*
X125122218Y-63222860D01*
X125122214Y-63222863D01*
X125002181Y-63342897D01*
X124940858Y-63376382D01*
X124871166Y-63371398D01*
X124815233Y-63329526D01*
X124790816Y-63264062D01*
X124790500Y-63255216D01*
X124790500Y-58382139D01*
X124770426Y-58307223D01*
X124770021Y-58305711D01*
X124770017Y-58305704D01*
X124730464Y-58237195D01*
X124730458Y-58237187D01*
X116411367Y-49918096D01*
X116377882Y-49856773D01*
X116382866Y-49787081D01*
X116424738Y-49731148D01*
X116451596Y-49715854D01*
X116487594Y-49700943D01*
X116487595Y-49700942D01*
X116487598Y-49700941D01*
X116659655Y-49585977D01*
X116805977Y-49439655D01*
X116920941Y-49267598D01*
X117000130Y-49076420D01*
X117040500Y-48873465D01*
X117040500Y-48666535D01*
X117040499Y-48666530D01*
X120019500Y-48666530D01*
X120019500Y-48873469D01*
X120059868Y-49076412D01*
X120059870Y-49076420D01*
X120139059Y-49267598D01*
X120164352Y-49305452D01*
X120254024Y-49439657D01*
X120400342Y-49585975D01*
X120400345Y-49585977D01*
X120572402Y-49700941D01*
X120763580Y-49780130D01*
X120908052Y-49808867D01*
X120966530Y-49820499D01*
X120966534Y-49820500D01*
X120966535Y-49820500D01*
X121173466Y-49820500D01*
X121173467Y-49820499D01*
X121376420Y-49780130D01*
X121567598Y-49700941D01*
X121739655Y-49585977D01*
X121885977Y-49439655D01*
X122000941Y-49267598D01*
X122080130Y-49076420D01*
X122120500Y-48873465D01*
X122120500Y-48666535D01*
X122080130Y-48463580D01*
X122000941Y-48272402D01*
X121885977Y-48100345D01*
X121885975Y-48100342D01*
X121739657Y-47954024D01*
X121571655Y-47841770D01*
X121567598Y-47839059D01*
X121376420Y-47759870D01*
X121376412Y-47759868D01*
X121173469Y-47719500D01*
X121173465Y-47719500D01*
X120966535Y-47719500D01*
X120966530Y-47719500D01*
X120763587Y-47759868D01*
X120763579Y-47759870D01*
X120572403Y-47839058D01*
X120400342Y-47954024D01*
X120254024Y-48100342D01*
X120139058Y-48272403D01*
X120059870Y-48463579D01*
X120059868Y-48463587D01*
X120019500Y-48666530D01*
X117040499Y-48666530D01*
X117000130Y-48463580D01*
X116920941Y-48272402D01*
X116805977Y-48100345D01*
X116805975Y-48100342D01*
X116659657Y-47954024D01*
X116491655Y-47841770D01*
X116487598Y-47839059D01*
X116296420Y-47759870D01*
X116296412Y-47759868D01*
X116093469Y-47719500D01*
X116093465Y-47719500D01*
X115886535Y-47719500D01*
X115886530Y-47719500D01*
X115683587Y-47759868D01*
X115683579Y-47759870D01*
X115492403Y-47839058D01*
X115320342Y-47954024D01*
X115174024Y-48100342D01*
X115059058Y-48272403D01*
X114979870Y-48463579D01*
X114979868Y-48463587D01*
X114939500Y-48666530D01*
X114939500Y-48873469D01*
X114979868Y-49076412D01*
X114979870Y-49076420D01*
X115059059Y-49267598D01*
X115084352Y-49305452D01*
X115174024Y-49439657D01*
X115320342Y-49585975D01*
X115320345Y-49585977D01*
X115492402Y-49700941D01*
X115612953Y-49750875D01*
X115667356Y-49794714D01*
X115689421Y-49861008D01*
X115689500Y-49865435D01*
X115689500Y-49961262D01*
X115698631Y-49995338D01*
X115709979Y-50037690D01*
X115731208Y-50074458D01*
X115731209Y-50074462D01*
X115749535Y-50106204D01*
X115749541Y-50106212D01*
X124153181Y-58509852D01*
X124186666Y-58571175D01*
X124189500Y-58597533D01*
X124189500Y-63255216D01*
X124169815Y-63322255D01*
X124117011Y-63368010D01*
X124047853Y-63377954D01*
X123984297Y-63348929D01*
X123977819Y-63342897D01*
X123857785Y-63222863D01*
X123857781Y-63222860D01*
X123693920Y-63113371D01*
X123693907Y-63113364D01*
X123511839Y-63037950D01*
X123511829Y-63037947D01*
X123318543Y-62999500D01*
X123318541Y-62999500D01*
X123121459Y-62999500D01*
X123121457Y-62999500D01*
X122928170Y-63037947D01*
X122928160Y-63037950D01*
X122746092Y-63113364D01*
X122746079Y-63113371D01*
X122582218Y-63222860D01*
X122582214Y-63222863D01*
X122442863Y-63362214D01*
X122442860Y-63362218D01*
X122333371Y-63526079D01*
X122333364Y-63526092D01*
X122257950Y-63708160D01*
X122257947Y-63708170D01*
X122219500Y-63901456D01*
X122219500Y-63901459D01*
X122219500Y-64098541D01*
X122219500Y-64098543D01*
X122219499Y-64098543D01*
X122257947Y-64291829D01*
X122257950Y-64291839D01*
X122333364Y-64473907D01*
X122333371Y-64473920D01*
X122442860Y-64637781D01*
X122442863Y-64637785D01*
X122582214Y-64777136D01*
X122582218Y-64777139D01*
X122746079Y-64886628D01*
X122746092Y-64886635D01*
X122905814Y-64952793D01*
X122928165Y-64962051D01*
X122928169Y-64962051D01*
X122928170Y-64962052D01*
X123121456Y-65000500D01*
X123121459Y-65000500D01*
X123318543Y-65000500D01*
X123448582Y-64974632D01*
X123511835Y-64962051D01*
X123693914Y-64886632D01*
X123857782Y-64777139D01*
X123997139Y-64637782D01*
X124077528Y-64517472D01*
X124131140Y-64472667D01*
X124200465Y-64463960D01*
X124263493Y-64494114D01*
X124268311Y-64498682D01*
X125975740Y-66206111D01*
X126031689Y-66262060D01*
X126031691Y-66262061D01*
X126031695Y-66262064D01*
X126100204Y-66301617D01*
X126100211Y-66301621D01*
X126176638Y-66322100D01*
X129191567Y-66322100D01*
X129258606Y-66341785D01*
X129279248Y-66358419D01*
X133333339Y-70412510D01*
X133366824Y-70473833D01*
X133361840Y-70543525D01*
X133319968Y-70599458D01*
X133269850Y-70621808D01*
X133088171Y-70657947D01*
X133088168Y-70657948D01*
X133088166Y-70657948D01*
X133088165Y-70657949D01*
X133056193Y-70671192D01*
X132991295Y-70698073D01*
X132921826Y-70705540D01*
X132859347Y-70674265D01*
X132856163Y-70671192D01*
X132416212Y-70231241D01*
X132416211Y-70231240D01*
X132383726Y-70212485D01*
X132383724Y-70212484D01*
X132383723Y-70212482D01*
X132347694Y-70191681D01*
X132347691Y-70191679D01*
X132309475Y-70181439D01*
X132271262Y-70171200D01*
X127819638Y-70171200D01*
X127789067Y-70179391D01*
X127743208Y-70191679D01*
X127743205Y-70191681D01*
X127707175Y-70212484D01*
X127707174Y-70212485D01*
X127707171Y-70212487D01*
X127674689Y-70231239D01*
X127674687Y-70231241D01*
X126845489Y-71060440D01*
X126845488Y-71060441D01*
X126798817Y-71107111D01*
X126737494Y-71140595D01*
X126667802Y-71135610D01*
X126611869Y-71093738D01*
X126608035Y-71088320D01*
X126537139Y-70982218D01*
X126537136Y-70982214D01*
X126397785Y-70842863D01*
X126397781Y-70842860D01*
X126233920Y-70733371D01*
X126233907Y-70733364D01*
X126051839Y-70657950D01*
X126051829Y-70657947D01*
X125858543Y-70619500D01*
X125858541Y-70619500D01*
X125661459Y-70619500D01*
X125661457Y-70619500D01*
X125468170Y-70657947D01*
X125468160Y-70657950D01*
X125286092Y-70733364D01*
X125286079Y-70733371D01*
X125122218Y-70842860D01*
X125122214Y-70842863D01*
X124982863Y-70982214D01*
X124982860Y-70982218D01*
X124873371Y-71146079D01*
X124873364Y-71146092D01*
X124797950Y-71328160D01*
X124797947Y-71328170D01*
X124759500Y-71521456D01*
X124759500Y-71521459D01*
X124759500Y-71718541D01*
X124759500Y-71718543D01*
X124759499Y-71718543D01*
X124797947Y-71911829D01*
X124797950Y-71911839D01*
X124873364Y-72093907D01*
X124873371Y-72093920D01*
X124982860Y-72257781D01*
X124982863Y-72257785D01*
X125122214Y-72397136D01*
X125122218Y-72397139D01*
X125286079Y-72506628D01*
X125286092Y-72506635D01*
X125380516Y-72545746D01*
X125468165Y-72582051D01*
X125468169Y-72582051D01*
X125468170Y-72582052D01*
X125661456Y-72620500D01*
X125661459Y-72620500D01*
X125858543Y-72620500D01*
X125988582Y-72594632D01*
X126051835Y-72582051D01*
X126233914Y-72506632D01*
X126397782Y-72397139D01*
X126450312Y-72344609D01*
X126517819Y-72277103D01*
X126579142Y-72243618D01*
X126648834Y-72248602D01*
X126704767Y-72290474D01*
X126729184Y-72355938D01*
X126729500Y-72364784D01*
X126729500Y-75450857D01*
X126709815Y-75517896D01*
X126657011Y-75563651D01*
X126587853Y-75573595D01*
X126524297Y-75544570D01*
X126502398Y-75519748D01*
X126397139Y-75362218D01*
X126397136Y-75362214D01*
X126257785Y-75222863D01*
X126257781Y-75222860D01*
X126093920Y-75113371D01*
X126093907Y-75113364D01*
X125911839Y-75037950D01*
X125911829Y-75037947D01*
X125718543Y-74999500D01*
X125718541Y-74999500D01*
X125521459Y-74999500D01*
X125521457Y-74999500D01*
X125328170Y-75037947D01*
X125328160Y-75037950D01*
X125146092Y-75113364D01*
X125146079Y-75113371D01*
X124982218Y-75222860D01*
X124982214Y-75222863D01*
X124842863Y-75362214D01*
X124842860Y-75362218D01*
X124733371Y-75526079D01*
X124733364Y-75526092D01*
X124657950Y-75708160D01*
X124657947Y-75708170D01*
X124619500Y-75901456D01*
X124619500Y-75901459D01*
X124619500Y-76098541D01*
X124619500Y-76098543D01*
X124619499Y-76098543D01*
X124657947Y-76291829D01*
X124657950Y-76291839D01*
X124733364Y-76473907D01*
X124733371Y-76473920D01*
X124842860Y-76637781D01*
X124842863Y-76637785D01*
X124982214Y-76777136D01*
X124982218Y-76777139D01*
X125146079Y-76886628D01*
X125146092Y-76886635D01*
X125305814Y-76952793D01*
X125328165Y-76962051D01*
X125328169Y-76962051D01*
X125328170Y-76962052D01*
X125521456Y-77000500D01*
X125521459Y-77000500D01*
X125718543Y-77000500D01*
X125848582Y-76974632D01*
X125911835Y-76962051D01*
X126093914Y-76886632D01*
X126257782Y-76777139D01*
X126397139Y-76637782D01*
X126502398Y-76480251D01*
X126556010Y-76435446D01*
X126625335Y-76426739D01*
X126688362Y-76456893D01*
X126725082Y-76516336D01*
X126729500Y-76549142D01*
X126729500Y-83070857D01*
X126709815Y-83137896D01*
X126657011Y-83183651D01*
X126587853Y-83193595D01*
X126524297Y-83164570D01*
X126502398Y-83139748D01*
X126397139Y-82982218D01*
X126397136Y-82982214D01*
X126257785Y-82842863D01*
X126257781Y-82842860D01*
X126093920Y-82733371D01*
X126093907Y-82733364D01*
X125911839Y-82657950D01*
X125911829Y-82657947D01*
X125718543Y-82619500D01*
X125718541Y-82619500D01*
X125521459Y-82619500D01*
X125521457Y-82619500D01*
X125328170Y-82657947D01*
X125328160Y-82657950D01*
X125146092Y-82733364D01*
X125146079Y-82733371D01*
X124982218Y-82842860D01*
X124982214Y-82842863D01*
X124842863Y-82982214D01*
X124842860Y-82982218D01*
X124733371Y-83146079D01*
X124733364Y-83146092D01*
X124657950Y-83328160D01*
X124657947Y-83328170D01*
X124619500Y-83521456D01*
X124619500Y-83521459D01*
X124619500Y-83718541D01*
X124619500Y-83718543D01*
X124619499Y-83718543D01*
X124657947Y-83911829D01*
X124657950Y-83911839D01*
X124733364Y-84093907D01*
X124733371Y-84093920D01*
X124842860Y-84257781D01*
X124842863Y-84257785D01*
X124982214Y-84397136D01*
X124982218Y-84397139D01*
X125146079Y-84506628D01*
X125146092Y-84506635D01*
X125319498Y-84578461D01*
X125328165Y-84582051D01*
X125328169Y-84582051D01*
X125328170Y-84582052D01*
X125521456Y-84620500D01*
X125521459Y-84620500D01*
X125718543Y-84620500D01*
X125868887Y-84590594D01*
X125911835Y-84582051D01*
X126093914Y-84506632D01*
X126257782Y-84397139D01*
X126397139Y-84257782D01*
X126456366Y-84169142D01*
X126502398Y-84100251D01*
X126556010Y-84055446D01*
X126625335Y-84046739D01*
X126688362Y-84076893D01*
X126725082Y-84136336D01*
X126729500Y-84169142D01*
X126729500Y-86254166D01*
X126709815Y-86321205D01*
X126693181Y-86341847D01*
X118209093Y-94825934D01*
X118147770Y-94859419D01*
X118078078Y-94854435D01*
X118065117Y-94848738D01*
X118056866Y-94844534D01*
X118048698Y-94840372D01*
X117959223Y-94794781D01*
X117764534Y-94731522D01*
X117580371Y-94702354D01*
X117562352Y-94699500D01*
X117357648Y-94699500D01*
X117339635Y-94702353D01*
X117155465Y-94731522D01*
X116960776Y-94794781D01*
X116778386Y-94887715D01*
X116612786Y-95008028D01*
X116468032Y-95152782D01*
X116468028Y-95152787D01*
X116444817Y-95184735D01*
X116389487Y-95227401D01*
X116319874Y-95233380D01*
X116258079Y-95200774D01*
X116223722Y-95139936D01*
X116220499Y-95111850D01*
X116220499Y-95095739D01*
X116220499Y-95095734D01*
X116217646Y-95065300D01*
X116206273Y-95032799D01*
X116172793Y-94937117D01*
X116092150Y-94827849D01*
X115990617Y-94752915D01*
X115982883Y-94747207D01*
X115982881Y-94747206D01*
X115854701Y-94702353D01*
X115824270Y-94699500D01*
X114015739Y-94699500D01*
X114001751Y-94700811D01*
X113985300Y-94702354D01*
X113985297Y-94702354D01*
X113985296Y-94702355D01*
X113985294Y-94702355D01*
X113857117Y-94747206D01*
X113747849Y-94827849D01*
X113667206Y-94937118D01*
X113622353Y-95065297D01*
X113622353Y-95065299D01*
X113619500Y-95095729D01*
X113619500Y-96904260D01*
X113620580Y-96915779D01*
X113622354Y-96934700D01*
X113622354Y-96934702D01*
X113622355Y-96934703D01*
X113622355Y-96934705D01*
X113667206Y-97062882D01*
X113747849Y-97172150D01*
X113796181Y-97207820D01*
X113857117Y-97252793D01*
X113892414Y-97265144D01*
X113985298Y-97297646D01*
X113992323Y-97298304D01*
X114015733Y-97300500D01*
X115824266Y-97300499D01*
X115854700Y-97297646D01*
X115982883Y-97252793D01*
X116092150Y-97172150D01*
X116172793Y-97062883D01*
X116200538Y-96983592D01*
X116217646Y-96934702D01*
X116217646Y-96934700D01*
X116220500Y-96904267D01*
X116220499Y-96888153D01*
X116240180Y-96821116D01*
X116292982Y-96775358D01*
X116362140Y-96765411D01*
X116425697Y-96794433D01*
X116444817Y-96815265D01*
X116468028Y-96847212D01*
X116468032Y-96847217D01*
X116612786Y-96991971D01*
X116733653Y-97079784D01*
X116778390Y-97112287D01*
X116871777Y-97159870D01*
X116960776Y-97205218D01*
X116960778Y-97205218D01*
X116960781Y-97205220D01*
X117055441Y-97235977D01*
X117155465Y-97268477D01*
X117256557Y-97284488D01*
X117357648Y-97300500D01*
X117357649Y-97300500D01*
X117562351Y-97300500D01*
X117562352Y-97300500D01*
X117764534Y-97268477D01*
X117959219Y-97205220D01*
X118141610Y-97112287D01*
X118254342Y-97030383D01*
X118307213Y-96991971D01*
X118307215Y-96991968D01*
X118307219Y-96991966D01*
X118451966Y-96847219D01*
X118451968Y-96847215D01*
X118451971Y-96847213D01*
X118572284Y-96681614D01*
X118572285Y-96681613D01*
X118572287Y-96681610D01*
X118619516Y-96588917D01*
X118667489Y-96538123D01*
X118735310Y-96521328D01*
X118801445Y-96543865D01*
X118840483Y-96588917D01*
X118884348Y-96675006D01*
X118887715Y-96681614D01*
X119008028Y-96847213D01*
X119152786Y-96991971D01*
X119273653Y-97079784D01*
X119318390Y-97112287D01*
X119411777Y-97159870D01*
X119500776Y-97205218D01*
X119500778Y-97205218D01*
X119500781Y-97205220D01*
X119595441Y-97235977D01*
X119695465Y-97268477D01*
X119796557Y-97284488D01*
X119897648Y-97300500D01*
X119897649Y-97300500D01*
X120102351Y-97300500D01*
X120102352Y-97300500D01*
X120304534Y-97268477D01*
X120499219Y-97205220D01*
X120681610Y-97112287D01*
X120794342Y-97030383D01*
X120847213Y-96991971D01*
X120847215Y-96991968D01*
X120847219Y-96991966D01*
X120991966Y-96847219D01*
X120991968Y-96847215D01*
X120991971Y-96847213D01*
X121044732Y-96774590D01*
X121112287Y-96681610D01*
X121205220Y-96499219D01*
X121268477Y-96304534D01*
X121300500Y-96102352D01*
X121300500Y-95897648D01*
X121295352Y-95865148D01*
X121268477Y-95695465D01*
X121215354Y-95531971D01*
X121205220Y-95500781D01*
X121205218Y-95500778D01*
X121205218Y-95500776D01*
X121151261Y-95394880D01*
X121138365Y-95326211D01*
X121164641Y-95261470D01*
X121174056Y-95250913D01*
X129642160Y-86782811D01*
X129681722Y-86714288D01*
X129702200Y-86637862D01*
X129702200Y-86558738D01*
X129702200Y-84335463D01*
X129721885Y-84268424D01*
X129774689Y-84222669D01*
X129843847Y-84212725D01*
X129907403Y-84241750D01*
X129922054Y-84256799D01*
X129922863Y-84257785D01*
X130062214Y-84397136D01*
X130062218Y-84397139D01*
X130226079Y-84506628D01*
X130226092Y-84506635D01*
X130399498Y-84578461D01*
X130408165Y-84582051D01*
X130408169Y-84582051D01*
X130408170Y-84582052D01*
X130601456Y-84620500D01*
X130601459Y-84620500D01*
X130798543Y-84620500D01*
X130948887Y-84590594D01*
X130991835Y-84582051D01*
X131173914Y-84506632D01*
X131335109Y-84398924D01*
X131401786Y-84378047D01*
X131469167Y-84396531D01*
X131515857Y-84448510D01*
X131528000Y-84502027D01*
X131528000Y-93423166D01*
X131508315Y-93490205D01*
X131491681Y-93510847D01*
X130371847Y-94630681D01*
X130310524Y-94664166D01*
X130284166Y-94667000D01*
X128555739Y-94667000D01*
X128541751Y-94668311D01*
X128525300Y-94669854D01*
X128525297Y-94669854D01*
X128525296Y-94669855D01*
X128525294Y-94669855D01*
X128397117Y-94714706D01*
X128287849Y-94795349D01*
X128207206Y-94904618D01*
X128162353Y-95032797D01*
X128162353Y-95032799D01*
X128159500Y-95063229D01*
X128159500Y-96871760D01*
X128160580Y-96883279D01*
X128162354Y-96902200D01*
X128162354Y-96902202D01*
X128162355Y-96902203D01*
X128162355Y-96902205D01*
X128207206Y-97030382D01*
X128287849Y-97139650D01*
X128315247Y-97159870D01*
X128397117Y-97220293D01*
X128439844Y-97235244D01*
X128525298Y-97265146D01*
X128532323Y-97265804D01*
X128555733Y-97268000D01*
X130364266Y-97267999D01*
X130394700Y-97265146D01*
X130522883Y-97220293D01*
X130632150Y-97139650D01*
X130712793Y-97030383D01*
X130746274Y-96934700D01*
X130757646Y-96902202D01*
X130757646Y-96902200D01*
X130758963Y-96888157D01*
X130760500Y-96871767D01*
X130760499Y-96855653D01*
X130780180Y-96788616D01*
X130832982Y-96742858D01*
X130902140Y-96732911D01*
X130965697Y-96761933D01*
X130984817Y-96782765D01*
X131008028Y-96814712D01*
X131008032Y-96814717D01*
X131152786Y-96959471D01*
X131295121Y-97062881D01*
X131318390Y-97079787D01*
X131434607Y-97139003D01*
X131500776Y-97172718D01*
X131500778Y-97172718D01*
X131500781Y-97172720D01*
X131600800Y-97205218D01*
X131695465Y-97235977D01*
X131796557Y-97251988D01*
X131897648Y-97268000D01*
X131897649Y-97268000D01*
X132102351Y-97268000D01*
X132102352Y-97268000D01*
X132304534Y-97235977D01*
X132499219Y-97172720D01*
X132681610Y-97079787D01*
X132786377Y-97003670D01*
X132847213Y-96959471D01*
X132847215Y-96959468D01*
X132847219Y-96959466D01*
X132991966Y-96814719D01*
X132991968Y-96814715D01*
X132991971Y-96814713D01*
X133112284Y-96649114D01*
X133112285Y-96649113D01*
X133112287Y-96649110D01*
X133159516Y-96556417D01*
X133207489Y-96505623D01*
X133275310Y-96488828D01*
X133341445Y-96511365D01*
X133380485Y-96556419D01*
X133427715Y-96649114D01*
X133548028Y-96814713D01*
X133692786Y-96959471D01*
X133835121Y-97062881D01*
X133858390Y-97079787D01*
X133974607Y-97139003D01*
X134040776Y-97172718D01*
X134040778Y-97172718D01*
X134040781Y-97172720D01*
X134140800Y-97205218D01*
X134235465Y-97235977D01*
X134336557Y-97251988D01*
X134437648Y-97268000D01*
X134437649Y-97268000D01*
X134642351Y-97268000D01*
X134642352Y-97268000D01*
X134844534Y-97235977D01*
X135039219Y-97172720D01*
X135221610Y-97079787D01*
X135326377Y-97003670D01*
X135387213Y-96959471D01*
X135387215Y-96959468D01*
X135387219Y-96959466D01*
X135531966Y-96814719D01*
X135531968Y-96814715D01*
X135531971Y-96814713D01*
X135584732Y-96742090D01*
X135652287Y-96649110D01*
X135745220Y-96466719D01*
X135808477Y-96272034D01*
X135840500Y-96069852D01*
X135840500Y-95865148D01*
X135831524Y-95808477D01*
X135808477Y-95662965D01*
X135765914Y-95531971D01*
X135745220Y-95468281D01*
X135745218Y-95468278D01*
X135745218Y-95468276D01*
X135691261Y-95362380D01*
X135678365Y-95293711D01*
X135704641Y-95228970D01*
X135714056Y-95218413D01*
X137175760Y-93756711D01*
X137215322Y-93688188D01*
X137235800Y-93611762D01*
X137235800Y-93532638D01*
X137235800Y-83159538D01*
X137215322Y-83083112D01*
X137175760Y-83014589D01*
X135976911Y-81815740D01*
X135976909Y-81815739D01*
X135976904Y-81815735D01*
X135908395Y-81776182D01*
X135908390Y-81776179D01*
X135882913Y-81769352D01*
X135831962Y-81755700D01*
X132224238Y-81755700D01*
X132186024Y-81765939D01*
X132147809Y-81776179D01*
X132147804Y-81776182D01*
X132079295Y-81815735D01*
X132079287Y-81815741D01*
X131223835Y-82671192D01*
X131162512Y-82704677D01*
X131092820Y-82699693D01*
X131088702Y-82698072D01*
X130991839Y-82657950D01*
X130991829Y-82657947D01*
X130798543Y-82619500D01*
X130798541Y-82619500D01*
X130601459Y-82619500D01*
X130601457Y-82619500D01*
X130408170Y-82657947D01*
X130408160Y-82657950D01*
X130226092Y-82733364D01*
X130226079Y-82733371D01*
X130062218Y-82842860D01*
X130062214Y-82842863D01*
X129922863Y-82982214D01*
X129922048Y-82983208D01*
X129921489Y-82983588D01*
X129918553Y-82986525D01*
X129917995Y-82985967D01*
X129864299Y-83022538D01*
X129794454Y-83024403D01*
X129734688Y-82988212D01*
X129703977Y-82925454D01*
X129702200Y-82904536D01*
X129702200Y-76715463D01*
X129721885Y-76648424D01*
X129774689Y-76602669D01*
X129843847Y-76592725D01*
X129907403Y-76621750D01*
X129922054Y-76636799D01*
X129922863Y-76637785D01*
X130062214Y-76777136D01*
X130062218Y-76777139D01*
X130226079Y-76886628D01*
X130226092Y-76886635D01*
X130385814Y-76952793D01*
X130408165Y-76962051D01*
X130408169Y-76962051D01*
X130408170Y-76962052D01*
X130601456Y-77000500D01*
X130601459Y-77000500D01*
X130798543Y-77000500D01*
X130928582Y-76974632D01*
X130991835Y-76962051D01*
X131173914Y-76886632D01*
X131337782Y-76777139D01*
X131477139Y-76637782D01*
X131586632Y-76473914D01*
X131662051Y-76291835D01*
X131700500Y-76098541D01*
X131700500Y-75901459D01*
X131700500Y-75901456D01*
X131662052Y-75708170D01*
X131662051Y-75708169D01*
X131662051Y-75708165D01*
X131651765Y-75683333D01*
X131586635Y-75526092D01*
X131586628Y-75526079D01*
X131477139Y-75362218D01*
X131477136Y-75362214D01*
X131337785Y-75222863D01*
X131337781Y-75222860D01*
X131173920Y-75113371D01*
X131173907Y-75113364D01*
X130991839Y-75037950D01*
X130991829Y-75037947D01*
X130798543Y-74999500D01*
X130798541Y-74999500D01*
X130601459Y-74999500D01*
X130601457Y-74999500D01*
X130408170Y-75037947D01*
X130408160Y-75037950D01*
X130226092Y-75113364D01*
X130226079Y-75113371D01*
X130062218Y-75222860D01*
X130062214Y-75222863D01*
X129922863Y-75362214D01*
X129922048Y-75363208D01*
X129921489Y-75363588D01*
X129918553Y-75366525D01*
X129917995Y-75365967D01*
X129864299Y-75402538D01*
X129794454Y-75404403D01*
X129734688Y-75368212D01*
X129703977Y-75305454D01*
X129702200Y-75284536D01*
X129702200Y-73234132D01*
X129721885Y-73167093D01*
X129738515Y-73146455D01*
X130316165Y-72568804D01*
X130377486Y-72535321D01*
X130447177Y-72540305D01*
X130451254Y-72541909D01*
X130548165Y-72582051D01*
X130548169Y-72582051D01*
X130548170Y-72582052D01*
X130741456Y-72620500D01*
X130741459Y-72620500D01*
X130938543Y-72620500D01*
X131068582Y-72594632D01*
X131131835Y-72582051D01*
X131313914Y-72506632D01*
X131477782Y-72397139D01*
X131617139Y-72257782D01*
X131726632Y-72093914D01*
X131802051Y-71911835D01*
X131840500Y-71718541D01*
X131840500Y-71521459D01*
X131840500Y-71521456D01*
X131802052Y-71328170D01*
X131802051Y-71328169D01*
X131802051Y-71328165D01*
X131802049Y-71328160D01*
X131726635Y-71146092D01*
X131726628Y-71146079D01*
X131617139Y-70982218D01*
X131613274Y-70977508D01*
X131614688Y-70976346D01*
X131585318Y-70922558D01*
X131590302Y-70852866D01*
X131632174Y-70796933D01*
X131697638Y-70772516D01*
X131706484Y-70772200D01*
X132055867Y-70772200D01*
X132122906Y-70791885D01*
X132143548Y-70808519D01*
X132431192Y-71096163D01*
X132464677Y-71157486D01*
X132459693Y-71227178D01*
X132458073Y-71231295D01*
X132417948Y-71328168D01*
X132417947Y-71328171D01*
X132379500Y-71521456D01*
X132379500Y-71521459D01*
X132379500Y-71718541D01*
X132379500Y-71718543D01*
X132379499Y-71718543D01*
X132417947Y-71911829D01*
X132417950Y-71911839D01*
X132493364Y-72093907D01*
X132493371Y-72093920D01*
X132602860Y-72257781D01*
X132602863Y-72257785D01*
X132742214Y-72397136D01*
X132742218Y-72397139D01*
X132906079Y-72506628D01*
X132906092Y-72506635D01*
X133000516Y-72545746D01*
X133088165Y-72582051D01*
X133088169Y-72582051D01*
X133088170Y-72582052D01*
X133281456Y-72620500D01*
X133281459Y-72620500D01*
X133478543Y-72620500D01*
X133608582Y-72594632D01*
X133671835Y-72582051D01*
X133853914Y-72506632D01*
X134017782Y-72397139D01*
X134070312Y-72344609D01*
X134137819Y-72277103D01*
X134199142Y-72243618D01*
X134268834Y-72248602D01*
X134324767Y-72290474D01*
X134349184Y-72355938D01*
X134349500Y-72364784D01*
X134349500Y-75450857D01*
X134329815Y-75517896D01*
X134277011Y-75563651D01*
X134207853Y-75573595D01*
X134144297Y-75544570D01*
X134122398Y-75519748D01*
X134017139Y-75362218D01*
X134017136Y-75362214D01*
X133877785Y-75222863D01*
X133877781Y-75222860D01*
X133713920Y-75113371D01*
X133713907Y-75113364D01*
X133531839Y-75037950D01*
X133531829Y-75037947D01*
X133338543Y-74999500D01*
X133338541Y-74999500D01*
X133141459Y-74999500D01*
X133141457Y-74999500D01*
X132948170Y-75037947D01*
X132948160Y-75037950D01*
X132766092Y-75113364D01*
X132766079Y-75113371D01*
X132602218Y-75222860D01*
X132602214Y-75222863D01*
X132462863Y-75362214D01*
X132462860Y-75362218D01*
X132353371Y-75526079D01*
X132353364Y-75526092D01*
X132277950Y-75708160D01*
X132277947Y-75708170D01*
X132239500Y-75901456D01*
X132239500Y-75901459D01*
X132239500Y-76098541D01*
X132239500Y-76098543D01*
X132239499Y-76098543D01*
X132277947Y-76291829D01*
X132277950Y-76291839D01*
X132353364Y-76473907D01*
X132353371Y-76473920D01*
X132462860Y-76637781D01*
X132462863Y-76637785D01*
X132602214Y-76777136D01*
X132602218Y-76777139D01*
X132766079Y-76886628D01*
X132766092Y-76886635D01*
X132925814Y-76952793D01*
X132948165Y-76962051D01*
X132948169Y-76962051D01*
X132948170Y-76962052D01*
X133141456Y-77000500D01*
X133141459Y-77000500D01*
X133338543Y-77000500D01*
X133468582Y-76974632D01*
X133531835Y-76962051D01*
X133713914Y-76886632D01*
X133877782Y-76777139D01*
X134017139Y-76637782D01*
X134122398Y-76480251D01*
X134176010Y-76435446D01*
X134245335Y-76426739D01*
X134308362Y-76456893D01*
X134345082Y-76516336D01*
X134349500Y-76549142D01*
X134349500Y-78277062D01*
X134363152Y-78328013D01*
X134369979Y-78353490D01*
X134369982Y-78353495D01*
X134409535Y-78422004D01*
X134409541Y-78422012D01*
X139253181Y-83265652D01*
X139286666Y-83326975D01*
X139289500Y-83353333D01*
X139289500Y-94575500D01*
X139269815Y-94642539D01*
X139217011Y-94688294D01*
X139165502Y-94699500D01*
X139095740Y-94699500D01*
X139083203Y-94700675D01*
X139065300Y-94702354D01*
X139065297Y-94702354D01*
X139065296Y-94702355D01*
X139065294Y-94702355D01*
X138937117Y-94747206D01*
X138827849Y-94827849D01*
X138747206Y-94937118D01*
X138702353Y-95065297D01*
X138702353Y-95065299D01*
X138699500Y-95095729D01*
X138699500Y-96904260D01*
X138700580Y-96915779D01*
X138702354Y-96934700D01*
X138702354Y-96934702D01*
X138702355Y-96934703D01*
X138702355Y-96934705D01*
X138747206Y-97062882D01*
X138827849Y-97172150D01*
X138876181Y-97207820D01*
X138937117Y-97252793D01*
X138972414Y-97265144D01*
X139065298Y-97297646D01*
X139072323Y-97298304D01*
X139095733Y-97300500D01*
X140904266Y-97300499D01*
X140934700Y-97297646D01*
X141062883Y-97252793D01*
X141172150Y-97172150D01*
X141252793Y-97062883D01*
X141280538Y-96983592D01*
X141297646Y-96934702D01*
X141297646Y-96934700D01*
X141300500Y-96904267D01*
X141300499Y-95095734D01*
X141300499Y-95095729D01*
X146699500Y-95095729D01*
X146699500Y-96904260D01*
X146700580Y-96915779D01*
X146702354Y-96934700D01*
X146702354Y-96934702D01*
X146702355Y-96934703D01*
X146702355Y-96934705D01*
X146747206Y-97062882D01*
X146827849Y-97172150D01*
X146876181Y-97207820D01*
X146937117Y-97252793D01*
X146972414Y-97265144D01*
X147065298Y-97297646D01*
X147072323Y-97298304D01*
X147095733Y-97300500D01*
X148904266Y-97300499D01*
X148934700Y-97297646D01*
X149062883Y-97252793D01*
X149172150Y-97172150D01*
X149252793Y-97062883D01*
X149280538Y-96983592D01*
X149297646Y-96934702D01*
X149297646Y-96934700D01*
X149300500Y-96904267D01*
X149300499Y-96888153D01*
X149320180Y-96821116D01*
X149372982Y-96775358D01*
X149442140Y-96765411D01*
X149505697Y-96794433D01*
X149524817Y-96815265D01*
X149548028Y-96847212D01*
X149548032Y-96847217D01*
X149692786Y-96991971D01*
X149813653Y-97079784D01*
X149858390Y-97112287D01*
X149951777Y-97159870D01*
X150040776Y-97205218D01*
X150040778Y-97205218D01*
X150040781Y-97205220D01*
X150135441Y-97235977D01*
X150235465Y-97268477D01*
X150336557Y-97284488D01*
X150437648Y-97300500D01*
X150437649Y-97300500D01*
X150642351Y-97300500D01*
X150642352Y-97300500D01*
X150844534Y-97268477D01*
X151039219Y-97205220D01*
X151221610Y-97112287D01*
X151334342Y-97030383D01*
X151387213Y-96991971D01*
X151387215Y-96991968D01*
X151387219Y-96991966D01*
X151531966Y-96847219D01*
X151531968Y-96847215D01*
X151531971Y-96847213D01*
X151652284Y-96681614D01*
X151652285Y-96681613D01*
X151652287Y-96681610D01*
X151699516Y-96588917D01*
X151747489Y-96538123D01*
X151815310Y-96521328D01*
X151881445Y-96543865D01*
X151920483Y-96588917D01*
X151964348Y-96675006D01*
X151967715Y-96681614D01*
X152088028Y-96847213D01*
X152232786Y-96991971D01*
X152353653Y-97079784D01*
X152398390Y-97112287D01*
X152491777Y-97159870D01*
X152580776Y-97205218D01*
X152580778Y-97205218D01*
X152580781Y-97205220D01*
X152675441Y-97235977D01*
X152775465Y-97268477D01*
X152876557Y-97284488D01*
X152977648Y-97300500D01*
X152977649Y-97300500D01*
X153182351Y-97300500D01*
X153182352Y-97300500D01*
X153384534Y-97268477D01*
X153579219Y-97205220D01*
X153761610Y-97112287D01*
X153874342Y-97030383D01*
X153927213Y-96991971D01*
X153927215Y-96991968D01*
X153927219Y-96991966D01*
X154071966Y-96847219D01*
X154071968Y-96847215D01*
X154071971Y-96847213D01*
X154192284Y-96681614D01*
X154192285Y-96681613D01*
X154192287Y-96681610D01*
X154239516Y-96588917D01*
X154287489Y-96538123D01*
X154355310Y-96521328D01*
X154421445Y-96543865D01*
X154460483Y-96588917D01*
X154504348Y-96675006D01*
X154507715Y-96681614D01*
X154628028Y-96847213D01*
X154772786Y-96991971D01*
X154893653Y-97079784D01*
X154938390Y-97112287D01*
X155031777Y-97159870D01*
X155120776Y-97205218D01*
X155120778Y-97205218D01*
X155120781Y-97205220D01*
X155215441Y-97235977D01*
X155315465Y-97268477D01*
X155416557Y-97284488D01*
X155517648Y-97300500D01*
X155517649Y-97300500D01*
X155722351Y-97300500D01*
X155722352Y-97300500D01*
X155924534Y-97268477D01*
X156119219Y-97205220D01*
X156301610Y-97112287D01*
X156414342Y-97030383D01*
X156467213Y-96991971D01*
X156467215Y-96991968D01*
X156467219Y-96991966D01*
X156611966Y-96847219D01*
X156611968Y-96847215D01*
X156611971Y-96847213D01*
X156664732Y-96774590D01*
X156732287Y-96681610D01*
X156825220Y-96499219D01*
X156859501Y-96393713D01*
X160149500Y-96393713D01*
X160149500Y-96606286D01*
X160182512Y-96814719D01*
X160182754Y-96816243D01*
X160242464Y-97000012D01*
X160248444Y-97018414D01*
X160344951Y-97207820D01*
X160469890Y-97379786D01*
X160620213Y-97530109D01*
X160792179Y-97655048D01*
X160792181Y-97655049D01*
X160792184Y-97655051D01*
X160981588Y-97751557D01*
X161183757Y-97817246D01*
X161393713Y-97850500D01*
X161393714Y-97850500D01*
X161606286Y-97850500D01*
X161606287Y-97850500D01*
X161816243Y-97817246D01*
X162018412Y-97751557D01*
X162207816Y-97655051D01*
X162229789Y-97639086D01*
X162379786Y-97530109D01*
X162379788Y-97530106D01*
X162379792Y-97530104D01*
X162530104Y-97379792D01*
X162530106Y-97379788D01*
X162530109Y-97379786D01*
X162655048Y-97207820D01*
X162655047Y-97207820D01*
X162655051Y-97207816D01*
X162751557Y-97018412D01*
X162817246Y-96816243D01*
X162850500Y-96606287D01*
X162850500Y-96393713D01*
X162817246Y-96183757D01*
X162751557Y-95981588D01*
X162655051Y-95792184D01*
X162655049Y-95792181D01*
X162655048Y-95792179D01*
X162530109Y-95620213D01*
X162379786Y-95469890D01*
X162207820Y-95344951D01*
X162018414Y-95248444D01*
X162018413Y-95248443D01*
X162018412Y-95248443D01*
X161816243Y-95182754D01*
X161816241Y-95182753D01*
X161816240Y-95182753D01*
X161627040Y-95152787D01*
X161606287Y-95149500D01*
X161393713Y-95149500D01*
X161372960Y-95152787D01*
X161183760Y-95182753D01*
X160981585Y-95248444D01*
X160792179Y-95344951D01*
X160620213Y-95469890D01*
X160469890Y-95620213D01*
X160344951Y-95792179D01*
X160248444Y-95981585D01*
X160182753Y-96183760D01*
X160149500Y-96393713D01*
X156859501Y-96393713D01*
X156861210Y-96388454D01*
X156873535Y-96350522D01*
X156873535Y-96350521D01*
X156888476Y-96304538D01*
X156888476Y-96304537D01*
X156888477Y-96304534D01*
X156920500Y-96102352D01*
X156920500Y-95897648D01*
X156915352Y-95865148D01*
X156888477Y-95695465D01*
X156835354Y-95531971D01*
X156825220Y-95500781D01*
X156825218Y-95500778D01*
X156825218Y-95500776D01*
X156779515Y-95411080D01*
X156732287Y-95318390D01*
X156708675Y-95285890D01*
X156611971Y-95152786D01*
X156467213Y-95008028D01*
X156301613Y-94887715D01*
X156301612Y-94887714D01*
X156301610Y-94887713D01*
X156119219Y-94794780D01*
X156006182Y-94758052D01*
X155948506Y-94718614D01*
X155921308Y-94654256D01*
X155920500Y-94640121D01*
X155920500Y-84175832D01*
X155940185Y-84108793D01*
X155956814Y-84088156D01*
X157552701Y-82492268D01*
X157614022Y-82458785D01*
X157683714Y-82463769D01*
X157687832Y-82465390D01*
X157737334Y-82485894D01*
X157737336Y-82485894D01*
X157737341Y-82485896D01*
X157911304Y-82520499D01*
X157911307Y-82520500D01*
X157911309Y-82520500D01*
X158088693Y-82520500D01*
X158088694Y-82520499D01*
X158156268Y-82507058D01*
X158262658Y-82485896D01*
X158262661Y-82485894D01*
X158262666Y-82485894D01*
X158426547Y-82418013D01*
X158574035Y-82319464D01*
X158699464Y-82194035D01*
X158798013Y-82046547D01*
X158865894Y-81882666D01*
X158879207Y-81815740D01*
X158900499Y-81708695D01*
X158900500Y-81708693D01*
X158900500Y-81531306D01*
X158900499Y-81531304D01*
X158865896Y-81357341D01*
X158865893Y-81357332D01*
X158798016Y-81193459D01*
X158798009Y-81193446D01*
X158699464Y-81045965D01*
X158699461Y-81045961D01*
X158574038Y-80920538D01*
X158574034Y-80920535D01*
X158426553Y-80821990D01*
X158426540Y-80821983D01*
X158262667Y-80754106D01*
X158262658Y-80754103D01*
X158088694Y-80719500D01*
X158088691Y-80719500D01*
X157911309Y-80719500D01*
X157911306Y-80719500D01*
X157737341Y-80754103D01*
X157737332Y-80754106D01*
X157573459Y-80821983D01*
X157573446Y-80821990D01*
X157425965Y-80920535D01*
X157425961Y-80920538D01*
X157300538Y-81045961D01*
X157300535Y-81045965D01*
X157201990Y-81193446D01*
X157201983Y-81193459D01*
X157134106Y-81357332D01*
X157134103Y-81357341D01*
X157099500Y-81531304D01*
X157099500Y-81708695D01*
X157134104Y-81882663D01*
X157134106Y-81882666D01*
X157154609Y-81932167D01*
X157162077Y-82001636D01*
X157130801Y-82064115D01*
X157127728Y-82067299D01*
X155435489Y-83759540D01*
X155379541Y-83815487D01*
X155379535Y-83815495D01*
X155339982Y-83884004D01*
X155339979Y-83884009D01*
X155319500Y-83960439D01*
X155319500Y-94640121D01*
X155299815Y-94707160D01*
X155247011Y-94752915D01*
X155233818Y-94758052D01*
X155120778Y-94794781D01*
X154938386Y-94887715D01*
X154772786Y-95008028D01*
X154628028Y-95152786D01*
X154507715Y-95318386D01*
X154460485Y-95411080D01*
X154412510Y-95461876D01*
X154344689Y-95478671D01*
X154278554Y-95456134D01*
X154239515Y-95411080D01*
X154214701Y-95362380D01*
X154192287Y-95318390D01*
X154168675Y-95285890D01*
X154071971Y-95152786D01*
X153927213Y-95008028D01*
X153761613Y-94887715D01*
X153761612Y-94887714D01*
X153761610Y-94887713D01*
X153579219Y-94794780D01*
X153466182Y-94758052D01*
X153408506Y-94718614D01*
X153381308Y-94654256D01*
X153380500Y-94640121D01*
X153380500Y-82905832D01*
X153400185Y-82838793D01*
X153416814Y-82818155D01*
X154552701Y-81682268D01*
X154614022Y-81648785D01*
X154683714Y-81653769D01*
X154687832Y-81655390D01*
X154737334Y-81675894D01*
X154737336Y-81675894D01*
X154737341Y-81675896D01*
X154911304Y-81710499D01*
X154911307Y-81710500D01*
X154911309Y-81710500D01*
X155088693Y-81710500D01*
X155088694Y-81710499D01*
X155164277Y-81695465D01*
X155262658Y-81675896D01*
X155262661Y-81675894D01*
X155262666Y-81675894D01*
X155426547Y-81608013D01*
X155574035Y-81509464D01*
X155699464Y-81384035D01*
X155798013Y-81236547D01*
X155865894Y-81072666D01*
X155871206Y-81045965D01*
X155900499Y-80898695D01*
X155900500Y-80898693D01*
X155900500Y-80721306D01*
X155900499Y-80721304D01*
X155865896Y-80547341D01*
X155865893Y-80547332D01*
X155798016Y-80383459D01*
X155798009Y-80383446D01*
X155699464Y-80235965D01*
X155699461Y-80235961D01*
X155574038Y-80110538D01*
X155574034Y-80110535D01*
X155426553Y-80011990D01*
X155426540Y-80011983D01*
X155262667Y-79944106D01*
X155262658Y-79944103D01*
X155088694Y-79909500D01*
X155088691Y-79909500D01*
X154911309Y-79909500D01*
X154911306Y-79909500D01*
X154737341Y-79944103D01*
X154737332Y-79944106D01*
X154573459Y-80011983D01*
X154573446Y-80011990D01*
X154425965Y-80110535D01*
X154425961Y-80110538D01*
X154300538Y-80235961D01*
X154300535Y-80235965D01*
X154201990Y-80383446D01*
X154201983Y-80383459D01*
X154134106Y-80547332D01*
X154134103Y-80547341D01*
X154099500Y-80721304D01*
X154099500Y-80898695D01*
X154134104Y-81072663D01*
X154134106Y-81072666D01*
X154154609Y-81122167D01*
X154162077Y-81191636D01*
X154130801Y-81254115D01*
X154127728Y-81257299D01*
X152895489Y-82489540D01*
X152839541Y-82545487D01*
X152839535Y-82545495D01*
X152799982Y-82614004D01*
X152799979Y-82614009D01*
X152779500Y-82690439D01*
X152779500Y-94640121D01*
X152759815Y-94707160D01*
X152707011Y-94752915D01*
X152693818Y-94758052D01*
X152580778Y-94794781D01*
X152398386Y-94887715D01*
X152232786Y-95008028D01*
X152088028Y-95152786D01*
X151967715Y-95318386D01*
X151920485Y-95411080D01*
X151872510Y-95461876D01*
X151804689Y-95478671D01*
X151738554Y-95456134D01*
X151699515Y-95411080D01*
X151674701Y-95362380D01*
X151652287Y-95318390D01*
X151628675Y-95285890D01*
X151531971Y-95152786D01*
X151387213Y-95008028D01*
X151221613Y-94887715D01*
X151221612Y-94887714D01*
X151221610Y-94887713D01*
X151039219Y-94794780D01*
X150926182Y-94758052D01*
X150868506Y-94718614D01*
X150841308Y-94654256D01*
X150840500Y-94640121D01*
X150840500Y-82445832D01*
X150860185Y-82378793D01*
X150876815Y-82358155D01*
X151552701Y-81682268D01*
X151614022Y-81648785D01*
X151683713Y-81653769D01*
X151687832Y-81655390D01*
X151737334Y-81675894D01*
X151737336Y-81675894D01*
X151737341Y-81675896D01*
X151911304Y-81710499D01*
X151911307Y-81710500D01*
X151911309Y-81710500D01*
X152088693Y-81710500D01*
X152088694Y-81710499D01*
X152164277Y-81695465D01*
X152262658Y-81675896D01*
X152262661Y-81675894D01*
X152262666Y-81675894D01*
X152426547Y-81608013D01*
X152574035Y-81509464D01*
X152699464Y-81384035D01*
X152798013Y-81236547D01*
X152865894Y-81072666D01*
X152871206Y-81045965D01*
X152900499Y-80898695D01*
X152900500Y-80898693D01*
X152900500Y-80721306D01*
X152900499Y-80721304D01*
X152865896Y-80547341D01*
X152865893Y-80547332D01*
X152798016Y-80383459D01*
X152798009Y-80383446D01*
X152699464Y-80235965D01*
X152699461Y-80235961D01*
X152574038Y-80110538D01*
X152574034Y-80110535D01*
X152426553Y-80011990D01*
X152426540Y-80011983D01*
X152262667Y-79944106D01*
X152262658Y-79944103D01*
X152088694Y-79909500D01*
X152088691Y-79909500D01*
X151911309Y-79909500D01*
X151911306Y-79909500D01*
X151737341Y-79944103D01*
X151737332Y-79944106D01*
X151573459Y-80011983D01*
X151573446Y-80011990D01*
X151425965Y-80110535D01*
X151425961Y-80110538D01*
X151300538Y-80235961D01*
X151300535Y-80235965D01*
X151201990Y-80383446D01*
X151201983Y-80383459D01*
X151134106Y-80547332D01*
X151134103Y-80547341D01*
X151099500Y-80721304D01*
X151099500Y-80898695D01*
X151134104Y-81072663D01*
X151134106Y-81072666D01*
X151154609Y-81122167D01*
X151162077Y-81191636D01*
X151130801Y-81254115D01*
X151127728Y-81257299D01*
X150355489Y-82029540D01*
X150299541Y-82085487D01*
X150299535Y-82085495D01*
X150259982Y-82154004D01*
X150259979Y-82154009D01*
X150239500Y-82230439D01*
X150239500Y-94640121D01*
X150219815Y-94707160D01*
X150167011Y-94752915D01*
X150153818Y-94758052D01*
X150040778Y-94794781D01*
X149858386Y-94887715D01*
X149692786Y-95008028D01*
X149548032Y-95152782D01*
X149548028Y-95152787D01*
X149524817Y-95184735D01*
X149469487Y-95227401D01*
X149399874Y-95233380D01*
X149338079Y-95200774D01*
X149303722Y-95139936D01*
X149300499Y-95111850D01*
X149300499Y-95095739D01*
X149300499Y-95095734D01*
X149297646Y-95065300D01*
X149286273Y-95032799D01*
X149252793Y-94937117D01*
X149172150Y-94827849D01*
X149070617Y-94752915D01*
X149062883Y-94747207D01*
X149062881Y-94747206D01*
X148934701Y-94702353D01*
X148904271Y-94699500D01*
X148904267Y-94699500D01*
X148424500Y-94699500D01*
X148357461Y-94679815D01*
X148311706Y-94627011D01*
X148300500Y-94575500D01*
X148300500Y-81985832D01*
X148320185Y-81918793D01*
X148336815Y-81898155D01*
X148552701Y-81682268D01*
X148614022Y-81648785D01*
X148683713Y-81653769D01*
X148687832Y-81655390D01*
X148737334Y-81675894D01*
X148737336Y-81675894D01*
X148737341Y-81675896D01*
X148911304Y-81710499D01*
X148911307Y-81710500D01*
X148911309Y-81710500D01*
X149088693Y-81710500D01*
X149088694Y-81710499D01*
X149164277Y-81695465D01*
X149262658Y-81675896D01*
X149262661Y-81675894D01*
X149262666Y-81675894D01*
X149426547Y-81608013D01*
X149574035Y-81509464D01*
X149699464Y-81384035D01*
X149798013Y-81236547D01*
X149865894Y-81072666D01*
X149871206Y-81045965D01*
X149900499Y-80898695D01*
X149900500Y-80898693D01*
X149900500Y-80721306D01*
X149900499Y-80721304D01*
X149865896Y-80547341D01*
X149865893Y-80547332D01*
X149798016Y-80383459D01*
X149798009Y-80383446D01*
X149699464Y-80235965D01*
X149699461Y-80235961D01*
X149574038Y-80110538D01*
X149574034Y-80110535D01*
X149426553Y-80011990D01*
X149426540Y-80011983D01*
X149262667Y-79944106D01*
X149262658Y-79944103D01*
X149088694Y-79909500D01*
X149088691Y-79909500D01*
X148911309Y-79909500D01*
X148911306Y-79909500D01*
X148737341Y-79944103D01*
X148737332Y-79944106D01*
X148573459Y-80011983D01*
X148573446Y-80011990D01*
X148425965Y-80110535D01*
X148425961Y-80110538D01*
X148300538Y-80235961D01*
X148300535Y-80235965D01*
X148201990Y-80383446D01*
X148201983Y-80383459D01*
X148134106Y-80547332D01*
X148134103Y-80547341D01*
X148099500Y-80721304D01*
X148099500Y-80898695D01*
X148134104Y-81072663D01*
X148134106Y-81072666D01*
X148154609Y-81122167D01*
X148162077Y-81191636D01*
X148130801Y-81254115D01*
X148127729Y-81257299D01*
X147815489Y-81569540D01*
X147759541Y-81625487D01*
X147759535Y-81625495D01*
X147719982Y-81694004D01*
X147719979Y-81694009D01*
X147699500Y-81770439D01*
X147699500Y-94575500D01*
X147679815Y-94642539D01*
X147627011Y-94688294D01*
X147575500Y-94699500D01*
X147095739Y-94699500D01*
X147081751Y-94700811D01*
X147065300Y-94702354D01*
X147065297Y-94702354D01*
X147065296Y-94702355D01*
X147065294Y-94702355D01*
X146937117Y-94747206D01*
X146827849Y-94827849D01*
X146747206Y-94937118D01*
X146702353Y-95065297D01*
X146702353Y-95065299D01*
X146699500Y-95095729D01*
X141300499Y-95095729D01*
X141297646Y-95065300D01*
X141286273Y-95032799D01*
X141252793Y-94937117D01*
X141172150Y-94827849D01*
X141070617Y-94752915D01*
X141062883Y-94747207D01*
X141062881Y-94747206D01*
X140934701Y-94702353D01*
X140904271Y-94699500D01*
X140904267Y-94699500D01*
X140014500Y-94699500D01*
X139947461Y-94679815D01*
X139901706Y-94627011D01*
X139890500Y-94575500D01*
X139890500Y-84364784D01*
X139910185Y-84297745D01*
X139962989Y-84251990D01*
X140032147Y-84242046D01*
X140095703Y-84271071D01*
X140102181Y-84277103D01*
X140222214Y-84397136D01*
X140222218Y-84397139D01*
X140386079Y-84506628D01*
X140386092Y-84506635D01*
X140559498Y-84578461D01*
X140568165Y-84582051D01*
X140568169Y-84582051D01*
X140568170Y-84582052D01*
X140761456Y-84620500D01*
X140761459Y-84620500D01*
X140958543Y-84620500D01*
X141108887Y-84590594D01*
X141151835Y-84582051D01*
X141333914Y-84506632D01*
X141497782Y-84397139D01*
X141637139Y-84257782D01*
X141746632Y-84093914D01*
X141822051Y-83911835D01*
X141834632Y-83848582D01*
X141860500Y-83718543D01*
X141860500Y-83521456D01*
X141822052Y-83328170D01*
X141822051Y-83328169D01*
X141822051Y-83328165D01*
X141797328Y-83268477D01*
X141746635Y-83146092D01*
X141746628Y-83146079D01*
X141637139Y-82982218D01*
X141637136Y-82982214D01*
X141497785Y-82842863D01*
X141497781Y-82842860D01*
X141333920Y-82733371D01*
X141333910Y-82733366D01*
X141237047Y-82693244D01*
X141182644Y-82649403D01*
X141160579Y-82583109D01*
X141160500Y-82578683D01*
X141160500Y-77124500D01*
X141180185Y-77057461D01*
X141232989Y-77011706D01*
X141284500Y-77000500D01*
X141464270Y-77000500D01*
X141494699Y-76997646D01*
X141494701Y-76997646D01*
X141558790Y-76975219D01*
X141622882Y-76952793D01*
X141732150Y-76872150D01*
X141812793Y-76762882D01*
X141851621Y-76651918D01*
X141857646Y-76634701D01*
X141857646Y-76634699D01*
X141860500Y-76604269D01*
X141860500Y-75395730D01*
X141857646Y-75365300D01*
X141857646Y-75365298D01*
X141816274Y-75247066D01*
X141812793Y-75237118D01*
X141732150Y-75127850D01*
X141622882Y-75047207D01*
X141622880Y-75047206D01*
X141494700Y-75002353D01*
X141464270Y-74999500D01*
X141464266Y-74999500D01*
X141284500Y-74999500D01*
X141217461Y-74979815D01*
X141171706Y-74927011D01*
X141160500Y-74875500D01*
X141160500Y-72709939D01*
X141180185Y-72642900D01*
X141232989Y-72597145D01*
X141260304Y-72588322D01*
X141291835Y-72582051D01*
X141473914Y-72506632D01*
X141637782Y-72397139D01*
X141777139Y-72257782D01*
X141886632Y-72093914D01*
X141962051Y-71911835D01*
X142000500Y-71718541D01*
X142000500Y-71521459D01*
X142000500Y-71521456D01*
X141962052Y-71328170D01*
X141962051Y-71328169D01*
X141962051Y-71328165D01*
X141962049Y-71328160D01*
X141886635Y-71146092D01*
X141886628Y-71146079D01*
X141777139Y-70982218D01*
X141777136Y-70982214D01*
X141637785Y-70842863D01*
X141637781Y-70842860D01*
X141473920Y-70733371D01*
X141473910Y-70733366D01*
X141377047Y-70693244D01*
X141322644Y-70649403D01*
X141300579Y-70583109D01*
X141300500Y-70578683D01*
X141300500Y-65124500D01*
X141320185Y-65057461D01*
X141372989Y-65011706D01*
X141424500Y-65000500D01*
X141604270Y-65000500D01*
X141617791Y-64999231D01*
X141634699Y-64997646D01*
X141637237Y-64996757D01*
X141639235Y-64996655D01*
X141642073Y-64996036D01*
X141642175Y-64996505D01*
X141707013Y-64993190D01*
X141767643Y-65027913D01*
X141799876Y-65089904D01*
X141802200Y-65113796D01*
X141802200Y-69041462D01*
X141810559Y-69072658D01*
X141822679Y-69117890D01*
X141822680Y-69117891D01*
X141840072Y-69148015D01*
X141862240Y-69186411D01*
X147976140Y-75300311D01*
X148032089Y-75356260D01*
X148032091Y-75356261D01*
X148032095Y-75356264D01*
X148100453Y-75395730D01*
X148100611Y-75395821D01*
X148177038Y-75416300D01*
X148177040Y-75416300D01*
X156923760Y-75416300D01*
X156923762Y-75416300D01*
X157000189Y-75395821D01*
X157068711Y-75356260D01*
X157124660Y-75300311D01*
X157552701Y-74872268D01*
X157614022Y-74838785D01*
X157683713Y-74843769D01*
X157687832Y-74845390D01*
X157737334Y-74865894D01*
X157737336Y-74865894D01*
X157737341Y-74865896D01*
X157911304Y-74900499D01*
X157911307Y-74900500D01*
X157911309Y-74900500D01*
X158088693Y-74900500D01*
X158088694Y-74900499D01*
X158146682Y-74888964D01*
X158262658Y-74865896D01*
X158262661Y-74865894D01*
X158262666Y-74865894D01*
X158426547Y-74798013D01*
X158574035Y-74699464D01*
X158699464Y-74574035D01*
X158798013Y-74426547D01*
X158865894Y-74262666D01*
X158867235Y-74255927D01*
X158888964Y-74146682D01*
X158900500Y-74088691D01*
X158900500Y-73911309D01*
X158900500Y-73911306D01*
X158900499Y-73911304D01*
X158865896Y-73737341D01*
X158865893Y-73737332D01*
X158798016Y-73573459D01*
X158798009Y-73573446D01*
X158699464Y-73425965D01*
X158699461Y-73425961D01*
X158574038Y-73300538D01*
X158574034Y-73300535D01*
X158426553Y-73201990D01*
X158426540Y-73201983D01*
X158262667Y-73134106D01*
X158262658Y-73134103D01*
X158088694Y-73099500D01*
X158088691Y-73099500D01*
X157911309Y-73099500D01*
X157911306Y-73099500D01*
X157737341Y-73134103D01*
X157737332Y-73134106D01*
X157573459Y-73201983D01*
X157573446Y-73201990D01*
X157425965Y-73300535D01*
X157425961Y-73300538D01*
X157300538Y-73425961D01*
X157300535Y-73425965D01*
X157201990Y-73573446D01*
X157201983Y-73573459D01*
X157134106Y-73737332D01*
X157134103Y-73737341D01*
X157099500Y-73911304D01*
X157099500Y-74088695D01*
X157134104Y-74262663D01*
X157134106Y-74262666D01*
X157154609Y-74312167D01*
X157162077Y-74381636D01*
X157130801Y-74444115D01*
X157127729Y-74447299D01*
X156796046Y-74778982D01*
X156734725Y-74812466D01*
X156708367Y-74815300D01*
X154099033Y-74815300D01*
X154031994Y-74795615D01*
X153986239Y-74742811D01*
X153976295Y-74673653D01*
X154005320Y-74610097D01*
X154011352Y-74603619D01*
X154141742Y-74473229D01*
X154552701Y-74062268D01*
X154614022Y-74028785D01*
X154683713Y-74033769D01*
X154687832Y-74035390D01*
X154737334Y-74055894D01*
X154737336Y-74055894D01*
X154737341Y-74055896D01*
X154911304Y-74090499D01*
X154911307Y-74090500D01*
X154911309Y-74090500D01*
X155088693Y-74090500D01*
X155088694Y-74090499D01*
X155146682Y-74078964D01*
X155262658Y-74055896D01*
X155262661Y-74055894D01*
X155262666Y-74055894D01*
X155426547Y-73988013D01*
X155574035Y-73889464D01*
X155699464Y-73764035D01*
X155798013Y-73616547D01*
X155865894Y-73452666D01*
X155867360Y-73445300D01*
X155892856Y-73317118D01*
X155900500Y-73278691D01*
X155900500Y-73101309D01*
X155900500Y-73101306D01*
X155900499Y-73101304D01*
X155865896Y-72927341D01*
X155865893Y-72927332D01*
X155798016Y-72763459D01*
X155798009Y-72763446D01*
X155699464Y-72615965D01*
X155699461Y-72615961D01*
X155574038Y-72490538D01*
X155574034Y-72490535D01*
X155426553Y-72391990D01*
X155426540Y-72391983D01*
X155262667Y-72324106D01*
X155262658Y-72324103D01*
X155088694Y-72289500D01*
X155088691Y-72289500D01*
X154911309Y-72289500D01*
X154911306Y-72289500D01*
X154737341Y-72324103D01*
X154737332Y-72324106D01*
X154573459Y-72391983D01*
X154573446Y-72391990D01*
X154425965Y-72490535D01*
X154425961Y-72490538D01*
X154300538Y-72615961D01*
X154300535Y-72615965D01*
X154201990Y-72763446D01*
X154201983Y-72763459D01*
X154134106Y-72927332D01*
X154134103Y-72927341D01*
X154099500Y-73101304D01*
X154099500Y-73278695D01*
X154134104Y-73452663D01*
X154134106Y-73452666D01*
X154154609Y-73502167D01*
X154162077Y-73571636D01*
X154130801Y-73634115D01*
X154127728Y-73637299D01*
X153421448Y-74343581D01*
X153360125Y-74377066D01*
X153333767Y-74379900D01*
X151534432Y-74379900D01*
X151467393Y-74360215D01*
X151421638Y-74307411D01*
X151411694Y-74238253D01*
X151440719Y-74174697D01*
X151446730Y-74168239D01*
X151552702Y-74062267D01*
X151614021Y-74028785D01*
X151683713Y-74033769D01*
X151687832Y-74035390D01*
X151737334Y-74055894D01*
X151737336Y-74055894D01*
X151737341Y-74055896D01*
X151911304Y-74090499D01*
X151911307Y-74090500D01*
X151911309Y-74090500D01*
X152088693Y-74090500D01*
X152088694Y-74090499D01*
X152146682Y-74078964D01*
X152262658Y-74055896D01*
X152262661Y-74055894D01*
X152262666Y-74055894D01*
X152426547Y-73988013D01*
X152574035Y-73889464D01*
X152699464Y-73764035D01*
X152798013Y-73616547D01*
X152865894Y-73452666D01*
X152867360Y-73445300D01*
X152892856Y-73317118D01*
X152900500Y-73278691D01*
X152900500Y-73101309D01*
X152900500Y-73101306D01*
X152900499Y-73101304D01*
X152865896Y-72927341D01*
X152865893Y-72927332D01*
X152798016Y-72763459D01*
X152798009Y-72763446D01*
X152699464Y-72615965D01*
X152699461Y-72615961D01*
X152574038Y-72490538D01*
X152574034Y-72490535D01*
X152426553Y-72391990D01*
X152426540Y-72391983D01*
X152262667Y-72324106D01*
X152262658Y-72324103D01*
X152088694Y-72289500D01*
X152088691Y-72289500D01*
X151911309Y-72289500D01*
X151911306Y-72289500D01*
X151737341Y-72324103D01*
X151737332Y-72324106D01*
X151573459Y-72391983D01*
X151573446Y-72391990D01*
X151425965Y-72490535D01*
X151425961Y-72490538D01*
X151300538Y-72615961D01*
X151300535Y-72615965D01*
X151201990Y-72763446D01*
X151201983Y-72763459D01*
X151134106Y-72927332D01*
X151134103Y-72927341D01*
X151099500Y-73101304D01*
X151099500Y-73278695D01*
X151134104Y-73452663D01*
X151134106Y-73452666D01*
X151154609Y-73502167D01*
X151162077Y-73571636D01*
X151130801Y-73634115D01*
X151127729Y-73637299D01*
X150867446Y-73897582D01*
X150806126Y-73931066D01*
X150779767Y-73933900D01*
X149817952Y-73933900D01*
X149750913Y-73914215D01*
X149705158Y-73861411D01*
X149695214Y-73792253D01*
X149714850Y-73741009D01*
X149798009Y-73616553D01*
X149798009Y-73616552D01*
X149798013Y-73616547D01*
X149865894Y-73452666D01*
X149867360Y-73445300D01*
X149892856Y-73317118D01*
X149900500Y-73278691D01*
X149900500Y-73101309D01*
X149900500Y-73101306D01*
X149900499Y-73101304D01*
X149865896Y-72927341D01*
X149865893Y-72927332D01*
X149845390Y-72877832D01*
X149837921Y-72808362D01*
X149869197Y-72745883D01*
X149872240Y-72742729D01*
X150638760Y-71976211D01*
X150657062Y-71944511D01*
X150678321Y-71907689D01*
X150698800Y-71831262D01*
X150698800Y-56402971D01*
X151129599Y-56402971D01*
X151154597Y-56528638D01*
X151154599Y-56528644D01*
X151203633Y-56647024D01*
X151203638Y-56647033D01*
X151274823Y-56753568D01*
X151274826Y-56753572D01*
X151365427Y-56844173D01*
X151365431Y-56844176D01*
X151471966Y-56915361D01*
X151471975Y-56915366D01*
X151497945Y-56926123D01*
X151590356Y-56964401D01*
X151590360Y-56964401D01*
X151590361Y-56964402D01*
X151700244Y-56986260D01*
X151762155Y-57018645D01*
X151796729Y-57079361D01*
X151792989Y-57149131D01*
X151779157Y-57176764D01*
X151771538Y-57188167D01*
X151771533Y-57188175D01*
X151722499Y-57306555D01*
X151722497Y-57306561D01*
X151697500Y-57432228D01*
X151697500Y-57432231D01*
X151697500Y-57560369D01*
X151697500Y-57560371D01*
X151697499Y-57560371D01*
X151722497Y-57686038D01*
X151722499Y-57686044D01*
X151771533Y-57804424D01*
X151771538Y-57804433D01*
X151842723Y-57910968D01*
X151842726Y-57910972D01*
X151933328Y-58001574D01*
X151933331Y-58001576D01*
X151992391Y-58041039D01*
X152037195Y-58094649D01*
X152047500Y-58144140D01*
X152047500Y-65197562D01*
X152049253Y-65204104D01*
X152067979Y-65273991D01*
X152067981Y-65273994D01*
X152095646Y-65321910D01*
X152095648Y-65321912D01*
X152107542Y-65342514D01*
X152107543Y-65342515D01*
X156127728Y-69362699D01*
X156161213Y-69424022D01*
X156156229Y-69493714D01*
X156154609Y-69497830D01*
X156134107Y-69547328D01*
X156134104Y-69547336D01*
X156099500Y-69721304D01*
X156099500Y-69898695D01*
X156134103Y-70072658D01*
X156134106Y-70072667D01*
X156201983Y-70236540D01*
X156201990Y-70236553D01*
X156300535Y-70384034D01*
X156300538Y-70384038D01*
X156425961Y-70509461D01*
X156425965Y-70509464D01*
X156573446Y-70608009D01*
X156573459Y-70608016D01*
X156666237Y-70646445D01*
X156737334Y-70675894D01*
X156737336Y-70675894D01*
X156737341Y-70675896D01*
X156911304Y-70710499D01*
X156911307Y-70710500D01*
X156911309Y-70710500D01*
X157088693Y-70710500D01*
X157088694Y-70710499D01*
X157151165Y-70698073D01*
X157262658Y-70675896D01*
X157262661Y-70675894D01*
X157262666Y-70675894D01*
X157426547Y-70608013D01*
X157574035Y-70509464D01*
X157699464Y-70384035D01*
X157798013Y-70236547D01*
X157865894Y-70072666D01*
X157900500Y-69898691D01*
X157900500Y-69721309D01*
X157900500Y-69721306D01*
X157900499Y-69721304D01*
X157865896Y-69547341D01*
X157865893Y-69547332D01*
X157865891Y-69547328D01*
X157825414Y-69449605D01*
X157798016Y-69383459D01*
X157798009Y-69383446D01*
X157699464Y-69235965D01*
X157699461Y-69235961D01*
X157574038Y-69110538D01*
X157574034Y-69110535D01*
X157426553Y-69011990D01*
X157426540Y-69011983D01*
X157262667Y-68944106D01*
X157262658Y-68944103D01*
X157088694Y-68909500D01*
X157088691Y-68909500D01*
X156911309Y-68909500D01*
X156911306Y-68909500D01*
X156737336Y-68944104D01*
X156737328Y-68944107D01*
X156687830Y-68964609D01*
X156667955Y-68966745D01*
X156649226Y-68973731D01*
X156633926Y-68970402D01*
X156618360Y-68972076D01*
X156600485Y-68963127D01*
X156580953Y-68958879D01*
X156558660Y-68942191D01*
X156555882Y-68940800D01*
X156552699Y-68937728D01*
X156336275Y-68721304D01*
X160099500Y-68721304D01*
X160099500Y-68898695D01*
X160134103Y-69072658D01*
X160134106Y-69072667D01*
X160201983Y-69236540D01*
X160201990Y-69236553D01*
X160300535Y-69384034D01*
X160300538Y-69384038D01*
X160425961Y-69509461D01*
X160425965Y-69509464D01*
X160573446Y-69608009D01*
X160573459Y-69608016D01*
X160696363Y-69658923D01*
X160737334Y-69675894D01*
X160737336Y-69675894D01*
X160737341Y-69675896D01*
X160911304Y-69710499D01*
X160911307Y-69710500D01*
X160911309Y-69710500D01*
X161088693Y-69710500D01*
X161088694Y-69710499D01*
X161146682Y-69698964D01*
X161262658Y-69675896D01*
X161262661Y-69675894D01*
X161262666Y-69675894D01*
X161426547Y-69608013D01*
X161574035Y-69509464D01*
X161699464Y-69384035D01*
X161798013Y-69236547D01*
X161865894Y-69072666D01*
X161872102Y-69041460D01*
X161900499Y-68898695D01*
X161900500Y-68898693D01*
X161900500Y-68721306D01*
X161900499Y-68721304D01*
X161865896Y-68547341D01*
X161865893Y-68547332D01*
X161845390Y-68497832D01*
X161837921Y-68428362D01*
X161869197Y-68365883D01*
X161872241Y-68362728D01*
X163517060Y-66717911D01*
X163556622Y-66649388D01*
X163577100Y-66572962D01*
X163577100Y-66493838D01*
X163577100Y-59701340D01*
X163596785Y-59634301D01*
X163632207Y-59598239D01*
X163691269Y-59558776D01*
X163781876Y-59468169D01*
X163853065Y-59361627D01*
X163902101Y-59243244D01*
X163927100Y-59117569D01*
X163927100Y-58989431D01*
X163927100Y-58989428D01*
X163902102Y-58863761D01*
X163902101Y-58863760D01*
X163902101Y-58863756D01*
X163853065Y-58745373D01*
X163853064Y-58745372D01*
X163853061Y-58745366D01*
X163781876Y-58638831D01*
X163781873Y-58638827D01*
X163691272Y-58548226D01*
X163691268Y-58548223D01*
X163584733Y-58477038D01*
X163584724Y-58477033D01*
X163466344Y-58427999D01*
X163466338Y-58427997D01*
X163340671Y-58403000D01*
X163340669Y-58403000D01*
X163212531Y-58403000D01*
X163212529Y-58403000D01*
X163086861Y-58427997D01*
X163086855Y-58427999D01*
X162968475Y-58477033D01*
X162968466Y-58477038D01*
X162861931Y-58548223D01*
X162861927Y-58548226D01*
X162771326Y-58638827D01*
X162771323Y-58638831D01*
X162700138Y-58745366D01*
X162700133Y-58745375D01*
X162651099Y-58863755D01*
X162651097Y-58863761D01*
X162626100Y-58989428D01*
X162626100Y-58989431D01*
X162626100Y-59117569D01*
X162626100Y-59117571D01*
X162626099Y-59117571D01*
X162651097Y-59243238D01*
X162651099Y-59243244D01*
X162700133Y-59361624D01*
X162700138Y-59361633D01*
X162771323Y-59468168D01*
X162771326Y-59468172D01*
X162861928Y-59558774D01*
X162861931Y-59558776D01*
X162920991Y-59598239D01*
X162965795Y-59651849D01*
X162976100Y-59701340D01*
X162976100Y-66357566D01*
X162956415Y-66424605D01*
X162939781Y-66445247D01*
X161447299Y-67937728D01*
X161385976Y-67971213D01*
X161316284Y-67966229D01*
X161312167Y-67964609D01*
X161262666Y-67944106D01*
X161262663Y-67944104D01*
X161088694Y-67909500D01*
X161088691Y-67909500D01*
X160911309Y-67909500D01*
X160911306Y-67909500D01*
X160737341Y-67944103D01*
X160737332Y-67944106D01*
X160573459Y-68011983D01*
X160573446Y-68011990D01*
X160425965Y-68110535D01*
X160425961Y-68110538D01*
X160300538Y-68235961D01*
X160300535Y-68235965D01*
X160201990Y-68383446D01*
X160201983Y-68383459D01*
X160134106Y-68547332D01*
X160134103Y-68547341D01*
X160099500Y-68721304D01*
X156336275Y-68721304D01*
X152684819Y-65069848D01*
X152651334Y-65008525D01*
X152648500Y-64982167D01*
X152648500Y-58144140D01*
X152668185Y-58077101D01*
X152703607Y-58041039D01*
X152762669Y-58001576D01*
X152853276Y-57910969D01*
X152924465Y-57804427D01*
X152973501Y-57686044D01*
X152989055Y-57607853D01*
X152998500Y-57560371D01*
X152998500Y-57432228D01*
X152973502Y-57306561D01*
X152973501Y-57306560D01*
X152973501Y-57306556D01*
X152924465Y-57188173D01*
X152924464Y-57188172D01*
X152924461Y-57188166D01*
X152853276Y-57081631D01*
X152853273Y-57081627D01*
X152762672Y-56991026D01*
X152762668Y-56991023D01*
X152656133Y-56919838D01*
X152656124Y-56919833D01*
X152537744Y-56870799D01*
X152537739Y-56870797D01*
X152427854Y-56848939D01*
X152365944Y-56816553D01*
X152331370Y-56755837D01*
X152335111Y-56686068D01*
X152348947Y-56658428D01*
X152356562Y-56647031D01*
X152356565Y-56647027D01*
X152405601Y-56528644D01*
X152430600Y-56402969D01*
X152430600Y-56274831D01*
X152430599Y-56274828D01*
X152416742Y-56205165D01*
X152422969Y-56135573D01*
X152450676Y-56093293D01*
X154697752Y-53846219D01*
X154759075Y-53812734D01*
X154785433Y-53809900D01*
X157573959Y-53809900D01*
X157640998Y-53829585D01*
X157677061Y-53865009D01*
X157716523Y-53924068D01*
X157716526Y-53924072D01*
X157807127Y-54014673D01*
X157807131Y-54014676D01*
X157913666Y-54085861D01*
X157913672Y-54085864D01*
X157913673Y-54085865D01*
X158032056Y-54134901D01*
X158032060Y-54134901D01*
X158032061Y-54134902D01*
X158157728Y-54159900D01*
X158157731Y-54159900D01*
X158285871Y-54159900D01*
X158370415Y-54143082D01*
X158411544Y-54134901D01*
X158529927Y-54085865D01*
X158636469Y-54014676D01*
X158727076Y-53924069D01*
X158798265Y-53817527D01*
X158847301Y-53699144D01*
X158872300Y-53573469D01*
X158872300Y-53445331D01*
X158872300Y-53445328D01*
X158847302Y-53319661D01*
X158847301Y-53319660D01*
X158847301Y-53319656D01*
X158798265Y-53201273D01*
X158798264Y-53201272D01*
X158798261Y-53201266D01*
X158727076Y-53094731D01*
X158727073Y-53094727D01*
X158636472Y-53004126D01*
X158636468Y-53004123D01*
X158529933Y-52932938D01*
X158529924Y-52932933D01*
X158411544Y-52883899D01*
X158411538Y-52883897D01*
X158285871Y-52858900D01*
X158285869Y-52858900D01*
X158157731Y-52858900D01*
X158157729Y-52858900D01*
X158032061Y-52883897D01*
X158032055Y-52883899D01*
X157913675Y-52932933D01*
X157913666Y-52932938D01*
X157807131Y-53004123D01*
X157807127Y-53004126D01*
X157716526Y-53094727D01*
X157716523Y-53094731D01*
X157677061Y-53153791D01*
X157623449Y-53198596D01*
X157573959Y-53208900D01*
X154570038Y-53208900D01*
X154519086Y-53222552D01*
X154493610Y-53229379D01*
X154458870Y-53249437D01*
X154458868Y-53249437D01*
X154425095Y-53268935D01*
X154425087Y-53268941D01*
X152025706Y-55668321D01*
X151964383Y-55701806D01*
X151913833Y-55702257D01*
X151844171Y-55688400D01*
X151844169Y-55688400D01*
X151716031Y-55688400D01*
X151716029Y-55688400D01*
X151590361Y-55713397D01*
X151590355Y-55713399D01*
X151471975Y-55762433D01*
X151471966Y-55762438D01*
X151365431Y-55833623D01*
X151365427Y-55833626D01*
X151274826Y-55924227D01*
X151274823Y-55924231D01*
X151203638Y-56030766D01*
X151203633Y-56030775D01*
X151154599Y-56149155D01*
X151154597Y-56149161D01*
X151129600Y-56274828D01*
X151129600Y-56274829D01*
X151129600Y-56274831D01*
X151129600Y-56402969D01*
X151129600Y-56402971D01*
X151129599Y-56402971D01*
X150698800Y-56402971D01*
X150698800Y-49696660D01*
X150718485Y-49629621D01*
X150771289Y-49583866D01*
X150840447Y-49573922D01*
X150891690Y-49593558D01*
X151052400Y-49700940D01*
X151052401Y-49700940D01*
X151052402Y-49700941D01*
X151243580Y-49780130D01*
X151388052Y-49808867D01*
X151446530Y-49820499D01*
X151446534Y-49820500D01*
X151446535Y-49820500D01*
X151653466Y-49820500D01*
X151653467Y-49820499D01*
X151856420Y-49780130D01*
X152047598Y-49700941D01*
X152219655Y-49585977D01*
X152365977Y-49439655D01*
X152480941Y-49267598D01*
X152560130Y-49076420D01*
X152600500Y-48873465D01*
X152600500Y-48666535D01*
X152600499Y-48666530D01*
X153039500Y-48666530D01*
X153039500Y-48873469D01*
X153079868Y-49076412D01*
X153079870Y-49076420D01*
X153159059Y-49267598D01*
X153184352Y-49305452D01*
X153274024Y-49439657D01*
X153420342Y-49585975D01*
X153420345Y-49585977D01*
X153592402Y-49700941D01*
X153783580Y-49780130D01*
X153928052Y-49808867D01*
X153986530Y-49820499D01*
X153986534Y-49820500D01*
X153986535Y-49820500D01*
X154193466Y-49820500D01*
X154193467Y-49820499D01*
X154396420Y-49780130D01*
X154587598Y-49700941D01*
X154759655Y-49585977D01*
X154905977Y-49439655D01*
X155020941Y-49267598D01*
X155100130Y-49076420D01*
X155140500Y-48873465D01*
X155140500Y-48666535D01*
X155100130Y-48463580D01*
X155020941Y-48272402D01*
X154905977Y-48100345D01*
X154905975Y-48100342D01*
X154759657Y-47954024D01*
X154591655Y-47841770D01*
X154587598Y-47839059D01*
X154396420Y-47759870D01*
X154396412Y-47759868D01*
X154193469Y-47719500D01*
X154193465Y-47719500D01*
X153986535Y-47719500D01*
X153986530Y-47719500D01*
X153783587Y-47759868D01*
X153783579Y-47759870D01*
X153592403Y-47839058D01*
X153420342Y-47954024D01*
X153274024Y-48100342D01*
X153159058Y-48272403D01*
X153079870Y-48463579D01*
X153079868Y-48463587D01*
X153039500Y-48666530D01*
X152600499Y-48666530D01*
X152560130Y-48463580D01*
X152480941Y-48272402D01*
X152365977Y-48100345D01*
X152365975Y-48100342D01*
X152219657Y-47954024D01*
X152051655Y-47841770D01*
X152047598Y-47839059D01*
X151894029Y-47775448D01*
X151856418Y-47759869D01*
X151853810Y-47759078D01*
X151852612Y-47758293D01*
X151850792Y-47757539D01*
X151850935Y-47757193D01*
X151795374Y-47720775D01*
X151766923Y-47656960D01*
X151777489Y-47587894D01*
X151786568Y-47572952D01*
X151790464Y-47566204D01*
X151830021Y-47497689D01*
X151850500Y-47421262D01*
X151850500Y-47393713D01*
X160149500Y-47393713D01*
X160149500Y-47606286D01*
X160180260Y-47800500D01*
X160182754Y-47816243D01*
X160227678Y-47954505D01*
X160248444Y-48018414D01*
X160344951Y-48207820D01*
X160469890Y-48379786D01*
X160620213Y-48530109D01*
X160792179Y-48655048D01*
X160792181Y-48655049D01*
X160792184Y-48655051D01*
X160981588Y-48751557D01*
X161183757Y-48817246D01*
X161393713Y-48850500D01*
X161393714Y-48850500D01*
X161606286Y-48850500D01*
X161606287Y-48850500D01*
X161816243Y-48817246D01*
X162018412Y-48751557D01*
X162207816Y-48655051D01*
X162229789Y-48639086D01*
X162379786Y-48530109D01*
X162379788Y-48530106D01*
X162379792Y-48530104D01*
X162530104Y-48379792D01*
X162530106Y-48379788D01*
X162530109Y-48379786D01*
X162640307Y-48228109D01*
X162655051Y-48207816D01*
X162751557Y-48018412D01*
X162817246Y-47816243D01*
X162850500Y-47606287D01*
X162850500Y-47393713D01*
X162817246Y-47183757D01*
X162751557Y-46981588D01*
X162655051Y-46792184D01*
X162655049Y-46792181D01*
X162655048Y-46792179D01*
X162530109Y-46620213D01*
X162379786Y-46469890D01*
X162207820Y-46344951D01*
X162018414Y-46248444D01*
X162018413Y-46248443D01*
X162018412Y-46248443D01*
X161816243Y-46182754D01*
X161816241Y-46182753D01*
X161816240Y-46182753D01*
X161649757Y-46156385D01*
X161606287Y-46149500D01*
X161393713Y-46149500D01*
X161350243Y-46156385D01*
X161183760Y-46182753D01*
X160981585Y-46248444D01*
X160792179Y-46344951D01*
X160620213Y-46469890D01*
X160469890Y-46620213D01*
X160344951Y-46792179D01*
X160248444Y-46981585D01*
X160182753Y-47183760D01*
X160149500Y-47393713D01*
X151850500Y-47393713D01*
X151850500Y-47325435D01*
X151870185Y-47258396D01*
X151922989Y-47212641D01*
X151927012Y-47210889D01*
X152047598Y-47160941D01*
X152219655Y-47045977D01*
X152365977Y-46899655D01*
X152480941Y-46727598D01*
X152560130Y-46536420D01*
X152600500Y-46333465D01*
X152600500Y-46126535D01*
X152600499Y-46126530D01*
X153039500Y-46126530D01*
X153039500Y-46333469D01*
X153079868Y-46536412D01*
X153079870Y-46536420D01*
X153159059Y-46727598D01*
X153202210Y-46792179D01*
X153274024Y-46899657D01*
X153420342Y-47045975D01*
X153420345Y-47045977D01*
X153592402Y-47160941D01*
X153783580Y-47240130D01*
X153919792Y-47267224D01*
X153986530Y-47280499D01*
X153986534Y-47280500D01*
X153986535Y-47280500D01*
X154193466Y-47280500D01*
X154193467Y-47280499D01*
X154396420Y-47240130D01*
X154587598Y-47160941D01*
X154759655Y-47045977D01*
X154905977Y-46899655D01*
X155020941Y-46727598D01*
X155100130Y-46536420D01*
X155140500Y-46333465D01*
X155140500Y-46126535D01*
X155140499Y-46126530D01*
X155579500Y-46126530D01*
X155579500Y-46333469D01*
X155619868Y-46536412D01*
X155619870Y-46536420D01*
X155699059Y-46727598D01*
X155742210Y-46792179D01*
X155814024Y-46899657D01*
X155960342Y-47045975D01*
X155960345Y-47045977D01*
X156132402Y-47160941D01*
X156323580Y-47240130D01*
X156459792Y-47267224D01*
X156526530Y-47280499D01*
X156526534Y-47280500D01*
X156526535Y-47280500D01*
X156733466Y-47280500D01*
X156733467Y-47280499D01*
X156752310Y-47276751D01*
X156800211Y-47267224D01*
X156863911Y-47254552D01*
X156936420Y-47240130D01*
X157127598Y-47160941D01*
X157299655Y-47045977D01*
X157445977Y-46899655D01*
X157560941Y-46727598D01*
X157640130Y-46536420D01*
X157680500Y-46333465D01*
X157680500Y-46126535D01*
X157640130Y-45923580D01*
X157560941Y-45732402D01*
X157445977Y-45560345D01*
X157445975Y-45560342D01*
X157299657Y-45414024D01*
X157158340Y-45319600D01*
X157127598Y-45299059D01*
X156936420Y-45219870D01*
X156936412Y-45219868D01*
X156733469Y-45179500D01*
X156733465Y-45179500D01*
X156526535Y-45179500D01*
X156526530Y-45179500D01*
X156323587Y-45219868D01*
X156323579Y-45219870D01*
X156132403Y-45299058D01*
X155960342Y-45414024D01*
X155814024Y-45560342D01*
X155699058Y-45732403D01*
X155619870Y-45923579D01*
X155619868Y-45923587D01*
X155579500Y-46126530D01*
X155140499Y-46126530D01*
X155100130Y-45923580D01*
X155020941Y-45732402D01*
X154905977Y-45560345D01*
X154905975Y-45560342D01*
X154759657Y-45414024D01*
X154618340Y-45319600D01*
X154587598Y-45299059D01*
X154396420Y-45219870D01*
X154396412Y-45219868D01*
X154193469Y-45179500D01*
X154193465Y-45179500D01*
X153986535Y-45179500D01*
X153986530Y-45179500D01*
X153783587Y-45219868D01*
X153783579Y-45219870D01*
X153592403Y-45299058D01*
X153420342Y-45414024D01*
X153274024Y-45560342D01*
X153159058Y-45732403D01*
X153079870Y-45923579D01*
X153079868Y-45923587D01*
X153039500Y-46126530D01*
X152600499Y-46126530D01*
X152560130Y-45923580D01*
X152480941Y-45732402D01*
X152365977Y-45560345D01*
X152365975Y-45560342D01*
X152219657Y-45414024D01*
X152078340Y-45319600D01*
X152047598Y-45299059D01*
X151856420Y-45219870D01*
X151856412Y-45219868D01*
X151653469Y-45179500D01*
X151653465Y-45179500D01*
X151446535Y-45179500D01*
X151446530Y-45179500D01*
X151243587Y-45219868D01*
X151243579Y-45219870D01*
X151052403Y-45299058D01*
X150880342Y-45414024D01*
X150734024Y-45560342D01*
X150619058Y-45732403D01*
X150539870Y-45923579D01*
X150539868Y-45923587D01*
X150499500Y-46126530D01*
X150499500Y-46333469D01*
X150539868Y-46536412D01*
X150539870Y-46536420D01*
X150619059Y-46727598D01*
X150662210Y-46792179D01*
X150734024Y-46899657D01*
X150880344Y-47045977D01*
X150929999Y-47079155D01*
X150974804Y-47132767D01*
X150983511Y-47202092D01*
X150953357Y-47265119D01*
X150948789Y-47269938D01*
X150222959Y-47995769D01*
X150222957Y-47995771D01*
X150213789Y-48004940D01*
X150157840Y-48060889D01*
X150118279Y-48129411D01*
X150105902Y-48175599D01*
X150095152Y-48192115D01*
X150082978Y-48202539D01*
X150074638Y-48216223D01*
X150056988Y-48224796D01*
X150042082Y-48237561D01*
X150026204Y-48239749D01*
X150011790Y-48246751D01*
X149992307Y-48244421D01*
X149972867Y-48247101D01*
X149958328Y-48240358D01*
X149942415Y-48238456D01*
X149927283Y-48225961D01*
X149909481Y-48217706D01*
X149900895Y-48204173D01*
X149888538Y-48193970D01*
X149888127Y-48193358D01*
X149825980Y-48100349D01*
X149825974Y-48100341D01*
X149679657Y-47954024D01*
X149511655Y-47841770D01*
X149507598Y-47839059D01*
X149316420Y-47759870D01*
X149316412Y-47759868D01*
X149113469Y-47719500D01*
X149113465Y-47719500D01*
X148906535Y-47719500D01*
X148906530Y-47719500D01*
X148703587Y-47759868D01*
X148703579Y-47759870D01*
X148512403Y-47839058D01*
X148340342Y-47954024D01*
X148194024Y-48100342D01*
X148079058Y-48272403D01*
X147999870Y-48463579D01*
X147999868Y-48463587D01*
X147959500Y-48666530D01*
X147959500Y-48873469D01*
X147999868Y-49076412D01*
X147999870Y-49076420D01*
X148079059Y-49267598D01*
X148104352Y-49305452D01*
X148194024Y-49439657D01*
X148340342Y-49585975D01*
X148340345Y-49585977D01*
X148512402Y-49700941D01*
X148703580Y-49780130D01*
X148848052Y-49808867D01*
X148906530Y-49820499D01*
X148906534Y-49820500D01*
X148906535Y-49820500D01*
X149113466Y-49820500D01*
X149113467Y-49820499D01*
X149316420Y-49780130D01*
X149507598Y-49700941D01*
X149679655Y-49585977D01*
X149825977Y-49439655D01*
X149870697Y-49372725D01*
X149924309Y-49327920D01*
X149993634Y-49319213D01*
X150056662Y-49349367D01*
X150093382Y-49408810D01*
X150097800Y-49441616D01*
X150097800Y-71615866D01*
X150078115Y-71682905D01*
X150061481Y-71703547D01*
X149447299Y-72317728D01*
X149385976Y-72351213D01*
X149316284Y-72346229D01*
X149312167Y-72344609D01*
X149262666Y-72324106D01*
X149262663Y-72324104D01*
X149088694Y-72289500D01*
X149088691Y-72289500D01*
X148911309Y-72289500D01*
X148911306Y-72289500D01*
X148737341Y-72324103D01*
X148737332Y-72324106D01*
X148573459Y-72391983D01*
X148573446Y-72391990D01*
X148425965Y-72490535D01*
X148425961Y-72490538D01*
X148300538Y-72615961D01*
X148300533Y-72615967D01*
X148255801Y-72682913D01*
X148202189Y-72727717D01*
X148132864Y-72736424D01*
X148069837Y-72706269D01*
X148033118Y-72646825D01*
X148028700Y-72614021D01*
X148028700Y-65015739D01*
X148028700Y-65015738D01*
X148008221Y-64939311D01*
X147997248Y-64920305D01*
X147968664Y-64870795D01*
X147968658Y-64870787D01*
X140338519Y-57240648D01*
X140305034Y-57179325D01*
X140302200Y-57152967D01*
X140302200Y-49441616D01*
X140321885Y-49374577D01*
X140374689Y-49328822D01*
X140443847Y-49318878D01*
X140507403Y-49347903D01*
X140529303Y-49372726D01*
X140574024Y-49439657D01*
X140720342Y-49585975D01*
X140720345Y-49585977D01*
X140892402Y-49700941D01*
X141083580Y-49780130D01*
X141228052Y-49808867D01*
X141286530Y-49820499D01*
X141286534Y-49820500D01*
X141286535Y-49820500D01*
X141493466Y-49820500D01*
X141493467Y-49820499D01*
X141696420Y-49780130D01*
X141887598Y-49700941D01*
X142059655Y-49585977D01*
X142205977Y-49439655D01*
X142320941Y-49267598D01*
X142400130Y-49076420D01*
X142440500Y-48873465D01*
X142440500Y-48666535D01*
X142440499Y-48666530D01*
X142879500Y-48666530D01*
X142879500Y-48873469D01*
X142919868Y-49076412D01*
X142919870Y-49076420D01*
X142999059Y-49267598D01*
X143024352Y-49305452D01*
X143114024Y-49439657D01*
X143260342Y-49585975D01*
X143260345Y-49585977D01*
X143432402Y-49700941D01*
X143623580Y-49780130D01*
X143768052Y-49808867D01*
X143826530Y-49820499D01*
X143826534Y-49820500D01*
X143826535Y-49820500D01*
X144033466Y-49820500D01*
X144033467Y-49820499D01*
X144236420Y-49780130D01*
X144427598Y-49700941D01*
X144599655Y-49585977D01*
X144745977Y-49439655D01*
X144860941Y-49267598D01*
X144940130Y-49076420D01*
X144980500Y-48873465D01*
X144980500Y-48666535D01*
X144980499Y-48666530D01*
X145419500Y-48666530D01*
X145419500Y-48873469D01*
X145459868Y-49076412D01*
X145459870Y-49076420D01*
X145539059Y-49267598D01*
X145564352Y-49305452D01*
X145654024Y-49439657D01*
X145800342Y-49585975D01*
X145800345Y-49585977D01*
X145972402Y-49700941D01*
X146163580Y-49780130D01*
X146308052Y-49808867D01*
X146366530Y-49820499D01*
X146366534Y-49820500D01*
X146366535Y-49820500D01*
X146573466Y-49820500D01*
X146573467Y-49820499D01*
X146776420Y-49780130D01*
X146967598Y-49700941D01*
X147139655Y-49585977D01*
X147285977Y-49439655D01*
X147400941Y-49267598D01*
X147480130Y-49076420D01*
X147520500Y-48873465D01*
X147520500Y-48666535D01*
X147480130Y-48463580D01*
X147400941Y-48272402D01*
X147285977Y-48100345D01*
X147285975Y-48100342D01*
X147139657Y-47954024D01*
X146971655Y-47841770D01*
X146967598Y-47839059D01*
X146776420Y-47759870D01*
X146776412Y-47759868D01*
X146573469Y-47719500D01*
X146573465Y-47719500D01*
X146366535Y-47719500D01*
X146366530Y-47719500D01*
X146163587Y-47759868D01*
X146163579Y-47759870D01*
X145972403Y-47839058D01*
X145800342Y-47954024D01*
X145654024Y-48100342D01*
X145539058Y-48272403D01*
X145459870Y-48463579D01*
X145459868Y-48463587D01*
X145419500Y-48666530D01*
X144980499Y-48666530D01*
X144940130Y-48463580D01*
X144860941Y-48272402D01*
X144745977Y-48100345D01*
X144745975Y-48100342D01*
X144599657Y-47954024D01*
X144431655Y-47841770D01*
X144427598Y-47839059D01*
X144236420Y-47759870D01*
X144236412Y-47759868D01*
X144033469Y-47719500D01*
X144033465Y-47719500D01*
X143826535Y-47719500D01*
X143826530Y-47719500D01*
X143623587Y-47759868D01*
X143623579Y-47759870D01*
X143432403Y-47839058D01*
X143260342Y-47954024D01*
X143114024Y-48100342D01*
X142999058Y-48272403D01*
X142919870Y-48463579D01*
X142919868Y-48463587D01*
X142879500Y-48666530D01*
X142440499Y-48666530D01*
X142400130Y-48463580D01*
X142320941Y-48272402D01*
X142205977Y-48100345D01*
X142205975Y-48100342D01*
X142059657Y-47954024D01*
X141891655Y-47841770D01*
X141887598Y-47839059D01*
X141696420Y-47759870D01*
X141696412Y-47759868D01*
X141493469Y-47719500D01*
X141493465Y-47719500D01*
X141286535Y-47719500D01*
X141286530Y-47719500D01*
X141083587Y-47759868D01*
X141083579Y-47759870D01*
X140892403Y-47839058D01*
X140720342Y-47954024D01*
X140574025Y-48100341D01*
X140574022Y-48100345D01*
X140511872Y-48193359D01*
X140458259Y-48238164D01*
X140388934Y-48246871D01*
X140325907Y-48216716D01*
X140289188Y-48157273D01*
X140289065Y-48156820D01*
X140281721Y-48129411D01*
X140245861Y-48067299D01*
X140242164Y-48060895D01*
X140242158Y-48060887D01*
X139451209Y-47269938D01*
X139417724Y-47208615D01*
X139422708Y-47138923D01*
X139464580Y-47082990D01*
X139470000Y-47079155D01*
X139519655Y-47045977D01*
X139665977Y-46899655D01*
X139780941Y-46727598D01*
X139860130Y-46536420D01*
X139900500Y-46333465D01*
X139900500Y-46126535D01*
X139900499Y-46126530D01*
X140339500Y-46126530D01*
X140339500Y-46333469D01*
X140379868Y-46536412D01*
X140379870Y-46536420D01*
X140459059Y-46727598D01*
X140502210Y-46792179D01*
X140574024Y-46899657D01*
X140720342Y-47045975D01*
X140720345Y-47045977D01*
X140892402Y-47160941D01*
X141083580Y-47240130D01*
X141219792Y-47267224D01*
X141286530Y-47280499D01*
X141286534Y-47280500D01*
X141286535Y-47280500D01*
X141493466Y-47280500D01*
X141493467Y-47280499D01*
X141696420Y-47240130D01*
X141887598Y-47160941D01*
X142059655Y-47045977D01*
X142205977Y-46899655D01*
X142320941Y-46727598D01*
X142400130Y-46536420D01*
X142440500Y-46333465D01*
X142440500Y-46126535D01*
X142440499Y-46126530D01*
X145419500Y-46126530D01*
X145419500Y-46333469D01*
X145459868Y-46536412D01*
X145459870Y-46536420D01*
X145539059Y-46727598D01*
X145582210Y-46792179D01*
X145654024Y-46899657D01*
X145800342Y-47045975D01*
X145800345Y-47045977D01*
X145972402Y-47160941D01*
X146163580Y-47240130D01*
X146299792Y-47267224D01*
X146366530Y-47280499D01*
X146366534Y-47280500D01*
X146366535Y-47280500D01*
X146573466Y-47280500D01*
X146573467Y-47280499D01*
X146776420Y-47240130D01*
X146967598Y-47160941D01*
X147139655Y-47045977D01*
X147285977Y-46899655D01*
X147400941Y-46727598D01*
X147480130Y-46536420D01*
X147520500Y-46333465D01*
X147520500Y-46126535D01*
X147480130Y-45923580D01*
X147400941Y-45732402D01*
X147285977Y-45560345D01*
X147285975Y-45560342D01*
X147139657Y-45414024D01*
X146998340Y-45319600D01*
X146967598Y-45299059D01*
X146776420Y-45219870D01*
X146776412Y-45219868D01*
X146573469Y-45179500D01*
X146573465Y-45179500D01*
X146366535Y-45179500D01*
X146366530Y-45179500D01*
X146163587Y-45219868D01*
X146163579Y-45219870D01*
X145972403Y-45299058D01*
X145800342Y-45414024D01*
X145654024Y-45560342D01*
X145539058Y-45732403D01*
X145459870Y-45923579D01*
X145459868Y-45923587D01*
X145419500Y-46126530D01*
X142440499Y-46126530D01*
X142400130Y-45923580D01*
X142320941Y-45732402D01*
X142205977Y-45560345D01*
X142205975Y-45560342D01*
X142059657Y-45414024D01*
X141918340Y-45319600D01*
X141887598Y-45299059D01*
X141696420Y-45219870D01*
X141696412Y-45219868D01*
X141493469Y-45179500D01*
X141493465Y-45179500D01*
X141286535Y-45179500D01*
X141286530Y-45179500D01*
X141083587Y-45219868D01*
X141083579Y-45219870D01*
X140892403Y-45299058D01*
X140720342Y-45414024D01*
X140574024Y-45560342D01*
X140459058Y-45732403D01*
X140379870Y-45923579D01*
X140379868Y-45923587D01*
X140339500Y-46126530D01*
X139900499Y-46126530D01*
X139860130Y-45923580D01*
X139780941Y-45732402D01*
X139665977Y-45560345D01*
X139665975Y-45560342D01*
X139519657Y-45414024D01*
X139378340Y-45319600D01*
X139347598Y-45299059D01*
X139156420Y-45219870D01*
X139156412Y-45219868D01*
X138953469Y-45179500D01*
X138953465Y-45179500D01*
X138746535Y-45179500D01*
X138746530Y-45179500D01*
X138543587Y-45219868D01*
X138543579Y-45219870D01*
X138352403Y-45299058D01*
X138180342Y-45414024D01*
X138034025Y-45560341D01*
X138034020Y-45560347D01*
X137983619Y-45635777D01*
X137930007Y-45680581D01*
X137860682Y-45689288D01*
X137797654Y-45659133D01*
X137792837Y-45654566D01*
X136974713Y-44836442D01*
X136974711Y-44836440D01*
X136971505Y-44834589D01*
X136906191Y-44796880D01*
X136906190Y-44796879D01*
X136880713Y-44790052D01*
X136829762Y-44776400D01*
X135826462Y-44776400D01*
X135747338Y-44776400D01*
X135670910Y-44796878D01*
X135602389Y-44836440D01*
X135602386Y-44836442D01*
X134809978Y-45628850D01*
X134748655Y-45662335D01*
X134678963Y-45657351D01*
X134623030Y-45615479D01*
X134619204Y-45610074D01*
X134585977Y-45560345D01*
X134585975Y-45560342D01*
X134439657Y-45414024D01*
X134298340Y-45319600D01*
X134267598Y-45299059D01*
X134076420Y-45219870D01*
X134076412Y-45219868D01*
X133873469Y-45179500D01*
X133873465Y-45179500D01*
X133666535Y-45179500D01*
X133666530Y-45179500D01*
X133463587Y-45219868D01*
X133463579Y-45219870D01*
X133272403Y-45299058D01*
X133100342Y-45414024D01*
X132954024Y-45560342D01*
X132839058Y-45732403D01*
X132759870Y-45923579D01*
X132759868Y-45923587D01*
X132719500Y-46126530D01*
X132719500Y-46333469D01*
X132759868Y-46536412D01*
X132759870Y-46536420D01*
X132839059Y-46727598D01*
X132882210Y-46792179D01*
X132954024Y-46899657D01*
X133100342Y-47045975D01*
X133100345Y-47045977D01*
X133272402Y-47160941D01*
X133463580Y-47240130D01*
X133599792Y-47267224D01*
X133666530Y-47280499D01*
X133666534Y-47280500D01*
X133666535Y-47280500D01*
X133873466Y-47280500D01*
X133873467Y-47280499D01*
X134076420Y-47240130D01*
X134267598Y-47160941D01*
X134439655Y-47045977D01*
X134585977Y-46899655D01*
X134700941Y-46727598D01*
X134750875Y-46607046D01*
X134794716Y-46552644D01*
X134861010Y-46530579D01*
X134865436Y-46530500D01*
X134961260Y-46530500D01*
X134961262Y-46530500D01*
X135037689Y-46510021D01*
X135064972Y-46494268D01*
X135113250Y-46466397D01*
X135114114Y-46467893D01*
X135170085Y-46446246D01*
X135238532Y-46460275D01*
X135288529Y-46509082D01*
X135299078Y-46533810D01*
X135299869Y-46536418D01*
X135340500Y-46634508D01*
X135379059Y-46727598D01*
X135422210Y-46792179D01*
X135494024Y-46899657D01*
X135640342Y-47045975D01*
X135640345Y-47045977D01*
X135701689Y-47086965D01*
X135746493Y-47140576D01*
X135755202Y-47209901D01*
X135725048Y-47272928D01*
X135720479Y-47277748D01*
X134940008Y-48058220D01*
X134940004Y-48058224D01*
X134934889Y-48063340D01*
X134878940Y-48119289D01*
X134844208Y-48179446D01*
X134838612Y-48186528D01*
X134817165Y-48201723D01*
X134798143Y-48219861D01*
X134789109Y-48221602D01*
X134781602Y-48226921D01*
X134755342Y-48228109D01*
X134729536Y-48233083D01*
X134720995Y-48229663D01*
X134711804Y-48230080D01*
X134689073Y-48216884D01*
X134664671Y-48207115D01*
X134655876Y-48197612D01*
X134651378Y-48195001D01*
X134648793Y-48189959D01*
X134638222Y-48178537D01*
X134585977Y-48100345D01*
X134585975Y-48100342D01*
X134439657Y-47954024D01*
X134271655Y-47841770D01*
X134267598Y-47839059D01*
X134076420Y-47759870D01*
X134076412Y-47759868D01*
X133873469Y-47719500D01*
X133873465Y-47719500D01*
X133666535Y-47719500D01*
X133666530Y-47719500D01*
X133463587Y-47759868D01*
X133463579Y-47759870D01*
X133272403Y-47839058D01*
X133100342Y-47954024D01*
X132954025Y-48100341D01*
X132954020Y-48100348D01*
X132925649Y-48142807D01*
X132872036Y-48187612D01*
X132802711Y-48196318D01*
X132739684Y-48166162D01*
X132734867Y-48161596D01*
X131832812Y-47259541D01*
X131832804Y-47259535D01*
X131764295Y-47219982D01*
X131764290Y-47219979D01*
X131726678Y-47209901D01*
X131687862Y-47199500D01*
X131687860Y-47199500D01*
X131011733Y-47199500D01*
X130944694Y-47179815D01*
X130924052Y-47163181D01*
X130178519Y-46417648D01*
X130145034Y-46356325D01*
X130142200Y-46329967D01*
X130142200Y-45636739D01*
X130139387Y-45626240D01*
X130121721Y-45560311D01*
X130101221Y-45524803D01*
X130082164Y-45491795D01*
X130082158Y-45491787D01*
X130026211Y-45435840D01*
X129369013Y-44778641D01*
X129369011Y-44778639D01*
X129365130Y-44776399D01*
X129365130Y-44776398D01*
X129365128Y-44776398D01*
X129300492Y-44739080D01*
X129300493Y-44739080D01*
X129291460Y-44736659D01*
X129224062Y-44718600D01*
X112992538Y-44718600D01*
X112925139Y-44736659D01*
X112916107Y-44739080D01*
X112851471Y-44776398D01*
X112851470Y-44776399D01*
X112847588Y-44778639D01*
X112847586Y-44778641D01*
X112113248Y-45512981D01*
X112051925Y-45546466D01*
X112025567Y-45549300D01*
X111766294Y-45549300D01*
X111699255Y-45529615D01*
X111678617Y-45512985D01*
X111579655Y-45414023D01*
X111407598Y-45299059D01*
X111216420Y-45219870D01*
X111216412Y-45219868D01*
X111013469Y-45179500D01*
X111013465Y-45179500D01*
X110806535Y-45179500D01*
X110806530Y-45179500D01*
X110603587Y-45219868D01*
X110603579Y-45219870D01*
X110412403Y-45299058D01*
X110352199Y-45339285D01*
X110240345Y-45414023D01*
X110141385Y-45512982D01*
X110080065Y-45546466D01*
X110053706Y-45549300D01*
X109226294Y-45549300D01*
X109159255Y-45529615D01*
X109138617Y-45512985D01*
X109039655Y-45414023D01*
X108867598Y-45299059D01*
X108676420Y-45219870D01*
X108676412Y-45219868D01*
X108473469Y-45179500D01*
X108473465Y-45179500D01*
X108266535Y-45179500D01*
X108266530Y-45179500D01*
X108063587Y-45219868D01*
X108063579Y-45219870D01*
X107872403Y-45299058D01*
X107700342Y-45414024D01*
X107554024Y-45560342D01*
X107439058Y-45732403D01*
X107424144Y-45768407D01*
X107380301Y-45822809D01*
X107314007Y-45844872D01*
X107246308Y-45827591D01*
X107221903Y-45808632D01*
X107009013Y-45595742D01*
X107009011Y-45595740D01*
X106993317Y-45586679D01*
X106947646Y-45560311D01*
X106940491Y-45556180D01*
X106940490Y-45556179D01*
X106904240Y-45546466D01*
X106864062Y-45535700D01*
X102822262Y-45535700D01*
X102743138Y-45535700D01*
X102666710Y-45556178D01*
X102598189Y-45595740D01*
X102598186Y-45595742D01*
X95993741Y-52200187D01*
X95993735Y-52200195D01*
X95954182Y-52268704D01*
X95954179Y-52268709D01*
X95933700Y-52345139D01*
X95933700Y-56164267D01*
X95914015Y-56231306D01*
X95897381Y-56251948D01*
X89299541Y-62849787D01*
X89299535Y-62849795D01*
X89259982Y-62918304D01*
X89259979Y-62918309D01*
X89239500Y-62994739D01*
X89239500Y-63495500D01*
X89219815Y-63562539D01*
X89167011Y-63608294D01*
X89115500Y-63619500D01*
X88635739Y-63619500D01*
X88621751Y-63620811D01*
X88605300Y-63622354D01*
X88605297Y-63622354D01*
X88605296Y-63622355D01*
X88605294Y-63622355D01*
X88477117Y-63667206D01*
X88367849Y-63747849D01*
X88287206Y-63857118D01*
X88242353Y-63985297D01*
X88242353Y-63985299D01*
X88239500Y-64015729D01*
X88239500Y-65824260D01*
X88239501Y-65824266D01*
X88242354Y-65854700D01*
X88242354Y-65854702D01*
X88242355Y-65854703D01*
X88242355Y-65854705D01*
X88287206Y-65982882D01*
X88367849Y-66092150D01*
X88422483Y-66132471D01*
X88477117Y-66172793D01*
X88519844Y-66187744D01*
X88605298Y-66217646D01*
X88614431Y-66218502D01*
X88635733Y-66220500D01*
X88651845Y-66220499D01*
X88718883Y-66240180D01*
X88764641Y-66292982D01*
X88774588Y-66362140D01*
X88745566Y-66425697D01*
X88724736Y-66444816D01*
X88692784Y-66468030D01*
X88548028Y-66612786D01*
X88427715Y-66778386D01*
X88334781Y-66960776D01*
X88271522Y-67155465D01*
X88239500Y-67357648D01*
X88239500Y-67562351D01*
X88271522Y-67764534D01*
X88334781Y-67959223D01*
X88383443Y-68054725D01*
X88414688Y-68116048D01*
X88427715Y-68141613D01*
X88548028Y-68307213D01*
X88692786Y-68451971D01*
X88824042Y-68547332D01*
X88858390Y-68572287D01*
X88974607Y-68631503D01*
X89040776Y-68665218D01*
X89040778Y-68665218D01*
X89040781Y-68665220D01*
X89145137Y-68699127D01*
X89235465Y-68728477D01*
X89336557Y-68744488D01*
X89437648Y-68760500D01*
X89437649Y-68760500D01*
X89642351Y-68760500D01*
X89642352Y-68760500D01*
X89844534Y-68728477D01*
X90039219Y-68665220D01*
X90221610Y-68572287D01*
X90324089Y-68497832D01*
X90387213Y-68451971D01*
X90387215Y-68451968D01*
X90387219Y-68451966D01*
X90531966Y-68307219D01*
X90531968Y-68307215D01*
X90531971Y-68307213D01*
X90584732Y-68234590D01*
X90652287Y-68141610D01*
X90745220Y-67959219D01*
X90808477Y-67764534D01*
X90840500Y-67562352D01*
X90840500Y-67357648D01*
X90808477Y-67155465D01*
X90779127Y-67065137D01*
X90745220Y-66960781D01*
X90745218Y-66960778D01*
X90745218Y-66960776D01*
X90711503Y-66894607D01*
X90652287Y-66778390D01*
X90644556Y-66767749D01*
X90531971Y-66612786D01*
X90387217Y-66468032D01*
X90387212Y-66468028D01*
X90355265Y-66444817D01*
X90312599Y-66389487D01*
X90306620Y-66319874D01*
X90339226Y-66258079D01*
X90400064Y-66223722D01*
X90428150Y-66220499D01*
X90444260Y-66220499D01*
X90444266Y-66220499D01*
X90474700Y-66217646D01*
X90602883Y-66172793D01*
X90712150Y-66092150D01*
X90792793Y-65982883D01*
X90815219Y-65918791D01*
X90837646Y-65854702D01*
X90837646Y-65854700D01*
X90840500Y-65824267D01*
X90840499Y-64015734D01*
X90837646Y-63985300D01*
X90792793Y-63857117D01*
X90712150Y-63747849D01*
X90638123Y-63693215D01*
X90602883Y-63667207D01*
X90602881Y-63667206D01*
X90474701Y-63622353D01*
X90444271Y-63619500D01*
X90444267Y-63619500D01*
X89964500Y-63619500D01*
X89897461Y-63599815D01*
X89851706Y-63547011D01*
X89840500Y-63495500D01*
X89840500Y-63210133D01*
X89860185Y-63143094D01*
X89876819Y-63122452D01*
X93097419Y-59901852D01*
X93158742Y-59868367D01*
X93228434Y-59873351D01*
X93284367Y-59915223D01*
X93308784Y-59980687D01*
X93309100Y-59989533D01*
X93309100Y-69594566D01*
X93289415Y-69661605D01*
X93272781Y-69682247D01*
X89911846Y-73043181D01*
X89850523Y-73076666D01*
X89824165Y-73079500D01*
X88095739Y-73079500D01*
X88081751Y-73080811D01*
X88065300Y-73082354D01*
X88065297Y-73082354D01*
X88065296Y-73082355D01*
X88065294Y-73082355D01*
X87937117Y-73127206D01*
X87827849Y-73207849D01*
X87747206Y-73317118D01*
X87702353Y-73445297D01*
X87702353Y-73445299D01*
X87699500Y-73475729D01*
X87699500Y-75204166D01*
X87679815Y-75271205D01*
X87663181Y-75291847D01*
X87368889Y-75586140D01*
X87312941Y-75642087D01*
X87312935Y-75642095D01*
X87273382Y-75710604D01*
X87273379Y-75710609D01*
X87259726Y-75761562D01*
X87252900Y-75787038D01*
X85116673Y-75787038D01*
X85134952Y-69927525D01*
X86449500Y-69927525D01*
X86449500Y-70072475D01*
X86487016Y-70212484D01*
X86487017Y-70212487D01*
X86559488Y-70338011D01*
X86559490Y-70338013D01*
X86559491Y-70338015D01*
X86661985Y-70440509D01*
X86661986Y-70440510D01*
X86661988Y-70440511D01*
X86787511Y-70512982D01*
X86787512Y-70512982D01*
X86787515Y-70512984D01*
X86927525Y-70550500D01*
X86927528Y-70550500D01*
X87072472Y-70550500D01*
X87072475Y-70550500D01*
X87212485Y-70512984D01*
X87338015Y-70440509D01*
X87440509Y-70338015D01*
X87512984Y-70212485D01*
X87550500Y-70072475D01*
X87550500Y-69927525D01*
X87512984Y-69787515D01*
X87500267Y-69765489D01*
X87440511Y-69661988D01*
X87440506Y-69661982D01*
X87338017Y-69559493D01*
X87338011Y-69559488D01*
X87212488Y-69487017D01*
X87212489Y-69487017D01*
X87201006Y-69483940D01*
X87072475Y-69449500D01*
X86927525Y-69449500D01*
X86798993Y-69483940D01*
X86787511Y-69487017D01*
X86661988Y-69559488D01*
X86661982Y-69559493D01*
X86559493Y-69661982D01*
X86559488Y-69661988D01*
X86487017Y-69787511D01*
X86487016Y-69787515D01*
X86449500Y-69927525D01*
X85134952Y-69927525D01*
X85142875Y-67387525D01*
X86449500Y-67387525D01*
X86449500Y-67532475D01*
X86457506Y-67562352D01*
X86487017Y-67672488D01*
X86559488Y-67798011D01*
X86559490Y-67798013D01*
X86559491Y-67798015D01*
X86661985Y-67900509D01*
X86661986Y-67900510D01*
X86661988Y-67900511D01*
X86787511Y-67972982D01*
X86787512Y-67972982D01*
X86787515Y-67972984D01*
X86927525Y-68010500D01*
X86927528Y-68010500D01*
X87072472Y-68010500D01*
X87072475Y-68010500D01*
X87212485Y-67972984D01*
X87338015Y-67900509D01*
X87440509Y-67798015D01*
X87512984Y-67672485D01*
X87550500Y-67532475D01*
X87550500Y-67387525D01*
X87512984Y-67247515D01*
X87467617Y-67168938D01*
X87440511Y-67121988D01*
X87440506Y-67121982D01*
X87338017Y-67019493D01*
X87338011Y-67019488D01*
X87212488Y-66947017D01*
X87212489Y-66947017D01*
X87201006Y-66943940D01*
X87072475Y-66909500D01*
X86927525Y-66909500D01*
X86798993Y-66943940D01*
X86787511Y-66947017D01*
X86661988Y-67019488D01*
X86661982Y-67019493D01*
X86559493Y-67121982D01*
X86559488Y-67121988D01*
X86487017Y-67247511D01*
X86487016Y-67247515D01*
X86449500Y-67387525D01*
X85142875Y-67387525D01*
X85150799Y-64847525D01*
X86449500Y-64847525D01*
X86449500Y-64992475D01*
X86487016Y-65132485D01*
X86487017Y-65132488D01*
X86559488Y-65258011D01*
X86559490Y-65258013D01*
X86559491Y-65258015D01*
X86661985Y-65360509D01*
X86661986Y-65360510D01*
X86661988Y-65360511D01*
X86787511Y-65432982D01*
X86787512Y-65432982D01*
X86787515Y-65432984D01*
X86927525Y-65470500D01*
X86927528Y-65470500D01*
X87072472Y-65470500D01*
X87072475Y-65470500D01*
X87212485Y-65432984D01*
X87338015Y-65360509D01*
X87440509Y-65258015D01*
X87512984Y-65132485D01*
X87550500Y-64992475D01*
X87550500Y-64847525D01*
X87512984Y-64707515D01*
X87476394Y-64644140D01*
X87440511Y-64581988D01*
X87440506Y-64581982D01*
X87338017Y-64479493D01*
X87338011Y-64479488D01*
X87212488Y-64407017D01*
X87212489Y-64407017D01*
X87201006Y-64403940D01*
X87072475Y-64369500D01*
X86927525Y-64369500D01*
X86798993Y-64403940D01*
X86787511Y-64407017D01*
X86661988Y-64479488D01*
X86661982Y-64479493D01*
X86559493Y-64581982D01*
X86559488Y-64581988D01*
X86487017Y-64707511D01*
X86487016Y-64707515D01*
X86449500Y-64847525D01*
X85150799Y-64847525D01*
X85221960Y-42035842D01*
X85222027Y-42016469D01*
X85222073Y-42016408D01*
X85222073Y-42003340D01*
X85222074Y-42003051D01*
X85222086Y-42003010D01*
X85222268Y-41996528D01*
X85231051Y-41840130D01*
X85239150Y-41695912D01*
X85240704Y-41682116D01*
X85290555Y-41388715D01*
X85293648Y-41375163D01*
X85300742Y-41350542D01*
X85376035Y-41089193D01*
X85380627Y-41076073D01*
X85402040Y-41024375D01*
X85494511Y-40801129D01*
X85500533Y-40788623D01*
X85644496Y-40528143D01*
X85651891Y-40516375D01*
X85708305Y-40436867D01*
X85824105Y-40273661D01*
X85832760Y-40262807D01*
X86031078Y-40040890D01*
X86040890Y-40031078D01*
X86262807Y-39832760D01*
X86273661Y-39824105D01*
X86516380Y-39651887D01*
X86528143Y-39644496D01*
X86788623Y-39500533D01*
X86801129Y-39494511D01*
X87076073Y-39380627D01*
X87089193Y-39376035D01*
X87375169Y-39293646D01*
X87388715Y-39290555D01*
X87682116Y-39240704D01*
X87695912Y-39239150D01*
X87963156Y-39224142D01*
X87996529Y-39222268D01*
X88003161Y-39222073D01*
X88016408Y-39222073D01*
X88016453Y-39222038D01*
X88034132Y-39221993D01*
X88036468Y-39221987D01*
X88036477Y-39221990D01*
X88036494Y-39221987D01*
X161996382Y-39050508D01*
X162003612Y-39050702D01*
G37*
G04 #@! TD.AperFunction*
M02*
