G04 #@! TF.GenerationSoftware,KiCad,Pcbnew,10.0.4*
G04 #@! TF.CreationDate,2026-08-17T19:12:08+05:00*
G04 #@! TF.ProjectId,hat,6861742e-6b69-4636-9164-5f7063625858,rev?*
G04 #@! TF.SameCoordinates,Original*
G04 #@! TF.FileFunction,Legend,Top*
G04 #@! TF.FilePolarity,Positive*
%FSLAX46Y46*%
G04 Gerber Fmt 4.6, Leading zero omitted, Abs format (unit mm)*
G04 Created by KiCad (PCBNEW 10.0.4) date 2026-08-17 19:12:08*
%MOMM*%
%LPD*%
G01*
G04 APERTURE LIST*
%ADD10C,0.150000*%
%ADD11C,0.120000*%
G04 APERTURE END LIST*
D10*
X139289160Y-91822200D02*
X139432017Y-91869819D01*
X139432017Y-91869819D02*
X139670112Y-91869819D01*
X139670112Y-91869819D02*
X139765350Y-91822200D01*
X139765350Y-91822200D02*
X139812969Y-91774580D01*
X139812969Y-91774580D02*
X139860588Y-91679342D01*
X139860588Y-91679342D02*
X139860588Y-91584104D01*
X139860588Y-91584104D02*
X139812969Y-91488866D01*
X139812969Y-91488866D02*
X139765350Y-91441247D01*
X139765350Y-91441247D02*
X139670112Y-91393628D01*
X139670112Y-91393628D02*
X139479636Y-91346009D01*
X139479636Y-91346009D02*
X139384398Y-91298390D01*
X139384398Y-91298390D02*
X139336779Y-91250771D01*
X139336779Y-91250771D02*
X139289160Y-91155533D01*
X139289160Y-91155533D02*
X139289160Y-91060295D01*
X139289160Y-91060295D02*
X139336779Y-90965057D01*
X139336779Y-90965057D02*
X139384398Y-90917438D01*
X139384398Y-90917438D02*
X139479636Y-90869819D01*
X139479636Y-90869819D02*
X139717731Y-90869819D01*
X139717731Y-90869819D02*
X139860588Y-90917438D01*
X143098684Y-90917438D02*
X143003446Y-90869819D01*
X143003446Y-90869819D02*
X142860589Y-90869819D01*
X142860589Y-90869819D02*
X142717732Y-90917438D01*
X142717732Y-90917438D02*
X142622494Y-91012676D01*
X142622494Y-91012676D02*
X142574875Y-91107914D01*
X142574875Y-91107914D02*
X142527256Y-91298390D01*
X142527256Y-91298390D02*
X142527256Y-91441247D01*
X142527256Y-91441247D02*
X142574875Y-91631723D01*
X142574875Y-91631723D02*
X142622494Y-91726961D01*
X142622494Y-91726961D02*
X142717732Y-91822200D01*
X142717732Y-91822200D02*
X142860589Y-91869819D01*
X142860589Y-91869819D02*
X142955827Y-91869819D01*
X142955827Y-91869819D02*
X143098684Y-91822200D01*
X143098684Y-91822200D02*
X143146303Y-91774580D01*
X143146303Y-91774580D02*
X143146303Y-91441247D01*
X143146303Y-91441247D02*
X142955827Y-91441247D01*
X129289160Y-91822200D02*
X129432017Y-91869819D01*
X129432017Y-91869819D02*
X129670112Y-91869819D01*
X129670112Y-91869819D02*
X129765350Y-91822200D01*
X129765350Y-91822200D02*
X129812969Y-91774580D01*
X129812969Y-91774580D02*
X129860588Y-91679342D01*
X129860588Y-91679342D02*
X129860588Y-91584104D01*
X129860588Y-91584104D02*
X129812969Y-91488866D01*
X129812969Y-91488866D02*
X129765350Y-91441247D01*
X129765350Y-91441247D02*
X129670112Y-91393628D01*
X129670112Y-91393628D02*
X129479636Y-91346009D01*
X129479636Y-91346009D02*
X129384398Y-91298390D01*
X129384398Y-91298390D02*
X129336779Y-91250771D01*
X129336779Y-91250771D02*
X129289160Y-91155533D01*
X129289160Y-91155533D02*
X129289160Y-91060295D01*
X129289160Y-91060295D02*
X129336779Y-90965057D01*
X129336779Y-90965057D02*
X129384398Y-90917438D01*
X129384398Y-90917438D02*
X129479636Y-90869819D01*
X129479636Y-90869819D02*
X129717731Y-90869819D01*
X129717731Y-90869819D02*
X129860588Y-90917438D01*
X132574875Y-91869819D02*
X132574875Y-90869819D01*
X132574875Y-90869819D02*
X132812970Y-90869819D01*
X132812970Y-90869819D02*
X132955827Y-90917438D01*
X132955827Y-90917438D02*
X133051065Y-91012676D01*
X133051065Y-91012676D02*
X133098684Y-91107914D01*
X133098684Y-91107914D02*
X133146303Y-91298390D01*
X133146303Y-91298390D02*
X133146303Y-91441247D01*
X133146303Y-91441247D02*
X133098684Y-91631723D01*
X133098684Y-91631723D02*
X133051065Y-91726961D01*
X133051065Y-91726961D02*
X132955827Y-91822200D01*
X132955827Y-91822200D02*
X132812970Y-91869819D01*
X132812970Y-91869819D02*
X132574875Y-91869819D01*
X135860590Y-91346009D02*
X136193923Y-91346009D01*
X136336780Y-91869819D02*
X135860590Y-91869819D01*
X135860590Y-91869819D02*
X135860590Y-90869819D01*
X135860590Y-90869819D02*
X136336780Y-90869819D01*
X114289160Y-91822200D02*
X114432017Y-91869819D01*
X114432017Y-91869819D02*
X114670112Y-91869819D01*
X114670112Y-91869819D02*
X114765350Y-91822200D01*
X114765350Y-91822200D02*
X114812969Y-91774580D01*
X114812969Y-91774580D02*
X114860588Y-91679342D01*
X114860588Y-91679342D02*
X114860588Y-91584104D01*
X114860588Y-91584104D02*
X114812969Y-91488866D01*
X114812969Y-91488866D02*
X114765350Y-91441247D01*
X114765350Y-91441247D02*
X114670112Y-91393628D01*
X114670112Y-91393628D02*
X114479636Y-91346009D01*
X114479636Y-91346009D02*
X114384398Y-91298390D01*
X114384398Y-91298390D02*
X114336779Y-91250771D01*
X114336779Y-91250771D02*
X114289160Y-91155533D01*
X114289160Y-91155533D02*
X114289160Y-91060295D01*
X114289160Y-91060295D02*
X114336779Y-90965057D01*
X114336779Y-90965057D02*
X114384398Y-90917438D01*
X114384398Y-90917438D02*
X114479636Y-90869819D01*
X114479636Y-90869819D02*
X114717731Y-90869819D01*
X114717731Y-90869819D02*
X114860588Y-90917438D01*
X117574875Y-91869819D02*
X117574875Y-90869819D01*
X117574875Y-90869819D02*
X117812970Y-90869819D01*
X117812970Y-90869819D02*
X117955827Y-90917438D01*
X117955827Y-90917438D02*
X118051065Y-91012676D01*
X118051065Y-91012676D02*
X118098684Y-91107914D01*
X118098684Y-91107914D02*
X118146303Y-91298390D01*
X118146303Y-91298390D02*
X118146303Y-91441247D01*
X118146303Y-91441247D02*
X118098684Y-91631723D01*
X118098684Y-91631723D02*
X118051065Y-91726961D01*
X118051065Y-91726961D02*
X117955827Y-91822200D01*
X117955827Y-91822200D02*
X117812970Y-91869819D01*
X117812970Y-91869819D02*
X117574875Y-91869819D01*
X120860590Y-91346009D02*
X121193923Y-91346009D01*
X121336780Y-91869819D02*
X120860590Y-91869819D01*
X120860590Y-91869819D02*
X120860590Y-90869819D01*
X120860590Y-90869819D02*
X121336780Y-90869819D01*
X147241541Y-90869819D02*
X147908207Y-90869819D01*
X147908207Y-90869819D02*
X147241541Y-91869819D01*
X147241541Y-91869819D02*
X147908207Y-91869819D01*
X148289160Y-91488866D02*
X149051065Y-91488866D01*
X148670112Y-91869819D02*
X148670112Y-91107914D01*
X150193922Y-90869819D02*
X150860588Y-90869819D01*
X150860588Y-90869819D02*
X150193922Y-91869819D01*
X150193922Y-91869819D02*
X150860588Y-91869819D01*
X151241541Y-91488866D02*
X152003446Y-91488866D01*
X153146303Y-90869819D02*
X153812969Y-91869819D01*
X153812969Y-90869819D02*
X153146303Y-91869819D01*
X154193922Y-91488866D02*
X154955827Y-91488866D01*
X156098684Y-90869819D02*
X156765350Y-91869819D01*
X156765350Y-90869819D02*
X156098684Y-91869819D01*
X157146303Y-91488866D02*
X157908208Y-91488866D01*
X157527255Y-91869819D02*
X157527255Y-91107914D01*
X90860588Y-48869819D02*
X90289160Y-48869819D01*
X90574874Y-48869819D02*
X90574874Y-47869819D01*
X90574874Y-47869819D02*
X90479636Y-48012676D01*
X90479636Y-48012676D02*
X90384398Y-48107914D01*
X90384398Y-48107914D02*
X90289160Y-48155533D01*
X91241541Y-47965057D02*
X91289160Y-47917438D01*
X91289160Y-47917438D02*
X91384398Y-47869819D01*
X91384398Y-47869819D02*
X91622493Y-47869819D01*
X91622493Y-47869819D02*
X91717731Y-47917438D01*
X91717731Y-47917438D02*
X91765350Y-47965057D01*
X91765350Y-47965057D02*
X91812969Y-48060295D01*
X91812969Y-48060295D02*
X91812969Y-48155533D01*
X91812969Y-48155533D02*
X91765350Y-48298390D01*
X91765350Y-48298390D02*
X91193922Y-48869819D01*
X91193922Y-48869819D02*
X91812969Y-48869819D01*
X92146303Y-48203152D02*
X92384398Y-48869819D01*
X92384398Y-48869819D02*
X92622493Y-48203152D01*
X93765351Y-48869819D02*
X93765351Y-47869819D01*
X94241541Y-48203152D02*
X94241541Y-48869819D01*
X94241541Y-48298390D02*
X94289160Y-48250771D01*
X94289160Y-48250771D02*
X94384398Y-48203152D01*
X94384398Y-48203152D02*
X94527255Y-48203152D01*
X94527255Y-48203152D02*
X94622493Y-48250771D01*
X94622493Y-48250771D02*
X94670112Y-48346009D01*
X94670112Y-48346009D02*
X94670112Y-48869819D01*
X95146303Y-48203152D02*
X95146303Y-49203152D01*
X95146303Y-48250771D02*
X95241541Y-48203152D01*
X95241541Y-48203152D02*
X95432017Y-48203152D01*
X95432017Y-48203152D02*
X95527255Y-48250771D01*
X95527255Y-48250771D02*
X95574874Y-48298390D01*
X95574874Y-48298390D02*
X95622493Y-48393628D01*
X95622493Y-48393628D02*
X95622493Y-48679342D01*
X95622493Y-48679342D02*
X95574874Y-48774580D01*
X95574874Y-48774580D02*
X95527255Y-48822200D01*
X95527255Y-48822200D02*
X95432017Y-48869819D01*
X95432017Y-48869819D02*
X95241541Y-48869819D01*
X95241541Y-48869819D02*
X95146303Y-48822200D01*
X96479636Y-48203152D02*
X96479636Y-48869819D01*
X96051065Y-48203152D02*
X96051065Y-48726961D01*
X96051065Y-48726961D02*
X96098684Y-48822200D01*
X96098684Y-48822200D02*
X96193922Y-48869819D01*
X96193922Y-48869819D02*
X96336779Y-48869819D01*
X96336779Y-48869819D02*
X96432017Y-48822200D01*
X96432017Y-48822200D02*
X96479636Y-48774580D01*
X96812970Y-48203152D02*
X97193922Y-48203152D01*
X96955827Y-47869819D02*
X96955827Y-48726961D01*
X96955827Y-48726961D02*
X97003446Y-48822200D01*
X97003446Y-48822200D02*
X97098684Y-48869819D01*
X97098684Y-48869819D02*
X97193922Y-48869819D01*
X93241541Y-66869819D02*
X93479636Y-67869819D01*
X93479636Y-67869819D02*
X93670112Y-67155533D01*
X93670112Y-67155533D02*
X93860588Y-67869819D01*
X93860588Y-67869819D02*
X94098684Y-66869819D01*
X94479636Y-67869819D02*
X94479636Y-67203152D01*
X94479636Y-66869819D02*
X94432017Y-66917438D01*
X94432017Y-66917438D02*
X94479636Y-66965057D01*
X94479636Y-66965057D02*
X94527255Y-66917438D01*
X94527255Y-66917438D02*
X94479636Y-66869819D01*
X94479636Y-66869819D02*
X94479636Y-66965057D01*
X94955826Y-67203152D02*
X94955826Y-68203152D01*
X94955826Y-67250771D02*
X95051064Y-67203152D01*
X95051064Y-67203152D02*
X95241540Y-67203152D01*
X95241540Y-67203152D02*
X95336778Y-67250771D01*
X95336778Y-67250771D02*
X95384397Y-67298390D01*
X95384397Y-67298390D02*
X95432016Y-67393628D01*
X95432016Y-67393628D02*
X95432016Y-67679342D01*
X95432016Y-67679342D02*
X95384397Y-67774580D01*
X95384397Y-67774580D02*
X95336778Y-67822200D01*
X95336778Y-67822200D02*
X95241540Y-67869819D01*
X95241540Y-67869819D02*
X95051064Y-67869819D01*
X95051064Y-67869819D02*
X94955826Y-67822200D01*
X96241540Y-67822200D02*
X96146302Y-67869819D01*
X96146302Y-67869819D02*
X95955826Y-67869819D01*
X95955826Y-67869819D02*
X95860588Y-67822200D01*
X95860588Y-67822200D02*
X95812969Y-67726961D01*
X95812969Y-67726961D02*
X95812969Y-67346009D01*
X95812969Y-67346009D02*
X95860588Y-67250771D01*
X95860588Y-67250771D02*
X95955826Y-67203152D01*
X95955826Y-67203152D02*
X96146302Y-67203152D01*
X96146302Y-67203152D02*
X96241540Y-67250771D01*
X96241540Y-67250771D02*
X96289159Y-67346009D01*
X96289159Y-67346009D02*
X96289159Y-67441247D01*
X96289159Y-67441247D02*
X95812969Y-67536485D01*
X96717731Y-67869819D02*
X96717731Y-67203152D01*
X96717731Y-67393628D02*
X96765350Y-67298390D01*
X96765350Y-67298390D02*
X96812969Y-67250771D01*
X96812969Y-67250771D02*
X96908207Y-67203152D01*
X96908207Y-67203152D02*
X97003445Y-67203152D01*
X93860588Y-69917438D02*
X93765350Y-69869819D01*
X93765350Y-69869819D02*
X93622493Y-69869819D01*
X93622493Y-69869819D02*
X93479636Y-69917438D01*
X93479636Y-69917438D02*
X93384398Y-70012676D01*
X93384398Y-70012676D02*
X93336779Y-70107914D01*
X93336779Y-70107914D02*
X93289160Y-70298390D01*
X93289160Y-70298390D02*
X93289160Y-70441247D01*
X93289160Y-70441247D02*
X93336779Y-70631723D01*
X93336779Y-70631723D02*
X93384398Y-70726961D01*
X93384398Y-70726961D02*
X93479636Y-70822200D01*
X93479636Y-70822200D02*
X93622493Y-70869819D01*
X93622493Y-70869819D02*
X93717731Y-70869819D01*
X93717731Y-70869819D02*
X93860588Y-70822200D01*
X93860588Y-70822200D02*
X93908207Y-70774580D01*
X93908207Y-70774580D02*
X93908207Y-70441247D01*
X93908207Y-70441247D02*
X93717731Y-70441247D01*
X94336779Y-70869819D02*
X94336779Y-69869819D01*
X94336779Y-69869819D02*
X94908207Y-70869819D01*
X94908207Y-70869819D02*
X94908207Y-69869819D01*
X95384398Y-70869819D02*
X95384398Y-69869819D01*
X95384398Y-69869819D02*
X95622493Y-69869819D01*
X95622493Y-69869819D02*
X95765350Y-69917438D01*
X95765350Y-69917438D02*
X95860588Y-70012676D01*
X95860588Y-70012676D02*
X95908207Y-70107914D01*
X95908207Y-70107914D02*
X95955826Y-70298390D01*
X95955826Y-70298390D02*
X95955826Y-70441247D01*
X95955826Y-70441247D02*
X95908207Y-70631723D01*
X95908207Y-70631723D02*
X95860588Y-70726961D01*
X95860588Y-70726961D02*
X95765350Y-70822200D01*
X95765350Y-70822200D02*
X95622493Y-70869819D01*
X95622493Y-70869819D02*
X95384398Y-70869819D01*
X93812969Y-63869819D02*
X93336779Y-63869819D01*
X93336779Y-63869819D02*
X93289160Y-64346009D01*
X93289160Y-64346009D02*
X93336779Y-64298390D01*
X93336779Y-64298390D02*
X93432017Y-64250771D01*
X93432017Y-64250771D02*
X93670112Y-64250771D01*
X93670112Y-64250771D02*
X93765350Y-64298390D01*
X93765350Y-64298390D02*
X93812969Y-64346009D01*
X93812969Y-64346009D02*
X93860588Y-64441247D01*
X93860588Y-64441247D02*
X93860588Y-64679342D01*
X93860588Y-64679342D02*
X93812969Y-64774580D01*
X93812969Y-64774580D02*
X93765350Y-64822200D01*
X93765350Y-64822200D02*
X93670112Y-64869819D01*
X93670112Y-64869819D02*
X93432017Y-64869819D01*
X93432017Y-64869819D02*
X93336779Y-64822200D01*
X93336779Y-64822200D02*
X93289160Y-64774580D01*
X94146303Y-63869819D02*
X94479636Y-64869819D01*
X94479636Y-64869819D02*
X94812969Y-63869819D01*
X92461541Y-73869819D02*
X93080588Y-73869819D01*
X93080588Y-73869819D02*
X92747255Y-74250771D01*
X92747255Y-74250771D02*
X92890112Y-74250771D01*
X92890112Y-74250771D02*
X92985350Y-74298390D01*
X92985350Y-74298390D02*
X93032969Y-74346009D01*
X93032969Y-74346009D02*
X93080588Y-74441247D01*
X93080588Y-74441247D02*
X93080588Y-74679342D01*
X93080588Y-74679342D02*
X93032969Y-74774580D01*
X93032969Y-74774580D02*
X92985350Y-74822200D01*
X92985350Y-74822200D02*
X92890112Y-74869819D01*
X92890112Y-74869819D02*
X92604398Y-74869819D01*
X92604398Y-74869819D02*
X92509160Y-74822200D01*
X92509160Y-74822200D02*
X92461541Y-74774580D01*
X93366303Y-73869819D02*
X93699636Y-74869819D01*
X93699636Y-74869819D02*
X94032969Y-73869819D01*
X94271065Y-73869819D02*
X94890112Y-73869819D01*
X94890112Y-73869819D02*
X94556779Y-74250771D01*
X94556779Y-74250771D02*
X94699636Y-74250771D01*
X94699636Y-74250771D02*
X94794874Y-74298390D01*
X94794874Y-74298390D02*
X94842493Y-74346009D01*
X94842493Y-74346009D02*
X94890112Y-74441247D01*
X94890112Y-74441247D02*
X94890112Y-74679342D01*
X94890112Y-74679342D02*
X94842493Y-74774580D01*
X94842493Y-74774580D02*
X94794874Y-74822200D01*
X94794874Y-74822200D02*
X94699636Y-74869819D01*
X94699636Y-74869819D02*
X94413922Y-74869819D01*
X94413922Y-74869819D02*
X94318684Y-74822200D01*
X94318684Y-74822200D02*
X94271065Y-74774580D01*
X93080588Y-75917438D02*
X92985350Y-75869819D01*
X92985350Y-75869819D02*
X92842493Y-75869819D01*
X92842493Y-75869819D02*
X92699636Y-75917438D01*
X92699636Y-75917438D02*
X92604398Y-76012676D01*
X92604398Y-76012676D02*
X92556779Y-76107914D01*
X92556779Y-76107914D02*
X92509160Y-76298390D01*
X92509160Y-76298390D02*
X92509160Y-76441247D01*
X92509160Y-76441247D02*
X92556779Y-76631723D01*
X92556779Y-76631723D02*
X92604398Y-76726961D01*
X92604398Y-76726961D02*
X92699636Y-76822200D01*
X92699636Y-76822200D02*
X92842493Y-76869819D01*
X92842493Y-76869819D02*
X92937731Y-76869819D01*
X92937731Y-76869819D02*
X93080588Y-76822200D01*
X93080588Y-76822200D02*
X93128207Y-76774580D01*
X93128207Y-76774580D02*
X93128207Y-76441247D01*
X93128207Y-76441247D02*
X92937731Y-76441247D01*
X93556779Y-76869819D02*
X93556779Y-75869819D01*
X93556779Y-75869819D02*
X94128207Y-76869819D01*
X94128207Y-76869819D02*
X94128207Y-75869819D01*
X94604398Y-76869819D02*
X94604398Y-75869819D01*
X94604398Y-75869819D02*
X94842493Y-75869819D01*
X94842493Y-75869819D02*
X94985350Y-75917438D01*
X94985350Y-75917438D02*
X95080588Y-76012676D01*
X95080588Y-76012676D02*
X95128207Y-76107914D01*
X95128207Y-76107914D02*
X95175826Y-76298390D01*
X95175826Y-76298390D02*
X95175826Y-76441247D01*
X95175826Y-76441247D02*
X95128207Y-76631723D01*
X95128207Y-76631723D02*
X95080588Y-76726961D01*
X95080588Y-76726961D02*
X94985350Y-76822200D01*
X94985350Y-76822200D02*
X94842493Y-76869819D01*
X94842493Y-76869819D02*
X94604398Y-76869819D01*
X93289160Y-79584104D02*
X93765350Y-79584104D01*
X93193922Y-79869819D02*
X93527255Y-78869819D01*
X93527255Y-78869819D02*
X93860588Y-79869819D01*
X93670112Y-81346009D02*
X93812969Y-81393628D01*
X93812969Y-81393628D02*
X93860588Y-81441247D01*
X93860588Y-81441247D02*
X93908207Y-81536485D01*
X93908207Y-81536485D02*
X93908207Y-81679342D01*
X93908207Y-81679342D02*
X93860588Y-81774580D01*
X93860588Y-81774580D02*
X93812969Y-81822200D01*
X93812969Y-81822200D02*
X93717731Y-81869819D01*
X93717731Y-81869819D02*
X93336779Y-81869819D01*
X93336779Y-81869819D02*
X93336779Y-80869819D01*
X93336779Y-80869819D02*
X93670112Y-80869819D01*
X93670112Y-80869819D02*
X93765350Y-80917438D01*
X93765350Y-80917438D02*
X93812969Y-80965057D01*
X93812969Y-80965057D02*
X93860588Y-81060295D01*
X93860588Y-81060295D02*
X93860588Y-81155533D01*
X93860588Y-81155533D02*
X93812969Y-81250771D01*
X93812969Y-81250771D02*
X93765350Y-81298390D01*
X93765350Y-81298390D02*
X93670112Y-81346009D01*
X93670112Y-81346009D02*
X93336779Y-81346009D01*
X93461541Y-85869819D02*
X94080588Y-85869819D01*
X94080588Y-85869819D02*
X93747255Y-86250771D01*
X93747255Y-86250771D02*
X93890112Y-86250771D01*
X93890112Y-86250771D02*
X93985350Y-86298390D01*
X93985350Y-86298390D02*
X94032969Y-86346009D01*
X94032969Y-86346009D02*
X94080588Y-86441247D01*
X94080588Y-86441247D02*
X94080588Y-86679342D01*
X94080588Y-86679342D02*
X94032969Y-86774580D01*
X94032969Y-86774580D02*
X93985350Y-86822200D01*
X93985350Y-86822200D02*
X93890112Y-86869819D01*
X93890112Y-86869819D02*
X93604398Y-86869819D01*
X93604398Y-86869819D02*
X93509160Y-86822200D01*
X93509160Y-86822200D02*
X93461541Y-86774580D01*
X94366303Y-85869819D02*
X94699636Y-86869819D01*
X94699636Y-86869819D02*
X95032969Y-85869819D01*
X95271065Y-85869819D02*
X95890112Y-85869819D01*
X95890112Y-85869819D02*
X95556779Y-86250771D01*
X95556779Y-86250771D02*
X95699636Y-86250771D01*
X95699636Y-86250771D02*
X95794874Y-86298390D01*
X95794874Y-86298390D02*
X95842493Y-86346009D01*
X95842493Y-86346009D02*
X95890112Y-86441247D01*
X95890112Y-86441247D02*
X95890112Y-86679342D01*
X95890112Y-86679342D02*
X95842493Y-86774580D01*
X95842493Y-86774580D02*
X95794874Y-86822200D01*
X95794874Y-86822200D02*
X95699636Y-86869819D01*
X95699636Y-86869819D02*
X95413922Y-86869819D01*
X95413922Y-86869819D02*
X95318684Y-86822200D01*
X95318684Y-86822200D02*
X95271065Y-86774580D01*
X94080588Y-87917438D02*
X93985350Y-87869819D01*
X93985350Y-87869819D02*
X93842493Y-87869819D01*
X93842493Y-87869819D02*
X93699636Y-87917438D01*
X93699636Y-87917438D02*
X93604398Y-88012676D01*
X93604398Y-88012676D02*
X93556779Y-88107914D01*
X93556779Y-88107914D02*
X93509160Y-88298390D01*
X93509160Y-88298390D02*
X93509160Y-88441247D01*
X93509160Y-88441247D02*
X93556779Y-88631723D01*
X93556779Y-88631723D02*
X93604398Y-88726961D01*
X93604398Y-88726961D02*
X93699636Y-88822200D01*
X93699636Y-88822200D02*
X93842493Y-88869819D01*
X93842493Y-88869819D02*
X93937731Y-88869819D01*
X93937731Y-88869819D02*
X94080588Y-88822200D01*
X94080588Y-88822200D02*
X94128207Y-88774580D01*
X94128207Y-88774580D02*
X94128207Y-88441247D01*
X94128207Y-88441247D02*
X93937731Y-88441247D01*
X94556779Y-88869819D02*
X94556779Y-87869819D01*
X94556779Y-87869819D02*
X95128207Y-88869819D01*
X95128207Y-88869819D02*
X95128207Y-87869819D01*
X95604398Y-88869819D02*
X95604398Y-87869819D01*
X95604398Y-87869819D02*
X95842493Y-87869819D01*
X95842493Y-87869819D02*
X95985350Y-87917438D01*
X95985350Y-87917438D02*
X96080588Y-88012676D01*
X96080588Y-88012676D02*
X96128207Y-88107914D01*
X96128207Y-88107914D02*
X96175826Y-88298390D01*
X96175826Y-88298390D02*
X96175826Y-88441247D01*
X96175826Y-88441247D02*
X96128207Y-88631723D01*
X96128207Y-88631723D02*
X96080588Y-88726961D01*
X96080588Y-88726961D02*
X95985350Y-88822200D01*
X95985350Y-88822200D02*
X95842493Y-88869819D01*
X95842493Y-88869819D02*
X95604398Y-88869819D01*
X94289160Y-91584104D02*
X94765350Y-91584104D01*
X94193922Y-91869819D02*
X94527255Y-90869819D01*
X94527255Y-90869819D02*
X94860588Y-91869819D01*
X94670112Y-93346009D02*
X94812969Y-93393628D01*
X94812969Y-93393628D02*
X94860588Y-93441247D01*
X94860588Y-93441247D02*
X94908207Y-93536485D01*
X94908207Y-93536485D02*
X94908207Y-93679342D01*
X94908207Y-93679342D02*
X94860588Y-93774580D01*
X94860588Y-93774580D02*
X94812969Y-93822200D01*
X94812969Y-93822200D02*
X94717731Y-93869819D01*
X94717731Y-93869819D02*
X94336779Y-93869819D01*
X94336779Y-93869819D02*
X94336779Y-92869819D01*
X94336779Y-92869819D02*
X94670112Y-92869819D01*
X94670112Y-92869819D02*
X94765350Y-92917438D01*
X94765350Y-92917438D02*
X94812969Y-92965057D01*
X94812969Y-92965057D02*
X94860588Y-93060295D01*
X94860588Y-93060295D02*
X94860588Y-93155533D01*
X94860588Y-93155533D02*
X94812969Y-93250771D01*
X94812969Y-93250771D02*
X94765350Y-93298390D01*
X94765350Y-93298390D02*
X94670112Y-93346009D01*
X94670112Y-93346009D02*
X94336779Y-93346009D01*
X107289160Y-59584104D02*
X107765350Y-59584104D01*
X107193922Y-59869819D02*
X107527255Y-58869819D01*
X107527255Y-58869819D02*
X107860588Y-59869819D01*
X108193922Y-59869819D02*
X108193922Y-58869819D01*
X108193922Y-58869819D02*
X108432017Y-58869819D01*
X108432017Y-58869819D02*
X108574874Y-58917438D01*
X108574874Y-58917438D02*
X108670112Y-59012676D01*
X108670112Y-59012676D02*
X108717731Y-59107914D01*
X108717731Y-59107914D02*
X108765350Y-59298390D01*
X108765350Y-59298390D02*
X108765350Y-59441247D01*
X108765350Y-59441247D02*
X108717731Y-59631723D01*
X108717731Y-59631723D02*
X108670112Y-59726961D01*
X108670112Y-59726961D02*
X108574874Y-59822200D01*
X108574874Y-59822200D02*
X108432017Y-59869819D01*
X108432017Y-59869819D02*
X108193922Y-59869819D01*
X109146303Y-59822200D02*
X109289160Y-59869819D01*
X109289160Y-59869819D02*
X109527255Y-59869819D01*
X109527255Y-59869819D02*
X109622493Y-59822200D01*
X109622493Y-59822200D02*
X109670112Y-59774580D01*
X109670112Y-59774580D02*
X109717731Y-59679342D01*
X109717731Y-59679342D02*
X109717731Y-59584104D01*
X109717731Y-59584104D02*
X109670112Y-59488866D01*
X109670112Y-59488866D02*
X109622493Y-59441247D01*
X109622493Y-59441247D02*
X109527255Y-59393628D01*
X109527255Y-59393628D02*
X109336779Y-59346009D01*
X109336779Y-59346009D02*
X109241541Y-59298390D01*
X109241541Y-59298390D02*
X109193922Y-59250771D01*
X109193922Y-59250771D02*
X109146303Y-59155533D01*
X109146303Y-59155533D02*
X109146303Y-59060295D01*
X109146303Y-59060295D02*
X109193922Y-58965057D01*
X109193922Y-58965057D02*
X109241541Y-58917438D01*
X109241541Y-58917438D02*
X109336779Y-58869819D01*
X109336779Y-58869819D02*
X109574874Y-58869819D01*
X109574874Y-58869819D02*
X109717731Y-58917438D01*
X110670112Y-59869819D02*
X110098684Y-59869819D01*
X110384398Y-59869819D02*
X110384398Y-58869819D01*
X110384398Y-58869819D02*
X110289160Y-59012676D01*
X110289160Y-59012676D02*
X110193922Y-59107914D01*
X110193922Y-59107914D02*
X110098684Y-59155533D01*
X111622493Y-59869819D02*
X111051065Y-59869819D01*
X111336779Y-59869819D02*
X111336779Y-58869819D01*
X111336779Y-58869819D02*
X111241541Y-59012676D01*
X111241541Y-59012676D02*
X111146303Y-59107914D01*
X111146303Y-59107914D02*
X111051065Y-59155533D01*
X112574874Y-59869819D02*
X112003446Y-59869819D01*
X112289160Y-59869819D02*
X112289160Y-58869819D01*
X112289160Y-58869819D02*
X112193922Y-59012676D01*
X112193922Y-59012676D02*
X112098684Y-59107914D01*
X112098684Y-59107914D02*
X112003446Y-59155533D01*
X113479636Y-58869819D02*
X113003446Y-58869819D01*
X113003446Y-58869819D02*
X112955827Y-59346009D01*
X112955827Y-59346009D02*
X113003446Y-59298390D01*
X113003446Y-59298390D02*
X113098684Y-59250771D01*
X113098684Y-59250771D02*
X113336779Y-59250771D01*
X113336779Y-59250771D02*
X113432017Y-59298390D01*
X113432017Y-59298390D02*
X113479636Y-59346009D01*
X113479636Y-59346009D02*
X113527255Y-59441247D01*
X113527255Y-59441247D02*
X113527255Y-59679342D01*
X113527255Y-59679342D02*
X113479636Y-59774580D01*
X113479636Y-59774580D02*
X113432017Y-59822200D01*
X113432017Y-59822200D02*
X113336779Y-59869819D01*
X113336779Y-59869819D02*
X113098684Y-59869819D01*
X113098684Y-59869819D02*
X113003446Y-59822200D01*
X113003446Y-59822200D02*
X112955827Y-59774580D01*
X113241541Y-88869819D02*
X113908207Y-88869819D01*
X113908207Y-88869819D02*
X113241541Y-89869819D01*
X113241541Y-89869819D02*
X113908207Y-89869819D01*
X115479636Y-89869819D02*
X115479636Y-89346009D01*
X115479636Y-89346009D02*
X115432017Y-89250771D01*
X115432017Y-89250771D02*
X115336779Y-89203152D01*
X115336779Y-89203152D02*
X115146303Y-89203152D01*
X115146303Y-89203152D02*
X115051065Y-89250771D01*
X115479636Y-89822200D02*
X115384398Y-89869819D01*
X115384398Y-89869819D02*
X115146303Y-89869819D01*
X115146303Y-89869819D02*
X115051065Y-89822200D01*
X115051065Y-89822200D02*
X115003446Y-89726961D01*
X115003446Y-89726961D02*
X115003446Y-89631723D01*
X115003446Y-89631723D02*
X115051065Y-89536485D01*
X115051065Y-89536485D02*
X115146303Y-89488866D01*
X115146303Y-89488866D02*
X115384398Y-89488866D01*
X115384398Y-89488866D02*
X115479636Y-89441247D01*
X115860589Y-89869819D02*
X116384398Y-89203152D01*
X115860589Y-89203152D02*
X116384398Y-89869819D01*
X116765351Y-89869819D02*
X116765351Y-89203152D01*
X116765351Y-88869819D02*
X116717732Y-88917438D01*
X116717732Y-88917438D02*
X116765351Y-88965057D01*
X116765351Y-88965057D02*
X116812970Y-88917438D01*
X116812970Y-88917438D02*
X116765351Y-88869819D01*
X116765351Y-88869819D02*
X116765351Y-88965057D01*
X117193922Y-89822200D02*
X117289160Y-89869819D01*
X117289160Y-89869819D02*
X117479636Y-89869819D01*
X117479636Y-89869819D02*
X117574874Y-89822200D01*
X117574874Y-89822200D02*
X117622493Y-89726961D01*
X117622493Y-89726961D02*
X117622493Y-89679342D01*
X117622493Y-89679342D02*
X117574874Y-89584104D01*
X117574874Y-89584104D02*
X117479636Y-89536485D01*
X117479636Y-89536485D02*
X117336779Y-89536485D01*
X117336779Y-89536485D02*
X117241541Y-89488866D01*
X117241541Y-89488866D02*
X117193922Y-89393628D01*
X117193922Y-89393628D02*
X117193922Y-89346009D01*
X117193922Y-89346009D02*
X117241541Y-89250771D01*
X117241541Y-89250771D02*
X117336779Y-89203152D01*
X117336779Y-89203152D02*
X117479636Y-89203152D01*
X117479636Y-89203152D02*
X117574874Y-89250771D01*
X118812970Y-89869819D02*
X118812970Y-88869819D01*
X118812970Y-88869819D02*
X119146303Y-89584104D01*
X119146303Y-89584104D02*
X119479636Y-88869819D01*
X119479636Y-88869819D02*
X119479636Y-89869819D01*
X120098684Y-89869819D02*
X120003446Y-89822200D01*
X120003446Y-89822200D02*
X119955827Y-89774580D01*
X119955827Y-89774580D02*
X119908208Y-89679342D01*
X119908208Y-89679342D02*
X119908208Y-89393628D01*
X119908208Y-89393628D02*
X119955827Y-89298390D01*
X119955827Y-89298390D02*
X120003446Y-89250771D01*
X120003446Y-89250771D02*
X120098684Y-89203152D01*
X120098684Y-89203152D02*
X120241541Y-89203152D01*
X120241541Y-89203152D02*
X120336779Y-89250771D01*
X120336779Y-89250771D02*
X120384398Y-89298390D01*
X120384398Y-89298390D02*
X120432017Y-89393628D01*
X120432017Y-89393628D02*
X120432017Y-89679342D01*
X120432017Y-89679342D02*
X120384398Y-89774580D01*
X120384398Y-89774580D02*
X120336779Y-89822200D01*
X120336779Y-89822200D02*
X120241541Y-89869819D01*
X120241541Y-89869819D02*
X120098684Y-89869819D01*
X120717732Y-89203152D02*
X121098684Y-89203152D01*
X120860589Y-88869819D02*
X120860589Y-89726961D01*
X120860589Y-89726961D02*
X120908208Y-89822200D01*
X120908208Y-89822200D02*
X121003446Y-89869819D01*
X121003446Y-89869819D02*
X121098684Y-89869819D01*
X121574875Y-89869819D02*
X121479637Y-89822200D01*
X121479637Y-89822200D02*
X121432018Y-89774580D01*
X121432018Y-89774580D02*
X121384399Y-89679342D01*
X121384399Y-89679342D02*
X121384399Y-89393628D01*
X121384399Y-89393628D02*
X121432018Y-89298390D01*
X121432018Y-89298390D02*
X121479637Y-89250771D01*
X121479637Y-89250771D02*
X121574875Y-89203152D01*
X121574875Y-89203152D02*
X121717732Y-89203152D01*
X121717732Y-89203152D02*
X121812970Y-89250771D01*
X121812970Y-89250771D02*
X121860589Y-89298390D01*
X121860589Y-89298390D02*
X121908208Y-89393628D01*
X121908208Y-89393628D02*
X121908208Y-89679342D01*
X121908208Y-89679342D02*
X121860589Y-89774580D01*
X121860589Y-89774580D02*
X121812970Y-89822200D01*
X121812970Y-89822200D02*
X121717732Y-89869819D01*
X121717732Y-89869819D02*
X121574875Y-89869819D01*
X122336780Y-89869819D02*
X122336780Y-89203152D01*
X122336780Y-89393628D02*
X122384399Y-89298390D01*
X122384399Y-89298390D02*
X122432018Y-89250771D01*
X122432018Y-89250771D02*
X122527256Y-89203152D01*
X122527256Y-89203152D02*
X122622494Y-89203152D01*
X128241541Y-88869819D02*
X128908207Y-89869819D01*
X128908207Y-88869819D02*
X128241541Y-89869819D01*
X130479636Y-89869819D02*
X130479636Y-89346009D01*
X130479636Y-89346009D02*
X130432017Y-89250771D01*
X130432017Y-89250771D02*
X130336779Y-89203152D01*
X130336779Y-89203152D02*
X130146303Y-89203152D01*
X130146303Y-89203152D02*
X130051065Y-89250771D01*
X130479636Y-89822200D02*
X130384398Y-89869819D01*
X130384398Y-89869819D02*
X130146303Y-89869819D01*
X130146303Y-89869819D02*
X130051065Y-89822200D01*
X130051065Y-89822200D02*
X130003446Y-89726961D01*
X130003446Y-89726961D02*
X130003446Y-89631723D01*
X130003446Y-89631723D02*
X130051065Y-89536485D01*
X130051065Y-89536485D02*
X130146303Y-89488866D01*
X130146303Y-89488866D02*
X130384398Y-89488866D01*
X130384398Y-89488866D02*
X130479636Y-89441247D01*
X130860589Y-89869819D02*
X131384398Y-89203152D01*
X130860589Y-89203152D02*
X131384398Y-89869819D01*
X131765351Y-89869819D02*
X131765351Y-89203152D01*
X131765351Y-88869819D02*
X131717732Y-88917438D01*
X131717732Y-88917438D02*
X131765351Y-88965057D01*
X131765351Y-88965057D02*
X131812970Y-88917438D01*
X131812970Y-88917438D02*
X131765351Y-88869819D01*
X131765351Y-88869819D02*
X131765351Y-88965057D01*
X132193922Y-89822200D02*
X132289160Y-89869819D01*
X132289160Y-89869819D02*
X132479636Y-89869819D01*
X132479636Y-89869819D02*
X132574874Y-89822200D01*
X132574874Y-89822200D02*
X132622493Y-89726961D01*
X132622493Y-89726961D02*
X132622493Y-89679342D01*
X132622493Y-89679342D02*
X132574874Y-89584104D01*
X132574874Y-89584104D02*
X132479636Y-89536485D01*
X132479636Y-89536485D02*
X132336779Y-89536485D01*
X132336779Y-89536485D02*
X132241541Y-89488866D01*
X132241541Y-89488866D02*
X132193922Y-89393628D01*
X132193922Y-89393628D02*
X132193922Y-89346009D01*
X132193922Y-89346009D02*
X132241541Y-89250771D01*
X132241541Y-89250771D02*
X132336779Y-89203152D01*
X132336779Y-89203152D02*
X132479636Y-89203152D01*
X132479636Y-89203152D02*
X132574874Y-89250771D01*
X133812970Y-89869819D02*
X133812970Y-88869819D01*
X133812970Y-88869819D02*
X134146303Y-89584104D01*
X134146303Y-89584104D02*
X134479636Y-88869819D01*
X134479636Y-88869819D02*
X134479636Y-89869819D01*
X135098684Y-89869819D02*
X135003446Y-89822200D01*
X135003446Y-89822200D02*
X134955827Y-89774580D01*
X134955827Y-89774580D02*
X134908208Y-89679342D01*
X134908208Y-89679342D02*
X134908208Y-89393628D01*
X134908208Y-89393628D02*
X134955827Y-89298390D01*
X134955827Y-89298390D02*
X135003446Y-89250771D01*
X135003446Y-89250771D02*
X135098684Y-89203152D01*
X135098684Y-89203152D02*
X135241541Y-89203152D01*
X135241541Y-89203152D02*
X135336779Y-89250771D01*
X135336779Y-89250771D02*
X135384398Y-89298390D01*
X135384398Y-89298390D02*
X135432017Y-89393628D01*
X135432017Y-89393628D02*
X135432017Y-89679342D01*
X135432017Y-89679342D02*
X135384398Y-89774580D01*
X135384398Y-89774580D02*
X135336779Y-89822200D01*
X135336779Y-89822200D02*
X135241541Y-89869819D01*
X135241541Y-89869819D02*
X135098684Y-89869819D01*
X135717732Y-89203152D02*
X136098684Y-89203152D01*
X135860589Y-88869819D02*
X135860589Y-89726961D01*
X135860589Y-89726961D02*
X135908208Y-89822200D01*
X135908208Y-89822200D02*
X136003446Y-89869819D01*
X136003446Y-89869819D02*
X136098684Y-89869819D01*
X136574875Y-89869819D02*
X136479637Y-89822200D01*
X136479637Y-89822200D02*
X136432018Y-89774580D01*
X136432018Y-89774580D02*
X136384399Y-89679342D01*
X136384399Y-89679342D02*
X136384399Y-89393628D01*
X136384399Y-89393628D02*
X136432018Y-89298390D01*
X136432018Y-89298390D02*
X136479637Y-89250771D01*
X136479637Y-89250771D02*
X136574875Y-89203152D01*
X136574875Y-89203152D02*
X136717732Y-89203152D01*
X136717732Y-89203152D02*
X136812970Y-89250771D01*
X136812970Y-89250771D02*
X136860589Y-89298390D01*
X136860589Y-89298390D02*
X136908208Y-89393628D01*
X136908208Y-89393628D02*
X136908208Y-89679342D01*
X136908208Y-89679342D02*
X136860589Y-89774580D01*
X136860589Y-89774580D02*
X136812970Y-89822200D01*
X136812970Y-89822200D02*
X136717732Y-89869819D01*
X136717732Y-89869819D02*
X136574875Y-89869819D01*
X137336780Y-89869819D02*
X137336780Y-89203152D01*
X137336780Y-89393628D02*
X137384399Y-89298390D01*
X137384399Y-89298390D02*
X137432018Y-89250771D01*
X137432018Y-89250771D02*
X137527256Y-89203152D01*
X137527256Y-89203152D02*
X137622494Y-89203152D01*
X147812969Y-87869819D02*
X147336779Y-87869819D01*
X147336779Y-87869819D02*
X147336779Y-86869819D01*
X148146303Y-87869819D02*
X148146303Y-87203152D01*
X148146303Y-86869819D02*
X148098684Y-86917438D01*
X148098684Y-86917438D02*
X148146303Y-86965057D01*
X148146303Y-86965057D02*
X148193922Y-86917438D01*
X148193922Y-86917438D02*
X148146303Y-86869819D01*
X148146303Y-86869819D02*
X148146303Y-86965057D01*
X148622493Y-87869819D02*
X148622493Y-87203152D01*
X148622493Y-87298390D02*
X148670112Y-87250771D01*
X148670112Y-87250771D02*
X148765350Y-87203152D01*
X148765350Y-87203152D02*
X148908207Y-87203152D01*
X148908207Y-87203152D02*
X149003445Y-87250771D01*
X149003445Y-87250771D02*
X149051064Y-87346009D01*
X149051064Y-87346009D02*
X149051064Y-87869819D01*
X149051064Y-87346009D02*
X149098683Y-87250771D01*
X149098683Y-87250771D02*
X149193921Y-87203152D01*
X149193921Y-87203152D02*
X149336778Y-87203152D01*
X149336778Y-87203152D02*
X149432017Y-87250771D01*
X149432017Y-87250771D02*
X149479636Y-87346009D01*
X149479636Y-87346009D02*
X149479636Y-87869819D01*
X149955826Y-87869819D02*
X149955826Y-87203152D01*
X149955826Y-86869819D02*
X149908207Y-86917438D01*
X149908207Y-86917438D02*
X149955826Y-86965057D01*
X149955826Y-86965057D02*
X150003445Y-86917438D01*
X150003445Y-86917438D02*
X149955826Y-86869819D01*
X149955826Y-86869819D02*
X149955826Y-86965057D01*
X150289159Y-87203152D02*
X150670111Y-87203152D01*
X150432016Y-86869819D02*
X150432016Y-87726961D01*
X150432016Y-87726961D02*
X150479635Y-87822200D01*
X150479635Y-87822200D02*
X150574873Y-87869819D01*
X150574873Y-87869819D02*
X150670111Y-87869819D01*
X151717731Y-87822200D02*
X151860588Y-87869819D01*
X151860588Y-87869819D02*
X152098683Y-87869819D01*
X152098683Y-87869819D02*
X152193921Y-87822200D01*
X152193921Y-87822200D02*
X152241540Y-87774580D01*
X152241540Y-87774580D02*
X152289159Y-87679342D01*
X152289159Y-87679342D02*
X152289159Y-87584104D01*
X152289159Y-87584104D02*
X152241540Y-87488866D01*
X152241540Y-87488866D02*
X152193921Y-87441247D01*
X152193921Y-87441247D02*
X152098683Y-87393628D01*
X152098683Y-87393628D02*
X151908207Y-87346009D01*
X151908207Y-87346009D02*
X151812969Y-87298390D01*
X151812969Y-87298390D02*
X151765350Y-87250771D01*
X151765350Y-87250771D02*
X151717731Y-87155533D01*
X151717731Y-87155533D02*
X151717731Y-87060295D01*
X151717731Y-87060295D02*
X151765350Y-86965057D01*
X151765350Y-86965057D02*
X151812969Y-86917438D01*
X151812969Y-86917438D02*
X151908207Y-86869819D01*
X151908207Y-86869819D02*
X152146302Y-86869819D01*
X152146302Y-86869819D02*
X152289159Y-86917438D01*
X152622493Y-87203152D02*
X152812969Y-87869819D01*
X152812969Y-87869819D02*
X153003445Y-87393628D01*
X153003445Y-87393628D02*
X153193921Y-87869819D01*
X153193921Y-87869819D02*
X153384397Y-87203152D01*
X153765350Y-87869819D02*
X153765350Y-87203152D01*
X153765350Y-86869819D02*
X153717731Y-86917438D01*
X153717731Y-86917438D02*
X153765350Y-86965057D01*
X153765350Y-86965057D02*
X153812969Y-86917438D01*
X153812969Y-86917438D02*
X153765350Y-86869819D01*
X153765350Y-86869819D02*
X153765350Y-86965057D01*
X154098683Y-87203152D02*
X154479635Y-87203152D01*
X154241540Y-86869819D02*
X154241540Y-87726961D01*
X154241540Y-87726961D02*
X154289159Y-87822200D01*
X154289159Y-87822200D02*
X154384397Y-87869819D01*
X154384397Y-87869819D02*
X154479635Y-87869819D01*
X155241540Y-87822200D02*
X155146302Y-87869819D01*
X155146302Y-87869819D02*
X154955826Y-87869819D01*
X154955826Y-87869819D02*
X154860588Y-87822200D01*
X154860588Y-87822200D02*
X154812969Y-87774580D01*
X154812969Y-87774580D02*
X154765350Y-87679342D01*
X154765350Y-87679342D02*
X154765350Y-87393628D01*
X154765350Y-87393628D02*
X154812969Y-87298390D01*
X154812969Y-87298390D02*
X154860588Y-87250771D01*
X154860588Y-87250771D02*
X154955826Y-87203152D01*
X154955826Y-87203152D02*
X155146302Y-87203152D01*
X155146302Y-87203152D02*
X155241540Y-87250771D01*
X155670112Y-87869819D02*
X155670112Y-86869819D01*
X156098683Y-87869819D02*
X156098683Y-87346009D01*
X156098683Y-87346009D02*
X156051064Y-87250771D01*
X156051064Y-87250771D02*
X155955826Y-87203152D01*
X155955826Y-87203152D02*
X155812969Y-87203152D01*
X155812969Y-87203152D02*
X155717731Y-87250771D01*
X155717731Y-87250771D02*
X155670112Y-87298390D01*
X156955826Y-87822200D02*
X156860588Y-87869819D01*
X156860588Y-87869819D02*
X156670112Y-87869819D01*
X156670112Y-87869819D02*
X156574874Y-87822200D01*
X156574874Y-87822200D02*
X156527255Y-87726961D01*
X156527255Y-87726961D02*
X156527255Y-87346009D01*
X156527255Y-87346009D02*
X156574874Y-87250771D01*
X156574874Y-87250771D02*
X156670112Y-87203152D01*
X156670112Y-87203152D02*
X156860588Y-87203152D01*
X156860588Y-87203152D02*
X156955826Y-87250771D01*
X156955826Y-87250771D02*
X157003445Y-87346009D01*
X157003445Y-87346009D02*
X157003445Y-87441247D01*
X157003445Y-87441247D02*
X156527255Y-87536485D01*
X157384398Y-87822200D02*
X157479636Y-87869819D01*
X157479636Y-87869819D02*
X157670112Y-87869819D01*
X157670112Y-87869819D02*
X157765350Y-87822200D01*
X157765350Y-87822200D02*
X157812969Y-87726961D01*
X157812969Y-87726961D02*
X157812969Y-87679342D01*
X157812969Y-87679342D02*
X157765350Y-87584104D01*
X157765350Y-87584104D02*
X157670112Y-87536485D01*
X157670112Y-87536485D02*
X157527255Y-87536485D01*
X157527255Y-87536485D02*
X157432017Y-87488866D01*
X157432017Y-87488866D02*
X157384398Y-87393628D01*
X157384398Y-87393628D02*
X157384398Y-87346009D01*
X157384398Y-87346009D02*
X157432017Y-87250771D01*
X157432017Y-87250771D02*
X157527255Y-87203152D01*
X157527255Y-87203152D02*
X157670112Y-87203152D01*
X157670112Y-87203152D02*
X157765350Y-87250771D01*
X95869819Y-81758458D02*
X96869819Y-81091792D01*
X95869819Y-81091792D02*
X96869819Y-81758458D01*
X96869819Y-79520363D02*
X96346009Y-79520363D01*
X96346009Y-79520363D02*
X96250771Y-79567982D01*
X96250771Y-79567982D02*
X96203152Y-79663220D01*
X96203152Y-79663220D02*
X96203152Y-79853696D01*
X96203152Y-79853696D02*
X96250771Y-79948934D01*
X96822200Y-79520363D02*
X96869819Y-79615601D01*
X96869819Y-79615601D02*
X96869819Y-79853696D01*
X96869819Y-79853696D02*
X96822200Y-79948934D01*
X96822200Y-79948934D02*
X96726961Y-79996553D01*
X96726961Y-79996553D02*
X96631723Y-79996553D01*
X96631723Y-79996553D02*
X96536485Y-79948934D01*
X96536485Y-79948934D02*
X96488866Y-79853696D01*
X96488866Y-79853696D02*
X96488866Y-79615601D01*
X96488866Y-79615601D02*
X96441247Y-79520363D01*
X96869819Y-79139410D02*
X96203152Y-78615601D01*
X96203152Y-79139410D02*
X96869819Y-78615601D01*
X96869819Y-78234648D02*
X96203152Y-78234648D01*
X95869819Y-78234648D02*
X95917438Y-78282267D01*
X95917438Y-78282267D02*
X95965057Y-78234648D01*
X95965057Y-78234648D02*
X95917438Y-78187029D01*
X95917438Y-78187029D02*
X95869819Y-78234648D01*
X95869819Y-78234648D02*
X95965057Y-78234648D01*
X96822200Y-77806077D02*
X96869819Y-77710839D01*
X96869819Y-77710839D02*
X96869819Y-77520363D01*
X96869819Y-77520363D02*
X96822200Y-77425125D01*
X96822200Y-77425125D02*
X96726961Y-77377506D01*
X96726961Y-77377506D02*
X96679342Y-77377506D01*
X96679342Y-77377506D02*
X96584104Y-77425125D01*
X96584104Y-77425125D02*
X96536485Y-77520363D01*
X96536485Y-77520363D02*
X96536485Y-77663220D01*
X96536485Y-77663220D02*
X96488866Y-77758458D01*
X96488866Y-77758458D02*
X96393628Y-77806077D01*
X96393628Y-77806077D02*
X96346009Y-77806077D01*
X96346009Y-77806077D02*
X96250771Y-77758458D01*
X96250771Y-77758458D02*
X96203152Y-77663220D01*
X96203152Y-77663220D02*
X96203152Y-77520363D01*
X96203152Y-77520363D02*
X96250771Y-77425125D01*
X96346009Y-76187029D02*
X96346009Y-75853696D01*
X96869819Y-75710839D02*
X96869819Y-76187029D01*
X96869819Y-76187029D02*
X95869819Y-76187029D01*
X95869819Y-76187029D02*
X95869819Y-75710839D01*
X96869819Y-75282267D02*
X95869819Y-75282267D01*
X95869819Y-75282267D02*
X96869819Y-74710839D01*
X96869819Y-74710839D02*
X95869819Y-74710839D01*
X96774580Y-73663220D02*
X96822200Y-73710839D01*
X96822200Y-73710839D02*
X96869819Y-73853696D01*
X96869819Y-73853696D02*
X96869819Y-73948934D01*
X96869819Y-73948934D02*
X96822200Y-74091791D01*
X96822200Y-74091791D02*
X96726961Y-74187029D01*
X96726961Y-74187029D02*
X96631723Y-74234648D01*
X96631723Y-74234648D02*
X96441247Y-74282267D01*
X96441247Y-74282267D02*
X96298390Y-74282267D01*
X96298390Y-74282267D02*
X96107914Y-74234648D01*
X96107914Y-74234648D02*
X96012676Y-74187029D01*
X96012676Y-74187029D02*
X95917438Y-74091791D01*
X95917438Y-74091791D02*
X95869819Y-73948934D01*
X95869819Y-73948934D02*
X95869819Y-73853696D01*
X95869819Y-73853696D02*
X95917438Y-73710839D01*
X95917438Y-73710839D02*
X95965057Y-73663220D01*
X98869819Y-67663220D02*
X97869819Y-67663220D01*
X97869819Y-67663220D02*
X97869819Y-67282268D01*
X97869819Y-67282268D02*
X97917438Y-67187030D01*
X97917438Y-67187030D02*
X97965057Y-67139411D01*
X97965057Y-67139411D02*
X98060295Y-67091792D01*
X98060295Y-67091792D02*
X98203152Y-67091792D01*
X98203152Y-67091792D02*
X98298390Y-67139411D01*
X98298390Y-67139411D02*
X98346009Y-67187030D01*
X98346009Y-67187030D02*
X98393628Y-67282268D01*
X98393628Y-67282268D02*
X98393628Y-67663220D01*
X98869819Y-66520363D02*
X98822200Y-66615601D01*
X98822200Y-66615601D02*
X98774580Y-66663220D01*
X98774580Y-66663220D02*
X98679342Y-66710839D01*
X98679342Y-66710839D02*
X98393628Y-66710839D01*
X98393628Y-66710839D02*
X98298390Y-66663220D01*
X98298390Y-66663220D02*
X98250771Y-66615601D01*
X98250771Y-66615601D02*
X98203152Y-66520363D01*
X98203152Y-66520363D02*
X98203152Y-66377506D01*
X98203152Y-66377506D02*
X98250771Y-66282268D01*
X98250771Y-66282268D02*
X98298390Y-66234649D01*
X98298390Y-66234649D02*
X98393628Y-66187030D01*
X98393628Y-66187030D02*
X98679342Y-66187030D01*
X98679342Y-66187030D02*
X98774580Y-66234649D01*
X98774580Y-66234649D02*
X98822200Y-66282268D01*
X98822200Y-66282268D02*
X98869819Y-66377506D01*
X98869819Y-66377506D02*
X98869819Y-66520363D01*
X98203152Y-65901315D02*
X98203152Y-65520363D01*
X97869819Y-65758458D02*
X98726961Y-65758458D01*
X98726961Y-65758458D02*
X98822200Y-65710839D01*
X98822200Y-65710839D02*
X98869819Y-65615601D01*
X98869819Y-65615601D02*
X98869819Y-65520363D01*
X98774580Y-65187029D02*
X98822200Y-65139410D01*
X98822200Y-65139410D02*
X98869819Y-65187029D01*
X98869819Y-65187029D02*
X98822200Y-65234648D01*
X98822200Y-65234648D02*
X98774580Y-65187029D01*
X98774580Y-65187029D02*
X98869819Y-65187029D01*
X97869819Y-94758458D02*
X97869819Y-94091792D01*
X97869819Y-94091792D02*
X98869819Y-94758458D01*
X98869819Y-94758458D02*
X98869819Y-94091792D01*
X98869819Y-92520363D02*
X98346009Y-92520363D01*
X98346009Y-92520363D02*
X98250771Y-92567982D01*
X98250771Y-92567982D02*
X98203152Y-92663220D01*
X98203152Y-92663220D02*
X98203152Y-92853696D01*
X98203152Y-92853696D02*
X98250771Y-92948934D01*
X98822200Y-92520363D02*
X98869819Y-92615601D01*
X98869819Y-92615601D02*
X98869819Y-92853696D01*
X98869819Y-92853696D02*
X98822200Y-92948934D01*
X98822200Y-92948934D02*
X98726961Y-92996553D01*
X98726961Y-92996553D02*
X98631723Y-92996553D01*
X98631723Y-92996553D02*
X98536485Y-92948934D01*
X98536485Y-92948934D02*
X98488866Y-92853696D01*
X98488866Y-92853696D02*
X98488866Y-92615601D01*
X98488866Y-92615601D02*
X98441247Y-92520363D01*
X98869819Y-92139410D02*
X98203152Y-91615601D01*
X98203152Y-92139410D02*
X98869819Y-91615601D01*
X98869819Y-91234648D02*
X98203152Y-91234648D01*
X97869819Y-91234648D02*
X97917438Y-91282267D01*
X97917438Y-91282267D02*
X97965057Y-91234648D01*
X97965057Y-91234648D02*
X97917438Y-91187029D01*
X97917438Y-91187029D02*
X97869819Y-91234648D01*
X97869819Y-91234648D02*
X97965057Y-91234648D01*
X98822200Y-90806077D02*
X98869819Y-90710839D01*
X98869819Y-90710839D02*
X98869819Y-90520363D01*
X98869819Y-90520363D02*
X98822200Y-90425125D01*
X98822200Y-90425125D02*
X98726961Y-90377506D01*
X98726961Y-90377506D02*
X98679342Y-90377506D01*
X98679342Y-90377506D02*
X98584104Y-90425125D01*
X98584104Y-90425125D02*
X98536485Y-90520363D01*
X98536485Y-90520363D02*
X98536485Y-90663220D01*
X98536485Y-90663220D02*
X98488866Y-90758458D01*
X98488866Y-90758458D02*
X98393628Y-90806077D01*
X98393628Y-90806077D02*
X98346009Y-90806077D01*
X98346009Y-90806077D02*
X98250771Y-90758458D01*
X98250771Y-90758458D02*
X98203152Y-90663220D01*
X98203152Y-90663220D02*
X98203152Y-90520363D01*
X98203152Y-90520363D02*
X98250771Y-90425125D01*
X98346009Y-89187029D02*
X98346009Y-88853696D01*
X98869819Y-88710839D02*
X98869819Y-89187029D01*
X98869819Y-89187029D02*
X97869819Y-89187029D01*
X97869819Y-89187029D02*
X97869819Y-88710839D01*
X98869819Y-88282267D02*
X97869819Y-88282267D01*
X97869819Y-88282267D02*
X98869819Y-87710839D01*
X98869819Y-87710839D02*
X97869819Y-87710839D01*
X98774580Y-86663220D02*
X98822200Y-86710839D01*
X98822200Y-86710839D02*
X98869819Y-86853696D01*
X98869819Y-86853696D02*
X98869819Y-86948934D01*
X98869819Y-86948934D02*
X98822200Y-87091791D01*
X98822200Y-87091791D02*
X98726961Y-87187029D01*
X98726961Y-87187029D02*
X98631723Y-87234648D01*
X98631723Y-87234648D02*
X98441247Y-87282267D01*
X98441247Y-87282267D02*
X98298390Y-87282267D01*
X98298390Y-87282267D02*
X98107914Y-87234648D01*
X98107914Y-87234648D02*
X98012676Y-87187029D01*
X98012676Y-87187029D02*
X97917438Y-87091791D01*
X97917438Y-87091791D02*
X97869819Y-86948934D01*
X97869819Y-86948934D02*
X97869819Y-86853696D01*
X97869819Y-86853696D02*
X97917438Y-86710839D01*
X97917438Y-86710839D02*
X97965057Y-86663220D01*
X97454819Y-70333333D02*
X98169104Y-70333333D01*
X98169104Y-70333333D02*
X98311961Y-70380952D01*
X98311961Y-70380952D02*
X98407200Y-70476190D01*
X98407200Y-70476190D02*
X98454819Y-70619047D01*
X98454819Y-70619047D02*
X98454819Y-70714285D01*
X97454819Y-69428571D02*
X97454819Y-69619047D01*
X97454819Y-69619047D02*
X97502438Y-69714285D01*
X97502438Y-69714285D02*
X97550057Y-69761904D01*
X97550057Y-69761904D02*
X97692914Y-69857142D01*
X97692914Y-69857142D02*
X97883390Y-69904761D01*
X97883390Y-69904761D02*
X98264342Y-69904761D01*
X98264342Y-69904761D02*
X98359580Y-69857142D01*
X98359580Y-69857142D02*
X98407200Y-69809523D01*
X98407200Y-69809523D02*
X98454819Y-69714285D01*
X98454819Y-69714285D02*
X98454819Y-69523809D01*
X98454819Y-69523809D02*
X98407200Y-69428571D01*
X98407200Y-69428571D02*
X98359580Y-69380952D01*
X98359580Y-69380952D02*
X98264342Y-69333333D01*
X98264342Y-69333333D02*
X98026247Y-69333333D01*
X98026247Y-69333333D02*
X97931009Y-69380952D01*
X97931009Y-69380952D02*
X97883390Y-69428571D01*
X97883390Y-69428571D02*
X97835771Y-69523809D01*
X97835771Y-69523809D02*
X97835771Y-69714285D01*
X97835771Y-69714285D02*
X97883390Y-69809523D01*
X97883390Y-69809523D02*
X97931009Y-69857142D01*
X97931009Y-69857142D02*
X98026247Y-69904761D01*
X93454819Y-84333333D02*
X94169104Y-84333333D01*
X94169104Y-84333333D02*
X94311961Y-84380952D01*
X94311961Y-84380952D02*
X94407200Y-84476190D01*
X94407200Y-84476190D02*
X94454819Y-84619047D01*
X94454819Y-84619047D02*
X94454819Y-84714285D01*
X93788152Y-83428571D02*
X94454819Y-83428571D01*
X93407200Y-83666666D02*
X94121485Y-83904761D01*
X94121485Y-83904761D02*
X94121485Y-83285714D01*
X88454819Y-98333333D02*
X89169104Y-98333333D01*
X89169104Y-98333333D02*
X89311961Y-98380952D01*
X89311961Y-98380952D02*
X89407200Y-98476190D01*
X89407200Y-98476190D02*
X89454819Y-98619047D01*
X89454819Y-98619047D02*
X89454819Y-98714285D01*
X88454819Y-97380952D02*
X88454819Y-97857142D01*
X88454819Y-97857142D02*
X88931009Y-97904761D01*
X88931009Y-97904761D02*
X88883390Y-97857142D01*
X88883390Y-97857142D02*
X88835771Y-97761904D01*
X88835771Y-97761904D02*
X88835771Y-97523809D01*
X88835771Y-97523809D02*
X88883390Y-97428571D01*
X88883390Y-97428571D02*
X88931009Y-97380952D01*
X88931009Y-97380952D02*
X89026247Y-97333333D01*
X89026247Y-97333333D02*
X89264342Y-97333333D01*
X89264342Y-97333333D02*
X89359580Y-97380952D01*
X89359580Y-97380952D02*
X89407200Y-97428571D01*
X89407200Y-97428571D02*
X89454819Y-97523809D01*
X89454819Y-97523809D02*
X89454819Y-97761904D01*
X89454819Y-97761904D02*
X89407200Y-97857142D01*
X89407200Y-97857142D02*
X89359580Y-97904761D01*
X140666666Y-86454819D02*
X140666666Y-87169104D01*
X140666666Y-87169104D02*
X140619047Y-87311961D01*
X140619047Y-87311961D02*
X140523809Y-87407200D01*
X140523809Y-87407200D02*
X140380952Y-87454819D01*
X140380952Y-87454819D02*
X140285714Y-87454819D01*
X141285714Y-86883390D02*
X141190476Y-86835771D01*
X141190476Y-86835771D02*
X141142857Y-86788152D01*
X141142857Y-86788152D02*
X141095238Y-86692914D01*
X141095238Y-86692914D02*
X141095238Y-86645295D01*
X141095238Y-86645295D02*
X141142857Y-86550057D01*
X141142857Y-86550057D02*
X141190476Y-86502438D01*
X141190476Y-86502438D02*
X141285714Y-86454819D01*
X141285714Y-86454819D02*
X141476190Y-86454819D01*
X141476190Y-86454819D02*
X141571428Y-86502438D01*
X141571428Y-86502438D02*
X141619047Y-86550057D01*
X141619047Y-86550057D02*
X141666666Y-86645295D01*
X141666666Y-86645295D02*
X141666666Y-86692914D01*
X141666666Y-86692914D02*
X141619047Y-86788152D01*
X141619047Y-86788152D02*
X141571428Y-86835771D01*
X141571428Y-86835771D02*
X141476190Y-86883390D01*
X141476190Y-86883390D02*
X141285714Y-86883390D01*
X141285714Y-86883390D02*
X141190476Y-86931009D01*
X141190476Y-86931009D02*
X141142857Y-86978628D01*
X141142857Y-86978628D02*
X141095238Y-87073866D01*
X141095238Y-87073866D02*
X141095238Y-87264342D01*
X141095238Y-87264342D02*
X141142857Y-87359580D01*
X141142857Y-87359580D02*
X141190476Y-87407200D01*
X141190476Y-87407200D02*
X141285714Y-87454819D01*
X141285714Y-87454819D02*
X141476190Y-87454819D01*
X141476190Y-87454819D02*
X141571428Y-87407200D01*
X141571428Y-87407200D02*
X141619047Y-87359580D01*
X141619047Y-87359580D02*
X141666666Y-87264342D01*
X141666666Y-87264342D02*
X141666666Y-87073866D01*
X141666666Y-87073866D02*
X141619047Y-86978628D01*
X141619047Y-86978628D02*
X141571428Y-86931009D01*
X141571428Y-86931009D02*
X141476190Y-86883390D01*
X125666666Y-94454819D02*
X125666666Y-95169104D01*
X125666666Y-95169104D02*
X125619047Y-95311961D01*
X125619047Y-95311961D02*
X125523809Y-95407200D01*
X125523809Y-95407200D02*
X125380952Y-95454819D01*
X125380952Y-95454819D02*
X125285714Y-95454819D01*
X126095238Y-94550057D02*
X126142857Y-94502438D01*
X126142857Y-94502438D02*
X126238095Y-94454819D01*
X126238095Y-94454819D02*
X126476190Y-94454819D01*
X126476190Y-94454819D02*
X126571428Y-94502438D01*
X126571428Y-94502438D02*
X126619047Y-94550057D01*
X126619047Y-94550057D02*
X126666666Y-94645295D01*
X126666666Y-94645295D02*
X126666666Y-94740533D01*
X126666666Y-94740533D02*
X126619047Y-94883390D01*
X126619047Y-94883390D02*
X126047619Y-95454819D01*
X126047619Y-95454819D02*
X126666666Y-95454819D01*
X110666666Y-95454819D02*
X110666666Y-96169104D01*
X110666666Y-96169104D02*
X110619047Y-96311961D01*
X110619047Y-96311961D02*
X110523809Y-96407200D01*
X110523809Y-96407200D02*
X110380952Y-96454819D01*
X110380952Y-96454819D02*
X110285714Y-96454819D01*
X111047619Y-95454819D02*
X111666666Y-95454819D01*
X111666666Y-95454819D02*
X111333333Y-95835771D01*
X111333333Y-95835771D02*
X111476190Y-95835771D01*
X111476190Y-95835771D02*
X111571428Y-95883390D01*
X111571428Y-95883390D02*
X111619047Y-95931009D01*
X111619047Y-95931009D02*
X111666666Y-96026247D01*
X111666666Y-96026247D02*
X111666666Y-96264342D01*
X111666666Y-96264342D02*
X111619047Y-96359580D01*
X111619047Y-96359580D02*
X111571428Y-96407200D01*
X111571428Y-96407200D02*
X111476190Y-96454819D01*
X111476190Y-96454819D02*
X111190476Y-96454819D01*
X111190476Y-96454819D02*
X111095238Y-96407200D01*
X111095238Y-96407200D02*
X111047619Y-96359580D01*
X159534819Y-65166666D02*
X159058628Y-65499999D01*
X159534819Y-65738094D02*
X158534819Y-65738094D01*
X158534819Y-65738094D02*
X158534819Y-65357142D01*
X158534819Y-65357142D02*
X158582438Y-65261904D01*
X158582438Y-65261904D02*
X158630057Y-65214285D01*
X158630057Y-65214285D02*
X158725295Y-65166666D01*
X158725295Y-65166666D02*
X158868152Y-65166666D01*
X158868152Y-65166666D02*
X158963390Y-65214285D01*
X158963390Y-65214285D02*
X159011009Y-65261904D01*
X159011009Y-65261904D02*
X159058628Y-65357142D01*
X159058628Y-65357142D02*
X159058628Y-65738094D01*
X158868152Y-64309523D02*
X159534819Y-64309523D01*
X158487200Y-64547618D02*
X159201485Y-64785713D01*
X159201485Y-64785713D02*
X159201485Y-64166666D01*
X142644819Y-80571904D02*
X143454342Y-80571904D01*
X143454342Y-80571904D02*
X143549580Y-80524285D01*
X143549580Y-80524285D02*
X143597200Y-80476666D01*
X143597200Y-80476666D02*
X143644819Y-80381428D01*
X143644819Y-80381428D02*
X143644819Y-80190952D01*
X143644819Y-80190952D02*
X143597200Y-80095714D01*
X143597200Y-80095714D02*
X143549580Y-80048095D01*
X143549580Y-80048095D02*
X143454342Y-80000476D01*
X143454342Y-80000476D02*
X142644819Y-80000476D01*
X142978152Y-79095714D02*
X143644819Y-79095714D01*
X142597200Y-79333809D02*
X143311485Y-79571904D01*
X143311485Y-79571904D02*
X143311485Y-78952857D01*
X147454819Y-82976666D02*
X146978628Y-83309999D01*
X147454819Y-83548094D02*
X146454819Y-83548094D01*
X146454819Y-83548094D02*
X146454819Y-83167142D01*
X146454819Y-83167142D02*
X146502438Y-83071904D01*
X146502438Y-83071904D02*
X146550057Y-83024285D01*
X146550057Y-83024285D02*
X146645295Y-82976666D01*
X146645295Y-82976666D02*
X146788152Y-82976666D01*
X146788152Y-82976666D02*
X146883390Y-83024285D01*
X146883390Y-83024285D02*
X146931009Y-83071904D01*
X146931009Y-83071904D02*
X146978628Y-83167142D01*
X146978628Y-83167142D02*
X146978628Y-83548094D01*
X146883390Y-82405237D02*
X146835771Y-82500475D01*
X146835771Y-82500475D02*
X146788152Y-82548094D01*
X146788152Y-82548094D02*
X146692914Y-82595713D01*
X146692914Y-82595713D02*
X146645295Y-82595713D01*
X146645295Y-82595713D02*
X146550057Y-82548094D01*
X146550057Y-82548094D02*
X146502438Y-82500475D01*
X146502438Y-82500475D02*
X146454819Y-82405237D01*
X146454819Y-82405237D02*
X146454819Y-82214761D01*
X146454819Y-82214761D02*
X146502438Y-82119523D01*
X146502438Y-82119523D02*
X146550057Y-82071904D01*
X146550057Y-82071904D02*
X146645295Y-82024285D01*
X146645295Y-82024285D02*
X146692914Y-82024285D01*
X146692914Y-82024285D02*
X146788152Y-82071904D01*
X146788152Y-82071904D02*
X146835771Y-82119523D01*
X146835771Y-82119523D02*
X146883390Y-82214761D01*
X146883390Y-82214761D02*
X146883390Y-82405237D01*
X146883390Y-82405237D02*
X146931009Y-82500475D01*
X146931009Y-82500475D02*
X146978628Y-82548094D01*
X146978628Y-82548094D02*
X147073866Y-82595713D01*
X147073866Y-82595713D02*
X147264342Y-82595713D01*
X147264342Y-82595713D02*
X147359580Y-82548094D01*
X147359580Y-82548094D02*
X147407200Y-82500475D01*
X147407200Y-82500475D02*
X147454819Y-82405237D01*
X147454819Y-82405237D02*
X147454819Y-82214761D01*
X147454819Y-82214761D02*
X147407200Y-82119523D01*
X147407200Y-82119523D02*
X147359580Y-82071904D01*
X147359580Y-82071904D02*
X147264342Y-82024285D01*
X147264342Y-82024285D02*
X147073866Y-82024285D01*
X147073866Y-82024285D02*
X146978628Y-82071904D01*
X146978628Y-82071904D02*
X146931009Y-82119523D01*
X146931009Y-82119523D02*
X146883390Y-82214761D01*
X154767261Y-55050057D02*
X154672023Y-55002438D01*
X154672023Y-55002438D02*
X154576785Y-54907200D01*
X154576785Y-54907200D02*
X154433928Y-54764342D01*
X154433928Y-54764342D02*
X154338690Y-54716723D01*
X154338690Y-54716723D02*
X154243452Y-54716723D01*
X154291071Y-54954819D02*
X154195833Y-54907200D01*
X154195833Y-54907200D02*
X154100595Y-54811961D01*
X154100595Y-54811961D02*
X154052976Y-54621485D01*
X154052976Y-54621485D02*
X154052976Y-54288152D01*
X154052976Y-54288152D02*
X154100595Y-54097676D01*
X154100595Y-54097676D02*
X154195833Y-54002438D01*
X154195833Y-54002438D02*
X154291071Y-53954819D01*
X154291071Y-53954819D02*
X154481547Y-53954819D01*
X154481547Y-53954819D02*
X154576785Y-54002438D01*
X154576785Y-54002438D02*
X154672023Y-54097676D01*
X154672023Y-54097676D02*
X154719642Y-54288152D01*
X154719642Y-54288152D02*
X154719642Y-54621485D01*
X154719642Y-54621485D02*
X154672023Y-54811961D01*
X154672023Y-54811961D02*
X154576785Y-54907200D01*
X154576785Y-54907200D02*
X154481547Y-54954819D01*
X154481547Y-54954819D02*
X154291071Y-54954819D01*
X155052976Y-53954819D02*
X155672023Y-53954819D01*
X155672023Y-53954819D02*
X155338690Y-54335771D01*
X155338690Y-54335771D02*
X155481547Y-54335771D01*
X155481547Y-54335771D02*
X155576785Y-54383390D01*
X155576785Y-54383390D02*
X155624404Y-54431009D01*
X155624404Y-54431009D02*
X155672023Y-54526247D01*
X155672023Y-54526247D02*
X155672023Y-54764342D01*
X155672023Y-54764342D02*
X155624404Y-54859580D01*
X155624404Y-54859580D02*
X155576785Y-54907200D01*
X155576785Y-54907200D02*
X155481547Y-54954819D01*
X155481547Y-54954819D02*
X155195833Y-54954819D01*
X155195833Y-54954819D02*
X155100595Y-54907200D01*
X155100595Y-54907200D02*
X155052976Y-54859580D01*
X151454819Y-82976666D02*
X150978628Y-83309999D01*
X151454819Y-83548094D02*
X150454819Y-83548094D01*
X150454819Y-83548094D02*
X150454819Y-83167142D01*
X150454819Y-83167142D02*
X150502438Y-83071904D01*
X150502438Y-83071904D02*
X150550057Y-83024285D01*
X150550057Y-83024285D02*
X150645295Y-82976666D01*
X150645295Y-82976666D02*
X150788152Y-82976666D01*
X150788152Y-82976666D02*
X150883390Y-83024285D01*
X150883390Y-83024285D02*
X150931009Y-83071904D01*
X150931009Y-83071904D02*
X150978628Y-83167142D01*
X150978628Y-83167142D02*
X150978628Y-83548094D01*
X150454819Y-82643332D02*
X150454819Y-81976666D01*
X150454819Y-81976666D02*
X151454819Y-82405237D01*
X142784819Y-68571904D02*
X143594342Y-68571904D01*
X143594342Y-68571904D02*
X143689580Y-68524285D01*
X143689580Y-68524285D02*
X143737200Y-68476666D01*
X143737200Y-68476666D02*
X143784819Y-68381428D01*
X143784819Y-68381428D02*
X143784819Y-68190952D01*
X143784819Y-68190952D02*
X143737200Y-68095714D01*
X143737200Y-68095714D02*
X143689580Y-68048095D01*
X143689580Y-68048095D02*
X143594342Y-68000476D01*
X143594342Y-68000476D02*
X142784819Y-68000476D01*
X142784819Y-67619523D02*
X142784819Y-67000476D01*
X142784819Y-67000476D02*
X143165771Y-67333809D01*
X143165771Y-67333809D02*
X143165771Y-67190952D01*
X143165771Y-67190952D02*
X143213390Y-67095714D01*
X143213390Y-67095714D02*
X143261009Y-67048095D01*
X143261009Y-67048095D02*
X143356247Y-67000476D01*
X143356247Y-67000476D02*
X143594342Y-67000476D01*
X143594342Y-67000476D02*
X143689580Y-67048095D01*
X143689580Y-67048095D02*
X143737200Y-67095714D01*
X143737200Y-67095714D02*
X143784819Y-67190952D01*
X143784819Y-67190952D02*
X143784819Y-67476666D01*
X143784819Y-67476666D02*
X143737200Y-67571904D01*
X143737200Y-67571904D02*
X143689580Y-67619523D01*
X147767261Y-55100057D02*
X147672023Y-55052438D01*
X147672023Y-55052438D02*
X147576785Y-54957200D01*
X147576785Y-54957200D02*
X147433928Y-54814342D01*
X147433928Y-54814342D02*
X147338690Y-54766723D01*
X147338690Y-54766723D02*
X147243452Y-54766723D01*
X147291071Y-55004819D02*
X147195833Y-54957200D01*
X147195833Y-54957200D02*
X147100595Y-54861961D01*
X147100595Y-54861961D02*
X147052976Y-54671485D01*
X147052976Y-54671485D02*
X147052976Y-54338152D01*
X147052976Y-54338152D02*
X147100595Y-54147676D01*
X147100595Y-54147676D02*
X147195833Y-54052438D01*
X147195833Y-54052438D02*
X147291071Y-54004819D01*
X147291071Y-54004819D02*
X147481547Y-54004819D01*
X147481547Y-54004819D02*
X147576785Y-54052438D01*
X147576785Y-54052438D02*
X147672023Y-54147676D01*
X147672023Y-54147676D02*
X147719642Y-54338152D01*
X147719642Y-54338152D02*
X147719642Y-54671485D01*
X147719642Y-54671485D02*
X147672023Y-54861961D01*
X147672023Y-54861961D02*
X147576785Y-54957200D01*
X147576785Y-54957200D02*
X147481547Y-55004819D01*
X147481547Y-55004819D02*
X147291071Y-55004819D01*
X148100595Y-54100057D02*
X148148214Y-54052438D01*
X148148214Y-54052438D02*
X148243452Y-54004819D01*
X148243452Y-54004819D02*
X148481547Y-54004819D01*
X148481547Y-54004819D02*
X148576785Y-54052438D01*
X148576785Y-54052438D02*
X148624404Y-54100057D01*
X148624404Y-54100057D02*
X148672023Y-54195295D01*
X148672023Y-54195295D02*
X148672023Y-54290533D01*
X148672023Y-54290533D02*
X148624404Y-54433390D01*
X148624404Y-54433390D02*
X148052976Y-55004819D01*
X148052976Y-55004819D02*
X148672023Y-55004819D01*
X107359580Y-80166666D02*
X107407200Y-80214285D01*
X107407200Y-80214285D02*
X107454819Y-80357142D01*
X107454819Y-80357142D02*
X107454819Y-80452380D01*
X107454819Y-80452380D02*
X107407200Y-80595237D01*
X107407200Y-80595237D02*
X107311961Y-80690475D01*
X107311961Y-80690475D02*
X107216723Y-80738094D01*
X107216723Y-80738094D02*
X107026247Y-80785713D01*
X107026247Y-80785713D02*
X106883390Y-80785713D01*
X106883390Y-80785713D02*
X106692914Y-80738094D01*
X106692914Y-80738094D02*
X106597676Y-80690475D01*
X106597676Y-80690475D02*
X106502438Y-80595237D01*
X106502438Y-80595237D02*
X106454819Y-80452380D01*
X106454819Y-80452380D02*
X106454819Y-80357142D01*
X106454819Y-80357142D02*
X106502438Y-80214285D01*
X106502438Y-80214285D02*
X106550057Y-80166666D01*
X106788152Y-79309523D02*
X107454819Y-79309523D01*
X106407200Y-79547618D02*
X107121485Y-79785713D01*
X107121485Y-79785713D02*
X107121485Y-79166666D01*
X157454819Y-83976666D02*
X156978628Y-84309999D01*
X157454819Y-84548094D02*
X156454819Y-84548094D01*
X156454819Y-84548094D02*
X156454819Y-84167142D01*
X156454819Y-84167142D02*
X156502438Y-84071904D01*
X156502438Y-84071904D02*
X156550057Y-84024285D01*
X156550057Y-84024285D02*
X156645295Y-83976666D01*
X156645295Y-83976666D02*
X156788152Y-83976666D01*
X156788152Y-83976666D02*
X156883390Y-84024285D01*
X156883390Y-84024285D02*
X156931009Y-84071904D01*
X156931009Y-84071904D02*
X156978628Y-84167142D01*
X156978628Y-84167142D02*
X156978628Y-84548094D01*
X156454819Y-83119523D02*
X156454819Y-83309999D01*
X156454819Y-83309999D02*
X156502438Y-83405237D01*
X156502438Y-83405237D02*
X156550057Y-83452856D01*
X156550057Y-83452856D02*
X156692914Y-83548094D01*
X156692914Y-83548094D02*
X156883390Y-83595713D01*
X156883390Y-83595713D02*
X157264342Y-83595713D01*
X157264342Y-83595713D02*
X157359580Y-83548094D01*
X157359580Y-83548094D02*
X157407200Y-83500475D01*
X157407200Y-83500475D02*
X157454819Y-83405237D01*
X157454819Y-83405237D02*
X157454819Y-83214761D01*
X157454819Y-83214761D02*
X157407200Y-83119523D01*
X157407200Y-83119523D02*
X157359580Y-83071904D01*
X157359580Y-83071904D02*
X157264342Y-83024285D01*
X157264342Y-83024285D02*
X157026247Y-83024285D01*
X157026247Y-83024285D02*
X156931009Y-83071904D01*
X156931009Y-83071904D02*
X156883390Y-83119523D01*
X156883390Y-83119523D02*
X156835771Y-83214761D01*
X156835771Y-83214761D02*
X156835771Y-83405237D01*
X156835771Y-83405237D02*
X156883390Y-83500475D01*
X156883390Y-83500475D02*
X156931009Y-83548094D01*
X156931009Y-83548094D02*
X157026247Y-83595713D01*
X148666666Y-88454819D02*
X148666666Y-89169104D01*
X148666666Y-89169104D02*
X148619047Y-89311961D01*
X148619047Y-89311961D02*
X148523809Y-89407200D01*
X148523809Y-89407200D02*
X148380952Y-89454819D01*
X148380952Y-89454819D02*
X148285714Y-89454819D01*
X149047619Y-88454819D02*
X149714285Y-88454819D01*
X149714285Y-88454819D02*
X149285714Y-89454819D01*
X154454819Y-82976666D02*
X153978628Y-83309999D01*
X154454819Y-83548094D02*
X153454819Y-83548094D01*
X153454819Y-83548094D02*
X153454819Y-83167142D01*
X153454819Y-83167142D02*
X153502438Y-83071904D01*
X153502438Y-83071904D02*
X153550057Y-83024285D01*
X153550057Y-83024285D02*
X153645295Y-82976666D01*
X153645295Y-82976666D02*
X153788152Y-82976666D01*
X153788152Y-82976666D02*
X153883390Y-83024285D01*
X153883390Y-83024285D02*
X153931009Y-83071904D01*
X153931009Y-83071904D02*
X153978628Y-83167142D01*
X153978628Y-83167142D02*
X153978628Y-83548094D01*
X153454819Y-82071904D02*
X153454819Y-82548094D01*
X153454819Y-82548094D02*
X153931009Y-82595713D01*
X153931009Y-82595713D02*
X153883390Y-82548094D01*
X153883390Y-82548094D02*
X153835771Y-82452856D01*
X153835771Y-82452856D02*
X153835771Y-82214761D01*
X153835771Y-82214761D02*
X153883390Y-82119523D01*
X153883390Y-82119523D02*
X153931009Y-82071904D01*
X153931009Y-82071904D02*
X154026247Y-82024285D01*
X154026247Y-82024285D02*
X154264342Y-82024285D01*
X154264342Y-82024285D02*
X154359580Y-82071904D01*
X154359580Y-82071904D02*
X154407200Y-82119523D01*
X154407200Y-82119523D02*
X154454819Y-82214761D01*
X154454819Y-82214761D02*
X154454819Y-82452856D01*
X154454819Y-82452856D02*
X154407200Y-82548094D01*
X154407200Y-82548094D02*
X154359580Y-82595713D01*
X110238095Y-54004819D02*
X110238095Y-54814342D01*
X110238095Y-54814342D02*
X110285714Y-54909580D01*
X110285714Y-54909580D02*
X110333333Y-54957200D01*
X110333333Y-54957200D02*
X110428571Y-55004819D01*
X110428571Y-55004819D02*
X110619047Y-55004819D01*
X110619047Y-55004819D02*
X110714285Y-54957200D01*
X110714285Y-54957200D02*
X110761904Y-54909580D01*
X110761904Y-54909580D02*
X110809523Y-54814342D01*
X110809523Y-54814342D02*
X110809523Y-54004819D01*
X111238095Y-54100057D02*
X111285714Y-54052438D01*
X111285714Y-54052438D02*
X111380952Y-54004819D01*
X111380952Y-54004819D02*
X111619047Y-54004819D01*
X111619047Y-54004819D02*
X111714285Y-54052438D01*
X111714285Y-54052438D02*
X111761904Y-54100057D01*
X111761904Y-54100057D02*
X111809523Y-54195295D01*
X111809523Y-54195295D02*
X111809523Y-54290533D01*
X111809523Y-54290533D02*
X111761904Y-54433390D01*
X111761904Y-54433390D02*
X111190476Y-55004819D01*
X111190476Y-55004819D02*
X111809523Y-55004819D01*
X155534819Y-66166666D02*
X155058628Y-66499999D01*
X155534819Y-66738094D02*
X154534819Y-66738094D01*
X154534819Y-66738094D02*
X154534819Y-66357142D01*
X154534819Y-66357142D02*
X154582438Y-66261904D01*
X154582438Y-66261904D02*
X154630057Y-66214285D01*
X154630057Y-66214285D02*
X154725295Y-66166666D01*
X154725295Y-66166666D02*
X154868152Y-66166666D01*
X154868152Y-66166666D02*
X154963390Y-66214285D01*
X154963390Y-66214285D02*
X155011009Y-66261904D01*
X155011009Y-66261904D02*
X155058628Y-66357142D01*
X155058628Y-66357142D02*
X155058628Y-66738094D01*
X154534819Y-65833332D02*
X154534819Y-65214285D01*
X154534819Y-65214285D02*
X154915771Y-65547618D01*
X154915771Y-65547618D02*
X154915771Y-65404761D01*
X154915771Y-65404761D02*
X154963390Y-65309523D01*
X154963390Y-65309523D02*
X155011009Y-65261904D01*
X155011009Y-65261904D02*
X155106247Y-65214285D01*
X155106247Y-65214285D02*
X155344342Y-65214285D01*
X155344342Y-65214285D02*
X155439580Y-65261904D01*
X155439580Y-65261904D02*
X155487200Y-65309523D01*
X155487200Y-65309523D02*
X155534819Y-65404761D01*
X155534819Y-65404761D02*
X155534819Y-65690475D01*
X155534819Y-65690475D02*
X155487200Y-65785713D01*
X155487200Y-65785713D02*
X155439580Y-65833332D01*
X161967261Y-55100057D02*
X161872023Y-55052438D01*
X161872023Y-55052438D02*
X161776785Y-54957200D01*
X161776785Y-54957200D02*
X161633928Y-54814342D01*
X161633928Y-54814342D02*
X161538690Y-54766723D01*
X161538690Y-54766723D02*
X161443452Y-54766723D01*
X161491071Y-55004819D02*
X161395833Y-54957200D01*
X161395833Y-54957200D02*
X161300595Y-54861961D01*
X161300595Y-54861961D02*
X161252976Y-54671485D01*
X161252976Y-54671485D02*
X161252976Y-54338152D01*
X161252976Y-54338152D02*
X161300595Y-54147676D01*
X161300595Y-54147676D02*
X161395833Y-54052438D01*
X161395833Y-54052438D02*
X161491071Y-54004819D01*
X161491071Y-54004819D02*
X161681547Y-54004819D01*
X161681547Y-54004819D02*
X161776785Y-54052438D01*
X161776785Y-54052438D02*
X161872023Y-54147676D01*
X161872023Y-54147676D02*
X161919642Y-54338152D01*
X161919642Y-54338152D02*
X161919642Y-54671485D01*
X161919642Y-54671485D02*
X161872023Y-54861961D01*
X161872023Y-54861961D02*
X161776785Y-54957200D01*
X161776785Y-54957200D02*
X161681547Y-55004819D01*
X161681547Y-55004819D02*
X161491071Y-55004819D01*
X162872023Y-55004819D02*
X162300595Y-55004819D01*
X162586309Y-55004819D02*
X162586309Y-54004819D01*
X162586309Y-54004819D02*
X162491071Y-54147676D01*
X162491071Y-54147676D02*
X162395833Y-54242914D01*
X162395833Y-54242914D02*
X162300595Y-54290533D01*
X104778095Y-65304819D02*
X104778095Y-66114342D01*
X104778095Y-66114342D02*
X104825714Y-66209580D01*
X104825714Y-66209580D02*
X104873333Y-66257200D01*
X104873333Y-66257200D02*
X104968571Y-66304819D01*
X104968571Y-66304819D02*
X105159047Y-66304819D01*
X105159047Y-66304819D02*
X105254285Y-66257200D01*
X105254285Y-66257200D02*
X105301904Y-66209580D01*
X105301904Y-66209580D02*
X105349523Y-66114342D01*
X105349523Y-66114342D02*
X105349523Y-65304819D01*
X106254285Y-65304819D02*
X106063809Y-65304819D01*
X106063809Y-65304819D02*
X105968571Y-65352438D01*
X105968571Y-65352438D02*
X105920952Y-65400057D01*
X105920952Y-65400057D02*
X105825714Y-65542914D01*
X105825714Y-65542914D02*
X105778095Y-65733390D01*
X105778095Y-65733390D02*
X105778095Y-66114342D01*
X105778095Y-66114342D02*
X105825714Y-66209580D01*
X105825714Y-66209580D02*
X105873333Y-66257200D01*
X105873333Y-66257200D02*
X105968571Y-66304819D01*
X105968571Y-66304819D02*
X106159047Y-66304819D01*
X106159047Y-66304819D02*
X106254285Y-66257200D01*
X106254285Y-66257200D02*
X106301904Y-66209580D01*
X106301904Y-66209580D02*
X106349523Y-66114342D01*
X106349523Y-66114342D02*
X106349523Y-65876247D01*
X106349523Y-65876247D02*
X106301904Y-65781009D01*
X106301904Y-65781009D02*
X106254285Y-65733390D01*
X106254285Y-65733390D02*
X106159047Y-65685771D01*
X106159047Y-65685771D02*
X105968571Y-65685771D01*
X105968571Y-65685771D02*
X105873333Y-65733390D01*
X105873333Y-65733390D02*
X105825714Y-65781009D01*
X105825714Y-65781009D02*
X105778095Y-65876247D01*
X101279580Y-80691666D02*
X101327200Y-80739285D01*
X101327200Y-80739285D02*
X101374819Y-80882142D01*
X101374819Y-80882142D02*
X101374819Y-80977380D01*
X101374819Y-80977380D02*
X101327200Y-81120237D01*
X101327200Y-81120237D02*
X101231961Y-81215475D01*
X101231961Y-81215475D02*
X101136723Y-81263094D01*
X101136723Y-81263094D02*
X100946247Y-81310713D01*
X100946247Y-81310713D02*
X100803390Y-81310713D01*
X100803390Y-81310713D02*
X100612914Y-81263094D01*
X100612914Y-81263094D02*
X100517676Y-81215475D01*
X100517676Y-81215475D02*
X100422438Y-81120237D01*
X100422438Y-81120237D02*
X100374819Y-80977380D01*
X100374819Y-80977380D02*
X100374819Y-80882142D01*
X100374819Y-80882142D02*
X100422438Y-80739285D01*
X100422438Y-80739285D02*
X100470057Y-80691666D01*
X100374819Y-80358332D02*
X100374819Y-79739285D01*
X100374819Y-79739285D02*
X100755771Y-80072618D01*
X100755771Y-80072618D02*
X100755771Y-79929761D01*
X100755771Y-79929761D02*
X100803390Y-79834523D01*
X100803390Y-79834523D02*
X100851009Y-79786904D01*
X100851009Y-79786904D02*
X100946247Y-79739285D01*
X100946247Y-79739285D02*
X101184342Y-79739285D01*
X101184342Y-79739285D02*
X101279580Y-79786904D01*
X101279580Y-79786904D02*
X101327200Y-79834523D01*
X101327200Y-79834523D02*
X101374819Y-79929761D01*
X101374819Y-79929761D02*
X101374819Y-80215475D01*
X101374819Y-80215475D02*
X101327200Y-80310713D01*
X101327200Y-80310713D02*
X101279580Y-80358332D01*
X91216666Y-60204819D02*
X91216666Y-60919104D01*
X91216666Y-60919104D02*
X91169047Y-61061961D01*
X91169047Y-61061961D02*
X91073809Y-61157200D01*
X91073809Y-61157200D02*
X90930952Y-61204819D01*
X90930952Y-61204819D02*
X90835714Y-61204819D01*
X91740476Y-61204819D02*
X91930952Y-61204819D01*
X91930952Y-61204819D02*
X92026190Y-61157200D01*
X92026190Y-61157200D02*
X92073809Y-61109580D01*
X92073809Y-61109580D02*
X92169047Y-60966723D01*
X92169047Y-60966723D02*
X92216666Y-60776247D01*
X92216666Y-60776247D02*
X92216666Y-60395295D01*
X92216666Y-60395295D02*
X92169047Y-60300057D01*
X92169047Y-60300057D02*
X92121428Y-60252438D01*
X92121428Y-60252438D02*
X92026190Y-60204819D01*
X92026190Y-60204819D02*
X91835714Y-60204819D01*
X91835714Y-60204819D02*
X91740476Y-60252438D01*
X91740476Y-60252438D02*
X91692857Y-60300057D01*
X91692857Y-60300057D02*
X91645238Y-60395295D01*
X91645238Y-60395295D02*
X91645238Y-60633390D01*
X91645238Y-60633390D02*
X91692857Y-60728628D01*
X91692857Y-60728628D02*
X91740476Y-60776247D01*
X91740476Y-60776247D02*
X91835714Y-60823866D01*
X91835714Y-60823866D02*
X92026190Y-60823866D01*
X92026190Y-60823866D02*
X92121428Y-60776247D01*
X92121428Y-60776247D02*
X92169047Y-60728628D01*
X92169047Y-60728628D02*
X92216666Y-60633390D01*
D11*
X86320000Y-63300000D02*
X92760000Y-63300000D01*
X86320000Y-63890000D02*
X86320000Y-63300000D01*
X86320000Y-66430000D02*
X86320000Y-65950000D01*
X86320000Y-68970000D02*
X86320000Y-68490000D01*
X86320000Y-71620000D02*
X86320000Y-71030000D01*
X86940000Y-63300000D02*
X86940000Y-63890000D01*
X86940000Y-65950000D02*
X86940000Y-66430000D01*
X86940000Y-68490000D02*
X86940000Y-68970000D01*
X86940000Y-71030000D02*
X86940000Y-71620000D01*
X92240000Y-63300000D02*
X92240000Y-71620000D01*
X92760000Y-63300000D02*
X92760000Y-71620000D01*
X92760000Y-71620000D02*
X86320000Y-71620000D01*
X86150000Y-64920000D02*
X85540000Y-65360000D01*
X85540000Y-64480000D01*
X86150000Y-64920000D01*
G36*
X86150000Y-64920000D02*
G01*
X85540000Y-65360000D01*
X85540000Y-64480000D01*
X86150000Y-64920000D01*
G37*
X85780000Y-72760000D02*
X92220000Y-72760000D01*
X85780000Y-74080000D02*
X85780000Y-72760000D01*
X85780000Y-83620000D02*
X85780000Y-74680000D01*
X86400000Y-72760000D02*
X86400000Y-83620000D01*
X91700000Y-72760000D02*
X91700000Y-83620000D01*
X92220000Y-72760000D02*
X92220000Y-83620000D01*
X92220000Y-83620000D02*
X85780000Y-83620000D01*
X86110000Y-74380000D02*
X85500000Y-74820000D01*
X85500000Y-73940000D01*
X86110000Y-74380000D01*
G36*
X86110000Y-74380000D02*
G01*
X85500000Y-74820000D01*
X85500000Y-73940000D01*
X86110000Y-74380000D01*
G37*
X85780000Y-85300000D02*
X92220000Y-85300000D01*
X85780000Y-86620000D02*
X85780000Y-85300000D01*
X85780000Y-96160000D02*
X85780000Y-87220000D01*
X86400000Y-85300000D02*
X86400000Y-96160000D01*
X91700000Y-85300000D02*
X91700000Y-96160000D01*
X92220000Y-85300000D02*
X92220000Y-96160000D01*
X92220000Y-96160000D02*
X85780000Y-96160000D01*
X86110000Y-86920000D02*
X85500000Y-87360000D01*
X85500000Y-86480000D01*
X86110000Y-86920000D01*
G36*
X86110000Y-86920000D02*
G01*
X85500000Y-87360000D01*
X85500000Y-86480000D01*
X86110000Y-86920000D01*
G37*
X140000000Y-99288118D02*
X140152833Y-99500000D01*
X139847167Y-99500000D01*
X140000000Y-99288118D01*
G36*
X140152833Y-99500000D02*
G01*
X139847167Y-99500000D01*
X140000000Y-99288118D01*
X140152833Y-99500000D01*
G37*
X138380000Y-92780000D02*
X144160000Y-92780000D01*
X138380000Y-93300000D02*
X144160000Y-93300000D01*
X138380000Y-98600000D02*
X138970000Y-98600000D01*
X138380000Y-99220000D02*
X138380000Y-92780000D01*
X138970000Y-99220000D02*
X138380000Y-99220000D01*
X141030000Y-98600000D02*
X141510000Y-98600000D01*
X141510000Y-99220000D02*
X141030000Y-99220000D01*
X143570000Y-98600000D02*
X144160000Y-98600000D01*
X144160000Y-92780000D02*
X144160000Y-99220000D01*
X144160000Y-99220000D02*
X143570000Y-99220000D01*
X127840000Y-92747500D02*
X136160000Y-92747500D01*
X127840000Y-93267500D02*
X136160000Y-93267500D01*
X127840000Y-98567500D02*
X128430000Y-98567500D01*
X127840000Y-99187500D02*
X127840000Y-92747500D01*
X128430000Y-99187500D02*
X127840000Y-99187500D01*
X130490000Y-98567500D02*
X130970000Y-98567500D01*
X130970000Y-99187500D02*
X130490000Y-99187500D01*
X133030000Y-98567500D02*
X133510000Y-98567500D01*
X133510000Y-99187500D02*
X133030000Y-99187500D01*
X135570000Y-98567500D02*
X136160000Y-98567500D01*
X136160000Y-92747500D02*
X136160000Y-99187500D01*
X136160000Y-99187500D02*
X135570000Y-99187500D01*
X129460000Y-99191574D02*
X129900000Y-99801574D01*
X129020000Y-99801574D01*
X129460000Y-99191574D01*
G36*
X129900000Y-99801574D02*
G01*
X129020000Y-99801574D01*
X129460000Y-99191574D01*
X129900000Y-99801574D01*
G37*
X114920000Y-99195502D02*
X115360000Y-99805502D01*
X114480000Y-99805502D01*
X114920000Y-99195502D01*
G36*
X115360000Y-99805502D02*
G01*
X114480000Y-99805502D01*
X114920000Y-99195502D01*
X115360000Y-99805502D01*
G37*
X121620000Y-99220000D02*
X121030000Y-99220000D01*
X121620000Y-92780000D02*
X121620000Y-99220000D01*
X121030000Y-98600000D02*
X121620000Y-98600000D01*
X118970000Y-99220000D02*
X118490000Y-99220000D01*
X118490000Y-98600000D02*
X118970000Y-98600000D01*
X116430000Y-99220000D02*
X115950000Y-99220000D01*
X115950000Y-98600000D02*
X116430000Y-98600000D01*
X113890000Y-99220000D02*
X113300000Y-99220000D01*
X113300000Y-99220000D02*
X113300000Y-92780000D01*
X113300000Y-98600000D02*
X113890000Y-98600000D01*
X113300000Y-93300000D02*
X121620000Y-93300000D01*
X113300000Y-92780000D02*
X121620000Y-92780000D01*
X161000000Y-62130000D02*
X161000000Y-63080000D01*
X161000000Y-67870000D02*
X161000000Y-66920000D01*
X160080000Y-63080000D02*
X161920000Y-63080000D01*
X161920000Y-66920000D01*
X160080000Y-66920000D01*
X160080000Y-63080000D01*
X142190000Y-82460000D02*
X142190000Y-80810000D01*
X142190000Y-78810000D02*
X142190000Y-77160000D01*
X142190000Y-77160000D02*
X116670000Y-77160000D01*
X116670000Y-82460000D02*
X142190000Y-82460000D01*
X116670000Y-77160000D02*
X116670000Y-82460000D01*
X116610000Y-74670000D02*
X142250000Y-74670000D01*
X142250000Y-84950000D01*
X116610000Y-84950000D01*
X116610000Y-74670000D01*
X142190000Y-80810000D02*
G75*
G02*
X142190000Y-78810000I0J1000000D01*
G01*
X149000000Y-74130000D02*
X149000000Y-75080000D01*
X149000000Y-79870000D02*
X149000000Y-78920000D01*
X148080000Y-75080000D02*
X149920000Y-75080000D01*
X149920000Y-78920000D01*
X148080000Y-78920000D01*
X148080000Y-75080000D01*
X153952500Y-55340000D02*
X155772500Y-55340000D01*
X153952500Y-55390000D02*
X153952500Y-55340000D01*
X153952500Y-58460000D02*
X153952500Y-58410000D01*
X155772500Y-55340000D02*
X155772500Y-55390000D01*
X155772500Y-58410000D02*
X155772500Y-58460000D01*
X155772500Y-58460000D02*
X153952500Y-58460000D01*
X153412500Y-55390000D02*
X153172500Y-55060000D01*
X153652500Y-55060000D01*
X153412500Y-55390000D01*
G36*
X153412500Y-55390000D02*
G01*
X153172500Y-55060000D01*
X153652500Y-55060000D01*
X153412500Y-55390000D01*
G37*
X152000000Y-74130000D02*
X152000000Y-75080000D01*
X152000000Y-79870000D02*
X152000000Y-78920000D01*
X151080000Y-75080000D02*
X152920000Y-75080000D01*
X152920000Y-78920000D01*
X151080000Y-78920000D01*
X151080000Y-75080000D01*
X142330000Y-70460000D02*
X142330000Y-68810000D01*
X142330000Y-66810000D02*
X142330000Y-65160000D01*
X142330000Y-65160000D02*
X116810000Y-65160000D01*
X116810000Y-70460000D02*
X142330000Y-70460000D01*
X116810000Y-65160000D02*
X116810000Y-70460000D01*
X116750000Y-62670000D02*
X142390000Y-62670000D01*
X142390000Y-72950000D01*
X116750000Y-72950000D01*
X116750000Y-62670000D01*
X142330000Y-68810000D02*
G75*
G02*
X142330000Y-66810000I0J1000000D01*
G01*
X146952500Y-55390000D02*
X148772500Y-55390000D01*
X146952500Y-55440000D02*
X146952500Y-55390000D01*
X146952500Y-58510000D02*
X146952500Y-58460000D01*
X148772500Y-55390000D02*
X148772500Y-55440000D01*
X148772500Y-58460000D02*
X148772500Y-58510000D01*
X148772500Y-58510000D02*
X146952500Y-58510000D01*
X146412500Y-55440000D02*
X146172500Y-55110000D01*
X146652500Y-55110000D01*
X146412500Y-55440000D01*
G36*
X146412500Y-55440000D02*
G01*
X146172500Y-55110000D01*
X146652500Y-55110000D01*
X146412500Y-55440000D01*
G37*
X107090000Y-77186252D02*
X107090000Y-75763748D01*
X108910000Y-77186252D02*
X108910000Y-75763748D01*
X158000000Y-74940000D02*
X158000000Y-75890000D01*
X158000000Y-80680000D02*
X158000000Y-79730000D01*
X157080000Y-75890000D02*
X158920000Y-75890000D01*
X158920000Y-79730000D01*
X157080000Y-79730000D01*
X157080000Y-75890000D01*
X146380000Y-92780000D02*
X157240000Y-92780000D01*
X146380000Y-93300000D02*
X157240000Y-93300000D01*
X146380000Y-98600000D02*
X157240000Y-98600000D01*
X146380000Y-99220000D02*
X146380000Y-92780000D01*
X147700000Y-99220000D02*
X146380000Y-99220000D01*
X157240000Y-92780000D02*
X157240000Y-99220000D01*
X157240000Y-99220000D02*
X148300000Y-99220000D01*
X148000000Y-99220000D02*
X148440000Y-99830000D01*
X147560000Y-99830000D01*
X148000000Y-99220000D01*
G36*
X148440000Y-99830000D02*
G01*
X147560000Y-99830000D01*
X148000000Y-99220000D01*
X148440000Y-99830000D01*
G37*
X155000000Y-74130000D02*
X155000000Y-75080000D01*
X155000000Y-79870000D02*
X155000000Y-78920000D01*
X154080000Y-75080000D02*
X155920000Y-75080000D01*
X155920000Y-78920000D01*
X154080000Y-78920000D01*
X154080000Y-75080000D01*
X109390000Y-55390000D02*
X112610000Y-55390000D01*
X109390000Y-55590000D02*
X109390000Y-55390000D01*
X109390000Y-58610000D02*
X109390000Y-58410000D01*
X112610000Y-55390000D02*
X112610000Y-55590000D01*
X112610000Y-58410000D02*
X112610000Y-58610000D01*
X112610000Y-58610000D02*
X109390000Y-58610000D01*
X108840000Y-55590000D02*
X108600000Y-55260000D01*
X109080000Y-55260000D01*
X108840000Y-55590000D01*
G36*
X108840000Y-55590000D02*
G01*
X108600000Y-55260000D01*
X109080000Y-55260000D01*
X108840000Y-55590000D01*
G37*
X157000000Y-63130000D02*
X157000000Y-64080000D01*
X157000000Y-68870000D02*
X157000000Y-67920000D01*
X156080000Y-64080000D02*
X157920000Y-64080000D01*
X157920000Y-67920000D01*
X156080000Y-67920000D01*
X156080000Y-64080000D01*
X161302500Y-55390000D02*
X162822500Y-55390000D01*
X161302500Y-55440000D02*
X161302500Y-55390000D01*
X161302500Y-57340000D02*
X161302500Y-56560000D01*
X161302500Y-58510000D02*
X161302500Y-58460000D01*
X162822500Y-55390000D02*
X162822500Y-56390000D01*
X162822500Y-57510000D02*
X162822500Y-58510000D01*
X162822500Y-58510000D02*
X161302500Y-58510000D01*
X160762500Y-56570000D02*
X161002500Y-56900000D01*
X160522500Y-56900000D01*
X160762500Y-56570000D01*
G36*
X161002500Y-56900000D02*
G01*
X160522500Y-56900000D01*
X160762500Y-56570000D01*
X161002500Y-56900000D01*
G37*
X100430000Y-66690000D02*
X110650000Y-66690000D01*
X100430000Y-68070000D02*
X110650000Y-68070000D01*
X100430000Y-71310000D02*
X100430000Y-66690000D01*
X103690000Y-66690000D02*
X103690000Y-68070000D01*
X107390000Y-66690000D02*
X107390000Y-68070000D01*
X110650000Y-66690000D02*
X110650000Y-71310000D01*
X110650000Y-71310000D02*
X100430000Y-71310000D01*
X101090000Y-77711252D02*
X101090000Y-76288748D01*
X102910000Y-77711252D02*
X102910000Y-76288748D01*
X86200000Y-50400000D02*
X100900000Y-50400000D01*
X86200000Y-59600000D02*
X86200000Y-50400000D01*
X95000000Y-59600000D02*
X86200000Y-59600000D01*
X100050000Y-50200000D02*
X101100000Y-50200000D01*
X100900000Y-50400000D02*
X100900000Y-53000000D01*
X100900000Y-56900000D02*
X100900000Y-59600000D01*
X100900000Y-59600000D02*
X99000000Y-59600000D01*
X101100000Y-51250000D02*
X101100000Y-50200000D01*
M02*
